<svg width="20" height="20" viewBox="0 0 20 20" fill="none" xmlns="http://www.w3.org/2000/svg">
<path fill-rule="evenodd" clip-rule="evenodd" d="M10.7183 3.0839C11.1465 2.6463 11.8495 2.64246 12.2824 3.07536L17.9292 8.72217C18.3588 9.15174 18.3588 9.84823 17.9292 10.2778L11.7071 16.5L17.9999 16.5C18.2761 16.5 18.4999 16.7238 18.4999 17C18.4999 17.2761 18.2761 17.5 17.9999 17.5L6.05651 17.5L2.06474 13.5107C1.63947 13.0857 1.63422 12.398 2.05295 11.9666L5.18706 8.73732L10.7183 3.0839ZM10.2928 16.5L11.2917 15.5012L5.55094 9.79822L2.77055 12.663C2.73248 12.7022 2.73296 12.7648 2.77162 12.8034L6.47054 16.5H10.2928ZM11.9988 14.794L17.2221 9.5707C17.2612 9.53165 17.2612 9.46833 17.2221 9.42928L11.5753 3.78246C11.536 3.74311 11.472 3.74346 11.4331 3.78324L6.24887 9.08198L11.9988 14.794Z" fill="#3F465C"/>
</svg>
