<svg width="20" height="20" viewBox="0 0 20 20" fill="none" xmlns="http://www.w3.org/2000/svg">
<path d="M2.5 10H17.5" stroke="#3F465C" stroke-linecap="round"/>
<path d="M10 14V17.5" stroke="#3F465C" stroke-linecap="round"/>
<path d="M7.98286 14.5C7.80468 14.5 7.71545 14.2846 7.84145 14.1586L9.85875 12.1414C9.93686 12.0633 10.0635 12.0633 10.1416 12.1414L12.1586 14.1586C12.2846 14.2846 12.1954 14.5 12.0172 14.5H7.98286Z" fill="#3F465C"/>
<path d="M10 6V2.5" stroke="#3F465C" stroke-linecap="round"/>
<path d="M7.98286 5.5C7.80468 5.5 7.71545 5.71544 7.84145 5.84143L9.85875 7.85858C9.93686 7.93669 10.0635 7.93668 10.1416 7.85857L12.1586 5.84142C12.2846 5.71542 12.1954 5.5 12.0172 5.5L7.98286 5.5Z" fill="#3F465C"/>
</svg>
