<svg width="16" height="16" viewBox="0 0 16 16" fill="none" xmlns="http://www.w3.org/2000/svg">
<g clip-path="url(#clip0_1_3212)">
<rect width="16" height="16" fill="white"/>
<path d="M7.80082 2.08651C7.92787 2.03133 8.07213 2.03133 8.19918 2.08651L15.0711 5.07107L8.19918 8.05563C8.07213 8.11081 7.92787 8.11081 7.80082 8.05563L0.928932 5.07107L7.80082 2.08651Z" stroke="#3F465C" stroke-linejoin="round"/>
<path fill-rule="evenodd" clip-rule="evenodd" d="M3.54653 6.38892L0.72965 7.61233C0.546999 7.69165 0.428833 7.87181 0.428833 8.07094C0.428833 8.27007 0.546999 8.45023 0.729651 8.52955L7.60154 11.5141C7.85565 11.6245 8.14416 11.6245 8.39827 11.5141L15.2702 8.52955C15.4528 8.45023 15.571 8.27007 15.571 8.07094C15.571 7.87181 15.4528 7.69165 15.2702 7.61233L12.4534 6.38896L11.1983 6.93408L13.8158 8.07094L7.9999 10.5969L2.18396 8.07094L4.80166 6.93404L3.54653 6.38892Z" fill="#3F465C"/>
<path fill-rule="evenodd" clip-rule="evenodd" d="M4.15734 9.12384L0.72965 10.6125C0.546999 10.6919 0.428833 10.872 0.428833 11.0711C0.428833 11.2703 0.546999 11.4504 0.729651 11.5298L7.60154 14.5143C7.85565 14.6247 8.14416 14.6247 8.39827 14.5143L15.2702 11.5298C15.4528 11.4504 15.571 11.2703 15.571 11.0711C15.571 10.872 15.4528 10.6919 15.2702 10.6125L11.8426 9.12389L10.5875 9.66901L13.8158 11.0711L7.9999 13.5971L2.18396 11.0711L5.41247 9.66896L4.15734 9.12384Z" fill="#3F465C"/>
</g>
<defs>
<clipPath id="clip0_1_3212">
<rect width="16" height="16" fill="white"/>
</clipPath>
</defs>
</svg>
