<svg width="20" height="20" viewBox="0 0 20 20" fill="none" xmlns="http://www.w3.org/2000/svg">
<path d="M6 4.5H17.5M6 10H17.5M6 15.5H17.5" stroke="#3F465C" stroke-linecap="round"/>
<path d="M3.37695 6H3.02539V3.75977C2.94076 3.84049 2.82943 3.92122 2.69141 4.00195C2.55469 4.08268 2.43164 4.14323 2.32227 4.18359V3.84375C2.51888 3.7513 2.69076 3.63932 2.83789 3.50781C2.98503 3.3763 3.08919 3.2487 3.15039 3.125H3.37695V6Z" fill="#394259"/>
<path d="M3.37695 6V6.2H3.57695V6H3.37695ZM3.02539 6H2.82539V6.2H3.02539V6ZM3.02539 3.75977H3.22539V3.2926L2.88735 3.61504L3.02539 3.75977ZM2.69141 4.00195L2.59043 3.82931L2.58972 3.82974L2.69141 4.00195ZM2.32227 4.18359H2.12227V4.47059L2.39151 4.37122L2.32227 4.18359ZM2.32227 3.84375L2.23716 3.66276L2.12227 3.71678V3.84375H2.32227ZM3.15039 3.125V2.925H3.0262L2.97113 3.03631L3.15039 3.125ZM3.37695 3.125H3.57695V2.925H3.37695V3.125ZM3.37695 5.8H3.02539V6.2H3.37695V5.8ZM3.22539 6V3.75977H2.82539V6H3.22539ZM2.88735 3.61504C2.81719 3.68197 2.71958 3.75378 2.59043 3.82932L2.79238 4.17459C2.93928 4.08867 3.06432 3.99902 3.16343 3.90449L2.88735 3.61504ZM2.58972 3.82974C2.4599 3.90639 2.34794 3.96093 2.25302 3.99596L2.39151 4.37122C2.51534 4.32552 2.64948 4.25898 2.7931 4.17417L2.58972 3.82974ZM2.52227 4.18359V3.84375H2.12227V4.18359H2.52227ZM2.40737 4.02474C2.61975 3.92488 2.80823 3.80257 2.97117 3.65693L2.70461 3.3587C2.57328 3.47608 2.41801 3.57772 2.23716 3.66276L2.40737 4.02474ZM2.97117 3.65693C3.12982 3.51513 3.25337 3.36787 3.32965 3.21369L2.97113 3.03631C2.92501 3.12953 2.84024 3.23747 2.70461 3.3587L2.97117 3.65693ZM3.15039 3.325H3.37695V2.925H3.15039V3.325ZM3.17695 3.125V6H3.57695V3.125H3.17695Z" fill="#394259"/>
<path d="M3.90039 11.1621V11.5H2.00781C2.00521 11.4154 2.01888 11.334 2.04883 11.2559C2.09701 11.127 2.17383 11 2.2793 10.875C2.38607 10.75 2.53971 10.6055 2.74023 10.4414C3.05143 10.1862 3.26172 9.98438 3.37109 9.83594C3.48047 9.6862 3.53516 9.54492 3.53516 9.41211C3.53516 9.27279 3.48503 9.1556 3.38477 9.06055C3.28581 8.96419 3.15625 8.91602 2.99609 8.91602C2.82682 8.91602 2.69141 8.9668 2.58984 9.06836C2.48828 9.16992 2.43685 9.31055 2.43555 9.49023L2.07422 9.45312C2.09896 9.18359 2.19206 8.97852 2.35352 8.83789C2.51497 8.69596 2.73177 8.625 3.00391 8.625C3.27865 8.625 3.49609 8.70117 3.65625 8.85352C3.81641 9.00586 3.89648 9.19466 3.89648 9.41992C3.89648 9.53451 3.87305 9.64714 3.82617 9.75781C3.7793 9.86849 3.70117 9.98503 3.5918 10.1074C3.48372 10.2298 3.30339 10.3978 3.05078 10.6113C2.83984 10.7884 2.70443 10.9089 2.64453 10.9727C2.58464 11.0352 2.53516 11.0983 2.49609 11.1621H3.90039Z" fill="#394259"/>
<path d="M3.90039 11.1621H4.10039V10.9621H3.90039V11.1621ZM3.90039 11.5V11.7H4.10039V11.5H3.90039ZM2.00781 11.5L1.80791 11.5062L1.81387 11.7H2.00781V11.5ZM2.04883 11.2559L2.23558 11.3274L2.23617 11.3259L2.04883 11.2559ZM2.2793 10.875L2.12722 10.7451L2.12644 10.746L2.2793 10.875ZM2.74023 10.4414L2.86688 10.5962L2.86706 10.5961L2.74023 10.4414ZM3.37109 9.83594L3.53211 9.95458L3.5326 9.95391L3.37109 9.83594ZM3.38477 9.06055L3.24523 9.20385L3.24716 9.20569L3.38477 9.06055ZM2.43555 9.49023L2.41511 9.68919L2.63395 9.71166L2.63554 9.49168L2.43555 9.49023ZM2.07422 9.45312L1.87506 9.43484L1.85697 9.63187L2.05379 9.65208L2.07422 9.45312ZM2.35352 8.83789L2.48487 8.98871L2.48556 8.98811L2.35352 8.83789ZM3.5918 10.1074L3.44266 9.97415L3.44188 9.97504L3.5918 10.1074ZM3.05078 10.6113L3.17938 10.7645L3.1799 10.7641L3.05078 10.6113ZM2.64453 10.9727L2.78894 11.111L2.79035 11.1095L2.64453 10.9727ZM2.49609 11.1621L2.32552 11.0577L2.13914 11.3621H2.49609V11.1621ZM3.70039 11.1621V11.5H4.10039V11.1621H3.70039ZM3.90039 11.3H2.00781V11.7H3.90039V11.3ZM2.20772 11.4938C2.20592 11.4354 2.21525 11.3805 2.23558 11.3274L1.86208 11.1843C1.82251 11.2875 1.8045 11.3953 1.80791 11.5062L2.20772 11.4938ZM2.23617 11.3259C2.27497 11.2221 2.33876 11.1147 2.43216 11.004L2.12644 10.746C2.0089 10.8853 1.91904 11.0318 1.86148 11.1858L2.23617 11.3259ZM2.43137 11.0049C2.52734 10.8925 2.67096 10.7565 2.86688 10.5962L2.61359 10.2866C2.40847 10.4544 2.2448 10.6075 2.12722 10.7451L2.43137 11.0049ZM2.86706 10.5961C3.17966 10.3397 3.40685 10.1246 3.5321 9.95458L3.21008 9.7173C3.11659 9.84418 2.9232 10.0327 2.61341 10.2868L2.86706 10.5961ZM3.5326 9.95391C3.65734 9.78313 3.73516 9.6012 3.73516 9.41211H3.33516C3.33516 9.48865 3.3036 9.58926 3.20959 9.71797L3.5326 9.95391ZM3.73516 9.41211C3.73516 9.21842 3.66284 9.04859 3.52237 8.91541L3.24716 9.20569C3.30721 9.26261 3.33516 9.32715 3.33516 9.41211H3.73516ZM3.52429 8.91725C3.38203 8.77873 3.19941 8.71602 2.99609 8.71602V9.11602C3.11309 9.11602 3.18959 9.14965 3.24524 9.20384L3.52429 8.91725ZM2.99609 8.71602C2.78397 8.71602 2.59413 8.78123 2.44842 8.92694L2.73127 9.20978C2.78868 9.15237 2.86967 9.11602 2.99609 9.11602V8.71602ZM2.44842 8.92694C2.30092 9.07444 2.23713 9.27046 2.23555 9.48879L2.63554 9.49168C2.63656 9.35064 2.67564 9.2654 2.73127 9.20978L2.44842 8.92694ZM2.45598 9.29128L2.09465 9.25417L2.05379 9.65208L2.41511 9.68919L2.45598 9.29128ZM2.27338 9.47141C2.29471 9.23898 2.37176 9.08722 2.48487 8.98871L2.22216 8.68707C2.01235 8.86981 1.9032 9.1282 1.87506 9.43484L2.27338 9.47141ZM2.48556 8.98811C2.60161 8.8861 2.76704 8.825 3.00391 8.825V8.425C2.69651 8.425 2.42834 8.50583 2.22147 8.68768L2.48556 8.98811ZM3.00391 8.825C3.24042 8.825 3.40394 8.88955 3.51841 8.99843L3.79409 8.7086C3.58825 8.5128 3.31687 8.425 3.00391 8.425V8.825ZM3.51841 8.99843C3.63803 9.11221 3.69648 9.24826 3.69648 9.41992H4.09648C4.09648 9.14107 3.99479 8.89951 3.79409 8.7086L3.51841 8.99843ZM3.69648 9.41992C3.69648 9.5064 3.67895 9.59258 3.64201 9.67981L4.01034 9.83581C4.06714 9.70169 4.09648 9.56261 4.09648 9.41992H3.69648ZM3.64201 9.67981C3.60619 9.76439 3.54238 9.86257 3.44267 9.97416L3.74093 10.2407C3.85996 10.1075 3.9524 9.97259 4.01034 9.83581L3.64201 9.67981ZM3.44188 9.97504C3.34387 10.086 3.17275 10.2463 2.92166 10.4586L3.1799 10.7641C3.43402 10.5492 3.62358 10.3736 3.74172 10.2398L3.44188 9.97504ZM2.92219 10.4581C2.71311 10.6337 2.56819 10.7618 2.49872 10.8358L2.79035 11.1095C2.84067 11.0559 2.96658 10.9431 3.17938 10.7645L2.92219 10.4581ZM2.50013 10.8343C2.43183 10.9055 2.37313 10.9799 2.32552 11.0577L2.66666 11.2665C2.69718 11.2167 2.73744 11.1648 2.78893 11.111L2.50013 10.8343ZM2.49609 11.3621H3.90039V10.9621H2.49609V11.3621Z" fill="#394259"/>
<path d="M2.05469 16.2441L2.40625 16.1973C2.44661 16.3965 2.51497 16.5404 2.61133 16.6289C2.70898 16.7161 2.82747 16.7598 2.9668 16.7598C3.13216 16.7598 3.27148 16.7025 3.38477 16.5879C3.49935 16.4733 3.55664 16.3314 3.55664 16.1621C3.55664 16.0007 3.50391 15.8678 3.39844 15.7637C3.29297 15.6582 3.15885 15.6055 2.99609 15.6055C2.92969 15.6055 2.84701 15.6185 2.74805 15.6445L2.78711 15.3359C2.81055 15.3385 2.82943 15.3398 2.84375 15.3398C2.99349 15.3398 3.12826 15.3008 3.24805 15.2227C3.36784 15.1445 3.42773 15.0241 3.42773 14.8613C3.42773 14.7324 3.38411 14.6257 3.29688 14.541C3.20964 14.4564 3.09701 14.4141 2.95898 14.4141C2.82227 14.4141 2.70833 14.457 2.61719 14.543C2.52604 14.6289 2.46745 14.7578 2.44141 14.9297L2.08984 14.8672C2.13281 14.6315 2.23047 14.4492 2.38281 14.3203C2.53516 14.1901 2.72461 14.125 2.95117 14.125C3.10742 14.125 3.2513 14.1589 3.38281 14.2266C3.51432 14.293 3.61458 14.3841 3.68359 14.5C3.75391 14.6159 3.78906 14.7389 3.78906 14.8691C3.78906 14.9928 3.75586 15.1055 3.68945 15.207C3.62305 15.3086 3.52474 15.3893 3.39453 15.4492C3.5638 15.4883 3.69531 15.5697 3.78906 15.6934C3.88281 15.8158 3.92969 15.9694 3.92969 16.1543C3.92969 16.4043 3.83854 16.6165 3.65625 16.791C3.47396 16.9642 3.24349 17.0508 2.96484 17.0508C2.71354 17.0508 2.50456 16.9759 2.33789 16.8262C2.17253 16.6764 2.07812 16.4824 2.05469 16.2441Z" fill="#394259"/>
<path d="M2.05469 16.2441L2.02825 16.0459L1.83673 16.0714L1.85565 16.2637L2.05469 16.2441ZM2.40625 16.1973L2.60227 16.1575L2.56514 15.9743L2.37982 15.999L2.40625 16.1973ZM2.61133 16.6289L2.47599 16.7762L2.47809 16.7781L2.61133 16.6289ZM3.38477 16.5879L3.24334 16.4465L3.24254 16.4473L3.38477 16.5879ZM3.39844 15.7637L3.25701 15.9051L3.2579 15.906L3.39844 15.7637ZM2.74805 15.6445L2.54963 15.6194L2.51242 15.9133L2.79895 15.8379L2.74805 15.6445ZM2.78711 15.3359L2.8092 15.1372L2.61343 15.1154L2.58869 15.3108L2.78711 15.3359ZM2.44141 14.9297L2.4064 15.1266L2.60841 15.1625L2.63915 14.9596L2.44141 14.9297ZM2.08984 14.8672L1.89309 14.8313L1.85706 15.0289L2.05484 15.0641L2.08984 14.8672ZM2.38281 14.3203L2.512 14.473L2.51276 14.4723L2.38281 14.3203ZM3.38281 14.2266L3.29126 14.4044L3.29266 14.4051L3.38281 14.2266ZM3.68359 14.5L3.51175 14.6023L3.51261 14.6037L3.68359 14.5ZM3.39453 15.4492L3.31095 15.2675L2.77869 15.5124L3.34956 15.6441L3.39453 15.4492ZM3.78906 15.6934L3.62967 15.8142L3.63029 15.815L3.78906 15.6934ZM3.65625 16.791L3.794 16.936L3.79454 16.9355L3.65625 16.791ZM2.33789 16.8262L2.20365 16.9744L2.20423 16.9749L2.33789 16.8262ZM2.08112 16.4424L2.43268 16.3955L2.37982 15.999L2.02825 16.0459L2.08112 16.4424ZM2.21023 16.237C2.25465 16.4562 2.33566 16.6472 2.476 16.7762L2.74665 16.4816C2.69429 16.4335 2.63858 16.3368 2.60227 16.1575L2.21023 16.237ZM2.47809 16.7781C2.61488 16.9003 2.78175 16.9598 2.9668 16.9598V16.5598C2.8732 16.5598 2.80309 16.532 2.74457 16.4798L2.47809 16.7781ZM2.9668 16.9598C3.18402 16.9598 3.37505 16.8822 3.52699 16.7285L3.24254 16.4473C3.16792 16.5228 3.0803 16.5598 2.9668 16.5598V16.9598ZM3.52619 16.7293C3.6801 16.5754 3.75664 16.3818 3.75664 16.1621H3.35664C3.35664 16.281 3.3186 16.3712 3.24334 16.4465L3.52619 16.7293ZM3.75664 16.1621C3.75664 15.9524 3.68608 15.7667 3.53898 15.6214L3.2579 15.906C3.32173 15.969 3.35664 16.0489 3.35664 16.1621H3.75664ZM3.53986 15.6223C3.39328 15.4757 3.20657 15.4055 2.99609 15.4055V15.8055C3.11114 15.8055 3.19266 15.8407 3.25702 15.9051L3.53986 15.6223ZM2.99609 15.4055C2.90589 15.4055 2.8048 15.4228 2.69715 15.4511L2.79895 15.8379C2.88921 15.8142 2.95348 15.8055 2.99609 15.8055V15.4055ZM2.94646 15.6696L2.98553 15.3611L2.58869 15.3108L2.54963 15.6194L2.94646 15.6696ZM2.76502 15.5347C2.79177 15.5377 2.81888 15.5398 2.84375 15.5398V15.1398C2.83998 15.1398 2.82933 15.1394 2.8092 15.1372L2.76502 15.5347ZM2.84375 15.5398C3.03037 15.5398 3.20344 15.4905 3.3573 15.3902L3.13879 15.0551C3.05307 15.111 2.95661 15.1398 2.84375 15.1398V15.5398ZM3.3573 15.3902C3.5423 15.2695 3.62773 15.0807 3.62773 14.8613H3.22773C3.22773 14.9674 3.19338 15.0195 3.13879 15.0551L3.3573 15.3902ZM3.62773 14.8613C3.62773 14.682 3.56475 14.5222 3.43614 14.3975L3.15761 14.6846C3.20348 14.7291 3.22773 14.7829 3.22773 14.8613H3.62773ZM3.43614 14.3975C3.30644 14.2716 3.14136 14.2141 2.95898 14.2141V14.6141C3.05265 14.6141 3.11283 14.6411 3.15761 14.6846L3.43614 14.3975ZM2.95898 14.2141C2.77634 14.2141 2.61179 14.2732 2.47998 14.3975L2.75439 14.6885C2.80488 14.6409 2.86819 14.6141 2.95898 14.6141V14.2141ZM2.47998 14.3975C2.34576 14.524 2.27385 14.7005 2.24366 14.8997L2.63915 14.9596C2.66105 14.8151 2.70632 14.7338 2.75439 14.6885L2.47998 14.3975ZM2.47641 14.7328L2.12485 14.6703L2.05484 15.0641L2.4064 15.1266L2.47641 14.7328ZM2.2866 14.9031C2.32299 14.7035 2.40176 14.5663 2.512 14.473L2.25362 14.1676C2.05917 14.3322 1.94263 14.5596 1.89309 14.8313L2.2866 14.9031ZM2.51276 14.4723C2.62415 14.3771 2.76563 14.325 2.95117 14.325V13.925C2.68359 13.925 2.44617 14.0031 2.25287 14.1683L2.51276 14.4723ZM2.95117 14.325C3.07742 14.325 3.18967 14.3521 3.29126 14.4044L3.47436 14.0487C3.31294 13.9656 3.13742 13.925 2.95117 13.925V14.325ZM3.29266 14.4051C3.39351 14.456 3.46397 14.5221 3.51176 14.6023L3.85543 14.3977C3.7652 14.2461 3.63514 14.1299 3.47296 14.048L3.29266 14.4051ZM3.51261 14.6037C3.56476 14.6897 3.58906 14.7771 3.58906 14.8691H3.98906C3.98906 14.7008 3.94306 14.5421 3.85458 14.3963L3.51261 14.6037ZM3.58906 14.8691C3.58906 14.9548 3.56676 15.0292 3.52206 15.0976L3.85685 15.3165C3.94496 15.1817 3.98906 15.0309 3.98906 14.8691H3.58906ZM3.52206 15.0976C3.47972 15.1623 3.41326 15.2205 3.31095 15.2675L3.47811 15.6309C3.63622 15.5582 3.76638 15.4548 3.85685 15.3165L3.52206 15.0976ZM3.34956 15.6441C3.47899 15.674 3.5676 15.7323 3.62967 15.8142L3.94846 15.5726C3.82302 15.407 3.64862 15.3026 3.4395 15.2543L3.34956 15.6441ZM3.63029 15.815C3.69228 15.8959 3.72969 16.0043 3.72969 16.1543H4.12969C4.12969 15.9345 4.07334 15.7356 3.94784 15.5717L3.63029 15.815ZM3.72969 16.1543C3.72969 16.3492 3.66125 16.5094 3.51796 16.6465L3.79454 16.9355C4.01583 16.7237 4.12969 16.4594 4.12969 16.1543H3.72969ZM3.5185 16.646C3.37753 16.7799 3.19826 16.8508 2.96484 16.8508V17.2508C3.28872 17.2508 3.57038 17.1485 3.794 16.936L3.5185 16.646ZM2.96484 16.8508C2.75644 16.8508 2.59698 16.7901 2.47156 16.6774L2.20423 16.9749C2.41213 17.1617 2.67064 17.2508 2.96484 17.2508V16.8508ZM2.47213 16.6779C2.34644 16.5641 2.27269 16.4173 2.25373 16.2246L1.85565 16.2637C1.88356 16.5475 1.99861 16.7888 2.20365 16.9744L2.47213 16.6779Z" fill="#394259"/>
</svg>
