<svg width="16" height="16" viewBox="0 0 16 16" fill="none" xmlns="http://www.w3.org/2000/svg">
<path fill-rule="evenodd" clip-rule="evenodd" d="M2.5 15C2.77614 15 3 14.7761 3 14.5V9.21072L4.20946 9.02967C5.34731 8.85934 6.50873 8.94212 7.61092 9.27211C8.79423 9.62638 10.0388 9.72822 11.2639 9.57101L13.4336 9.29262C13.7575 9.25107 14 8.9754 14 8.64892V2.14878C14 1.7632 13.6434 1.47651 13.2668 1.55934L11.1163 2.03238C10.0581 2.26513 8.95432 2.17139 7.9506 1.76356C6.68969 1.25123 5.29759 1.1573 3.97928 1.49561L2.67444 1.83046C2.27753 1.93232 2 2.29006 2 2.69984V14.5C2 14.7761 2.22386 15 2.5 15ZM7.89773 8.31412C6.65463 7.94194 5.34473 7.84858 4.06141 8.04069L3 8.19958V2.77932L4.22785 2.46422C5.33868 2.17916 6.5117 2.2583 7.57417 2.69001C8.76535 3.17401 10.0753 3.28525 11.3311 3.00904L13 2.64194V8.34006L11.1367 8.57915C10.0504 8.71853 8.94691 8.62824 7.89773 8.31412Z" fill="#3F465C"/>
</svg>
