<svg width="20" height="20" viewBox="0 0 20 20" fill="none" xmlns="http://www.w3.org/2000/svg">
<path fill-rule="evenodd" clip-rule="evenodd" d="M3.5 3.6C3.5 3.54477 3.54477 3.5 3.6 3.5H13.2C13.2552 3.5 13.3 3.54477 13.3 3.6V7.40006C13.3 7.45529 13.2552 7.50006 13.2 7.50006H3.6C3.54477 7.50006 3.5 7.45529 3.5 7.40006V3.6ZM3.6 2.5C2.99249 2.5 2.5 2.99249 2.5 3.6V7.40006C2.5 8.00757 2.99249 8.50006 3.6 8.50006H13.2C13.8075 8.50006 14.3 8.00757 14.3 7.40006V5.91626H16.3998C16.455 5.91626 16.4998 5.96103 16.4998 6.01626V10.7765C16.4998 10.8249 16.4652 10.8663 16.4176 10.8749L7.9035 12.4187C7.38022 12.5136 6.99976 12.9693 6.99976 13.5011V17.5C6.99976 17.7761 7.22361 18 7.49976 18C7.7759 18 7.99976 17.7761 7.99976 17.5V13.5011C7.99976 13.4527 8.03434 13.4113 8.08191 13.4027L16.596 11.8589C17.1193 11.764 17.4998 11.3083 17.4998 10.7765V6.01626C17.4998 5.40875 17.0073 4.91626 16.3998 4.91626H14.3V3.6C14.3 2.99249 13.8075 2.5 13.2 2.5H3.6Z" fill="#4E5969"/>
</svg>
