<svg width="16" height="16" viewBox="0 0 16 16" fill="none" xmlns="http://www.w3.org/2000/svg">
<path fill-rule="evenodd" clip-rule="evenodd" d="M3.39636 0.695139C3.22799 0.476262 2.91407 0.435315 2.69519 0.603682C2.47631 0.772049 2.43537 1.08597 2.60373 1.30485L2.95303 1.75893L2.67444 1.83042C2.27753 1.93228 2 2.29002 2 2.6998V8.77996V14.5C2 14.7761 2.22386 15 2.5 15C2.77614 15 3 14.7761 3 14.5V9.21068L4.20946 9.02963C5.34731 8.8593 6.50873 8.94207 7.61092 9.27206C8.05214 9.40416 8.50188 9.50117 8.95595 9.56273L12.6037 14.3048C12.7721 14.5237 13.086 14.5647 13.3049 14.3963C13.5238 14.2279 13.5647 13.914 13.3964 13.6951L3.39636 0.695139ZM8.02354 8.3506L3.61626 2.62113L3 2.77928V8.19954L4.06141 8.04065C5.34473 7.84854 6.65463 7.9419 7.89773 8.31408C7.93958 8.32661 7.98152 8.33878 8.02354 8.3506ZM11.2639 9.57097L11.2275 9.57556L10.5035 8.63431C10.7148 8.62451 10.9261 8.60612 11.1367 8.5791L13 8.34001V2.64189L11.3311 3.00899C10.0753 3.28521 8.76535 3.17397 7.57417 2.68997C6.9519 2.43713 6.29172 2.30522 5.62832 2.29659L4.88619 1.33182C5.92293 1.22148 6.97596 1.3675 7.9506 1.76352C8.95432 2.17135 10.0581 2.26509 11.1163 2.03234L13.2366 1.56595C13.6287 1.4797 14 1.77822 14 2.1797V8.61741C14 8.96189 13.7441 9.25274 13.4024 9.29658L11.2639 9.57097Z" fill="#3F465C"/>
</svg>
