<svg width="20" height="20" viewBox="0 0 20 20" fill="none" xmlns="http://www.w3.org/2000/svg">
<path d="M5.99976 4H17.5M5.99995 10H17.5M5.99995 16H17.5" stroke="#3F465C" stroke-linecap="round"/>
<path d="M3.5 4C3.5 4.41421 3.16421 4.75 2.75 4.75C2.33579 4.75 2 4.41421 2 4C2 3.58579 2.33579 3.25 2.75 3.25C3.16421 3.25 3.5 3.58579 3.5 4Z" fill="#3F465C"/>
<path d="M3.5 15.9999C3.5 16.4142 3.16421 16.7499 2.75 16.7499C2.33579 16.7499 2 16.4142 2 15.9999C2 15.5857 2.33579 15.2499 2.75 15.2499C3.16421 15.2499 3.5 15.5857 3.5 15.9999Z" fill="#3F465C"/>
<path d="M3.5 10C3.5 10.4142 3.16421 10.75 2.75 10.75C2.33579 10.75 2 10.4142 2 10C2 9.58579 2.33579 9.25 2.75 9.25C3.16421 9.25 3.5 9.58579 3.5 10Z" fill="#3F465C"/>
</svg>
