<svg width="16" height="16" viewBox="0 0 16 16" fill="none" xmlns="http://www.w3.org/2000/svg">
<path d="M14.5 13.5L14.114 13.8177C14.254 13.9879 14.489 14.0463 14.6925 13.9615C14.8959 13.8767 15.0198 13.6686 14.9975 13.4493L14.5 13.5ZM6.50005 10.2L6.41961 9.70651L6.00005 9.7749V10.2H6.50005ZM6.50005 13.5L6.13673 13.8435C6.27741 13.9923 6.49462 14.0403 6.6849 13.9646C6.87517 13.8889 7.00005 13.7048 7.00005 13.5H6.50005ZM1.30005 8L0.936725 7.65649C0.75449 7.84924 0.75449 8.15076 0.936725 8.34351L1.30005 8ZM6.50005 2.5H7.00005C7.00005 2.29522 6.87517 2.11113 6.6849 2.03542C6.49462 1.95972 6.27741 2.00769 6.13673 2.15649L6.50005 2.5ZM6.50005 5.8H6.00005V6.29608L6.49611 6.29998L6.50005 5.8ZM12.0006 8L11.6455 8.352L11.6455 8.35201L12.0006 8ZM14.8861 13.1823C13.2608 11.2073 11.4947 10.0046 10.1036 9.71079L9.89692 10.6892C10.974 10.9167 12.5587 11.9279 14.114 13.8177L14.8861 13.1823ZM10.1036 9.71079C8.78517 9.43232 7.56667 9.51954 6.41961 9.70651L6.58049 10.6935C7.6652 10.5167 8.74707 10.4463 9.89692 10.6892L10.1036 9.71079ZM6.00005 10.2V13.5H7.00005V10.2H6.00005ZM6.86337 13.1565L1.66337 7.65649L0.936725 8.34351L6.13673 13.8435L6.86337 13.1565ZM1.66337 8.34351L6.86337 2.84351L6.13673 2.15649L0.936725 7.65649L1.66337 8.34351ZM6.00005 2.5V5.8H7.00005V2.5H6.00005ZM6.49611 6.29998C8.44711 6.31534 10.3066 7.00133 11.6455 8.352L12.3557 7.648C10.8049 6.08354 8.67951 5.31714 6.50398 5.30002L6.49611 6.29998ZM11.6455 8.35201C13.0019 9.72024 13.7916 11.4788 14.0026 13.5507L14.9975 13.4493C14.7657 11.1737 13.8892 9.19489 12.3557 7.64799L11.6455 8.35201Z" fill="#3F465C"/>
</svg>
