<svg width="20" height="20" viewBox="0 0 20 20" fill="none" xmlns="http://www.w3.org/2000/svg">
<path fill-rule="evenodd" clip-rule="evenodd" d="M4.5 3.6C4.5 2.99249 4.99249 2.5 5.6 2.5H9.86141C10.8603 2.5 11.8139 2.91339 12.5137 3.6422C13.2129 4.37031 13.6023 5.35368 13.6023 6.375C13.6023 7.39632 13.2129 8.37969 12.5137 9.1078C12.4517 9.17239 12.3877 9.2345 12.3218 9.29406C13.111 9.4184 13.8445 9.80181 14.4114 10.3922C15.1106 11.1203 15.5 12.1037 15.5 13.125C15.5 14.1463 15.1106 15.1297 14.4114 15.8578C13.7115 16.5866 12.7579 17 11.7591 17H5.6C4.99249 17 4.5 16.5075 4.5 15.9V3.6ZM5.6 3.5C5.54477 3.5 5.5 3.54477 5.5 3.6V9.25H9.86141C10.5817 9.25 11.2767 8.95223 11.7924 8.41517C12.3088 7.87741 12.6023 7.14389 12.6023 6.375C12.6023 5.60611 12.3088 4.87259 11.7924 4.33483C11.2767 3.79777 10.5817 3.5 9.86141 3.5H5.6ZM5.5 10.25V15.9C5.5 15.9552 5.54477 16 5.6 16H11.7591C12.4793 16 13.1744 15.7022 13.6901 15.1652C14.2065 14.6274 14.5 13.8939 14.5 13.125C14.5 12.3561 14.2065 11.6226 13.6901 11.0848C13.1744 10.5478 12.4793 10.25 11.7591 10.25H5.5Z" fill="#3F465C"/>
</svg>
