<svg width="20" height="20" viewBox="0 0 20 20" fill="none" xmlns="http://www.w3.org/2000/svg">
<path fill-rule="evenodd" clip-rule="evenodd" d="M2.59179 6.80793C2.47185 6.90787 2.47185 7.09209 2.59178 7.19204L4.95127 9.15828C5.1141 9.29397 5.36132 9.17818 5.36132 8.96622V7.49998H13.2784C15.6102 7.49998 17.5006 9.39033 17.5006 11.7222C17.5006 14.0541 15.6102 15.9444 13.2784 15.9444H8.35999C8.08385 15.9444 7.85999 16.1683 7.85999 16.4444C7.85999 16.7206 8.08385 16.9444 8.35999 16.9444H13.2784C16.1625 16.9444 18.5006 14.6064 18.5006 11.7222C18.5006 8.83805 16.1625 6.49998 13.2784 6.49998H5.36132L5.36132 5.03374C5.36132 4.82178 5.1141 4.70599 4.95127 4.84169L2.59179 6.80793Z" fill="#3F465C"/>
</svg>
