<svg width="20" height="20" viewBox="0 0 20 20" fill="none" xmlns="http://www.w3.org/2000/svg">
<path fill-rule="evenodd" clip-rule="evenodd" d="M17.7695 6.80793C17.8895 6.90787 17.8895 7.09209 17.7695 7.19204L15.41 9.15828C15.2472 9.29397 15 9.17818 15 8.96622V7.49998H7.08294C4.75107 7.49998 2.86072 9.39033 2.86072 11.7222C2.86072 14.0541 4.75107 15.9444 7.08294 15.9444H12C12.2761 15.9444 12.5 16.1683 12.5 16.4444C12.5 16.7206 12.2761 16.9444 12 16.9444H7.08294C4.19879 16.9444 1.86072 14.6064 1.86072 11.7222C1.86072 8.83805 4.19878 6.49998 7.08294 6.49998H15V5.03374C15 4.82178 15.2472 4.70599 15.41 4.84169L17.7695 6.80793Z" fill="#3F465C"/>
</svg>
