<svg width="16" height="16" viewBox="0 0 16 16" fill="none" xmlns="http://www.w3.org/2000/svg">
<path d="M8.2069 1.5C6.22414 1.5 4.60345 2.14825 3.32759 3.46226C2.10345 4.68868 1.5 6.21294 1.5 8.05256C1.5 10.0148 2.10345 11.5741 3.32759 12.7655C4.51724 13.9218 6.13793 14.5 8.2069 14.5C9.56897 14.5 10.7931 14.2197 11.8966 13.6765C13.0345 13.1159 13.8966 12.31 14.5 11.2588H13.2931C12.8103 11.9596 12.1724 12.5027 11.3793 12.9057C10.4828 13.3437 9.41379 13.5714 8.2069 13.5714C6.51724 13.5714 5.18966 13.0984 4.22414 12.1873C3.18966 11.2237 2.68966 9.85714 2.68966 8.0876C2.68966 6.47574 3.18966 5.12668 4.2069 4.07547C5.24138 3.00674 6.55172 2.48113 8.13793 2.48113C9.62069 2.48113 10.8276 2.91914 11.7241 3.81267C12.5517 4.63612 12.9655 5.66981 12.9655 6.91375C12.9655 8 12.6552 8.94609 12.0345 9.75202C11.5 10.4353 10.9655 10.7857 10.431 10.7857C10.1034 10.7857 9.94828 10.628 9.94828 10.3477C9.94828 10.1375 10.0172 9.78706 10.1552 9.27898L11.3793 4.7062H10.2586L10 5.68733C9.72414 4.81132 9.17241 4.37332 8.34483 4.37332C7.31035 4.37332 6.43103 4.82884 5.67241 5.77493C4.87931 6.72102 4.5 7.85984 4.5 9.15633C4.5 9.9097 4.72414 10.5404 5.17241 11.031C5.62069 11.5216 6.2069 11.7844 6.93103 11.7844C7.7931 11.7844 8.51724 11.3814 9.10345 10.593C9.17241 11.3639 9.56897 11.7493 10.2931 11.7493C11.1897 11.7493 12.0172 11.2588 12.7759 10.2951C13.5345 9.27898 13.931 8.15768 13.931 6.89623C13.931 5.38949 13.4483 4.14555 12.4828 3.1469C11.431 2.04313 10 1.5 8.2069 1.5ZM8.53448 5.47709C8.87931 5.47709 9.15517 5.61725 9.37931 5.89757C9.56896 6.12534 9.67241 6.40566 9.67241 6.72102C9.67241 6.82615 9.60345 7.10647 9.5 7.56199L9.12069 8.99865C8.98276 9.45418 8.7069 9.87466 8.2931 10.2251C7.87931 10.5755 7.44828 10.7507 7.01724 10.7507C6.58621 10.7507 6.25862 10.6105 6.03448 10.3302C5.81035 10.0499 5.7069 9.68194 5.7069 9.20889C5.7069 8.1752 6 7.29919 6.58621 6.56334C7.13793 5.82749 7.7931 5.47709 8.53448 5.47709Z" fill="#3F465C"/>
</svg>
