<svg width="20" height="20" viewBox="0 0 20 20" fill="none" xmlns="http://www.w3.org/2000/svg">
<path fill-rule="evenodd" clip-rule="evenodd" d="M6.64501 3.50455C7.48471 2.87476 8.62184 2.5 9.85665 2.5C11.0915 2.5 12.2286 2.87476 13.0683 3.50455C13.9081 4.13445 14.4743 5.04281 14.4743 6.08824C14.4743 6.36438 14.2504 6.58824 13.9743 6.58824C13.6982 6.58824 13.4743 6.36438 13.4743 6.08824C13.4743 5.42813 13.1187 4.79237 12.4683 4.30454C11.8177 3.81659 10.896 3.5 9.85665 3.5C8.81729 3.5 7.8956 3.81659 7.24502 4.30454C6.59459 4.79237 6.23901 5.42813 6.23901 6.08824C6.23901 6.32807 6.35357 6.66996 6.57279 7.0472C6.78584 7.41384 7.06377 7.75548 7.31311 7.98524C7.51619 8.17236 7.52913 8.48868 7.342 8.69175C7.15488 8.89483 6.83857 8.90777 6.63549 8.72064C6.30837 8.41922 5.96864 7.99786 5.70817 7.54963C5.45385 7.11198 5.23901 6.58711 5.23901 6.08824C5.23901 5.04281 5.80516 4.13445 6.64501 3.50455ZM14.7762 11.2432H18C18.2761 11.2432 18.5 11.0194 18.5 10.7432C18.5 10.4671 18.2761 10.2432 18 10.2432H13.3683C13.3606 10.2431 13.353 10.2431 13.3453 10.2432H2C1.72386 10.2432 1.5 10.4671 1.5 10.7432C1.5 11.0194 1.72386 11.2432 2 11.2432H13.2553C14.1251 11.6356 14.2978 12.4703 14.2978 13.0882C14.2978 14.8875 12.4952 16.5 10.0625 16.5C7.59154 16.5 5.82724 15.0628 5.82724 13.2941C5.82724 13.018 5.60338 12.7941 5.32724 12.7941C5.0511 12.7941 4.82724 13.018 4.82724 13.2941C4.82724 15.8465 7.30329 17.5 10.0625 17.5C12.8601 17.5 15.2978 15.6101 15.2978 13.0882C15.2978 12.6106 15.2097 11.8766 14.7762 11.2432Z" fill="#3F465C"/>
</svg>
