<svg width="20" height="20" viewBox="0 0 20 20" fill="none" xmlns="http://www.w3.org/2000/svg">
<path fill-rule="evenodd" clip-rule="evenodd" d="M5.5 2.5C5.77614 2.5 6 2.72386 6 3V9.5C6 11.7091 7.79086 13.5 10 13.5C12.2091 13.5 14 11.7091 14 9.5V3C14 2.72386 14.2239 2.5 14.5 2.5C14.7761 2.5 15 2.72386 15 3V9.5C15 12.2614 12.7614 14.5 10 14.5C7.23858 14.5 5 12.2614 5 9.5V3C5 2.72386 5.22386 2.5 5.5 2.5ZM4 17C4 16.7239 4.22386 16.5 4.5 16.5H15.5C15.7761 16.5 16 16.7239 16 17C16 17.2761 15.7761 17.5 15.5 17.5H4.5C4.22386 17.5 4 17.2761 4 17Z" fill="#3F465C"/>
</svg>
