<svg width="20" height="20" viewBox="0 0 20 20" fill="none" xmlns="http://www.w3.org/2000/svg">
<path d="M8 4.5L17.5 4.5M8 10H17.5M8 15.5H17.5" stroke="#3F465C" stroke-linecap="round"/>
<path d="M2.4487 15C2.27554 15 2.18421 15.2051 2.30005 15.3338L3.65107 16.8348C3.73052 16.9231 3.86895 16.9231 3.94839 16.8348L5.29922 15.3338C5.41505 15.2051 5.32371 15 5.15056 15H2.4487Z" fill="#394259"/>
<path d="M2.4487 5C2.27555 5 2.18421 4.7949 2.30005 4.6662L3.65108 3.16517C3.73053 3.0769 3.86895 3.0769 3.94839 3.16518L5.29922 4.66621C5.41505 4.79492 5.32371 5 5.15056 5L2.4487 5Z" fill="#394259"/>
<path d="M3.7998 5V15.5" stroke="#37435C"/>
</svg>
