<svg width="12" height="14" viewBox="0 0 12 14" fill="none" xmlns="http://www.w3.org/2000/svg">
<path fill-rule="evenodd" clip-rule="evenodd" d="M8 0L1 2.14577e-06C0.447715 2.14577e-06 0 0.447718 0 1V13C0 13.5523 0.447715 14 1 14H11C11.5523 14 12 13.5523 12 13V3.5L8 0Z" fill="#5E79FF"/>
<path d="M8.4 3.5H12L8 0V3.1C8 3.32092 8.17909 3.5 8.4 3.5Z" fill="#B8C4FF"/>
<path d="M2.46907 5.75261C2.43438 5.62539 2.53016 5.5 2.66203 5.5H3.44711C3.53727 5.5 3.61628 5.56033 3.64004 5.6473L5.10213 11H3.8998L2.46907 5.75261Z" fill="white"/>
<path d="M6.4998 5.5H5.30228L3.8998 11H5.10213L6.4998 5.5Z" fill="white"/>
<path d="M5.30228 5.5H6.4998L7.9998 11H6.7998L5.30228 5.5Z" fill="white"/>
<path d="M9.33634 5.74934C9.36852 5.6229 9.27298 5.5 9.14252 5.5H8.35527C8.26382 5.5 8.18401 5.56204 8.16145 5.65066L6.7998 11H7.9998L9.33634 5.74934Z" fill="white"/>
</svg>
