<svg width="16" height="16" viewBox="0 0 16 16" fill="none" xmlns="http://www.w3.org/2000/svg">
<path fill-rule="evenodd" clip-rule="evenodd" d="M6.3999 1.5C6.3999 1.22386 6.62376 1 6.8999 1H9.0999C9.37604 1 9.5999 1.22386 9.5999 1.5V11.5C9.5999 11.7761 9.37605 12 9.0999 12H6.8999C6.62376 12 6.3999 11.7761 6.3999 11.5V1.5ZM2.19995 4.5C1.92381 4.5 1.69995 4.72386 1.69995 5V11.5C1.69995 11.7761 1.92381 12 2.19995 12H4.39995C4.67609 12 4.89995 11.7761 4.89995 11.5V5C4.89995 4.72386 4.67609 4.5 4.39995 4.5H2.19995ZM11.6001 5.5C11.324 5.5 11.1001 5.72386 11.1001 6V11.5C11.1001 11.7761 11.324 12 11.6001 12H13.8001C14.0762 12 14.3001 11.7761 14.3001 11.5V6C14.3001 5.72386 14.0762 5.5 13.8001 5.5H11.6001ZM1 14.5H15V13.5H1V14.5Z" fill="#3F465C"/>
</svg>
