<svg width="16" height="16" viewBox="0 0 16 16" fill="none" xmlns="http://www.w3.org/2000/svg">
<g clip-path="url(#clip0_1_5201)">
<path d="M5 6H11" stroke="#3F465C" stroke-width="1.3" stroke-linecap="round"/>
<path d="M5 8.5H8" stroke="#3F465C" stroke-width="1.3" stroke-linecap="round"/>
<path fill-rule="evenodd" clip-rule="evenodd" d="M9.15933 11.7375L14.1091 6.78779L15.0283 7.70703L10.0786 12.6568L9.15933 12.6568L9.15933 11.7375Z" fill="#3F465C"/>
<path fill-rule="evenodd" clip-rule="evenodd" d="M3.3 13.7V2.3H12.7V6.62192L14 5.32192V2C14 1.44772 13.5523 1 13 1H3C2.44772 1 2 1.44772 2 2V14C2 14.5523 2.44772 15 3 15H13C13.5523 15 14 14.5523 14 14V10.4131L12.7 11.7131V13.7H3.3Z" fill="#3F465C"/>
</g>
<defs>
<clipPath id="clip0_1_5201">
<rect width="16" height="16" fill="white"/>
</clipPath>
</defs>
</svg>
