<svg width="16" height="16" viewBox="0 0 16 16" fill="none" xmlns="http://www.w3.org/2000/svg">
<path fill-rule="evenodd" clip-rule="evenodd" d="M4.6 8.3C4.6 9.01797 4.01797 9.6 3.3 9.6C2.58203 9.6 2 9.01797 2 8.3C2 7.58203 2.58203 7 3.3 7C4.01797 7 4.6 7.58203 4.6 8.3ZM9.29995 8.3C9.29995 9.01797 8.71792 9.6 7.99995 9.6C7.28198 9.6 6.69995 9.01797 6.69995 8.3C6.69995 7.58203 7.28198 7 7.99995 7C8.71792 7 9.29995 7.58203 9.29995 8.3ZM12.7 9.6C13.418 9.6 14 9.01797 14 8.3C14 7.58203 13.418 7 12.7 7C11.9821 7 11.4 7.58203 11.4 8.3C11.4 9.01797 11.9821 9.6 12.7 9.6Z" fill="#3F465C"/>
</svg>
