<svg width="16" height="16" viewBox="0 0 16 16" fill="none" xmlns="http://www.w3.org/2000/svg">
<rect x="3.59979" y="7" width="1.6" height="1.6" fill="#3F465C"/>
<rect x="7.2002" y="7" width="1.6" height="1.6" fill="#3F465C"/>
<rect x="10.8002" y="7" width="1.6" height="1.6" fill="#3F465C"/>
<mask id="path-4-inside-1_1_5235" fill="white">
<path fill-rule="evenodd" clip-rule="evenodd" d="M1.5 2C0.947715 2 0.5 2.44771 0.5 3V12C0.5 12.5523 0.947715 13 1.5 13H5.5L7.64645 15.1464C7.84171 15.3417 8.15829 15.3417 8.35355 15.1464L10.5 13H14.5C15.0523 13 15.5 12.5523 15.5 12V3C15.5 2.44772 15.0523 2 14.5 2H1.5Z"/>
</mask>
<path d="M5.5 13L6.41924 12.0808L6.03848 11.7H5.5V13ZM7.64645 15.1464L8.56569 14.2272L8.56569 14.2272L7.64645 15.1464ZM10.5 13V11.7H9.96152L9.58076 12.0808L10.5 13ZM1.8 3C1.8 3.16569 1.66568 3.3 1.5 3.3V0.7C0.229746 0.7 -0.8 1.72974 -0.8 3H1.8ZM1.8 12V3H-0.8V12H1.8ZM1.5 11.7C1.66569 11.7 1.8 11.8343 1.8 12H-0.8C-0.8 13.2703 0.229745 14.3 1.5 14.3V11.7ZM5.5 11.7H1.5V14.3H5.5V11.7ZM4.58076 13.9192L6.72721 16.0657L8.56569 14.2272L6.41924 12.0808L4.58076 13.9192ZM6.72721 16.0657C7.43015 16.7686 8.56985 16.7686 9.27279 16.0657L7.43431 14.2272C7.74673 13.9148 8.25327 13.9148 8.56569 14.2272L6.72721 16.0657ZM9.27279 16.0657L11.4192 13.9192L9.58076 12.0808L7.43431 14.2272L9.27279 16.0657ZM14.5 11.7H10.5V14.3H14.5V11.7ZM14.2 12C14.2 11.8343 14.3343 11.7 14.5 11.7V14.3C15.7703 14.3 16.8 13.2703 16.8 12H14.2ZM14.2 3V12H16.8V3H14.2ZM14.5 3.3C14.3343 3.3 14.2 3.16569 14.2 3H16.8C16.8 1.72975 15.7703 0.7 14.5 0.7V3.3ZM1.5 3.3H14.5V0.7H1.5V3.3Z" fill="#3F465C" mask="url(#path-4-inside-1_1_5235)"/>
</svg>
