<svg width="16" height="16" viewBox="0 0 16 16" fill="none" xmlns="http://www.w3.org/2000/svg">
<path d="M2.4 2.95833H1.75V3.23101L1.94454 3.42207L2.4 2.95833ZM8.46667 8.91667L8.01121 9.38041C8.26456 9.62924 8.67073 9.62868 8.9234 9.37915L8.46667 8.91667ZM1.5 6.89167C1.14101 6.89167 0.85 7.18268 0.85 7.54167C0.85 7.90065 1.14101 8.19167 1.5 8.19167V6.89167ZM4 8.19167C4.35899 8.19167 4.65 7.90065 4.65 7.54167C4.65 7.18268 4.35899 6.89167 4 6.89167V8.19167ZM1.5 9.85C1.14101 9.85 0.85 10.141 0.85 10.5C0.85 10.859 1.14101 11.15 1.5 11.15V9.85ZM6 11.15C6.35898 11.15 6.65 10.859 6.65 10.5C6.65 10.141 6.35898 9.85 6 9.85V11.15ZM2.85833 3.15H14.5V1.85H2.85833V3.15ZM14.35 3V13H15.65V3H14.35ZM14.5 12.85H2.9V14.15H14.5V12.85ZM3.05 13V12.85H1.75V13H3.05ZM1.94454 3.42207L8.01121 9.38041L8.92213 8.45293L2.85546 2.49459L1.94454 3.42207ZM8.9234 9.37915L14.9567 3.42082L14.0433 2.49585L8.00993 8.45418L8.9234 9.37915ZM1.5 8.19167H4V6.89167H1.5V8.19167ZM1.5 11.15H6V9.85H1.5V11.15ZM2.9 12.85C2.98284 12.85 3.05 12.9172 3.05 13H1.75C1.75 13.6351 2.26487 14.15 2.9 14.15V12.85ZM14.35 13C14.35 12.9172 14.4172 12.85 14.5 12.85V14.15C15.1351 14.15 15.65 13.6351 15.65 13H14.35ZM14.5 3.15C14.4172 3.15 14.35 3.08284 14.35 3H15.65C15.65 2.36487 15.1351 1.85 14.5 1.85V3.15ZM2.85833 1.85C2.24622 1.85 1.75 2.34622 1.75 2.95833H3.05C3.05 3.06419 2.96419 3.15 2.85833 3.15V1.85Z" fill="#3F465C"/>
</svg>
