<svg width="16" height="16" viewBox="0 0 16 16" fill="none" xmlns="http://www.w3.org/2000/svg">
<path fill-rule="evenodd" clip-rule="evenodd" d="M0.0099385 2.85847L4.68536 7.53388L0.00230274 13.0684C0.000775832 13.0458 0 13.023 0 13V3C0 2.95196 0.00338813 2.9047 0.0099385 2.85847ZM0.802476 13.9805L5.58099 8.33316L7.62518 9.96852L8 10.2684L8.37482 9.96852L10.419 8.33316L15.1975 13.9805C15.1337 13.9933 15.0676 14 15 14H1C0.932381 14 0.86633 13.9933 0.802476 13.9805ZM15.9977 13.0684C15.9992 13.0458 16 13.023 16 13V3C16 2.95196 15.9966 2.9047 15.9901 2.85847L11.3146 7.53388L15.9977 13.0684ZM0.858467 2.00994C0.904702 2.00339 0.951956 2 1 2H15C15.048 2 15.0953 2.00339 15.1415 2.00994L10.0992 7.05224L8 8.73163L5.90077 7.05224L0.858467 2.00994Z" fill="#3F465C"/>
</svg>
