<svg width="16" height="16" viewBox="0 0 16 16" fill="none" xmlns="http://www.w3.org/2000/svg">
<g clip-path="url(#clip0_1_5157)">
<path fill-rule="evenodd" clip-rule="evenodd" d="M7.96531 0.827944C6.82006 2.68561 6.11233 4.84172 5.98579 7.15262H9.94483C9.81829 4.84172 9.11056 2.68561 7.96531 0.827944ZM9.94483 8.65262H5.98579C6.11233 10.9635 6.82006 13.1196 7.96531 14.9773C9.11056 13.1196 9.81829 10.9635 9.94483 8.65262ZM9.21718 15.8052C10.5187 13.7095 11.318 11.2692 11.4469 8.65262H15.9306C15.5912 12.3034 12.7986 15.2424 9.21718 15.8052ZM11.4469 7.15262C11.318 4.53605 10.5187 2.09578 9.21718 2.3468e-06C12.7986 0.562826 15.5912 3.50181 15.9306 7.15262H11.4469ZM4.48373 7.15262C4.61257 4.53605 5.41188 2.09578 6.71344 0C3.13204 0.562822 0.339442 3.50181 0 7.15262H4.48373ZM6.71343 15.8052C5.41187 13.7095 4.61257 11.2692 4.48373 8.65262H3.38332e-09C0.339442 12.3034 3.13203 15.2424 6.71343 15.8052Z" fill="#3F465C"/>
</g>
<defs>
<clipPath id="clip0_1_5157">
<rect width="16" height="16" fill="white"/>
</clipPath>
</defs>
</svg>
