<svg width="16" height="16" viewBox="0 0 16 16" fill="none" xmlns="http://www.w3.org/2000/svg">
<g clip-path="url(#clip0_1_5259)">
<path fill-rule="evenodd" clip-rule="evenodd" d="M5.28477 9.59895L4.64387 13.3357L7.99967 11.5714L11.3555 13.3357L10.7145 9.59895L13.4295 6.95258L9.67757 6.40739L7.99967 3.00758L6.32177 6.40739L2.56987 6.95258L5.28477 9.59895ZM8.44804 2.09909C8.44792 2.09932 8.44815 2.09886 8.44804 2.09909V2.09909ZM5.6577 5.49338L1.42349 6.10865C1.01338 6.16825 0.849625 6.67223 1.14638 6.9615L4.21029 9.94807L3.487 14.1652C3.41695 14.5736 3.84567 14.8851 4.21248 14.6922L7.99967 12.7012L11.7869 14.6923C12.1537 14.8851 12.5824 14.5736 12.5123 14.1652L11.789 9.94807L14.8529 6.9615C15.1497 6.67223 14.986 6.16825 14.5758 6.10865L10.3416 5.49338L8.44803 1.65652C8.26463 1.2849 7.7347 1.2849 7.5513 1.65653L5.6577 5.49338Z" fill="#3F465C"/>
</g>
<defs>
<clipPath id="clip0_1_5259">
<rect width="16" height="16" fill="white"/>
</clipPath>
</defs>
</svg>
