<svg width="16" height="16" viewBox="0 0 16 16" fill="none" xmlns="http://www.w3.org/2000/svg">
<g clip-path="url(#clip0_1_5246)">
<path d="M16 0H0V16H16V0Z" fill="white" fill-opacity="0.01"/>
<path d="M13.833 3.33325H11.833" stroke="#3F465C" stroke-width="1.3" stroke-linecap="round"/>
<path d="M9.16699 2V4.66667" stroke="#3F465C" stroke-width="1.3" stroke-linecap="round" stroke-linejoin="round"/>
<path d="M9.16634 3.33325H1.83301" stroke="#3F465C" stroke-width="1.3" stroke-linecap="round" stroke-linejoin="round"/>
<path d="M4.49967 8H1.83301" stroke="#3F465C" stroke-width="1.3" stroke-linecap="round" stroke-linejoin="round"/>
<path d="M7.16699 6.66675V9.33341" stroke="#3F465C" stroke-width="1.3" stroke-linecap="round" stroke-linejoin="round"/>
<path d="M14.5003 8.65C14.8593 8.65 15.1503 8.35899 15.1503 8C15.1503 7.64101 14.8593 7.35 14.5003 7.35V8.65ZM7.16699 7.35H6.51699V8.65H7.16699V7.35ZM14.5003 7.35H7.16699V8.65H14.5003V7.35Z" fill="#3F465C"/>
<path d="M13.833 12.6667H11.833" stroke="#3F465C" stroke-width="1.3" stroke-linecap="round" stroke-linejoin="round"/>
<path d="M9.16699 11.3333V13.9999" stroke="#3F465C" stroke-width="1.3" stroke-linecap="round" stroke-linejoin="round"/>
<path d="M9.16634 12.6667H1.83301" stroke="#3F465C" stroke-width="1.3" stroke-linecap="round" stroke-linejoin="round"/>
</g>
<defs>
<clipPath id="clip0_1_5246">
<rect width="16" height="16" fill="white"/>
</clipPath>
</defs>
</svg>
