<svg width="16" height="16" viewBox="0 0 16 16" fill="none" xmlns="http://www.w3.org/2000/svg">
<path fill-rule="evenodd" clip-rule="evenodd" d="M2 8C2 4.68629 4.68629 2 8 2C11.3137 2 14 4.68629 14 8C14 11.3137 11.3137 14 8 14C4.68629 14 2 11.3137 2 8ZM8 1C4.13401 1 1 4.13401 1 8C1 11.866 4.13401 15 8 15C11.866 15 15 11.866 15 8C15 4.13401 11.866 1 8 1ZM9.27267 10.7767L7.36867 5H5.91333L4 10.7767H5.22267L5.65467 9.37533H7.538L7.96067 10.7767H9.27267ZM11.372 10.7767V5H10.1447V10.7767H11.372ZM6.57333 6.18067H6.632L7.30133 8.44067H5.89667L6.57333 6.18067Z" fill="#3F465C"/>
</svg>
