<svg width="16" height="16" viewBox="0 0 16 16" fill="none" xmlns="http://www.w3.org/2000/svg">
<path fill-rule="evenodd" clip-rule="evenodd" d="M8.31068 1.0284C8.20577 0.991451 8.09155 0.990529 7.98606 1.02579L2.34151 2.91234C2.13753 2.98052 2 3.17149 2 3.38656V9.07673C2 9.08419 2.00017 9.09166 2.0005 9.09911C2.04204 10.026 2.45406 10.8417 3.00324 11.5265C3.55198 12.2107 4.25762 12.7899 4.93918 13.2545C5.62311 13.7207 6.2994 14.0826 6.80311 14.3276C7.05557 14.4504 7.26617 14.5445 7.41466 14.6084C7.48894 14.6403 7.54778 14.6647 7.58865 14.6814L7.63621 14.7005L7.64931 14.7057L7.6531 14.7072L7.65499 14.7079L7.6684 14.7129L7.83277 14.7712C7.94095 14.8096 8.05905 14.8096 8.16723 14.7712L8.33164 14.713L8.3425 14.7089C8.46247 14.6631 9.80395 14.1432 11.1421 13.2201C12.4499 12.318 13.917 10.9191 13.9995 9.07861C13.9998 9.07115 14 9.06369 14 9.05623V3.38651C14 3.17441 13.8662 2.98539 13.6661 2.91492L8.31068 1.0284ZM11.7996 5.93858C11.99 5.73861 11.9823 5.42212 11.7823 5.23168C11.5824 5.04124 11.2659 5.04896 11.0754 5.24892L6.85417 9.68125L4.92457 7.65517C4.73413 7.45521 4.41764 7.44749 4.21767 7.63793C4.01771 7.82837 4.00999 8.14486 4.20043 8.34483L6.4921 10.7511C6.58647 10.8502 6.71733 10.9063 6.85417 10.9063C6.99101 10.9063 7.12187 10.8502 7.21624 10.7511L11.7996 5.93858Z" fill="#3F465C"/>
</svg>
