<svg width="16" height="16" viewBox="0 0 16 16" fill="none" xmlns="http://www.w3.org/2000/svg">
<path fill-rule="evenodd" clip-rule="evenodd" d="M5.30005 2.5C5.30005 2.22386 5.52391 2 5.80005 2H10.3C10.5762 2 10.8 2.22386 10.8 2.5V5.5C10.8 5.77614 10.5762 6 10.3 6H8.50005V7.5H11.5C11.7762 7.5 12 7.72386 12 8V10H13.8C14.0762 10 14.3 10.2239 14.3 10.5V13.5C14.3 13.7761 14.0762 14 13.8 14H9.30005C9.02391 14 8.80005 13.7761 8.80005 13.5V10.5C8.80005 10.2239 9.02391 10 9.30005 10H11V8.5H8.00005H5.00005V10H6.80005C7.07619 10 7.30005 10.2239 7.30005 10.5V13.5C7.30005 13.7761 7.07619 14 6.80005 14H2.30005C2.02391 14 1.80005 13.7761 1.80005 13.5V10.5C1.80005 10.2239 2.02391 10 2.30005 10H4.00005V8C4.00005 7.72386 4.22391 7.5 4.50005 7.5H7.50005V6H5.80005C5.52391 6 5.30005 5.77614 5.30005 5.5V2.5ZM4.50005 11H2.80005V13H6.30005V11H4.50005ZM11.5 11H9.80005V13H13.3V11H11.5ZM6.30005 3V5H9.80005V3H6.30005Z" fill="#3F465C"/>
</svg>
