<svg width="16" height="16" viewBox="0 0 16 16" fill="none" xmlns="http://www.w3.org/2000/svg">
<path fill-rule="evenodd" clip-rule="evenodd" d="M8.31068 1.5284C8.20577 1.49145 8.09155 1.49053 7.98606 1.52579L2.34151 3.41234C2.13753 3.48052 2 3.67149 2 3.88656V9.57673C2 9.58419 2.00017 9.59166 2.0005 9.59911C2.04204 10.526 2.45406 11.3417 3.00324 12.0265C3.55198 12.7107 4.25762 13.2899 4.93918 13.7545C5.62311 14.2207 6.2994 14.5826 6.80311 14.8276C7.05557 14.9504 7.26617 15.0445 7.41466 15.1084C7.48894 15.1403 7.54778 15.1647 7.58865 15.1814L7.63621 15.2005L7.64931 15.2057L7.6531 15.2072L7.65428 15.2076L7.6547 15.2078C7.65485 15.2078 7.65499 15.2079 7.83563 14.7417L7.65499 15.2079L7.66841 15.2129L7.83277 15.2712C7.94095 15.3096 8.05905 15.3096 8.16723 15.2712L8.3316 15.2129L8.33164 15.213L8.3425 15.2089C8.46247 15.1631 9.80395 14.6432 11.1421 13.7201C12.4499 12.818 13.917 11.4191 13.9995 9.57861C13.9998 9.57115 14 9.56369 14 9.55623V3.88651C14 3.67441 13.8662 3.48539 13.6661 3.41492L8.31068 1.5284ZM10.5743 12.897C9.3769 13.7229 8.16651 14.2047 8.00026 14.2691L7.96587 14.2552C7.93059 14.2409 7.87769 14.2189 7.80966 14.1897C7.67353 14.1312 7.47722 14.0435 7.2405 13.9283C6.76585 13.6974 6.13473 13.3592 5.50241 12.9282C4.86772 12.4956 4.24829 11.9806 3.78335 11.4008C3.32139 10.8248 3.03178 10.2104 3 9.565V4.24663L8.14029 2.52861L13 4.2405V9.54453C12.9349 10.8725 11.8425 12.0221 10.5743 12.897ZM11.6864 6.33082C11.8174 6.19334 11.812 5.97576 11.6746 5.84483C11.5371 5.7139 11.3195 5.71921 11.1886 5.85668L6.85417 10.4078L4.81142 8.26293C4.68049 8.12546 4.46291 8.12015 4.32543 8.25108C4.18796 8.38201 4.18265 8.59959 4.31358 8.73707L6.60525 11.1433C6.67013 11.2114 6.76009 11.25 6.85417 11.25C6.94824 11.25 7.03821 11.2114 7.10309 11.1433L11.6864 6.33082Z" fill="#3F465C"/>
</svg>
