<svg width="16" height="12" viewBox="0 0 16 12" fill="none" xmlns="http://www.w3.org/2000/svg">
<path fill-rule="evenodd" clip-rule="evenodd" d="M0.0099385 0.858467L4.68536 5.53388L0.00230274 11.0684C0.000775832 11.0458 0 11.023 0 11V1C0 0.951955 0.00338813 0.904702 0.0099385 0.858467ZM0.802476 11.9805L5.58099 6.33316L7.62518 7.96852L8 8.26838L8.37482 7.96852L10.419 6.33316L15.1975 11.9805C15.1337 11.9933 15.0676 12 15 12H1C0.932381 12 0.86633 11.9933 0.802476 11.9805ZM15.9977 11.0684C15.9992 11.0458 16 11.023 16 11V1C16 0.951956 15.9966 0.904703 15.9901 0.858467L11.3146 5.53388L15.9977 11.0684ZM0.858467 0.00993853C0.904702 0.00338814 0.951956 0 1 0H15C15.048 0 15.0953 0.00338814 15.1415 0.00993853L10.0992 5.05224L8 6.73163L5.90077 5.05224L0.858467 0.00993853Z" fill="#3F465C"/>
</svg>
