<svg width="16" height="16" viewBox="0 0 16 16" fill="none" xmlns="http://www.w3.org/2000/svg">
<path fill-rule="evenodd" clip-rule="evenodd" d="M2 3C2 2.44772 2.44772 2 3 2H13C13.5523 2 14 2.44772 14 3V13C14 13.5523 13.5523 14 13 14H3C2.44772 14 2 13.5523 2 13V3ZM13 3L3 3V8.41667H5.75399C5.99179 8.41667 6.19669 8.58415 6.24399 8.8172C6.40996 9.63479 7.1336 10.25 7.99981 10.25C8.86602 10.25 9.58967 9.63479 9.75563 8.8172C9.80294 8.58415 10.0078 8.41667 10.2456 8.41667H13V3ZM13 9.41667H10.6225C10.2315 10.4864 9.20526 11.25 7.99981 11.25C6.79436 11.25 5.76816 10.4864 5.37714 9.41667H3V13H13V9.41667Z" fill="#3F465C"/>
</svg>
