<svg width="16" height="16" viewBox="0 0 16 16" fill="none" xmlns="http://www.w3.org/2000/svg">
<path fill-rule="evenodd" clip-rule="evenodd" d="M6.38164 1.7999C6.05027 1.7999 5.78164 2.06853 5.78164 2.3999C5.78164 2.73127 6.05027 2.9999 6.38164 2.9999H7.48164V13.1001H6.38164C6.10549 13.1001 5.88164 13.3239 5.88164 13.6001C5.88164 13.8762 6.10549 14.1001 6.38164 14.1001H9.58164C9.85778 14.1001 10.0816 13.8762 10.0816 13.6001C10.0816 13.3239 9.85778 13.1001 9.58164 13.1001H8.48164V2.9999H9.58164C9.91301 2.9999 10.1816 2.73127 10.1816 2.3999C10.1816 2.06853 9.91301 1.7999 9.58164 1.7999H6.38164ZM2.86328 5.30004L2.86357 5.30004H2.86923H2.87487H2.88051H2.88614H2.89177H2.89739H2.90301H2.90861H2.91421H2.91981H2.9254H2.93098H2.93655H2.94212H2.94768H2.95324H2.95879H2.96433H2.96987H2.9754H2.98093H2.98645H2.99196H2.99747H3.00297H3.00847H3.01396H3.01944H3.02492H3.03039H3.03586H3.04132H3.04677H3.05222H3.05767H3.06311H3.06854H3.07397H3.07939H3.0848H3.09021H3.09562H3.10102H3.10641H3.1118H3.11719H3.12256H3.12794H3.13331H3.13867H3.14403H3.14938H3.15473H3.16007H3.16541H3.17074H3.17607H3.18139H3.18671H3.19202H3.19733H3.20263H3.20793H3.21322H3.21851H3.2238H3.22908H3.23435H3.23962H3.24489H3.25015H3.25541H3.26066H3.26591H3.27115H3.27639H3.28162H3.28685H3.29208H3.2973H3.30252H3.30774H3.31295H3.31815H3.32335H3.32855H3.33374H3.33893H3.34412H3.3493H3.35448H3.35965H3.36482H3.36999H3.37515H3.38031H3.38546H3.39061H3.39576H3.40091H3.40605H3.41118H3.41632H3.42145H3.42657H3.4317H3.43682H3.44193H3.44705H3.45216H3.45726H3.46237H3.46747H3.47256H3.47766H3.48275H3.48783H3.49292H3.498H3.50308H3.50815H3.51323H3.5183H3.52336H3.52843H3.53349H3.53855H3.5436H3.54866H3.55371H3.55876H3.5638H3.56884H3.57388H3.57892H3.58396H3.58899H3.59402H3.59905H3.60407H3.6091H3.61412H3.61914H3.62415H3.62917H3.63418H3.63919H3.6442H3.6492H3.6542H3.65921H3.66421H3.6692H3.6742H3.67919H3.68419H3.68918H3.69416H3.69915H3.70414H3.70912H3.7141H3.71908H3.72406H3.72904H3.73401H3.73899H3.74396H3.74893H3.7539H3.75887H3.76383H3.7688H3.77376H3.77872H3.78369H3.78865H3.79361H3.79856H3.80352H3.80848H3.81343H3.81839H3.82334H3.82829H3.83324H3.83819H3.84314H3.84809H3.85304H3.85798H3.86293H3.86788H3.87282H3.87777H3.88271H3.88765H3.8926H3.89754H3.90248H3.90742H3.91236H3.9173H3.92224H3.92718H3.93212H3.93706H3.942H3.94694H3.95188H3.95681H3.96175H3.96669H3.97163H3.97657H3.98151H3.98644H3.99138H3.99632H4.00126H4.0062H4.01114H4.01608H4.02102H4.02596H4.0309H4.03584H4.04078H4.04572H4.05066H4.0556H4.06055H4.06549H4.07043H4.07538H4.08032H4.08527H4.09022H4.09516H4.10011H4.10506H4.11001H4.11496H4.11991H4.12487H4.12982H4.13478H4.13973H4.14469H4.14965H4.1546H4.15956H4.16453H4.16949H4.17445H4.17942H4.18438H4.18935H4.19432H4.19929H4.20426H4.20924H4.21421H4.21919H4.22417H4.22915H4.23413H4.23911H4.24409H4.24908H4.25407H4.25906H4.26405H4.26904H4.27404H4.27904H4.28403H4.28904H4.29404H4.29904H4.30405H4.30906H4.31407H4.31909H4.3241H4.32912H4.33414H4.33916H4.34419H4.34922H4.35424H4.35928H4.36431H4.36935H4.37439H4.37943H4.38447H4.38952H4.39457H4.39962H4.40468H4.40974H4.4148H4.41986H4.42493H4.43H4.43507H4.44014H4.44522H4.4503H4.45538H4.46047H4.46556H4.47065H4.47575H4.48085H4.48595H4.49106H4.49617H4.50128H4.50639H4.51151H4.51663H4.52176H4.52689H4.53202H4.53716H4.5423H4.54744H4.55259H4.55774H4.56289H4.56805H4.57321H4.57838H4.58355H4.58872H4.5939H4.59908H4.60426H4.60945H4.61464H4.61984H4.62504H4.63024H4.63545H4.64066H4.64588H4.6511H4.65633H4.66156H4.66679H4.67203H4.67727H4.68252H4.68777H4.69303H4.69829H4.70355H4.70882H4.71409H4.71937H4.72466H4.72994H4.73524H4.74053H4.74584H4.75114H4.75645H4.76177H4.76709H4.77242H4.77775H4.78309H4.78843H4.79377H4.79912H4.80448H4.80984H4.81521H4.82058H4.82596H4.83134H4.83673H4.84212H4.84752H4.85292H4.85833H4.86375H4.86917H4.87459H4.88002H4.88546H4.8909H4.89635H4.9018H4.90726H4.91273H4.9182H4.92368H4.92916H4.93465H4.94014H4.94564H4.95115H4.95666H4.96218H4.9677H4.97323H4.97877H4.98431H4.98986H4.99541H5.00097H5.00654H5.01212H5.0177H5.02328H5.02887H5.03447H5.04008H5.04569H5.05131H5.05693H5.06257H5.0682H5.07385H5.0795H5.08516H5.09082H5.0965H5.10217H5.10786H5.11355H5.11925H5.12496H5.13067H5.13639H5.14212H5.14785H5.15359H5.15934H5.1651H5.17086H5.17663H5.1824H5.18819H5.19398H5.19978H5.20559H5.2114H5.21722H5.22305H5.22888H5.23473H5.24058H5.24644H5.2523H5.25818H5.26406H5.26995H5.27585H5.28175H5.28766H5.29358H5.29951H5.30545H5.31139H5.31734H5.3233H5.32927H5.33525H5.34123H5.34722H5.35322H5.35923H5.36525H5.37127H5.37731H5.38335H5.3894H5.39546H5.40152H5.4076H5.41368H5.41978H5.42588H5.43198H5.4381H5.44423H5.45036H5.45651H5.46266H5.46882H5.47499H5.48117H5.48736H5.49355H5.49976H5.50597H5.5122H5.51843H5.52467H5.53092H5.53718H5.54345H5.54972H5.55601H5.56231H5.56861H5.57493H5.58125C5.85739 5.30004 6.08125 5.07618 6.08125 4.80004C6.08125 4.5239 5.85739 4.30004 5.58125 4.30004H5.57493H5.56861H5.56231H5.55601H5.54972H5.54345H5.53718H5.53092H5.52467H5.51843H5.5122H5.50597H5.49976H5.49355H5.48736H5.48117H5.47499H5.46882H5.46266H5.45651H5.45036H5.44423H5.4381H5.43198H5.42588H5.41978H5.41368H5.4076H5.40152H5.39546H5.3894H5.38335H5.37731H5.37127H5.36525H5.35923H5.35322H5.34722H5.34123H5.33525H5.32927H5.3233H5.31734H5.31139H5.30545H5.29951H5.29358H5.28766H5.28175H5.27585H5.26995H5.26406H5.25818H5.2523H5.24644H5.24058H5.23473H5.22888H5.22305H5.21722H5.2114H5.20559H5.19978H5.19398H5.18819H5.1824H5.17663H5.17086H5.1651H5.15934H5.15359H5.14785H5.14212H5.13639H5.13067H5.12496H5.11925H5.11355H5.10786H5.10217H5.0965H5.09082H5.08516H5.0795H5.07385H5.0682H5.06257H5.05693H5.05131H5.04569H5.04008H5.03447H5.02887H5.02328H5.0177H5.01212H5.00654H5.00097H4.99541H4.98986H4.98431H4.97877H4.97323H4.9677H4.96218H4.95666H4.95115H4.94564H4.94014H4.93465H4.92916H4.92368H4.9182H4.91273H4.90726H4.9018H4.89635H4.8909H4.88546H4.88002H4.87459H4.86917H4.86375H4.85833H4.85292H4.84752H4.84212H4.83673H4.83134H4.82596H4.82058H4.81521H4.80984H4.80448H4.79912H4.79377H4.78843H4.78309H4.77775H4.77242H4.76709H4.76177H4.75645H4.75114H4.74584H4.74053H4.73524H4.72994H4.72466H4.71937H4.71409H4.70882H4.70355H4.69829H4.69303H4.68777H4.68252H4.67727H4.67203H4.66679H4.66156H4.65633H4.6511H4.64588H4.64066H4.63545H4.63024H4.62504H4.61984H4.61464H4.60945H4.60426H4.59908H4.5939H4.58872H4.58355H4.57838H4.57321H4.56805H4.56289H4.55774H4.55259H4.54744H4.5423H4.53716H4.53202H4.52689H4.52176H4.51663H4.51151H4.50639H4.50128H4.49617H4.49106H4.48595H4.48085H4.47575H4.47065H4.46556H4.46047H4.45538H4.4503H4.44522H4.44014H4.43507H4.43H4.42493H4.41986H4.4148H4.40974H4.40468H4.39962H4.39457H4.38952H4.38447H4.37943H4.37439H4.36935H4.36431H4.35928H4.35424H4.34922H4.34419H4.33916H4.33414H4.32912H4.3241H4.31909H4.31407H4.30906H4.30405H4.29904H4.29404H4.28904H4.28403H4.27904H4.27404H4.26904H4.26405H4.25906H4.25407H4.24908H4.24409H4.23911H4.23413H4.22915H4.22417H4.21919H4.21421H4.20924H4.20426H4.19929H4.19432H4.18935H4.18438H4.17942H4.17445H4.16949H4.16453H4.15956H4.1546H4.14965H4.14469H4.13973H4.13478H4.12982H4.12487H4.11991H4.11496H4.11001H4.10506H4.10011H4.09516H4.09022H4.08527H4.08032H4.07538H4.07043H4.06549H4.06055H4.0556H4.05066H4.04572H4.04078H4.03584H4.0309H4.02596H4.02102H4.01608H4.01114H4.0062H4.00126H3.99632H3.99138H3.98644H3.98151H3.97657H3.97163H3.96669H3.96175H3.95681H3.95188H3.94694H3.942H3.93706H3.93212H3.92718H3.92224H3.9173H3.91236H3.90742H3.90248H3.89754H3.8926H3.88765H3.88271H3.87777H3.87282H3.86788H3.86293H3.85798H3.85304H3.84809H3.84314H3.83819H3.83324H3.82829H3.82334H3.81839H3.81343H3.80848H3.80352H3.79856H3.79361H3.78865H3.78369H3.77872H3.77376H3.7688H3.76383H3.75887H3.7539H3.74893H3.74396H3.73899H3.73401H3.72904H3.72406H3.71908H3.7141H3.70912H3.70414H3.69915H3.69416H3.68918H3.68419H3.67919H3.6742H3.6692H3.66421H3.65921H3.6542H3.6492H3.6442H3.63919H3.63418H3.62917H3.62415H3.61914H3.61412H3.6091H3.60407H3.59905H3.59402H3.58899H3.58396H3.57892H3.57388H3.56884H3.5638H3.55876H3.55371H3.54866H3.5436H3.53855H3.53349H3.52843H3.52336H3.5183H3.51323H3.50815H3.50308H3.498H3.49292H3.48783H3.48275H3.47766H3.47256H3.46747H3.46237H3.45726H3.45216H3.44705H3.44193H3.43682H3.4317H3.42657H3.42145H3.41632H3.41118H3.40605H3.40091H3.39576H3.39061H3.38546H3.38031H3.37515H3.36999H3.36482H3.35965H3.35448H3.3493H3.34412H3.33893H3.33374H3.32855H3.32335H3.31815H3.31295H3.30774H3.30252H3.2973H3.29208H3.28685H3.28162H3.27639H3.27115H3.26591H3.26066H3.25541H3.25015H3.24489H3.23962H3.23435H3.22908H3.2238H3.21851H3.21322H3.20793H3.20263H3.19733H3.19202H3.18671H3.18139H3.17607H3.17074H3.16541H3.16007H3.15473H3.14938H3.14403H3.13867H3.13331H3.12794H3.12256H3.11719H3.1118H3.10641H3.10102H3.09562H3.09021H3.0848H3.07939H3.07397H3.06854H3.06311H3.05767H3.05222H3.04677H3.04132H3.03586H3.03039H3.02492H3.01944H3.01396H3.00847H3.00297H2.99747H2.99196H2.98645H2.98093H2.9754H2.96987H2.96433H2.95879H2.95324H2.94768H2.94212H2.93655H2.93098H2.9254H2.91981H2.91421H2.90861H2.90301H2.89739H2.89177H2.88614H2.88051H2.87487H2.86923H2.86357C2.31167 4.30004 1.86328 4.74738 1.86328 5.30004V10.7C1.86328 11.2523 2.311 11.7 2.86328 11.7H5.58125C5.85739 11.7 6.08125 11.4762 6.08125 11.2C6.08125 10.9239 5.85739 10.7 5.58125 10.7H2.86328V5.30004ZM10.3813 4.30004C10.1051 4.30004 9.88125 4.5239 9.88125 4.80004C9.88125 5.07618 10.1051 5.30004 10.3813 5.30004H13.0633V10.7H10.3813C10.1051 10.7 9.88125 10.9239 9.88125 11.2C9.88125 11.4762 10.1051 11.7 10.3813 11.7H13.0633C13.6156 11.7 14.0633 11.2523 14.0633 10.7V5.30004C14.0633 4.74776 13.6156 4.30004 13.0633 4.30004H10.3813Z" fill="#37435C"/>
</svg>
