<svg width="16" height="16" viewBox="0 0 16 16" fill="none" xmlns="http://www.w3.org/2000/svg">
<path fill-rule="evenodd" clip-rule="evenodd" d="M5.31646 2.1665C4.96571 2.1665 4.63358 2.32431 4.41202 2.59622L1.32107 6.38966C0.946505 6.84935 0.976347 7.51688 1.39043 7.94132L7.16464 13.8599C7.62246 14.3292 8.37697 14.3292 8.83479 13.8599L14.6184 7.93171C15.0254 7.51448 15.0621 6.86084 14.7042 6.40073L11.7612 2.61691C11.5402 2.33272 11.2003 2.1665 10.8403 2.1665H5.31646ZM5.18725 3.22789C5.2189 3.18905 5.26635 3.1665 5.31646 3.1665H10.8403C10.8918 3.1665 10.9403 3.19025 10.9719 3.23085L13.9149 7.01467C13.966 7.0804 13.9607 7.17378 13.9026 7.23338L8.11901 13.1616C8.05361 13.2286 7.94582 13.2286 7.88042 13.1616L2.10621 7.243C2.04706 7.18236 2.0428 7.087 2.0963 7.02133L5.18725 3.22789ZM7.54939 5.6665H5.66703V6.5415H6.60821L7.43162 10.3691C7.47538 10.5725 7.74266 10.6225 7.85696 10.4486L11.0004 5.6665H9.74546L8.17684 7.99984L7.54939 5.6665Z" fill="#3F465C"/>
</svg>
