<svg width="16" height="16" viewBox="0 0 16 16" fill="none" xmlns="http://www.w3.org/2000/svg">
<path fill-rule="evenodd" clip-rule="evenodd" d="M8 2.49994C6.62791 2.49994 5.5 3.63541 5.5 5.05549V5.99998H10.5V5.05549C10.5 3.63541 9.37209 2.49994 8 2.49994ZM11.5 5.99998V5.05549C11.5 3.1005 9.94159 1.49994 8 1.49994C6.05841 1.49994 4.5 3.1005 4.5 5.05549V5.99998H3.5C2.94772 5.99998 2.5 6.4477 2.5 6.99998V13C2.5 13.5523 2.94772 14 3.5 14H12.5C13.0523 14 13.5 13.5523 13.5 13V6.99998C13.5 6.44769 13.0523 5.99998 12.5 5.99998H11.5ZM8 8.49998C8.27614 8.49998 8.5 8.72384 8.5 8.99998V11C8.5 11.2761 8.27614 11.5 8 11.5C7.72386 11.5 7.5 11.2761 7.5 11V8.99998C7.5 8.72384 7.72386 8.49998 8 8.49998ZM3.5 6.99998H12.5V13H3.5V6.99998Z" fill="#3F465C"/>
</svg>
