<svg width="16" height="16" viewBox="0 0 16 16" fill="none" xmlns="http://www.w3.org/2000/svg">
<path fill-rule="evenodd" clip-rule="evenodd" d="M8.00012 5.16376C8.00012 4.88761 7.77626 4.66376 7.50012 4.66376C7.22398 4.66376 7.00012 4.88761 7.00012 5.16376V8.49701V8.49709C7.00012 8.77323 7.22398 8.99709 7.50012 8.99709C7.50316 8.99709 7.50619 8.99706 7.50922 8.99701H10.8335C11.1096 8.99701 11.3335 8.77315 11.3335 8.49701C11.3335 8.22087 11.1096 7.99701 10.8335 7.99701H8.00012V5.16376Z" fill="#3F465C"/>
<path fill-rule="evenodd" clip-rule="evenodd" d="M1.49963 8C1.49963 4.41015 4.40978 1.5 7.99963 1.5C9.74634 1.5 11.3321 2.18933 12.4996 3.30962V2.33337C12.4996 2.05722 12.7235 1.83337 12.9996 1.83337C13.2758 1.83337 13.4996 2.05722 13.4996 2.33337V4.6667C13.4996 4.94284 13.2758 5.1667 12.9996 5.1667C12.9996 5.1667 12.9995 5.1667 12.9995 5.1667C12.9995 5.1667 12.9994 5.1667 12.9994 5.1667H10.666C10.3899 5.1667 10.166 4.94284 10.166 4.6667C10.166 4.39056 10.3899 4.1667 10.666 4.1667H11.9438C10.9439 3.13807 9.54636 2.5 7.99963 2.5C4.96206 2.5 2.49963 4.96244 2.49963 8C2.49963 11.0376 4.96206 13.5 7.99963 13.5C11.0372 13.5 13.4996 11.0376 13.4996 8C13.4996 7.72386 13.7235 7.5 13.9996 7.5C14.2758 7.5 14.4996 7.72386 14.4996 8C14.4996 11.5899 11.5895 14.5 7.99963 14.5C4.40978 14.5 1.49963 11.5899 1.49963 8Z" fill="#3F465C"/>
</svg>
