<svg width="16" height="16" viewBox="0 0 16 16" fill="none" xmlns="http://www.w3.org/2000/svg">
<path fill-rule="evenodd" clip-rule="evenodd" d="M5.24034 2.5C4.93656 2.5 4.64924 2.63809 4.45947 2.87531L0.734538 7.53148C0.515407 7.80539 0.515408 8.19461 0.734538 8.46852L4.45947 13.1247C4.64924 13.3619 4.93656 13.5 5.24034 13.5H14.5C15.0523 13.5 15.5 13.0523 15.5 12.5V3.5C15.5 2.94772 15.0523 2.5 14.5 2.5H5.24034ZM5.24034 3.5L14.5 3.5V12.5H5.24034L1.64035 8L5.24034 3.5ZM11.6569 6.62132C11.8521 6.42606 11.8521 6.10948 11.6569 5.91421C11.4616 5.71895 11.145 5.71895 10.9498 5.91421L9.53556 7.32843L8.12134 5.91421C7.92608 5.71895 7.6095 5.71895 7.41424 5.91421C7.21897 6.10948 7.21897 6.42606 7.41424 6.62132L8.82845 8.03553L7.41424 9.44975C7.21897 9.64501 7.21897 9.96159 7.41424 10.1569C7.6095 10.3521 7.92608 10.3521 8.12134 10.1569L9.53556 8.74264L10.9498 10.1569C11.145 10.3521 11.4616 10.3521 11.6569 10.1569C11.8521 9.96159 11.8521 9.64501 11.6569 9.44975L10.2427 8.03553L11.6569 6.62132Z" fill="#3F465C"/>
</svg>
