<svg width="16" height="16" viewBox="0 0 16 16" fill="none" xmlns="http://www.w3.org/2000/svg">
<path fill-rule="evenodd" clip-rule="evenodd" d="M6 5C6 3.89543 6.89543 3 8 3C9.10457 3 10 3.89543 10 5C10 6.10457 9.10457 7 8 7C6.89543 7 6 6.10457 6 5ZM8 2C6.34315 2 5 3.34315 5 5C5 6.65685 6.34315 8 8 8C9.65685 8 11 6.65685 11 5C11 3.34315 9.65685 2 8 2ZM8 9.5C8 9.22386 7.77614 9 7.5 9H5.5C3.567 9 2 10.567 2 12.5V13C2 13.8284 2.67157 14.5 3.5 14.5H7.5C7.77614 14.5 8 14.2761 8 14C8 13.7239 7.77614 13.5 7.5 13.5H3.5C3.22386 13.5 3 13.2761 3 13V12.5C3 11.1193 4.11929 10 5.5 10H7.5C7.77614 10 8 9.77614 8 9.5ZM14.0323 10.1067C14.2323 10.2971 14.24 10.6136 14.0496 10.8136L11.1329 13.8761C11.0385 13.9752 10.9077 14.0312 10.7708 14.0312C10.634 14.0312 10.5031 13.9752 10.4088 13.8761L8.95043 12.3448C8.75999 12.1449 8.76771 11.8284 8.96767 11.6379C9.16764 11.4475 9.48413 11.4552 9.67457 11.6552L10.7708 12.8062L13.3254 10.1239C13.5159 9.92396 13.8324 9.91624 14.0323 10.1067Z" fill="#3F465C"/>
</svg>
