<svg width="16" height="16" viewBox="0 0 16 16" fill="none" xmlns="http://www.w3.org/2000/svg">
<path fill-rule="evenodd" clip-rule="evenodd" d="M2.25 2.5C1.69772 2.5 1.25 2.94772 1.25 3.5V12.5C1.25 13.0507 1.69498 13.5 2.24881 13.5H2.25459H2.26041H2.26625H2.27212H2.27802H2.28395H2.2899H2.29589H2.30191H2.30795H2.31402H2.32012H2.32626H2.33241H2.3386H2.34482H2.35106H2.35733H2.36363H2.36996H2.37632H2.3827H2.38912H2.39556H2.40203H2.40852H2.41504H2.4216H2.42817H2.43478H2.44141H2.44807H2.45476H2.46148H2.46822H2.47499H2.48178H2.48861H2.49546H2.50233H2.50923H2.51616H2.52312H2.5301H2.53711H2.54415H2.55121H2.55829H2.56541H2.57255H2.57971H2.5869H2.59412H2.60136H2.60863H2.61593H2.62325H2.63059H2.63796H2.64536H2.65278H2.66023H2.6677H2.67519H2.68271H2.69026H2.69783H2.70543H2.71305H2.72069H2.72836H2.73606H2.74378H2.75152H2.75929H2.76708H2.77489H2.78273H2.7906H2.79849H2.8064H2.81433H2.82229H2.83027H2.83828H2.84631H2.85436H2.86244H2.87054H2.87866H2.88681H2.89498H2.90317H2.91139H2.91962H2.92788H2.93617H2.94447H2.9528H2.96116H2.96953H2.97793H2.98634H2.99479H3.00325H3.01173H3.02024H3.02877H3.03732H3.04589H3.05449H3.06311H3.07174H3.0804H3.08908H3.09779H3.10651H3.11526H3.12402H3.13281H3.14162H3.15045H3.1593H3.16817H3.17706H3.18597H3.19491H3.20386H3.21284H3.22183H3.23085H3.23988H3.24894H3.25801H3.26711H3.27623H3.28536H3.29452H3.30369H3.31289H3.32211H3.33134H3.34059H3.34987H3.35916H3.36847H3.37781H3.38716H3.39653H3.40592H3.41532H3.42475H3.4342H3.44366H3.45315H3.46265H3.47217H3.48171H3.49126H3.50084H3.51043H3.52005H3.52968H3.53932H3.54899H3.55868H3.56838H3.5781H3.58784H3.59759H3.60736H3.61715H3.62696H3.63679H3.64663H3.65649H3.66637H3.67626H3.68617H3.6961H3.70604H3.71601H3.72598H3.73598H3.74599H3.75602H3.76606H3.77613H3.7862H3.7963H3.80641H3.81653H3.82667H3.83683H3.84701H3.8572H3.8674H3.87762H3.88786H3.89811H3.90838H3.91866H3.92896H3.93928H3.9496H3.95995H3.97031H3.98068H3.99107H4.00148H4.01189H4.02233H4.03278H4.04324H4.05372H4.06421H4.07471H4.08524H4.09577H4.10632H4.11688H4.12746H4.13805H4.14865H4.15927H4.16991H4.18055H4.19121H4.20188H4.21257H4.22327H4.23398H4.24471H4.25545H4.2662H4.27697H4.28775H4.29854H4.30935H4.32016H4.33099H4.34184H4.35269H4.36356H4.37444H4.38533H4.39624H4.40715H4.41808H4.42902H4.43998H4.45094H4.46192H4.47291H4.48391H4.49492H4.50595H4.51698H4.52803H4.53909H4.55015H4.56124H4.57233H4.58343H4.59454H4.60567H4.61681H4.62795H4.63911H4.65028H4.66146H4.67264H4.68384H4.69505H4.70627H4.71751H4.72875H4.74H4.75126H4.76253H4.77381H4.7851H4.7964H4.80771H4.81903H4.83036H4.8417H4.85305H4.8644H4.87577H4.88715H4.89853H4.90993H4.92133H4.93274H4.94416H4.95559H4.96703H4.97848H4.98994H5.0014H5.01287H5.02435H5.03584H5.04734H5.05885H5.07036H5.08188H5.09341H5.10495H5.1165H5.12805H5.13961H5.15118H5.16275H5.17434H5.18593H5.19753H5.20913H5.22075H5.23237H5.24399H5.25563H5.26727H5.27892H5.29057H5.30223H5.3139H5.32557H5.33725H5.34894H5.36063H5.37233H5.38404H5.39575H5.40747H5.4192H5.43093H5.44266H5.4544H5.46615H5.47791H5.48966H5.50143H5.5132H5.52497H5.53675H5.54854H5.56033H5.57213H5.58393H5.59573H5.60754H5.61936H5.63118H5.64301H5.65483H5.66667H5.67851H5.69035H5.7022H5.71405H5.72591H5.73777H5.74963H5.7615H5.77337H5.78525H5.79713H5.80901H5.8209H5.83279H5.84468H5.85658H5.86848H5.88038H5.89229H5.9042H5.91611H5.92803H5.93995H5.95187H5.9638H5.97572H5.98765H5.99959H6.01152H6.02346H6.0354H6.04734H6.05929H6.07123H6.08318H6.09513H6.10709H6.11904H6.131H6.14296H6.15492H6.16688H6.17884H6.19081H6.20277H6.21474H6.22671H6.23868H6.25065H6.26262H6.2746H6.28657H6.29855H6.31052H6.3225H6.33447H6.34645H6.35843H6.37041H6.38239H6.39437H6.40635H6.41832H6.4303H6.44228H6.45426H6.46624H6.47822H6.4902H6.50218H6.51416H6.52613H6.53811H6.55009H6.56206H6.57404H6.58601H6.59799H6.60996H6.62193H6.6339H6.64587H6.65784H6.6698H6.68177H6.69373H6.70569H6.71765H6.72961H6.74157H6.75352H6.76548H6.77743H6.78938H6.80132H6.81327H6.82521H6.83715H6.84909H6.86103H6.87296H6.88489H6.89682H6.90874H6.92067H6.93259H6.9445H6.95642H6.96833H6.98023H6.99214H7.00404H7.01594H7.02783H7.03972H7.05161H7.06349H7.07537H7.08725H7.09912H7.11099H7.12285H7.13471H7.14657H7.15842H7.17027H7.18211H7.19395H7.20579H7.21762H7.22944H7.24126H7.25308H7.26489H7.2767H7.2885H7.3003H7.31209H7.32387H7.33565H7.34743H7.3592H7.37097H7.38272H7.39448H7.40623H7.41797H7.42971H7.44144H7.45316H7.46488H7.47659H7.4883H7.5C7.77614 13.5 8 13.2761 8 13C8 12.7239 7.77614 12.5 7.5 12.5H7.4883H7.47659H7.46488H7.45316H7.44144H7.42971H7.41797H7.40623H7.39448H7.38272H7.37097H7.3592H7.34743H7.33565H7.32387H7.31209H7.3003H7.2885H7.2767H7.26489H7.25308H7.24126H7.22944H7.21762H7.20579H7.19395H7.18211H7.17027H7.15842H7.14657H7.13471H7.12285H7.11099H7.09912H7.08725H7.07537H7.06349H7.05161H7.03972H7.02783H7.01594H7.00404H6.99214H6.98023H6.96833H6.95642H6.9445H6.93259H6.92067H6.90874H6.89682H6.88489H6.87296H6.86103H6.84909H6.83715H6.82521H6.81327H6.80132H6.78938H6.77743H6.76548H6.75352H6.74157H6.72961H6.71765H6.70569H6.69373H6.68177H6.6698H6.65784H6.64587H6.6339H6.62193H6.60996H6.59799H6.58601H6.57404H6.56206H6.55009H6.53811H6.52613H6.51416H6.50218H6.4902H6.47822H6.46624H6.45426H6.44228H6.4303H6.41832H6.40635H6.39437H6.38239H6.37041H6.35843H6.34645H6.33447H6.3225H6.31052H6.29855H6.28657H6.2746H6.26262H6.25065H6.23868H6.22671H6.21474H6.20277H6.19081H6.17884H6.16688H6.15492H6.14296H6.131H6.11904H6.10709H6.09513H6.08318H6.07123H6.05929H6.04734H6.0354H6.02346H6.01152H5.99959H5.98765H5.97572H5.9638H5.95187H5.93995H5.92803H5.91611H5.9042H5.89229H5.88038H5.86848H5.85658H5.84468H5.83279H5.8209H5.80901H5.79713H5.78525H5.77337H5.7615H5.74963H5.73777H5.72591H5.71405H5.7022H5.69035H5.67851H5.66667H5.65483H5.64301H5.63118H5.61936H5.60754H5.59573H5.58393H5.57213H5.56033H5.54854H5.53675H5.52497H5.5132H5.50143H5.48966H5.47791H5.46615H5.4544H5.44266H5.43093H5.4192H5.40747H5.39575H5.38404H5.37233H5.36063H5.34894H5.33725H5.32557H5.3139H5.30223H5.29057H5.27892H5.26727H5.25563H5.24399H5.23237H5.22075H5.20913H5.19753H5.18593H5.17434H5.16275H5.15118H5.13961H5.12805H5.1165H5.10495H5.09341H5.08188H5.07036H5.05885H5.04734H5.03584H5.02435H5.01287H5.0014H4.98994H4.97848H4.96703H4.95559H4.94416H4.93274H4.92133H4.90993H4.89853H4.88715H4.87577H4.8644H4.85305H4.8417H4.83036H4.81903H4.80771H4.7964H4.7851H4.77381H4.76253H4.75126H4.74H4.72875H4.71751H4.70627H4.69505H4.68384H4.67264H4.66146H4.65028H4.63911H4.62795H4.61681H4.60567H4.59454H4.58343H4.57233H4.56124H4.55015H4.53909H4.52803H4.51698H4.50595H4.49492H4.48391H4.47291H4.46192H4.45094H4.43998H4.42902H4.41808H4.40715H4.39624H4.38533H4.37444H4.36356H4.35269H4.34184H4.33099H4.32016H4.30935H4.29854H4.28775H4.27697H4.2662H4.25545H4.24471H4.23398H4.22327H4.21257H4.20188H4.19121H4.18055H4.16991H4.15927H4.14865H4.13805H4.12746H4.11688H4.10632H4.09577H4.08524H4.07471H4.06421H4.05372H4.04324H4.03278H4.02233H4.01189H4.00148H3.99107H3.98068H3.97031H3.95995H3.9496H3.93928H3.92896H3.91866H3.90838H3.89811H3.88786H3.87762H3.8674H3.8572H3.84701H3.83683H3.82667H3.81653H3.80641H3.7963H3.7862H3.77613H3.76606H3.75602H3.74599H3.73598H3.72598H3.71601H3.70604H3.6961H3.68617H3.67626H3.66637H3.65649H3.64663H3.63679H3.62696H3.61715H3.60736H3.59759H3.58784H3.5781H3.56838H3.55868H3.54899H3.53932H3.52968H3.52005H3.51043H3.50084H3.49126H3.48171H3.47217H3.46265H3.45315H3.44366H3.4342H3.42475H3.41532H3.40592H3.39653H3.38716H3.37781H3.36847H3.35916H3.34987H3.34059H3.33134H3.32211H3.31289H3.30369H3.29452H3.28536H3.27623H3.26711H3.25801H3.24894H3.23988H3.23085H3.22183H3.21284H3.20386H3.19491H3.18597H3.17706H3.16817H3.1593H3.15045H3.14162H3.13281H3.12402H3.11526H3.10651H3.09779H3.08908H3.0804H3.07174H3.06311H3.05449H3.04589H3.03732H3.02877H3.02024H3.01173H3.00325H2.99479H2.98634H2.97793H2.96953H2.96116H2.9528H2.94447H2.93617H2.92788H2.91962H2.91139H2.90317H2.89498H2.88681H2.87866H2.87054H2.86244H2.85436H2.84631H2.83828H2.83027H2.82229H2.81433H2.8064H2.79849H2.7906H2.78273H2.77489H2.76708H2.75929H2.75152H2.74378H2.73606H2.72836H2.72069H2.71305H2.70543H2.69783H2.69026H2.68271H2.67519H2.6677H2.66023H2.65278H2.64536H2.63796H2.63059H2.62325H2.61593H2.60863H2.60136H2.59412H2.5869H2.57971H2.57255H2.56541H2.55829H2.55121H2.54415H2.53711H2.5301H2.52312H2.51616H2.50923H2.50233H2.49546H2.48861H2.48178H2.47499H2.46822H2.46148H2.45476H2.44807H2.44141H2.43478H2.42817H2.4216H2.41504H2.40852H2.40203H2.39556H2.38912H2.3827H2.37632H2.36996H2.36363H2.35733H2.35106H2.34482H2.3386H2.33241H2.32626H2.32012H2.31402H2.30795H2.30191H2.29589H2.2899H2.28395H2.27802H2.27212H2.26625H2.26041H2.25459H2.25V3.76759L7.27889 7.12018C7.71556 7.4113 8.28444 7.4113 8.72111 7.12018L13.75 3.76759V7C13.75 7.27614 13.9739 7.5 14.25 7.5C14.5261 7.5 14.75 7.27614 14.75 7V3.5C14.75 2.94771 14.3023 2.5 13.75 2.5H2.25ZM12.3486 3.5L3.65139 3.5L7.83359 6.28813C7.93436 6.35531 8.06564 6.35531 8.16641 6.28813L12.3486 3.5ZM12.5 13.5C13.6046 13.5 14.5 12.6046 14.5 11.5C14.5 10.3954 13.6046 9.5 12.5 9.5C11.3954 9.5 10.5 10.3954 10.5 11.5C10.5 12.6046 11.3954 13.5 12.5 13.5ZM14.9423 13.2426C15.2934 12.7514 15.5 12.1498 15.5 11.5C15.5 9.84315 14.1569 8.5 12.5 8.5C10.8431 8.5 9.5 9.84315 9.5 11.5C9.5 13.1569 10.8431 14.5 12.5 14.5C13.1497 14.5 13.7511 14.2935 14.2423 13.9425C14.2564 13.9613 14.2719 13.9793 14.289 13.9964L15.0668 14.7742C15.2621 14.9695 15.5787 14.9695 15.7739 14.7742C15.9692 14.5789 15.9692 14.2623 15.7739 14.0671L14.9961 13.2893C14.9791 13.2722 14.9611 13.2566 14.9423 13.2426Z" fill="#3F465C"/>
</svg>
