<svg width="16" height="16" viewBox="0 0 16 16" fill="none" xmlns="http://www.w3.org/2000/svg">
<path fill-rule="evenodd" clip-rule="evenodd" d="M2 2C2 1.44772 2.44771 1 3 1H13C13.5523 1 14 1.44772 14 2V6C14 6.27614 13.7761 6.5 13.5 6.5C13.2239 6.5 13 6.27614 13 6V2L3 2V14H13V11C13 10.7239 13.2239 10.5 13.5 10.5C13.7761 10.5 14 10.7239 14 11V14C14 14.5523 13.5523 15 13 15H3C2.44772 15 2 14.5523 2 14V2ZM5 5.5C4.72386 5.5 4.5 5.72386 4.5 6C4.5 6.27614 4.72386 6.5 5 6.5H11C11.2761 6.5 11.5 6.27614 11.5 6C11.5 5.72386 11.2761 5.5 11 5.5H5ZM5 8C4.72386 8 4.5 8.22386 4.5 8.5C4.5 8.77614 4.72386 9 5 9H8C8.27614 9 8.5 8.77614 8.5 8.5C8.5 8.22386 8.27614 8 8 8H5ZM9.3695 12.0296C9.37076 11.9783 9.39172 11.9294 9.42802 11.8931L13.9677 7.35348C14.1629 7.15822 14.4795 7.15822 14.6748 7.35348C14.87 7.54874 14.87 7.86532 14.6748 8.06058L10.1351 12.6002C10.0988 12.6365 10.0499 12.6575 9.99861 12.6587L9.45868 12.672C9.40155 12.6734 9.35486 12.6267 9.35626 12.5696L9.3695 12.0296Z" fill="#3F465C"/>
</svg>
