<svg width="16" height="16" viewBox="0 0 16 16" fill="none" xmlns="http://www.w3.org/2000/svg">
<path fill-rule="evenodd" clip-rule="evenodd" d="M7.5 2C5.84315 2 4.5 3.34315 4.5 5C4.5 6.65685 5.84315 8 7.5 8C9.15685 8 10.5 6.65685 10.5 5C10.5 3.34315 9.15685 2 7.5 2ZM5 9C3.067 9 1.5 10.567 1.5 12.5V13C1.5 13.8284 2.17157 14.5 3 14.5H12C12.8284 14.5 13.5 13.8284 13.5 13V12.5C13.5 10.567 11.933 9 10 9H5ZM10.75 6.75C10.75 6.47386 10.9739 6.25 11.25 6.25H12.5V5C12.5 4.72386 12.7239 4.5 13 4.5C13.2761 4.5 13.5 4.72386 13.5 5V6.25H14.75C15.0261 6.25 15.25 6.47386 15.25 6.75C15.25 7.02614 15.0261 7.25 14.75 7.25H13.5V8.5C13.5 8.77614 13.2761 9 13 9C12.7239 9 12.5 8.77614 12.5 8.5V7.25H11.25C10.9739 7.25 10.75 7.02614 10.75 6.75Z" fill="#3F465C"/>
</svg>
