<svg width="16" height="16" viewBox="0 0 16 16" fill="none" xmlns="http://www.w3.org/2000/svg">
<path fill-rule="evenodd" clip-rule="evenodd" d="M3 2C2.44772 2 2 2.44772 2 3V13C2 13.5523 2.44772 14 3 14H13C13.5523 14 14 13.5523 14 13V3C14 2.44772 13.5523 2 13 2H3ZM3 3L13 3V13H3V3ZM4.33334 5.16675C4.05719 5.16675 3.83334 5.39061 3.83334 5.66675V8V10.3333V10.3334C3.83334 10.6096 4.05719 10.8334 4.33334 10.8334L4.34623 10.8333H6.83334C7.10948 10.8333 7.33334 10.6094 7.33334 10.3333C7.33334 10.0571 7.10948 9.83325 6.83334 9.83325H4.83334V8.5H6.83334C7.10948 8.5 7.33334 8.27614 7.33334 8C7.33334 7.72386 7.10948 7.5 6.83334 7.5H4.83334V6.16675H7C7.27614 6.16675 7.5 5.94289 7.5 5.66675C7.5 5.39061 7.27614 5.16675 7 5.16675H4.33334ZM8.66666 5.83325C8.94281 5.83325 9.16666 6.05711 9.16666 6.33325V6.43431C9.46084 6.26414 9.80238 6.16675 10.1667 6.16675C11.2712 6.16675 12.1667 7.06217 12.1667 8.16675V10.3334C12.1667 10.6096 11.9428 10.8334 11.6667 10.8334C11.3905 10.8334 11.1667 10.6096 11.1667 10.3334V8.16675C11.1667 7.61446 10.719 7.16675 10.1667 7.16675C9.61437 7.16675 9.16666 7.61446 9.16666 8.16675V10.3333V10.3334C9.16666 10.6096 8.94281 10.8334 8.66666 10.8334C8.39052 10.8334 8.16666 10.6096 8.16666 10.3334V10.3333V8.16675V6.33325C8.16666 6.05711 8.39052 5.83325 8.66666 5.83325Z" fill="#3F465C"/>
</svg>
