<svg width="16" height="16" viewBox="0 0 16 16" fill="none" xmlns="http://www.w3.org/2000/svg">
<path fill-rule="evenodd" clip-rule="evenodd" d="M4.74851 3C4.63153 3 4.52522 3.06799 4.47616 3.17418L4.06018 4.07463C3.94571 4.32242 3.69766 4.48107 3.42472 4.48107L2 4.48107V13H8L14 13L14 4.48107H8.81213C8.53918 4.48107 8.29113 4.32242 8.17666 4.07463L7.76068 3.17419C7.71162 3.06799 7.60531 3 7.48834 3H4.74851ZM3.56835 2.7548C3.78094 2.29463 4.24161 2 4.74851 2H7.48834C7.99523 2 8.4559 2.29464 8.66849 2.7548L9.004 3.48107H14C14.5523 3.48107 15 3.92878 15 4.48107V13C15 13.5523 14.5523 14 14 14H8H2C1.44772 14 1 13.5523 1 13V4.48107C1 3.92878 1.44771 3.48107 2 3.48107H3.23284L3.56835 2.7548ZM8 10.5C9.10457 10.5 10 9.60457 10 8.5C10 7.39543 9.10457 6.5 8 6.5C6.89543 6.5 6 7.39543 6 8.5C6 9.60457 6.89543 10.5 8 10.5ZM8 11.5C9.65685 11.5 11 10.1569 11 8.5C11 6.84315 9.65685 5.5 8 5.5C6.34315 5.5 5 6.84315 5 8.5C5 10.1569 6.34315 11.5 8 11.5ZM12.9585 5.54175H11.6252V6.54175H12.9585V5.54175Z" fill="#3F465C"/>
</svg>
