<svg width="16" height="16" viewBox="0 0 16 16" fill="none" xmlns="http://www.w3.org/2000/svg">
<path fill-rule="evenodd" clip-rule="evenodd" d="M2.5 14C2.5 13.7239 2.72386 13.5 3 13.5L9.5 13.5C11.7091 13.5 13.5 11.7091 13.5 9.5C13.5 7.29086 11.7091 5.5 9.5 5.5L4.35061 5.5L6.36552 7.65883C6.55394 7.86071 6.54303 8.1771 6.34115 8.36552C6.13928 8.55394 5.82288 8.54303 5.63447 8.34115L2.83447 5.34116C2.65518 5.14905 2.65518 4.85094 2.83447 4.65884L5.63447 1.65884C5.82288 1.45697 6.13928 1.44606 6.34115 1.63447C6.54303 1.82289 6.55394 2.13928 6.36552 2.34116L4.35061 4.5L9.5 4.5C12.2614 4.5 14.5 6.73857 14.5 9.5C14.5 12.2614 12.2614 14.5 9.5 14.5L3 14.5C2.72386 14.5 2.5 14.2761 2.5 14Z" fill="#3F465C"/>
</svg>
