<svg width="16" height="16" viewBox="0 0 16 16" fill="none" xmlns="http://www.w3.org/2000/svg">
<path fill-rule="evenodd" clip-rule="evenodd" d="M8 1C4.13401 1 1 4.13401 1 8C1 11.866 4.13401 15 8 15C11.866 15 15 11.866 15 8C15 4.13401 11.866 1 8 1ZM2 8C2 4.68629 4.68629 2 8 2C11.3137 2 14 4.68629 14 8C14 11.3137 11.3137 14 8 14C4.68629 14 2 11.3137 2 8ZM5.41602 8C5.41602 8.41421 5.08023 8.75 4.66602 8.75C4.2518 8.75 3.91602 8.41421 3.91602 8C3.91602 7.58579 4.2518 7.25 4.66602 7.25C5.08023 7.25 5.41602 7.58579 5.41602 8ZM8 8.75C8.41421 8.75 8.75 8.41421 8.75 8C8.75 7.58579 8.41421 7.25 8 7.25C7.58579 7.25 7.25 7.58579 7.25 8C7.25 8.41421 7.58579 8.75 8 8.75ZM12.084 8C12.084 8.41421 11.7482 8.75 11.334 8.75C10.9198 8.75 10.584 8.41421 10.584 8C10.584 7.58579 10.9198 7.25 11.334 7.25C11.7482 7.25 12.084 7.58579 12.084 8Z" fill="#3F465C"/>
</svg>
