<svg width="16" height="16" viewBox="0 0 16 16" fill="none" xmlns="http://www.w3.org/2000/svg">
<path fill-rule="evenodd" clip-rule="evenodd" d="M1.5 2.25C1.5 1.83579 1.83579 1.5 2.25 1.5H10.75C11.1642 1.5 11.5 1.83579 11.5 2.25V3.5H13.75C14.1642 3.5 14.5 3.83579 14.5 4.25V13.75C14.5 14.1642 14.1642 14.5 13.75 14.5H5.25C4.83579 14.5 4.5 14.1642 4.5 13.75V12.5H2.25C1.83579 12.5 1.5 12.1642 1.5 11.75V2.25ZM10.5 2.5V3.5H5.25C4.83747 3.5 4.5 3.83346 4.5 4.24936V4.25224V4.25514V4.25805V4.26097V4.26391V4.26687V4.26983V4.27282V4.27581V4.27882V4.28184V4.28488V4.28793V4.29099V4.29407V4.29716V4.30027V4.30339V4.30652V4.30966V4.31282V4.31599V4.31918V4.32238V4.32559V4.32881V4.33205V4.3353V4.33856V4.34184V4.34513V4.34843V4.35175V4.35508V4.35842V4.36177V4.36514V4.36852V4.37191V4.37531V4.37873V4.38216V4.3856V4.38905V4.39252V4.396V4.39949V4.40299V4.40651V4.41003V4.41357V4.41712V4.42069V4.42426V4.42785V4.43145V4.43506V4.43868V4.44232V4.44596V4.44962V4.45329V4.45697V4.46066V4.46437V4.46808V4.47181V4.47555V4.4793V4.48306V4.48683V4.49061V4.49441V4.49821V4.50203V4.50586V4.50969V4.51354V4.5174V4.52128V4.52516V4.52905V4.53295V4.53687V4.54079V4.54473V4.54867V4.55263V4.5566V4.56057V4.56456V4.56856V4.57257V4.57658V4.58061V4.58465V4.5887V4.59276V4.59683V4.60091V4.605V4.60909V4.6132V4.61732V4.62145V4.62559V4.62974V4.63389V4.63806V4.64224V4.64642V4.65062V4.65482V4.65904V4.66326V4.66749V4.67174V4.67599V4.68025V4.68452V4.6888V4.69308V4.69738V4.70169V4.706V4.71033V4.71466V4.719V4.72335V4.72771V4.73208V4.73645V4.74084V4.74523V4.74963V4.75404V4.75846V4.76289V4.76732V4.77177V4.77622V4.78068V4.78515V4.78962V4.79411V4.7986V4.8031V4.80761V4.81213V4.81665V4.82118V4.82572V4.83027V4.83483V4.83939V4.84396V4.84854V4.85312V4.85772V4.86232V4.86692V4.87154V4.87616V4.88079V4.88543V4.89007V4.89472V4.89938V4.90405V4.90872V4.9134V4.91809V4.92278V4.92748V4.93219V4.9369V4.94162V4.94635V4.95108V4.95582V4.96057V4.96532V4.97008V4.97485V4.97962V4.9844V4.98919V4.99398V4.99877V5.00358V5.00839V5.0132V5.01803V5.02285V5.02769V5.03253V5.03737V5.04223V5.04708V5.05195V5.05681V5.06169V5.06657V5.07145V5.07635V5.08124V5.08614V5.09105V5.09596V5.10088V5.10581V5.11073V5.11567V5.12061V5.12555V5.1305V5.13545V5.14041V5.14538V5.15035V5.15532V5.1603V5.16528V5.17027V5.17526V5.18026V5.18526V5.19027V5.19528V5.20029V5.20531V5.21034V5.21536V5.2204V5.22543V5.23047V5.23552V5.24057V5.24562V5.25068V5.25574V5.26081V5.26588V5.27095V5.27603V5.28111V5.28619V5.29128V5.29637V5.30147V5.30657V5.31167V5.31678V5.32188V5.327V5.33211V5.33723V5.34236V5.34748V5.35261V5.35774V5.36288V5.36802V5.37316V5.3783V5.38345V5.3886V5.39375V5.39891V5.40407V5.40923V5.41439V5.41956V5.42473V5.4299V5.43508V5.44025V5.44543V5.45061V5.4558V5.46098V5.46617V5.47136V5.47655V5.48175V5.48695V5.49214V5.49734V5.50255V5.50775V5.51296V5.51817V5.52338V5.52859V5.5338V5.53902V5.54424V5.54945V5.55467V5.5599V5.56512V5.57034V5.57557V5.58079V5.58602V5.59125V5.59648V5.60171V5.60695V5.61218V5.61742V5.62265V5.62789V5.63313V5.63836V5.6436V5.64884V5.65408V5.65933V5.66457V5.66981V5.67505V5.6803V5.68554V5.69078V5.69603V5.70127V5.70652V5.71177V5.71701V5.72226V5.7275V5.73275V5.738V5.74324V5.74849V5.75374V5.75898V5.76423V5.76947V5.77472V5.77996V5.78521V5.79045V5.79569V5.80094V5.80618V5.81142V5.81666V5.82191V5.82715V5.83239V5.83762V5.84286V5.8481V5.85333V5.85857V5.8638V5.86904V5.87427V5.8795V5.88473V5.88996V5.89519V5.90041V5.90564V5.91086V5.91608V5.9213V5.92652V5.93174V5.93695V5.94217V5.94738V5.95259V5.9578V5.96301V5.96821V5.97342V5.97862V5.98382V5.98901V5.99421V5.9994V6.00459V6.00978V6.01497V6.02015V6.02534V6.03052V6.0357V6.04087V6.04604V6.05121V6.05638V6.06154V6.06671V6.07187V6.07702V6.08218V6.08733V6.09248V6.09762V6.10276V6.1079V6.11304V6.11817V6.1233V6.12843V6.13355V6.13867V6.14379V6.14891V6.15402V6.15912V6.16423V6.16933V6.17442V6.17952V6.18461V6.18969V6.19477V6.19985V6.20493V6.21V6.21506V6.22013V6.22519V6.23024V6.23529V6.24034V6.24538V6.25042V6.25545V6.26048V6.26551V6.27053V6.27555V6.28056V6.28557V6.29057V6.29557V6.30056V6.30555V6.31054V6.31552V6.32049V6.32546V6.33043V6.33539V6.34034V6.34529V6.35024V6.35518V6.36012V6.36505V6.36997V6.37489V6.3798V6.38471V6.38962V6.39452V6.39941V6.4043V6.40918V6.41405V6.41892V6.42379V6.42865V6.4335V6.43835V6.44319V6.44803V6.45286V6.45768V6.4625V6.46731V6.47212V6.47692V6.48171V6.4865V6.49128V6.49605V6.50082V6.50558V6.51034V6.51509V6.51983V6.52457V6.52929V6.53402V6.53873V6.54344V6.54815V6.55284V6.55753V6.56221V6.56689V6.57155V6.57621V6.58087V6.58552V6.59015V6.59479V6.59941V6.60403V6.60864V6.61324V6.61784V6.62243V6.62701V6.63158C4.5 6.90772 4.72386 7.13158 5 7.13158C5.27614 7.13158 5.5 6.90772 5.5 6.63158V6.62701V6.62243V6.61784V6.61324V6.60864V6.60403V6.59941V6.59479V6.59015V6.58552V6.58087V6.57621V6.57155V6.56689V6.56221V6.55753V6.55284V6.54815V6.54344V6.53873V6.53402V6.52929V6.52457V6.51983V6.51509V6.51034V6.50558V6.50082V6.49605V6.49128V6.4865V6.48171V6.47692V6.47212V6.46731V6.4625V6.45768V6.45286V6.44803V6.44319V6.43835V6.4335V6.42865V6.42379V6.41892V6.41405V6.40918V6.4043V6.39941V6.39452V6.38962V6.38471V6.3798V6.37489V6.36997V6.36505V6.36012V6.35518V6.35024V6.34529V6.34034V6.33539V6.33043V6.32546V6.32049V6.31552V6.31054V6.30555V6.30056V6.29557V6.29057V6.28557V6.28056V6.27555V6.27053V6.26551V6.26048V6.25545V6.25042V6.24538V6.24034V6.23529V6.23024V6.22519V6.22013V6.21506V6.21V6.20493V6.19985V6.19477V6.18969V6.18461V6.17952V6.17442V6.16933V6.16423V6.15912V6.15402V6.14891V6.14379V6.13867V6.13355V6.12843V6.1233V6.11817V6.11304V6.1079V6.10276V6.09762V6.09248V6.08733V6.08218V6.07702V6.07187V6.06671V6.06154V6.05638V6.05121V6.04604V6.04087V6.0357V6.03052V6.02534V6.02015V6.01497V6.00978V6.00459V5.9994V5.99421V5.98901V5.98382V5.97862V5.97342V5.96821V5.96301V5.9578V5.95259V5.94738V5.94217V5.93695V5.93174V5.92652V5.9213V5.91608V5.91086V5.90564V5.90041V5.89519V5.88996V5.88473V5.8795V5.87427V5.86904V5.8638V5.85857V5.85333V5.8481V5.84286V5.83762V5.83239V5.82715V5.82191V5.81666V5.81142V5.80618V5.80094V5.79569V5.79045V5.78521V5.77996V5.77472V5.76947V5.76423V5.75898V5.75374V5.74849V5.74324V5.738V5.73275V5.7275V5.72226V5.71701V5.71177V5.70652V5.70127V5.69603V5.69078V5.68554V5.6803V5.67505V5.66981V5.66457V5.65933V5.65408V5.64884V5.6436V5.63836V5.63313V5.62789V5.62265V5.61742V5.61218V5.60695V5.60171V5.59648V5.59125V5.58602V5.58079V5.57557V5.57034V5.56512V5.5599V5.55467V5.54945V5.54424V5.53902V5.5338V5.52859V5.52338V5.51817V5.51296V5.50775V5.50255V5.49734V5.49214V5.48695V5.48175V5.47655V5.47136V5.46617V5.46098V5.4558V5.45061V5.44543V5.44025V5.43508V5.4299V5.42473V5.41956V5.41439V5.40923V5.40407V5.39891V5.39375V5.3886V5.38345V5.3783V5.37316V5.36802V5.36288V5.35774V5.35261V5.34748V5.34236V5.33723V5.33211V5.327V5.32188V5.31678V5.31167V5.30657V5.30147V5.29637V5.29128V5.28619V5.28111V5.27603V5.27095V5.26588V5.26081V5.25574V5.25068V5.24562V5.24057V5.23552V5.23047V5.22543V5.2204V5.21536V5.21034V5.20531V5.20029V5.19528V5.19027V5.18526V5.18026V5.17526V5.17027V5.16528V5.1603V5.15532V5.15035V5.14538V5.14041V5.13545V5.1305V5.12555V5.12061V5.11567V5.11073V5.10581V5.10088V5.09596V5.09105V5.08614V5.08124V5.07635V5.07145V5.06657V5.06169V5.05681V5.05195V5.04708V5.04223V5.03737V5.03253V5.02769V5.02285V5.01803V5.0132V5.00839V5.00358V4.99877V4.99398V4.98919V4.9844V4.97962V4.97485V4.97008V4.96532V4.96057V4.95582V4.95108V4.94635V4.94162V4.9369V4.93219V4.92748V4.92278V4.91809V4.9134V4.90872V4.90405V4.89938V4.89472V4.89007V4.88543V4.88079V4.87616V4.87154V4.86692V4.86232V4.85772V4.85312V4.84854V4.84396V4.83939V4.83483V4.83027V4.82572V4.82118V4.81665V4.81213V4.80761V4.8031V4.7986V4.79411V4.78962V4.78515V4.78068V4.77622V4.77177V4.76732V4.76289V4.75846V4.75404V4.74963V4.74523V4.74084V4.73645V4.73208V4.72771V4.72335V4.719V4.71466V4.71033V4.706V4.70169V4.69738V4.69308V4.6888V4.68452V4.68025V4.67599V4.67174V4.66749V4.66326V4.65904V4.65482V4.65062V4.64642V4.64224V4.63806V4.63389V4.62974V4.62559V4.62145V4.61732V4.6132V4.60909V4.605V4.60091V4.59683V4.59276V4.5887V4.58465V4.58061V4.57658V4.57257V4.56856V4.56456V4.56057V4.5566V4.55263V4.54867V4.54473V4.54079V4.53687V4.53295V4.52905V4.52516V4.52128V4.5174V4.51354V4.50969V4.50586V4.50203V4.5H13.5V13.5H5.5V11.3684C5.5 11.0923 5.27614 10.8684 5 10.8684C4.72386 10.8684 4.5 11.0923 4.5 11.3684V11.5H2.5V2.5H10.5ZM5 8.5C4.72386 8.5 4.5 8.72386 4.5 9C4.5 9.27614 4.72386 9.5 5 9.5H9.79289L8.64645 10.6464C8.45118 10.8417 8.45118 11.1583 8.64645 11.3536C8.84171 11.5488 9.15829 11.5488 9.35355 11.3536L11.3536 9.35355C11.5488 9.15829 11.5488 8.84171 11.3536 8.64645L9.35355 6.64645C9.15829 6.45118 8.84171 6.45118 8.64645 6.64645C8.45118 6.84171 8.45118 7.15829 8.64645 7.35355L9.79289 8.5H5Z" fill="#3F465C"/>
</svg>
