<svg width="16" height="16" viewBox="0 0 16 16" fill="none" xmlns="http://www.w3.org/2000/svg">
<path fill-rule="evenodd" clip-rule="evenodd" d="M2.5 1.5C1.94771 1.5 1.5 1.94772 1.5 2.5V10.5C1.5 11.0523 1.94772 11.5 2.5 11.5H7.5V13.5H4C3.72386 13.5 3.5 13.7239 3.5 14C3.5 14.2761 3.72386 14.5 4 14.5H12C12.2761 14.5 12.5 14.2761 12.5 14C12.5 13.7239 12.2761 13.5 12 13.5H8.5V11.5H13.5C14.0523 11.5 14.5 11.0523 14.5 10.5V2.5C14.5 1.94771 14.0523 1.5 13.5 1.5H2.5ZM2.5 2.5L13.5 2.5V10.5H2.5V2.5ZM11.8536 5.14645C11.6583 4.95118 11.3417 4.95118 11.1464 5.14645L9.5 6.79289L8.35355 5.64645C8.15829 5.45118 7.84171 5.45118 7.64645 5.64645L6 7.29289L4.85355 6.14645C4.65829 5.95118 4.34171 5.95118 4.14645 6.14645C3.95118 6.34171 3.95118 6.65829 4.14645 6.85355L5.64645 8.35355C5.84171 8.54882 6.15829 8.54882 6.35355 8.35355L8 6.70711L9.14645 7.85355C9.34171 8.04882 9.65829 8.04882 9.85355 7.85355L11.8536 5.85355C12.0488 5.65829 12.0488 5.34171 11.8536 5.14645Z" fill="#3F465C"/>
</svg>
