<svg width="16" height="16" viewBox="0 0 16 16" fill="none" xmlns="http://www.w3.org/2000/svg">
<path fill-rule="evenodd" clip-rule="evenodd" d="M5.99999 2C6.1326 2 6.25978 2.05268 6.35355 2.14645L7.7071 3.5H14C14.5523 3.5 15 3.94771 15 4.5V13C15 13.5523 14.5523 14 14 14H2C1.44771 14 1 13.5523 1 13V3C1 2.44772 1.44771 2 2 2H5.99999ZM7.14644 4.35355L5.79288 3H2L2 13H14V4.5L7.49999 4.5C7.36738 4.5 7.24021 4.44732 7.14644 4.35355ZM3.99999 6.5C3.72385 6.5 3.49999 6.72386 3.49999 7C3.49999 7.27614 3.72385 7.5 3.99999 7.5H7.99999C8.27613 7.5 8.49999 7.27614 8.49999 7C8.49999 6.72386 8.27613 6.5 7.99999 6.5H3.99999Z" fill="#3F465C"/>
</svg>
