<svg width="16" height="16" viewBox="0 0 16 16" fill="none" xmlns="http://www.w3.org/2000/svg">
<path fill-rule="evenodd" clip-rule="evenodd" d="M2.5 2C2.22386 2 2 2.22386 2 2.5V7C2 7.27614 2.22386 7.5 2.5 7.5H7C7.27614 7.5 7.5 7.27614 7.5 7V2.5C7.5 2.22386 7.27614 2 7 2H2.5ZM3 6.5V3H6.5V6.5H3ZM2.5 8.5C2.22386 8.5 2 8.72386 2 9V13.5C2 13.7761 2.22386 14 2.5 14H7C7.27614 14 7.5 13.7761 7.5 13.5V9C7.5 8.72386 7.27614 8.5 7 8.5H2.5ZM3 13V9.5H6.5V13H3ZM8.5 2.5C8.5 2.22386 8.72386 2 9 2H13.5C13.7761 2 14 2.22386 14 2.5V7C14 7.27614 13.7761 7.5 13.5 7.5H9C8.72386 7.5 8.5 7.27614 8.5 7V2.5ZM9.5 3V6.5H13V3H9.5ZM9 8.5C8.72386 8.5 8.5 8.72386 8.5 9V13.5C8.5 13.7761 8.72386 14 9 14H13.5C13.7761 14 14 13.7761 14 13.5V9C14 8.72386 13.7761 8.5 13.5 8.5H9ZM9.5 13V9.5H13V13H9.5Z" fill="#3F465C"/>
</svg>
