<svg width="16" height="16" viewBox="0 0 16 16" fill="none" xmlns="http://www.w3.org/2000/svg">
<path fill-rule="evenodd" clip-rule="evenodd" d="M8 13C8.41421 13 8.75 12.6642 8.75 12.25C8.75 11.8358 8.41421 11.5 8 11.5C7.58579 11.5 7.25 11.8358 7.25 12.25C7.25 12.6642 7.58579 13 8 13Z" fill="#4C6AFF"/>
<path fill-rule="evenodd" clip-rule="evenodd" d="M7.40393 10.7343C7.58681 10.6549 7.78861 10.6109 8.00069 10.6109C8.43548 10.6109 8.82707 10.7959 9.10104 11.0914C9.21211 11.2113 9.40604 11.2371 9.52157 11.1215L10.144 10.4991C10.2286 10.4145 10.2424 10.2811 10.1685 10.1871C9.82354 9.7483 9.34912 9.41606 8.80278 9.24799L7.40393 10.7343Z" fill="#4C6AFF"/>
<path fill-rule="evenodd" clip-rule="evenodd" d="M7.96924 6.48999C6.4014 6.49224 4.99961 7.15207 4.01531 8.21681C3.88539 8.35734 3.89855 8.57443 4.03538 8.70824L4.64944 9.30875C4.80493 9.4608 5.05665 9.44551 5.20965 9.29095C5.39087 9.10789 5.59173 8.93788 5.80806 8.78627L7.96924 6.48999ZM9.59716 8.40371C10.041 8.60736 10.4345 8.8978 10.765 9.26332C10.9151 9.42929 11.175 9.45517 11.3375 9.30136L11.9173 8.75251C12.0551 8.62208 12.073 8.40757 11.9477 8.26506C11.5985 7.86768 11.1797 7.51439 10.7021 7.22967L9.59716 8.40371Z" fill="#4C6AFF"/>
<path fill-rule="evenodd" clip-rule="evenodd" d="M10.3027 4.01066C9.57687 3.81488 8.79969 3.71545 7.97736 3.71545C5.65919 3.71545 3.52403 4.71153 2.03148 6.26233C1.89476 6.40439 1.90379 6.6292 2.04495 6.76685L2.67786 7.38403C2.8293 7.53171 3.07288 7.52192 3.22132 7.37122C4.42778 6.14642 6.14147 5.28767 7.97736 5.28767C8.33803 5.28767 8.68923 5.31316 9.02974 5.36315L10.3027 4.01066ZM11.5685 6.30903C12.015 6.59915 12.4235 6.94763 12.7887 7.35004C12.934 7.51015 13.1838 7.52824 13.3409 7.37972L13.9523 6.80176C14.0923 6.66944 14.1079 6.45103 13.9811 6.30597C13.5191 5.77722 13.0017 5.32673 12.434 4.95699L12.6499 5.16012L11.5685 6.30903Z" fill="#4C6AFF"/>
<path fill-rule="evenodd" clip-rule="evenodd" d="M12.9518 2.94594C13.2253 3.20333 13.2384 3.63369 12.981 3.90717L5.68874 11.6553C5.43135 11.9287 5.00099 11.9418 4.72751 11.6844C4.45403 11.427 4.44099 10.9966 4.69838 10.7232L11.9906 2.97508C12.248 2.7016 12.6784 2.68855 12.9518 2.94594Z" fill="#4C6AFF"/>
</svg>
