<svg width="16" height="16" viewBox="0 0 16 16" fill="none" xmlns="http://www.w3.org/2000/svg">
<path fill-rule="evenodd" clip-rule="evenodd" d="M4.14645 3.64645C4.34171 3.45118 4.65829 3.45118 4.85355 3.64645L8.85355 7.64645C9.04882 7.84171 9.04882 8.15829 8.85355 8.35355L4.85355 12.3536C4.65829 12.5488 4.34171 12.5488 4.14645 12.3536C3.95118 12.1583 3.95118 11.8417 4.14645 11.6464L7.79289 8L4.14645 4.35355C3.95118 4.15829 3.95118 3.84171 4.14645 3.64645ZM7.14645 3.64645C7.34171 3.45118 7.65829 3.45118 7.85355 3.64645L11.8536 7.64645C12.0488 7.84171 12.0488 8.15829 11.8536 8.35355L7.85355 12.3536C7.65829 12.5488 7.34171 12.5488 7.14645 12.3536C6.95118 12.1583 6.95118 11.8417 7.14645 11.6464L10.7929 8L7.14645 4.35355C6.95118 4.15829 6.95118 3.84171 7.14645 3.64645Z" fill="#3F465C"/>
</svg>
