<svg width="16" height="16" viewBox="0 0 16 16" fill="none" xmlns="http://www.w3.org/2000/svg">
<path d="M9.99966 4.52472L5.7793 7.08169M6 9L10.2261 11.4822M4.36699 9.73331C5.30587 9.73331 6.06699 8.97219 6.06699 8.03331C6.06699 7.09444 5.30587 6.33331 4.36699 6.33331C3.42812 6.33331 2.66699 7.09444 2.66699 8.03331C2.66699 8.97219 3.42812 9.73331 4.36699 9.73331ZM11.7 5.4C12.6389 5.4 13.4 4.63888 13.4 3.7C13.4 2.76112 12.6389 2 11.7 2C10.7611 2 10 2.76112 10 3.7C10 4.63888 10.7611 5.4 11.7 5.4ZM11.7 10.6667C12.6389 10.6667 13.4 11.4278 13.4 12.3667C13.4 13.3056 12.6389 14.0667 11.7 14.0667C10.7611 14.0667 10 13.3056 10 12.3667C10 11.4278 10.7611 10.6667 11.7 10.6667Z" stroke="#3F465C" stroke-linejoin="round"/>
</svg>
