<svg width="16" height="16" viewBox="0 0 16 16" fill="none" xmlns="http://www.w3.org/2000/svg">
<path fill-rule="evenodd" clip-rule="evenodd" d="M5.5 2C5.77614 2 6 2.22386 6 2.5V3.5H10V2.5C10 2.22386 10.2239 2 10.5 2C10.7761 2 11 2.22386 11 2.5V3.5H13C13.5523 3.5 14 3.94772 14 4.5V13.5C14 14.0523 13.5523 14.5 13 14.5H3C2.44772 14.5 2 14.0523 2 13.5V4.5C2 3.94772 2.44772 3.5 3 3.5H5V2.5C5 2.22386 5.22386 2 5.5 2ZM10 4.5V5C10 5.27614 10.2239 5.5 10.5 5.5C10.7761 5.5 11 5.27614 11 5V4.5H13V6.68182H3V4.5H5V5C5 5.27614 5.22386 5.5 5.5 5.5C5.77614 5.5 6 5.27614 6 5V4.5H10ZM13 7.68182H3V13.5H13V7.68182Z" fill="#3F465C"/>
</svg>
