<svg width="16" height="16" viewBox="0 0 16 16" fill="none" xmlns="http://www.w3.org/2000/svg">
<path fill-rule="evenodd" clip-rule="evenodd" d="M6.86029 3.40125V2H9.13981V3.40125V3.75502L9.47341 3.87275C9.99146 4.05558 10.4646 4.32885 10.8741 4.67627L11.1416 4.90324L11.4461 4.72888L12.6781 4.02328L13.8144 5.97371L12.5888 6.67562L12.2807 6.85207L12.3458 7.20112C12.4442 7.72925 12.4442 8.27075 12.3458 8.79888L12.2807 9.14793L12.5888 9.32438L13.8144 10.0263L12.6781 11.9767L11.4461 11.2711L11.1413 11.0966L10.8738 11.324C10.4613 11.6746 9.9868 11.9469 9.47411 12.127L9.13981 12.2444V12.5987V14H6.86029V12.5987V12.2444L6.52599 12.127C6.0133 11.9469 5.53882 11.6746 5.12635 11.324L4.85878 11.0966L4.55403 11.2711L3.32199 11.9767L2.18565 10.0263L3.41125 9.32438L3.71936 9.14793L3.6543 8.79888C3.55586 8.27075 3.55586 7.72925 3.6543 7.20112L3.71936 6.85207L3.41125 6.67562L2.18565 5.97371L3.32199 4.02328L4.55403 4.72888L4.85847 4.90324L5.12599 4.67627C5.53549 4.32885 6.00864 4.05558 6.5267 3.87275L6.86029 3.75502V3.40125ZM6.62029 1C6.20056 1 5.86029 1.34026 5.86029 1.76V3.05983C5.46674 3.22826 5.09697 3.441 4.7573 3.69291L3.61225 3.03713C3.24993 2.82962 2.78806 2.95327 2.57787 3.31404L1.19989 5.67922C0.987479 6.0438 1.11272 6.51161 1.47886 6.72131L2.61725 7.37327C2.56821 7.78967 2.56821 8.21033 2.61725 8.62673L1.47886 9.27869C1.11272 9.48839 0.987479 9.9562 1.19989 10.3208L2.57787 12.686C2.78806 13.0467 3.24992 13.1704 3.61225 12.9629L4.75706 12.3072C5.09843 12.5607 5.46876 12.7733 5.86029 12.9405V14.24C5.86029 14.6597 6.20056 15 6.62029 15H9.37981C9.79954 15 10.1398 14.6597 10.1398 14.24V12.9405C10.5313 12.7733 10.9017 12.5607 11.243 12.3072L12.3879 12.9629C12.7502 13.1704 13.212 13.0467 13.4222 12.686L14.8002 10.3208C15.0126 9.9562 14.8874 9.48839 14.5212 9.27869L13.3829 8.62673C13.4319 8.21033 13.4319 7.78967 13.3829 7.37327L14.5212 6.72131C14.8874 6.51161 15.0126 6.0438 14.8002 5.67922L13.4222 3.31404C13.212 2.95327 12.7502 2.82962 12.3879 3.03713L11.2428 3.69291C10.9031 3.441 10.5334 3.22826 10.1398 3.05983V1.76C10.1398 1.34026 9.79954 1 9.37981 1H6.62029ZM5.75005 8C5.75005 6.75736 6.75741 5.75 8.00005 5.75C9.24269 5.75 10.2501 6.75736 10.2501 8C10.2501 9.24264 9.24269 10.25 8.00005 10.25C6.75741 10.25 5.75005 9.24264 5.75005 8ZM8.00005 4.75C6.20513 4.75 4.75005 6.20507 4.75005 8C4.75005 9.79493 6.20513 11.25 8.00005 11.25C9.79498 11.25 11.2501 9.79493 11.2501 8C11.2501 6.20507 9.79498 4.75 8.00005 4.75Z" fill="#3F465C"/>
</svg>
