<svg width="16" height="16" viewBox="0 0 16 16" fill="none" xmlns="http://www.w3.org/2000/svg">
<path fill-rule="evenodd" clip-rule="evenodd" d="M2 2C1.44772 2 1 2.44772 1 3V13C1 13.5523 1.44772 14 2 14H8.99997C9.27611 14 9.49997 13.7761 9.49997 13.5C9.49997 13.2239 9.27611 13 8.99997 13H2V3.60095L7.27886 7.12018C7.71553 7.4113 8.28441 7.4113 8.72108 7.12018L14 3.60091V7.5C14 7.77614 14.2239 8 14.5 8C14.7761 8 15 7.77614 15 7.5V3C15 2.44772 14.5523 2 14 2H2ZM14 3.00005V3H14L14 3.00005ZM13.0986 3L2.90136 3L7.83356 6.28813C7.93433 6.35531 8.06561 6.35531 8.16638 6.28813L13.0986 3ZM13.658 9.53523C13.8595 9.34636 14.1759 9.35658 14.3647 9.55803L15.8647 11.1581C16.001 11.3035 16.038 11.5159 15.9588 11.6988C15.8795 11.8817 15.6993 12 15.5 12H11.5C11.2238 12 11 11.7762 11 11.5C11 11.2239 11.2238 11 11.5 11H14.3459L13.6352 10.242C13.4463 10.0405 13.4565 9.72409 13.658 9.53523ZM12.6352 15.442C12.8241 15.6434 13.1405 15.6536 13.3419 15.4648C13.5434 15.2759 13.5536 14.9595 13.3647 14.758L12.6541 14H15.5C15.7761 14 16 13.7761 16 13.5C16 13.2238 15.7761 13 15.5 13H11.5C11.3007 13 11.1204 13.1183 11.0412 13.3012C10.9619 13.4841 10.9989 13.6965 11.1352 13.8419L12.6352 15.442Z" fill="#3F465C"/>
</svg>
