<svg width="16" height="16" viewBox="0 0 16 16" fill="none" xmlns="http://www.w3.org/2000/svg">
<path fill-rule="evenodd" clip-rule="evenodd" d="M6 5C6 3.89543 6.89543 3 8 3C9.10457 3 10 3.89543 10 5C10 6.10457 9.10457 7 8 7C6.89543 7 6 6.10457 6 5ZM8 2C6.34315 2 5 3.34315 5 5C5 6.65685 6.34315 8 8 8C9.65685 8 11 6.65685 11 5C11 3.34315 9.65685 2 8 2ZM8 9.5C8 9.22386 7.77614 9 7.5 9H5.5C3.567 9 2 10.567 2 12.5V13C2 13.8284 2.67157 14.5 3.5 14.5H7.5C7.77614 14.5 8 14.2761 8 14C8 13.7239 7.77614 13.5 7.5 13.5H3.5C3.22386 13.5 3 13.2761 3 13V12.5C3 11.1193 4.11929 10 5.5 10H7.5C7.77614 10 8 9.77614 8 9.5ZM13.2015 10.2986C13.2869 10.384 13.2869 10.5225 13.2015 10.6079L11.8094 12L13.2015 13.3922C13.2869 13.4776 13.2869 13.6161 13.2015 13.7015C13.116 13.7869 12.9775 13.7869 12.8921 13.7015L11.5 12.3094L10.1079 13.7015C10.0225 13.7869 9.88395 13.7869 9.79852 13.7015C9.7131 13.6161 9.7131 13.4776 9.79852 13.3922L11.1906 12L9.79852 10.6079C9.7131 10.5225 9.7131 10.384 9.79852 10.2986C9.88395 10.2131 10.0225 10.2131 10.1079 10.2986L11.5 11.6907L12.8921 10.2986C12.9775 10.2131 13.116 10.2131 13.2015 10.2986Z" fill="#3F465C"/>
</svg>
