<svg width="16" height="16" viewBox="0 0 16 16" fill="none" xmlns="http://www.w3.org/2000/svg">
<path fill-rule="evenodd" clip-rule="evenodd" d="M15 2.5C15 2.22386 14.7761 2 14.5 2H1.5C1.22386 2 1 2.22386 1 2.5C1 2.77614 1.22386 3 1.5 3H14.5C14.7761 3 15 2.77614 15 2.5ZM10 6C10 5.72386 9.77614 5.5 9.5 5.5H1.5C1.22386 5.5 1 5.72386 1 6C1 6.27614 1.22386 6.5 1.5 6.5H9.5C9.77614 6.5 10 6.27614 10 6ZM9.5 9.5C9.77614 9.5 10 9.72386 10 10C10 10.2761 9.77614 10.5 9.5 10.5H1.5C1.22386 10.5 1 10.2761 1 10C1 9.72386 1.22386 9.5 1.5 9.5H9.5ZM15 14C15 13.7239 14.7761 13.5 14.5 13.5H1.5C1.22386 13.5 1 13.7239 1 14C1 14.2761 1.22386 14.5 1.5 14.5H14.5C14.7761 14.5 15 14.2761 15 14ZM14.8156 7.84635C14.9116 7.92631 14.9116 8.07368 14.8156 8.15364L12.328 10.2266C12.1978 10.3352 12 10.2426 12 10.073V5.92701C12 5.75744 12.1978 5.66481 12.328 5.77336L14.8156 7.84635Z" fill="#3F465C"/>
</svg>
