<svg width="16" height="16" viewBox="0 0 16 16" fill="none" xmlns="http://www.w3.org/2000/svg">
<path fill-rule="evenodd" clip-rule="evenodd" d="M2 2.5C2 2.22386 2.22386 2 2.5 2H13.5C13.7761 2 14 2.22386 14 2.5C14 2.77614 13.7761 3 13.5 3H2.5C2.22386 3 2 2.77614 2 2.5ZM7.5 6.20711V14.5C7.5 14.7761 7.72386 15 8 15C8.27614 15 8.5 14.7761 8.5 14.5V6.20711L12.3964 10.1036C12.5917 10.2988 12.9083 10.2988 13.1036 10.1036C13.2988 9.90829 13.2988 9.59171 13.1036 9.39645L8.35385 4.64674L8.35355 4.64645M7.64615 4.64674L2.89645 9.39645C2.70118 9.59171 2.70118 9.90829 2.89645 10.1036C3.09171 10.2988 3.40829 10.2988 3.60355 10.1036L7.5 6.20711M7.64645 4.64645C7.64715 4.64574 7.64786 4.64503 7.64857 4.64433L7.64645 4.64645ZM7.80861 4.53794C7.74844 4.56289 7.69419 4.59926 7.64857 4.64433C7.69602 4.59744 7.75051 4.56198 7.80861 4.53794ZM8.35143 4.64433C8.30581 4.59926 8.25156 4.56289 8.19139 4.53794C8.24949 4.56198 8.30398 4.59744 8.35143 4.64433Z" fill="#3F465C"/>
<path d="M3.25 9.75L3.5 9.5L8 5L12.75 9.75" stroke="#3F465C" stroke-linecap="round" stroke-linejoin="round"/>
</svg>
