<svg width="16" height="16" viewBox="0 0 16 16" fill="none" xmlns="http://www.w3.org/2000/svg">
<path fill-rule="evenodd" clip-rule="evenodd" d="M6.98055 5.47684C7.17581 5.67211 7.4924 5.67211 7.68766 5.47684L9.60411 3.5604C10.3852 2.77935 11.6515 2.77935 12.4325 3.5604C13.2136 4.34144 13.2136 5.60777 12.4325 6.38882L10.5161 8.30527C10.3208 8.50053 10.3208 8.81712 10.5161 9.01238C10.7113 9.20764 11.0279 9.20764 11.2232 9.01238L13.1396 7.09593C14.3112 5.92436 14.3112 4.02486 13.1396 2.85329C11.9681 1.68172 10.0686 1.68172 8.897 2.85329L6.98055 4.76974C6.78529 4.965 6.78529 5.28158 6.98055 5.47684ZM5.47709 6.98043C5.67235 7.17569 5.67235 7.49228 5.47709 7.68754L3.56064 9.60399C2.77959 10.385 2.77959 11.6514 3.56064 12.4324C4.34169 13.2135 5.60802 13.2135 6.38907 12.4324L8.30552 10.516C8.50078 10.3207 8.81736 10.3207 9.01262 10.516C9.20788 10.7112 9.20788 11.0278 9.01262 11.2231L7.09617 13.1395C5.9246 14.3111 4.02511 14.3111 2.85353 13.1395C1.68196 11.9679 1.68196 10.0685 2.85353 8.89688L4.76998 6.98043C4.96524 6.78517 5.28183 6.78517 5.47709 6.98043ZM9.76427 6.93583C9.95954 6.74057 9.95954 6.42398 9.76427 6.22872C9.56901 6.03346 9.25243 6.03346 9.05717 6.22872L6.22874 9.05715C6.03348 9.25241 6.03348 9.56899 6.22874 9.76426C6.424 9.95952 6.74058 9.95952 6.93585 9.76426L9.76427 6.93583Z" fill="#3F465C"/>
</svg>
