<svg width="16" height="16" viewBox="0 0 16 16" fill="none" xmlns="http://www.w3.org/2000/svg">
<path fill-rule="evenodd" clip-rule="evenodd" d="M2.5 2C1.94772 2 1.5 2.44772 1.5 3V13C1.5 13.5523 1.94772 14 2.5 14H7.25H13.5C14.0523 14 14.5 13.5523 14.5 13V3C14.5 2.44771 14.0523 2 13.5 2H7.25H2.5ZM13.5 13H7.75V3L13.5 3V13ZM6.75 13V3L2.5 3V13H6.75ZM9.62 4.5C9.34385 4.5 9.12 4.72386 9.12 5C9.12 5.27614 9.34385 5.5 9.62 5.5H11.62C11.8961 5.5 12.12 5.27614 12.12 5C12.12 4.72386 11.8961 4.5 11.62 4.5H9.62ZM9.12 8C9.12 7.72386 9.34385 7.5 9.62 7.5H11.62C11.8961 7.5 12.12 7.72386 12.12 8C12.12 8.27614 11.8961 8.5 11.62 8.5H9.62C9.34385 8.5 9.12 8.27614 9.12 8ZM9.62 10.5C9.34385 10.5 9.12 10.7239 9.12 11C9.12 11.2761 9.34385 11.5 9.62 11.5H11.62C11.8961 11.5 12.12 11.2761 12.12 11C12.12 10.7239 11.8961 10.5 11.62 10.5H9.62ZM3.7 4.5C3.7 4.29399 3.93519 4.17639 4.1 4.3L5.43333 5.3C5.56666 5.4 5.56666 5.6 5.43333 5.7L4.1 6.7C3.93519 6.82361 3.7 6.70601 3.7 6.5V4.5Z" fill="#3F465C"/>
</svg>
