<svg width="16" height="16" viewBox="0 0 16 16" fill="none" xmlns="http://www.w3.org/2000/svg">
<path fill-rule="evenodd" clip-rule="evenodd" d="M4.00043 2.69231C1.92067 4.77208 1.78192 8.09872 3.68128 10.3444L7.51743 14.8802C7.76988 15.1787 8.23005 15.1787 8.4825 14.8802L12.3187 10.3444C14.218 8.09871 14.0793 4.77208 11.9995 2.69231C9.79062 0.483432 6.20932 0.483432 4.00043 2.69231ZM4.44481 9.69867C2.88126 7.84999 2.99548 5.11149 4.70754 3.39942C6.5259 1.58106 9.47404 1.58106 11.2924 3.39942C13.0045 5.11149 13.1187 7.84998 11.5551 9.69867L7.99997 13.9022L4.44481 9.69867ZM6.49997 6.6001C6.49997 5.77167 7.17154 5.1001 7.99997 5.1001C8.82839 5.1001 9.49997 5.77167 9.49997 6.6001C9.49997 7.42852 8.82839 8.1001 7.99997 8.1001C7.17154 8.1001 6.49997 7.42852 6.49997 6.6001ZM7.99997 4.1001C6.61925 4.1001 5.49997 5.21938 5.49997 6.6001C5.49997 7.98081 6.61925 9.1001 7.99997 9.1001C9.38068 9.1001 10.5 7.98081 10.5 6.6001C10.5 5.21938 9.38068 4.1001 7.99997 4.1001Z" fill="#3F465C"/>
</svg>
