<svg width="16" height="16" viewBox="0 0 16 16" fill="none" xmlns="http://www.w3.org/2000/svg">
<path fill-rule="evenodd" clip-rule="evenodd" d="M5.5 5C5.5 3.89543 6.39543 3 7.5 3C8.60457 3 9.5 3.89543 9.5 5C9.5 6.10457 8.60457 7 7.5 7C6.39543 7 5.5 6.10457 5.5 5ZM7.5 2C5.84315 2 4.5 3.34315 4.5 5C4.5 6.65685 5.84315 8 7.5 8C9.15685 8 10.5 6.65685 10.5 5C10.5 3.34315 9.15685 2 7.5 2ZM11.7581 5.5C11.482 5.5 11.2581 5.72386 11.2581 6C11.2581 6.27614 11.482 6.5 11.7581 6.5H14.4248C14.701 6.5 14.9248 6.27614 14.9248 6C14.9248 5.72386 14.701 5.5 14.4248 5.5H11.7581ZM12.7581 7.5C12.482 7.5 12.2581 7.72386 12.2581 8C12.2581 8.27614 12.482 8.5 12.7581 8.5H14.4248C14.701 8.5 14.9248 8.27614 14.9248 8C14.9248 7.72386 14.701 7.5 14.4248 7.5H12.7581ZM1.5 12.5C1.5 10.567 3.067 9 5 9H10C11.933 9 13.5 10.567 13.5 12.5V13C13.5 13.8284 12.8284 14.5 12 14.5H3C2.17157 14.5 1.5 13.8284 1.5 13V12.5ZM5 10C3.61929 10 2.5 11.1193 2.5 12.5V13C2.5 13.2761 2.72386 13.5 3 13.5H12C12.2761 13.5 12.5 13.2761 12.5 13V12.5C12.5 11.1193 11.3807 10 10 10H5Z" fill="#3F465C"/>
</svg>
