<svg width="16" height="16" viewBox="0 0 16 16" fill="none" xmlns="http://www.w3.org/2000/svg">
<path fill-rule="evenodd" clip-rule="evenodd" d="M1.25 3.5C1.25 2.94772 1.69772 2.5 2.25 2.5H13.75C14.3023 2.5 14.75 2.94771 14.75 3.5V7C14.75 7.27614 14.5261 7.5 14.25 7.5C13.9739 7.5 13.75 7.27614 13.75 7V3.76759L8.72111 7.12018C8.28444 7.4113 7.71556 7.4113 7.27889 7.12018L2.25 3.76759V12.5H2.25623H2.26296H2.26973H2.27654H2.28338H2.29027H2.29719H2.30415H2.31115H2.31819H2.32526H2.33237H2.33952H2.34671H2.35394H2.3612H2.3685H2.37584H2.38322H2.39063H2.39808H2.40556H2.41309H2.42064H2.42824H2.43587H2.44354H2.45124H2.45898H2.46676H2.47457H2.48242H2.4903H2.49822H2.50617H2.51416H2.52219H2.53025H2.53834H2.54647H2.55463H2.56283H2.57106H2.57933H2.58763H2.59597H2.60434H2.61274H2.62118H2.62965H2.63815H2.64669H2.65526H2.66386H2.6725H2.68117H2.68987H2.69861H2.70738H2.71618H2.72501H2.73388H2.74278H2.75171H2.76067H2.76966H2.77869H2.78775H2.79684H2.80596H2.81511H2.82429H2.83351H2.84275H2.85203H2.86133H2.87067H2.88004H2.88944H2.89887H2.90832H2.91781H2.92733H2.93688H2.94646H2.95607H2.96571H2.97537H2.98507H2.9948H3.00455H3.01433H3.02415H3.03399H3.04386H3.05376H3.06368H3.07364H3.08362H3.09363H3.10367H3.11374H3.12384H3.13396H3.14411H3.15429H3.16449H3.17473H3.18499H3.19527H3.20559H3.21593H3.22629H3.23669H3.24711H3.25755H3.26802H3.27852H3.28905H3.2996H3.31017H3.32077H3.3314H3.34205H3.35273H3.36343H3.37416H3.38491H3.39569H3.4065H3.41732H3.42817H3.43905H3.44995H3.46088H3.47182H3.4828H3.49379H3.50481H3.51586H3.52693H3.53802H3.54913H3.56027H3.57143H3.58261H3.59382H3.60505H3.6163H3.62757H3.63887H3.65019H3.66153H3.67289H3.68428H3.69569H3.70711H3.71856H3.73004H3.74153H3.75304H3.76458H3.77614H3.78771H3.79931H3.81093H3.82257H3.83423H3.84591H3.85762H3.86934H3.88108H3.89284H3.90462H3.91642H3.92824H3.94008H3.95194H3.96382H3.97572H3.98764H3.99957H4.01153H4.0235H4.03549H4.0475H4.05953H4.07158H4.08365H4.09573H4.10783H4.11995H4.13209H4.14424H4.15641H4.1686H4.18081H4.19303H4.20528H4.21753H4.22981H4.2421H4.25441H4.26673H4.27907H4.29143H4.30381H4.3162H4.3286H4.34102H4.35346H4.36591H4.37838H4.39086H4.40336H4.41588H4.42841H4.44095H4.45351H4.46608H4.47867H4.49127H4.50389H4.51652H4.52917H4.54183H4.5545H4.56719H4.57989H4.5926H4.60533H4.61807H4.63083H4.6436H4.65638H4.66917H4.68198H4.6948H4.70763H4.72048H4.73333H4.7462H4.75908H4.77198H4.78488H4.7978H4.81073H4.82367H4.83662H4.84958H4.86256H4.87554H4.88854H4.90155H4.91457H4.9276H4.94064H4.95369H4.96675H4.97982H4.9929H5.00599H5.01909H5.0322H5.04532H5.05845H5.07159H5.08474H5.0979H5.11107H5.12425H5.13743H5.15062H5.16383H5.17704H5.19026H5.20349H5.21672H5.22997H5.24322H5.25648H5.26975H5.28303H5.29631H5.3096H5.3229H5.33621H5.34952H5.36284H5.37617H5.3895H5.40284H5.41619H5.42954H5.4429H5.45627H5.46964H5.48302H5.4964H5.50979H5.52319H5.53659H5.55H5.56341H5.57683H5.59025H5.60368H5.61711H5.63055H5.64399H5.65743H5.67089H5.68434H5.6978H5.71126H5.72473H5.7382H5.75168H5.76516H5.77864H5.79213H5.80562H5.81911H5.83261H5.8461H5.85961H5.87311H5.88662H5.90013H5.91364H5.92715H5.94067H5.95419H5.96771H5.98123H5.99476H6.00829H6.02181H6.03534H6.04887H6.06241H6.07594H6.08947H6.10301H6.11654H6.13008H6.14362H6.15715H6.17069H6.18423H6.19777H6.21131H6.22484H6.23838H6.25192H6.26546H6.27899H6.29253H6.30607H6.3196H6.33313H6.34666H6.3602H6.37373H6.38725H6.40078H6.41431H6.42783H6.44135H6.45487H6.46839H6.4819H6.49541H6.50892H6.52243H6.53594H6.54944H6.56294H6.57643H6.58993H6.60342H6.6169H6.63039H6.64387H6.65734H6.67081H6.68428H6.69775H6.71121H6.72466H6.73811H6.75156H6.765H6.77844H6.79188H6.8053H6.81873H6.83214H6.84556H6.85896H6.87237H6.88576H6.89915H6.91254H6.92592H6.93929H6.95266H6.96602H6.97937H6.99272H7.00606H7.0194H7.03273H7.04605H7.05936H7.07267H7.08597H7.09926H7.11254H7.12582H7.13909H7.15235H7.16561H7.17885H7.19209H7.20532H7.21854H7.23175H7.24496H7.25815H7.27134H7.28452H7.29769H7.31085H7.324H7.33714H7.35027H7.36339H7.3765H7.38961H7.4027H7.41578H7.42885H7.44191H7.45497H7.46801H7.48104H7.49406H7.50707H7.52007H7.53305H7.54603H7.55899H7.57195H7.58489H7.59782H7.61074H7.62365H7.63654H7.64942H7.66229H7.67515H7.688H7.70083H7.71365H7.72646H7.73926H7.75204H7.76481H7.77757H7.79031H7.80304H7.81576H7.82846H7.84115H7.85383H7.86649H7.87913H7.89177H7.90439H7.91699H7.92958H7.94216H7.95472H7.96726H7.97979H7.99231H8.00481H8.0173H8.02977H8.04222H8.05466H8.06709H8.07949H8.09189H8.10426H8.11662H8.12896H8.14129H8.1536H8.16589H8.17817H8.19043H8.20268H8.2149H8.22711H8.2393H8.25148H8.26364H8.27577H8.2879H8.3C8.57614 12.5 8.8 12.7239 8.8 13C8.8 13.2761 8.57614 13.5 8.3 13.5H8.2879H8.27577H8.26364H8.25148H8.2393H8.22711H8.2149H8.20268H8.19043H8.17817H8.16589H8.1536H8.14129H8.12896H8.11662H8.10426H8.09189H8.07949H8.06709H8.05466H8.04222H8.02977H8.0173H8.00481H7.99231H7.97979H7.96726H7.95472H7.94216H7.92958H7.91699H7.90439H7.89177H7.87913H7.86649H7.85383H7.84115H7.82846H7.81576H7.80304H7.79031H7.77757H7.76481H7.75204H7.73926H7.72646H7.71365H7.70083H7.688H7.67515H7.66229H7.64942H7.63654H7.62365H7.61074H7.59782H7.58489H7.57195H7.55899H7.54603H7.53305H7.52007H7.50707H7.49406H7.48104H7.46801H7.45497H7.44191H7.42885H7.41578H7.4027H7.38961H7.3765H7.36339H7.35027H7.33714H7.324H7.31085H7.29769H7.28452H7.27134H7.25815H7.24496H7.23175H7.21854H7.20532H7.19209H7.17885H7.16561H7.15235H7.13909H7.12582H7.11254H7.09926H7.08597H7.07267H7.05936H7.04605H7.03273H7.0194H7.00606H6.99272H6.97937H6.96602H6.95266H6.93929H6.92592H6.91254H6.89915H6.88576H6.87237H6.85896H6.84556H6.83214H6.81873H6.8053H6.79188H6.77844H6.765H6.75156H6.73811H6.72466H6.71121H6.69775H6.68428H6.67081H6.65734H6.64387H6.63039H6.6169H6.60342H6.58993H6.57643H6.56294H6.54944H6.53594H6.52243H6.50892H6.49541H6.4819H6.46839H6.45487H6.44135H6.42783H6.41431H6.40078H6.38725H6.37373H6.3602H6.34666H6.33313H6.3196H6.30607H6.29253H6.27899H6.26546H6.25192H6.23838H6.22484H6.21131H6.19777H6.18423H6.17069H6.15715H6.14362H6.13008H6.11654H6.10301H6.08947H6.07594H6.06241H6.04887H6.03534H6.02181H6.00829H5.99476H5.98123H5.96771H5.95419H5.94067H5.92715H5.91364H5.90013H5.88662H5.87311H5.85961H5.8461H5.83261H5.81911H5.80562H5.79213H5.77864H5.76516H5.75168H5.7382H5.72473H5.71126H5.6978H5.68434H5.67089H5.65743H5.64399H5.63055H5.61711H5.60368H5.59025H5.57683H5.56341H5.55H5.53659H5.52319H5.50979H5.4964H5.48302H5.46964H5.45627H5.4429H5.42954H5.41619H5.40284H5.3895H5.37617H5.36284H5.34952H5.33621H5.3229H5.3096H5.29631H5.28303H5.26975H5.25648H5.24322H5.22997H5.21672H5.20349H5.19026H5.17704H5.16383H5.15062H5.13743H5.12425H5.11107H5.0979H5.08474H5.07159H5.05845H5.04532H5.0322H5.01909H5.00599H4.9929H4.97982H4.96675H4.95369H4.94064H4.9276H4.91457H4.90155H4.88854H4.87554H4.86256H4.84958H4.83662H4.82367H4.81073H4.7978H4.78488H4.77198H4.75908H4.7462H4.73333H4.72048H4.70763H4.6948H4.68198H4.66917H4.65638H4.6436H4.63083H4.61807H4.60533H4.5926H4.57989H4.56719H4.5545H4.54183H4.52917H4.51652H4.50389H4.49127H4.47867H4.46608H4.45351H4.44095H4.42841H4.41588H4.40336H4.39086H4.37838H4.36591H4.35346H4.34102H4.3286H4.3162H4.30381H4.29143H4.27907H4.26673H4.25441H4.2421H4.22981H4.21753H4.20528H4.19303H4.18081H4.1686H4.15641H4.14424H4.13209H4.11995H4.10783H4.09573H4.08365H4.07158H4.05953H4.0475H4.03549H4.0235H4.01153H3.99957H3.98764H3.97572H3.96382H3.95194H3.94008H3.92824H3.91642H3.90462H3.89284H3.88108H3.86934H3.85762H3.84591H3.83423H3.82257H3.81093H3.79931H3.78771H3.77614H3.76458H3.75304H3.74153H3.73004H3.71856H3.70711H3.69569H3.68428H3.67289H3.66153H3.65019H3.63887H3.62757H3.6163H3.60505H3.59382H3.58261H3.57143H3.56027H3.54913H3.53802H3.52693H3.51586H3.50481H3.49379H3.4828H3.47182H3.46088H3.44995H3.43905H3.42817H3.41732H3.4065H3.39569H3.38491H3.37416H3.36343H3.35273H3.34205H3.3314H3.32077H3.31017H3.2996H3.28905H3.27852H3.26802H3.25755H3.24711H3.23669H3.22629H3.21593H3.20559H3.19527H3.18499H3.17473H3.16449H3.15429H3.14411H3.13396H3.12384H3.11374H3.10367H3.09363H3.08362H3.07364H3.06368H3.05376H3.04386H3.03399H3.02415H3.01433H3.00455H2.9948H2.98507H2.97537H2.96571H2.95607H2.94646H2.93688H2.92733H2.91781H2.90832H2.89887H2.88944H2.88004H2.87067H2.86133H2.85203H2.84275H2.83351H2.82429H2.81511H2.80596H2.79684H2.78775H2.77869H2.76966H2.76067H2.75171H2.74278H2.73388H2.72501H2.71618H2.70738H2.69861H2.68987H2.68117H2.6725H2.66386H2.65526H2.64669H2.63815H2.62965H2.62118H2.61274H2.60434H2.59597H2.58763H2.57933H2.57106H2.56283H2.55463H2.54647H2.53834H2.53025H2.52219H2.51416H2.50617H2.49822H2.4903H2.48242H2.47457H2.46676H2.45898H2.45124H2.44354H2.43587H2.42824H2.42064H2.41309H2.40556H2.39808H2.39063H2.38322H2.37584H2.3685H2.3612H2.35394H2.34671H2.33952H2.33237H2.32526H2.31819H2.31115H2.30415H2.29719H2.29027H2.28338H2.27654H2.26973H2.26296H2.25623H2.24954C1.69666 13.5 1.25 13.0517 1.25 12.5V3.5ZM3.65139 3.5L12.3486 3.5L8.16641 6.28813C8.06564 6.35531 7.93436 6.35531 7.83359 6.28813L3.65139 3.5ZM11.0191 11.3733C10.9727 11.6223 10.9727 11.8777 11.0191 12.1267L10.513 12.4166C10.4042 12.4789 10.3671 12.6178 10.4301 12.7261L10.8966 13.5268C10.9591 13.6339 11.0962 13.6707 11.2038 13.609L11.7129 13.3175C11.9072 13.4827 12.1306 13.6109 12.3719 13.6956V14.2743C12.3719 14.399 12.473 14.5 12.5976 14.5H13.5337C13.6584 14.5 13.7594 14.399 13.7594 14.2743V13.6956C14.0007 13.6109 14.2242 13.4827 14.4185 13.3175L14.9275 13.609C15.0351 13.6707 15.1723 13.6339 15.2347 13.5268L15.7012 12.7261C15.7643 12.6178 15.7271 12.4789 15.6184 12.4166L15.1122 12.1267C15.1586 11.8777 15.1586 11.6223 15.1122 11.3733L15.6184 11.0834C15.7271 11.0211 15.7643 10.8822 15.7012 10.7739L15.2347 9.97319C15.1723 9.86606 15.0351 9.82934 14.9275 9.89096L14.4185 10.1825C14.2256 10.0189 14.0029 9.89031 13.7594 9.80438V9.22569C13.7594 9.10105 13.6584 9 13.5337 9H12.5976C12.473 9 12.3719 9.10105 12.3719 9.22569V9.80438C12.1284 9.89031 11.9057 10.0189 11.7129 10.1825L11.2038 9.89096C11.0962 9.82934 10.9591 9.86606 10.8966 9.97319L10.4301 10.7739C10.3671 10.8822 10.4042 11.0211 10.513 11.0834L11.0191 11.3733ZM13.5518 12.2361C13.4229 12.3651 13.248 12.4375 13.0657 12.4375C12.8833 12.4375 12.7085 12.3651 12.5795 12.2361C12.4506 12.1072 12.3782 11.9323 12.3782 11.75C12.3782 11.5677 12.4506 11.3928 12.5795 11.2639C12.7085 11.1349 12.8833 11.0625 13.0657 11.0625C13.248 11.0625 13.4229 11.1349 13.5518 11.2639C13.6807 11.3928 13.7532 11.5677 13.7532 11.75C13.7532 11.9323 13.6807 12.1072 13.5518 12.2361Z" fill="#3F465C"/>
</svg>
