<svg width="16" height="16" viewBox="0 0 16 16" fill="none" xmlns="http://www.w3.org/2000/svg">
<path fill-rule="evenodd" clip-rule="evenodd" d="M5 2C5 1.72386 4.77614 1.5 4.5 1.5C4.22386 1.5 4 1.72386 4 2V3H2C1.44772 3 1 3.44772 1 4V13C1 13.5523 1.44771 14 2 14H7.5C7.77614 14 8 13.7761 8 13.5C8 13.2239 7.77614 13 7.5 13H2V7H12V7.5C12 7.77614 12.2239 8 12.5 8C12.7761 8 13 7.77614 13 7.5V4C13 3.44772 12.5523 3 12 3H10V2C10 1.72386 9.77614 1.5 9.5 1.5C9.22386 1.5 9 1.72386 9 2V3H5V2ZM4 4V4.5C4 4.77614 4.22386 5 4.5 5C4.77614 5 5 4.77614 5 4.5V4H9V4.5C9 4.77614 9.22386 5 9.5 5C9.77614 5 10 4.77614 10 4.5V4H12V6H2V4H4ZM10 11.5C9.72386 11.5 9.5 11.7239 9.5 12C9.5 12.2761 9.72386 12.5 10 12.5H11.5V14C11.5 14.2761 11.7239 14.5 12 14.5C12.2761 14.5 12.5 14.2761 12.5 14V12.5H14C14.2761 12.5 14.5 12.2761 14.5 12C14.5 11.7239 14.2761 11.5 14 11.5H12.5V10C12.5 9.72386 12.2761 9.5 12 9.5C11.7239 9.5 11.5 9.72386 11.5 10V11.5H10Z" fill="#37435C"/>
</svg>
