<svg width="16" height="16" viewBox="0 0 16 16" fill="none" xmlns="http://www.w3.org/2000/svg">
<path fill-rule="evenodd" clip-rule="evenodd" d="M3.99298 10.7865C3.14257 9.86212 2.68153 8.75631 2.51117 8C2.68153 7.24369 3.14257 6.13788 3.99298 5.21353C4.86873 4.26162 6.15677 3.5 8.00001 3.5C9.84326 3.5 11.1313 4.26162 12.007 5.21353C12.8575 6.13788 13.3185 7.24369 13.4889 8C13.3185 8.75631 12.8575 9.86212 12.007 10.7865C11.1313 11.7384 9.84326 12.5 8.00001 12.5C6.15677 12.5 4.86873 11.7384 3.99298 10.7865ZM8.00001 2.5C5.84326 2.5 4.29796 3.40504 3.25705 4.53647C2.22833 5.65465 1.69178 6.99167 1.50972 7.90194L1.49011 8L1.50972 8.09806C1.69178 9.00833 2.22833 10.3454 3.25705 11.4635C4.29796 12.595 5.84326 13.5 8.00001 13.5C10.1568 13.5 11.7021 12.595 12.743 11.4635C13.7717 10.3454 14.3083 9.00833 14.4903 8.09806L14.5099 8L14.4903 7.90194C14.3083 6.99167 13.7717 5.65465 12.743 4.53647C11.7021 3.40504 10.1568 2.5 8.00001 2.5ZM6.50001 8C6.50001 7.17157 7.17159 6.5 8.00001 6.5C8.82844 6.5 9.50001 7.17157 9.50001 8C9.50001 8.82843 8.82844 9.5 8.00001 9.5C7.17159 9.5 6.50001 8.82843 6.50001 8ZM8.00001 5.5C6.6193 5.5 5.50001 6.61929 5.50001 8C5.50001 9.38071 6.6193 10.5 8.00001 10.5C9.38073 10.5 10.5 9.38071 10.5 8C10.5 6.61929 9.38073 5.5 8.00001 5.5Z" fill="#3F465C"/>
</svg>
