<svg width="16" height="16" viewBox="0 0 16 16" fill="none" xmlns="http://www.w3.org/2000/svg">
<path d="M3.15682 15.451H12.8431C13.6661 15.451 14.3333 14.7838 14.3333 13.9608V4.2745L10.1111 0.549011H3.15682C2.33381 0.549011 1.66663 1.2162 1.66663 2.03921V13.9608C1.66663 14.7838 2.33381 15.451 3.15682 15.451Z" fill="#626E85"/>
<mask id="mask0_1_4990" maskUnits="userSpaceOnUse" x="10" y="0" width="5" height="5">
<path d="M10.1237 4.24027H14.3084L10.1237 0.549011V4.24027Z" fill="url(#paint0_linear_1_4990)"/>
</mask>
<g mask="url(#mask0_1_4990)">
<path d="M10.1217 0.457153H14.4058L14.4265 4.23608H11.3675C10.6795 4.23608 10.1217 3.67831 10.1217 2.99028V0.457153Z" fill="#B1B7C2"/>
</g>
<path fill-rule="evenodd" clip-rule="evenodd" d="M8.36427 5.57576C8.12996 5.34145 7.75006 5.34145 7.51574 5.57576L5.57625 7.51525C5.34193 7.74957 5.34193 8.12947 5.57625 8.36378C5.81056 8.5981 6.19046 8.5981 6.42478 8.36378L7.32575 7.46281V10.8126C7.32575 11.1439 7.59438 11.4126 7.92575 11.4126C8.25712 11.4126 8.52575 11.1439 8.52575 10.8126V7.43429L9.45523 8.36378C9.68955 8.5981 10.0694 8.5981 10.3038 8.36378C10.5381 8.12947 10.5381 7.74957 10.3038 7.51525L8.36427 5.57576Z" fill="white"/>
<defs>
<linearGradient id="paint0_linear_1_4990" x1="2.56444" y1="0.549011" x2="4.79023" y2="21.1921" gradientUnits="userSpaceOnUse">
<stop stop-color="#55B0FF"/>
<stop offset="1" stop-color="#6BBAFF"/>
</linearGradient>
</defs>
</svg>
