<svg width="16" height="16" viewBox="0 0 16 16" fill="none" xmlns="http://www.w3.org/2000/svg">
<path fill-rule="evenodd" clip-rule="evenodd" d="M2.5 1.5C1.94858 1.5 1.5 1.94619 1.5 2.49934V2.52237V2.54543V2.56853V2.59166V2.61482V2.63802V2.66125V2.68451V2.7078V2.73113V2.75449V2.77788V2.8013V2.82475V2.84823V2.87175V2.89529V2.91886V2.94247V2.9661V2.98976V3.01345V3.03718V3.06092V3.0847V3.10851V3.13234V3.15621V3.1801V3.20401V3.22796V3.25193V3.27592V3.29995V3.324V3.34807V3.37218V3.3963V3.42045V3.44463V3.46883V3.49306V3.51731V3.54159V3.56588V3.59021V3.61455V3.63892V3.66331V3.68773V3.71216V3.73662V3.7611V3.7856V3.81013V3.83467V3.85924V3.88382V3.90843V3.93306V3.9577V3.98237V4.00706V4.03176V4.05649V4.08123V4.106V4.13078V4.15558V4.18039V4.20523V4.23008V4.25495V4.27983V4.30474V4.32966V4.35459V4.37954V4.40451V4.4295V4.45449V4.47951V4.50454V4.52958V4.55464V4.57971V4.60479V4.62989V4.65501V4.68013V4.70527V4.73042V4.75559V4.78076V4.80595V4.83115V4.85636V4.88159V4.90682V4.93207V4.95732V4.98259V5.00787V5.03315V5.05845V5.08376V5.10907V5.13439V5.15973V5.18507V5.21042V5.23577V5.26114V5.28651V5.31189V5.33728V5.36267V5.38807V5.41348V5.4389V5.46431V5.48974V5.51517V5.54061V5.56605V5.59149V5.61694V5.6424V5.66786V5.69332V5.71878V5.74425V5.76972V5.7952V5.82068V5.84616V5.87164V5.89713V5.92261V5.9481V5.97359V5.99908V6.02457V6.05006V6.07555V6.10104V6.12653V6.15202V6.17751V6.203V6.22849V6.25398V6.27946V6.30495V6.33043V6.35591V6.38139V6.40686V6.43233V6.4578V6.48326V6.50872V6.53418V6.55963V6.58508V6.61052V6.63596V6.6614V6.68682V6.71225V6.73766V6.76308V6.78848V6.81388V6.83927V6.86465V6.89003V6.9154V6.94076V6.96612V6.99146V7.0168V7.04213V7.06745V7.09276V7.11806V7.14335V7.16863V7.19391V7.21917V7.24442V7.26966V7.29489V7.32011V7.34532V7.37051V7.39569V7.42087V7.44602V7.47117V7.4963V7.52142V7.54653V7.57163V7.5967V7.62177V7.64682V7.67186V7.69688V7.72189V7.74688V7.77186V7.79682V7.82176V7.84669V7.8716V7.8965V7.92138V7.94624V7.97109V7.99591V8.02072V8.04551V8.07029V8.09504V8.11978V8.14449V8.16919V8.19387V8.21853V8.24317V8.26778V8.29238V8.31696V8.34152V8.36605V8.39057V8.41506V8.43953V8.46398V8.48841V8.51281V8.53719V8.56155V8.58588V8.6102V8.63448V8.65875V8.68299V8.70721V8.7314V8.75556V8.7797V8.80382V8.82791V8.85198V8.87601V8.90003V8.92401V8.94797V8.9719V8.99581V9.01969V9.04354V9.06736V9.09115V9.11492V9.13866V9.16237V9.18604V9.20969V9.23331V9.25691V9.28047V9.304V9.3275V9.35097V9.3744V9.39781V9.42119V9.44453V9.46784V9.49112V9.51437V9.53759V9.56077V9.58392V9.60703V9.63012V9.65317V9.67618V9.69916V9.72211V9.74502V9.76789V9.79074V9.81354V9.83631V9.85905V9.88174V9.90441V9.92703V9.94962V9.97217V9.99469V10.0172V10.0396V10.062V10.0844V10.1067V10.129V10.1512V10.1734V10.1956V10.2177V10.2398V10.2619V10.2839V10.3058V10.3278V10.3496V10.3715V10.3933V10.4151V10.4368V10.4585V10.4801V10.5017V10.5232V10.5447V10.5662V10.5876V10.609V10.6303V10.6516V10.6728V10.694V10.7152V10.7363V10.7574V10.7784V10.7994V10.8203V10.8412V10.862V10.8828V10.9035V10.9242V10.9448V10.9654V10.986V11.0065V11.0269V11.0473V11.0677V11.088V11.1082V11.1284V11.1486V11.1687V11.1887V11.2087V11.2287V11.2486V11.2684V11.2882V11.308V11.3277V11.3473V11.3669V11.3864V11.4059V11.4253V11.4447V11.464V11.4833V11.5025V11.5217V11.5408V11.5598V11.5788V11.5977V11.6166V11.6354V11.6542V11.6729V11.6916V11.7102V11.7287V11.7472V11.7656V11.784V11.8023V11.8206V11.8388V11.8569V11.875V11.893V11.911V11.9289V11.9467V11.9645V11.9822V11.9999V12.0175V12.035V12.0525V12.0699V12.0873V12.1046V12.1218V12.139V12.1561V12.1731V12.1901V12.207V12.2239V12.2406V12.2574V12.274V12.2906V12.3072V12.3236V12.34V12.3564V12.3726V12.3888V12.405V12.421V12.437V12.453V12.4688V12.4846V12.5004V12.516V12.5316V12.5472V12.5626V12.578V12.5934V12.6086V12.6238V12.6389V12.654V12.6689V12.6838V12.6987V12.7134V12.7281V12.7428V12.7573V12.7718V12.7862V12.8005V12.8148V12.829V12.8431V12.8571V12.8711V12.885V12.8988V12.9126V12.9262V12.9398V12.9534V12.9668V12.9802V12.9935V13.0067V13.0198V13.0329V13.0459V13.0588V13.0717V13.0844V13.0971V13.1097V13.1222V13.1347V13.1471V13.1594V13.1716V13.1837V13.1958V13.2077V13.2196V13.2315V13.2432V13.2548V13.2664V13.2779V13.2893V13.3007V13.3119V13.3231V13.3342V13.3452V13.3561V13.3669V13.3777V13.3884V13.3989V13.4094V13.4199V13.4302V13.4405V13.4506V13.4607V13.4707V13.4806V13.4904V13.5002C1.5 14.0527 1.94795 14.5 2.5 14.5H13.5C14.0521 14.5 14.5 14.0527 14.5 13.5002V13.4904V13.4806V13.4707V13.4607V13.4506V13.4405V13.4302V13.4199V13.4094V13.3989V13.3884V13.3777V13.3669V13.3561V13.3452V13.3342V13.3231V13.3119V13.3007V13.2893V13.2779V13.2664V13.2548V13.2432V13.2315V13.2196V13.2077V13.1958V13.1837V13.1716V13.1594V13.1471V13.1347V13.1222V13.1097V13.0971V13.0844V13.0717V13.0588V13.0459V13.0329V13.0198V13.0067V12.9935V12.9802V12.9668V12.9534V12.9398V12.9262V12.9126V12.8988V12.885V12.8711V12.8571V12.8431V12.829V12.8148V12.8005V12.7862V12.7718V12.7573V12.7428V12.7281V12.7134V12.6987V12.6838V12.6689V12.654V12.6389V12.6238V12.6086V12.5934V12.578V12.5626V12.5472V12.5316V12.516V12.5004V12.4846V12.4688V12.453V12.437V12.421V12.405V12.3888V12.3726V12.3564V12.34V12.3236V12.3072V12.2906V12.274V12.2574V12.2406V12.2239V12.207V12.1901V12.1731V12.1561V12.139V12.1218V12.1046V12.0873V12.0699V12.0525V12.035V12.0175V11.9999V11.9822V11.9645V11.9467V11.9289V11.911V11.893V11.875V11.8569V11.8388V11.8206V11.8023V11.784V11.7656V11.7472V11.7287V11.7102V11.6916V11.6729V11.6542V11.6354V11.6166V11.5977V11.5788V11.5598V11.5408V11.5217V11.5025V11.4833V11.464V11.4447V11.4253V11.4059V11.3864V11.3669V11.3473V11.3277V11.308V11.2882V11.2684V11.2486V11.2287V11.2087V11.1887V11.1687V11.1486V11.1284V11.1082V11.088V11.0677V11.0473V11.0269V11.0065V10.986V10.9654V10.9448V10.9242V10.9035V10.8828V10.862V10.8412V10.8203V10.7994V10.7784V10.7574V10.7363V10.7152V10.694V10.6728V10.6516V10.6303V10.609V10.5876V10.5662V10.5447V10.5232V10.5017V10.4801V10.4585V10.4368V10.4151V10.3933V10.3715V10.3496V10.3278V10.3058V10.2839V10.2619V10.2398V10.2177V10.1956V10.1734V10.1512V10.129V10.1067V10.0844V10.062V10.0396V10.0172V9.99469V9.97217V9.94962V9.92703V9.90441V9.88174V9.85905V9.83631V9.81354V9.79074V9.76789V9.74502V9.72211V9.69916V9.67618V9.65317V9.63012V9.60703V9.58392V9.56077V9.53759V9.51437V9.49112V9.46784V9.44453V9.42119V9.39781V9.3744V9.35097V9.3275V9.304V9.28047V9.25691V9.23331V9.20969V9.18604V9.16236V9.13866V9.11492V9.09115V9.06736V9.04354V9.01969V8.99581V8.9719V8.94797V8.92401V8.90003V8.87601V8.85198V8.82791V8.80382V8.7797V8.75556V8.7314V8.70721V8.68299V8.65875V8.63448V8.6102V8.58588V8.56155V8.53719V8.51281V8.48841V8.46398V8.43953V8.41506V8.39057V8.36605V8.34152V8.31696V8.29238V8.26778V8.24317V8.21853V8.19387V8.16919V8.14449V8.11978V8.09504V8.07029V8.04551V8.02072V7.99591V7.97108V7.94624V7.92138V7.8965V7.8716V7.84669V7.82176V7.79682V7.77186V7.74688V7.72189V7.69688V7.67186V7.64682V7.62177V7.5967V7.57163V7.54653V7.52142V7.4963V7.47117V7.44602V7.42087V7.39569V7.37051V7.34532V7.32011V7.29489V7.26966V7.24442V7.21917V7.19391V7.16863V7.14335V7.11806V7.09276V7.06745V7.04213V7.0168V6.99146V6.96612V6.94076V6.9154V6.89003V6.86465V6.83927V6.81388V6.78848V6.76308V6.73766V6.71225V6.68682V6.6614V6.63596V6.61052V6.58508V6.55963V6.53418V6.50872V6.48326V6.4578V6.43233V6.40686V6.38139V6.35591V6.33043V6.30495V6.27946V6.25398V6.22849V6.203V6.17752V6.15202V6.12653V6.10104V6.07555V6.05006V6.02457V5.99908V5.97359V5.9481V5.92261V5.89713V5.87164V5.84616V5.82068V5.7952V5.76972V5.74425V5.71878V5.69332V5.66786V5.6424V5.61694V5.59149V5.56605V5.54061V5.51517V5.48974V5.46432V5.4389V5.41348V5.38808V5.36267V5.33728V5.31189V5.28651V5.26114V5.23577V5.21042V5.18507V5.15973V5.13439V5.10907V5.08376V5.05845V5.03315V5.00787V4.98259V4.95732V4.93207V4.90682V4.88159V4.85637V4.83115V4.80595V4.78076V4.75559V4.73042V4.70527V4.68013V4.65501V4.62989V4.60479V4.57971V4.55464V4.52958V4.50454V4.47951V4.45449V4.4295V4.40451V4.37954V4.35459V4.32966V4.30474V4.27983V4.25495V4.23008V4.20523V4.18039V4.15558V4.13078V4.106V4.08123V4.05649V4.03176V4.00706V3.98237V3.9577V3.93306V3.90843V3.88382V3.85924V3.83467V3.81013V3.7856V3.7611V3.73662V3.71216V3.68773V3.66331V3.63892V3.61455V3.59021V3.56588V3.54159V3.51731V3.49306V3.46883V3.44463V3.42046V3.3963V3.37218V3.34807V3.324V3.29995V3.27592V3.25193V3.22796V3.20401V3.1801V3.15621V3.13234V3.10851V3.0847V3.06093V3.03718V3.01345V2.98976V2.9661V2.94247V2.91886V2.89529V2.87175V2.84823V2.82475V2.8013V2.77788V2.75449V2.73113V2.70781V2.68451V2.66125V2.63802V2.61482V2.59166V2.56853V2.54543V2.52237V2.49934C14.5 1.9462 14.0514 1.5 13.5 1.5H2.5ZM2.5 2.52237V2.49934L2.5 2.5H13.5V2.52237V2.54543V2.56853V2.59166V2.61482V2.63802V2.66125V2.68451V2.70781V2.73113V2.75449V2.77788V2.8013V2.82475V2.84823V2.87175V2.89529V2.91886V2.94247V2.9661V2.98976V3.01345V3.03718V3.06093V3.0847V3.10851V3.13234V3.15621V3.1801V3.20401V3.22796V3.25193V3.27592V3.29995V3.324V3.34807V3.37218V3.3963V3.42046V3.44463V3.46883V3.49306V3.51731V3.54159V3.56588V3.59021V3.61455V3.63892V3.66331V3.68773V3.71216V3.73662V3.7611V3.7856V3.81013V3.83467V3.85924V3.88382V3.90843V3.93306V3.9577V3.98237V4.00706V4.03176V4.05649V4.08123V4.106V4.13078V4.15558V4.18039V4.20523V4.23008V4.25495V4.27983V4.30474V4.32966V4.35459V4.37954V4.40451V4.4295V4.45449V4.47951V4.50454V4.52958V4.55464V4.57971V4.60479V4.62989V4.65501V4.68013V4.70527V4.73042V4.75559V4.78076V4.80595V4.83115V4.85637V4.88159V4.90682V4.93207V4.95732V4.98259V5.00787V5.03315V5.05845V5.08376V5.10907V5.13439V5.15973V5.18507V5.21042V5.23577V5.26114V5.28651V5.31189V5.33728V5.36267V5.38808V5.41348V5.4389V5.46432V5.48974V5.51517V5.54061V5.56605V5.59149V5.61694V5.6424V5.66786V5.69332V5.71878V5.74425V5.76972V5.7952V5.82068V5.84616V5.87164V5.89713V5.92261V5.9481V5.97359V5.99908V6.02457V6.05006V6.07555V6.10104V6.12653V6.15202V6.17752V6.203V6.22849V6.25398V6.27946V6.30495V6.33043V6.35591V6.38139V6.40686V6.43233V6.4578V6.48326V6.50872V6.53418V6.55963V6.58508V6.61052V6.63596V6.6614V6.68682V6.71225V6.73766V6.76308V6.78848V6.81388V6.83927V6.86465V6.89003V6.9154V6.94076V6.96612V6.99146V7.0168V7.04213V7.06745V7.09276V7.11806V7.14335V7.16863V7.19391V7.21917V7.24442V7.26966V7.29489V7.32011V7.34532V7.37051V7.39569V7.42087V7.44602V7.47117V7.4963V7.52142V7.54653V7.57163V7.5967V7.62177V7.64682V7.67186V7.69688V7.72189V7.74688V7.77186V7.79682V7.82176V7.84669V7.8716V7.8965V7.92138V7.94624V7.97108V7.99591V8.02072V8.04551V8.07029V8.09504V8.11978V8.14449V8.16919V8.19387V8.21853V8.24317V8.26778V8.29238V8.31696V8.34152V8.36605V8.39057V8.41506V8.43953V8.46398V8.48841V8.51281V8.53719V8.56155V8.58588V8.6102V8.63448V8.65875V8.68299V8.70721V8.7314V8.75556V8.7797V8.80382V8.82791V8.85198V8.87601V8.90003V8.92401V8.94797V8.9719V8.99581V9.01969V9.04354V9.06736V9.09115V9.11492V9.13866V9.16236V9.18604V9.20969V9.23331V9.25691V9.28047V9.304V9.3275V9.35097V9.3744V9.39781V9.42119V9.44453V9.46784V9.49112V9.51437V9.53759V9.56077V9.58392V9.60703V9.63012V9.65317V9.67618V9.69916V9.72211V9.74502V9.76789V9.79074V9.81354V9.83631V9.85905V9.88174V9.90441V9.92703V9.94962V9.97217V9.99469V10.0172V10.0396V10.062V10.0844V10.1067V10.129V10.1512V10.1734V10.1956V10.2177V10.2398V10.2619V10.2839V10.3058V10.3278V10.3496V10.3715V10.3933V10.4151V10.4368V10.4585V10.4801V10.5017V10.5232V10.5447V10.5662V10.5876V10.609V10.6303V10.6516V10.6728V10.694V10.7152V10.7363V10.7574V10.7784V10.7994V10.8203V10.8412V10.862V10.8828V10.9035V10.9242V10.9448V10.9654V10.986V11.0065V11.0269V11.0473V11.0677V11.088V11.1082V11.1284V11.1486V11.1687V11.1887V11.2087V11.2287V11.2486V11.2684V11.2882V11.308V11.3277V11.3473V11.3669V11.3864V11.4059V11.4253V11.4447V11.464V11.4833V11.5025V11.5217V11.5408V11.5598V11.5788V11.5977V11.6166V11.6354V11.6542V11.6729V11.6916V11.7102V11.7287V11.7472V11.7656V11.784V11.8023V11.8206V11.8388V11.8569V11.875V11.893V11.911V11.9289V11.9467V11.9645V11.9822V11.9999V12.0175V12.035V12.0525V12.0699V12.0873V12.1046V12.1218V12.139V12.1561V12.1731V12.1901V12.207V12.2239V12.2406V12.2574V12.274V12.2906V12.3072V12.3236V12.34V12.3564V12.3726V12.3888V12.405V12.421V12.437V12.453V12.4688V12.4846V12.5004V12.516V12.5316V12.5472V12.5626V12.578V12.5934V12.6086V12.6238V12.6389V12.654V12.6689V12.6838V12.6987V12.7134V12.7281V12.7428V12.7573V12.7718V12.7862V12.8005V12.8148V12.829V12.8431V12.8571V12.8711V12.885V12.8988V12.9126V12.9262V12.9398V12.9534V12.9668V12.9802V12.9935V13.0067V13.0198V13.0329V13.0459V13.0588V13.0717V13.0844V13.0971V13.1097V13.1222V13.1347V13.1471V13.1594V13.1716V13.1837V13.1958V13.2077V13.2196V13.2315V13.2432V13.2548V13.2664V13.2779V13.2893V13.3007V13.3119V13.3231V13.3342V13.3452V13.3561V13.3669V13.3777V13.3884V13.3989V13.4094V13.4199V13.4302V13.4405V13.4506V13.4607V13.4707V13.4806V13.4904V13.5H2.5L2.5 13.5002V13.4904V13.4806V13.4707V13.4607V13.4506V13.4405V13.4302V13.4199V13.4094V13.3989V13.3884V13.3777V13.3669V13.3561V13.3452V13.3342V13.3231V13.3119V13.3007V13.2893V13.2779V13.2664V13.2548V13.2432V13.2315V13.2196V13.2077V13.1958V13.1837V13.1716V13.1594V13.1471V13.1347V13.1222V13.1097V13.0971V13.0844V13.0717V13.0588V13.0459V13.0329V13.0198V13.0067V12.9935V12.9802V12.9668V12.9534V12.9398V12.9262V12.9126V12.8988V12.885V12.8711V12.8571V12.8431V12.829V12.8148V12.8005V12.7862V12.7718V12.7573V12.7428V12.7281V12.7134V12.6987V12.6838V12.6689V12.654V12.6389V12.6238V12.6086V12.5934V12.578V12.5626V12.5472V12.5316V12.516V12.5004V12.4846V12.4688V12.453V12.437V12.421V12.405V12.3888V12.3726V12.3564V12.34V12.3236V12.3072V12.2906V12.274V12.2574V12.2406V12.2239V12.207V12.1901V12.1731V12.1561V12.139V12.1218V12.1046V12.0873V12.0699V12.0525V12.035V12.0175V11.9999V11.9822V11.9645V11.9467V11.9289V11.911V11.893V11.875V11.8569V11.8388V11.8206V11.8023V11.784V11.7656V11.7472V11.7287V11.7102V11.6916V11.6729V11.6542V11.6354V11.6166V11.5977V11.5788V11.5598V11.5408V11.5217V11.5025V11.4833V11.464V11.4447V11.4253V11.4059V11.3864V11.3669V11.3473V11.3277V11.308V11.2882V11.2684V11.2486V11.2287V11.2087V11.1887V11.1687V11.1486V11.1284V11.1082V11.088V11.0677V11.0473V11.0269V11.0065V10.986V10.9654V10.9448V10.9242V10.9035V10.8828V10.862V10.8412V10.8203V10.7994V10.7784V10.7574V10.7363V10.7152V10.694V10.6728V10.6516V10.6303V10.609V10.5876V10.5662V10.5447V10.5232V10.5017V10.4801V10.4585V10.4368V10.4151V10.3933V10.3715V10.3496V10.3278V10.3058V10.2839V10.2619V10.2398V10.2177V10.1956V10.1734V10.1512V10.129V10.1067V10.0844V10.062V10.0396V10.0172V9.99469V9.97217V9.94962V9.92703V9.90441V9.88174V9.85905V9.83631V9.81354V9.79074V9.76789V9.74502V9.72211V9.69916V9.67618V9.65317V9.63012V9.60703V9.58392V9.56077V9.53759V9.51437V9.49112V9.46784V9.44453V9.42119V9.39781V9.3744V9.35097V9.3275V9.304V9.28047V9.25691V9.23331V9.20969V9.18604V9.16237V9.13866V9.11492V9.09115V9.06736V9.04354V9.01969V8.99581V8.9719V8.94797V8.92401V8.90003V8.87601V8.85198V8.82791V8.80382V8.7797V8.75556V8.7314V8.70721V8.68299V8.65875V8.63448V8.6102V8.58588V8.56155V8.53719V8.51281V8.48841V8.46398V8.43953V8.41506V8.39057V8.36605V8.34152V8.31696V8.29238V8.26778V8.24317V8.21853V8.19387V8.16919V8.14449V8.11978V8.09504V8.07029V8.04551V8.02072V7.99591V7.97109V7.94624V7.92138V7.8965V7.8716V7.84669V7.82176V7.79682V7.77186V7.74688V7.72189V7.69688V7.67186V7.64682V7.62177V7.5967V7.57163V7.54653V7.52142V7.4963V7.47117V7.44602V7.42087V7.39569V7.37051V7.34532V7.32011V7.29489V7.26966V7.24442V7.21917V7.19391V7.16863V7.14335V7.11806V7.09276V7.06745V7.04213V7.0168V6.99146V6.96612V6.94076V6.9154V6.89003V6.86465V6.83927V6.81388V6.78848V6.76308V6.73766V6.71225V6.68682V6.6614V6.63596V6.61052V6.58508V6.55963V6.53418V6.50872V6.48326V6.4578V6.43233V6.40686V6.38139V6.35591V6.33043V6.30495V6.27946V6.25398V6.22849V6.203V6.17751V6.15202V6.12653V6.10104V6.07555V6.05006V6.02457V5.99908V5.97359V5.9481V5.92261V5.89713V5.87164V5.84616V5.82068V5.7952V5.76972V5.74425V5.71878V5.69332V5.66786V5.6424V5.61694V5.59149V5.56605V5.54061V5.51517V5.48974V5.46431V5.4389V5.41348V5.38807V5.36267V5.33728V5.31189V5.28651V5.26114V5.23577V5.21042V5.18507V5.15973V5.13439V5.10907V5.08376V5.05845V5.03315V5.00787V4.98259V4.95732V4.93207V4.90682V4.88159V4.85636V4.83115V4.80595V4.78076V4.75559V4.73042V4.70527V4.68013V4.65501V4.62989V4.60479V4.57971V4.55464V4.52958V4.50454V4.47951V4.45449V4.4295V4.40451V4.37954V4.35459V4.32966V4.30474V4.27983V4.25495V4.23008V4.20523V4.18039V4.15558V4.13078V4.106V4.08123V4.05649V4.03176V4.00706V3.98237V3.9577V3.93306V3.90843V3.88382V3.85924V3.83467V3.81013V3.7856V3.7611V3.73662V3.71216V3.68773V3.66331V3.63892V3.61455V3.59021V3.56588V3.54159V3.51731V3.49306V3.46883V3.44463V3.42045V3.3963V3.37218V3.34807V3.324V3.29995V3.27592V3.25193V3.22796V3.20401V3.1801V3.15621V3.13234V3.10851V3.0847V3.06092V3.03718V3.01345V2.98976V2.9661V2.94247V2.91886V2.89529V2.87175V2.84823V2.82475V2.8013V2.77788V2.75449V2.73113V2.7078V2.68451V2.66125V2.63802V2.61482V2.59166V2.56853V2.54543V2.52237ZM11 4.5H8C7.72386 4.5 7.5 4.72386 7.5 5C7.5 5.27614 7.72386 5.5 8 5.5H9.79289L5.5 9.79289V8C5.5 7.72386 5.27614 7.5 5 7.5C4.72386 7.5 4.5 7.72386 4.5 8L4.5 11C4.5 11.2761 4.72386 11.5 5 11.5H8C8.27614 11.5 8.5 11.2761 8.5 11C8.5 10.7239 8.27614 10.5 8 10.5H6.20711L10.5 6.20711V8C10.5 8.27614 10.7239 8.5 11 8.5C11.2761 8.5 11.5 8.27614 11.5 8V5C11.5 4.72386 11.2761 4.5 11 4.5Z" fill="#3F465C"/>
</svg>
