<svg width="16" height="16" viewBox="0 0 16 16" fill="none" xmlns="http://www.w3.org/2000/svg">
<path d="M3.39995 13.5V3.29999H5.49995V1.79999H10.5V3.29999H12.6V13.5C12.6 13.7761 12.3761 14 12.1 14H3.89995C3.62381 14 3.39995 13.7761 3.39995 13.5Z" fill="#3F465C"/>
<path d="M2.19995 2.79999C1.92381 2.79999 1.69995 3.02385 1.69995 3.29999C1.69995 3.57613 1.92381 3.79999 2.19995 3.79999V2.79999ZM13.8 3.79999C14.0761 3.79999 14.3 3.57613 14.3 3.29999C14.3 3.02385 14.0761 2.79999 13.8 2.79999V3.79999ZM5.49995 1.79999V1.29999C5.22381 1.29999 4.99995 1.52385 4.99995 1.79999H5.49995ZM10.5 1.79999H11C11 1.52385 10.7761 1.29999 10.5 1.29999V1.79999ZM2.19995 3.79999H3.39995V2.79999H2.19995V3.79999ZM2.89995 3.29999V13.5H3.89995V3.29999H2.89995ZM3.89995 14.5H12.1V13.5H3.89995V14.5ZM12.6 3.79999H13.8V2.79999H12.6V3.79999ZM13.1 13.5V3.29999H12.1V13.5H13.1ZM3.39995 3.79999H5.49995V2.79999H3.39995V3.79999ZM5.49995 3.79999H7.94995V2.79999H5.49995V3.79999ZM5.99995 3.29999V1.79999H4.99995V3.29999H5.99995ZM5.49995 2.29999H10.5V1.29999H5.49995V2.29999ZM7.94995 3.79999H10.5V2.79999H7.94995V3.79999ZM10.5 3.79999H12.6V2.79999H10.5V3.79999ZM9.99995 1.79999V3.29999H11V1.79999H9.99995ZM12.1 14.5C12.6522 14.5 13.1 14.0523 13.1 13.5H12.1H12.1V14.5ZM2.89995 13.5C2.89995 14.0523 3.34767 14.5 3.89995 14.5V13.5V13.5H2.89995Z" fill="#3F465C"/>
<path fill-rule="evenodd" clip-rule="evenodd" d="M6.69995 6C6.97609 6 7.19995 6.22386 7.19995 6.5V11C7.19995 11.2761 6.97609 11.5 6.69995 11.5C6.42381 11.5 6.19995 11.2761 6.19995 11V6.5C6.19995 6.22386 6.42381 6 6.69995 6ZM9.29995 6C9.57609 6 9.79995 6.22386 9.79995 6.5V11C9.79995 11.2761 9.57609 11.5 9.29995 11.5C9.02381 11.5 8.79995 11.2761 8.79995 11V6.5C8.79995 6.22386 9.02381 6 9.29995 6Z" fill="white"/>
</svg>
