<svg width="16" height="16" viewBox="0 0 16 16" fill="none" xmlns="http://www.w3.org/2000/svg">
<path fill-rule="evenodd" clip-rule="evenodd" d="M5.2848 9.59896L4.6439 13.3357L7.9997 11.5714L11.3555 13.3357L10.7146 9.59896L13.4295 6.95259L9.6776 6.40741L7.9997 3.0076L6.3218 6.40741L2.5699 6.95259L5.2848 9.59896ZM8.44807 2.09911C8.44795 2.09933 8.44818 2.09888 8.44807 2.09911V2.09911ZM5.65773 5.4934L1.42352 6.10867C1.01341 6.16826 0.849655 6.67225 1.14641 6.96151L4.21032 9.94808L3.48704 14.1652C3.41698 14.5736 3.8457 14.8851 4.21251 14.6923L7.9997 12.7012L11.7869 14.6923C12.1537 14.8851 12.5824 14.5736 12.5124 14.1652L11.7891 9.94808L14.853 6.96152C15.1497 6.67225 14.986 6.16826 14.5759 6.10867L10.3417 5.4934L8.44807 1.65654C8.26466 1.28492 7.73474 1.28492 7.55133 1.65654L5.65773 5.4934Z" fill="#3F465C"/>
</svg>
