<svg width="13" height="13" viewBox="0 0 13 13" fill="none" xmlns="http://www.w3.org/2000/svg">
<path fill-rule="evenodd" clip-rule="evenodd" d="M6.50056 3.66377C6.50056 3.38762 6.27671 3.16377 6.00056 3.16377C5.72442 3.16377 5.50056 3.38762 5.50056 3.66377V6.99702V6.9971C5.50056 7.27324 5.72442 7.4971 6.00056 7.4971C6.0036 7.4971 6.00663 7.49707 6.00966 7.49702H9.3339C9.61004 7.49702 9.8339 7.27316 9.8339 6.99702C9.8339 6.72088 9.61004 6.49702 9.3339 6.49702H6.50056V3.66377Z" fill="#3F465C"/>
<path fill-rule="evenodd" clip-rule="evenodd" d="M0 6.5C0 2.91015 2.91014 0 6.5 0C8.24671 0 9.83251 0.68933 11 1.80962V0.833366C11 0.557223 11.2239 0.333366 11.5 0.333366C11.7761 0.333366 12 0.557223 12 0.833366V3.1667C12 3.44284 11.7761 3.6667 11.5 3.6667C11.5 3.6667 11.4999 3.6667 11.4999 3.6667C11.4998 3.6667 11.4998 3.6667 11.4997 3.6667H9.16641C8.89026 3.6667 8.66641 3.44284 8.66641 3.1667C8.66641 2.89056 8.89026 2.6667 9.16641 2.6667H10.4441C9.44431 1.63807 8.04672 1 6.5 1C3.46243 1 1 3.46244 1 6.5C1 9.53757 3.46243 12 6.5 12C9.53757 12 12 9.53757 12 6.5C12 6.22386 12.2239 6 12.5 6C12.7761 6 13 6.22386 13 6.5C13 10.0899 10.0899 13 6.5 13C2.91014 13 0 10.0899 0 6.5Z" fill="#3F465C"/>
</svg>
