<svg width="16" height="16" viewBox="0 0 16 16" fill="none" xmlns="http://www.w3.org/2000/svg">
<path fill-rule="evenodd" clip-rule="evenodd" d="M6.2998 7.4C6.2998 8.33888 7.06092 9.1 7.9998 9.1C8.93869 9.1 9.6998 8.33889 9.6998 7.4V4.2C9.6998 3.26112 8.93869 2.5 7.9998 2.5C7.06092 2.5 6.2998 3.26112 6.2998 4.2V7.4ZM5.2998 7.4C5.2998 8.54434 6.01171 9.5224 7.0168 9.91547C7.32142 10.0346 7.65298 10.1 7.9998 10.1C9.49097 10.1 10.6998 8.89117 10.6998 7.4V4.2C10.6998 2.70883 9.49097 1.5 7.9998 1.5C6.50864 1.5 5.2998 2.70883 5.2998 4.2V7.4ZM3.7998 7.3999C3.7998 7.12376 3.57595 6.8999 3.2998 6.8999C3.02366 6.8999 2.7998 7.12376 2.7998 7.3999C2.7998 10.1031 4.8625 12.3246 7.4998 12.5762V14.4999C7.4998 14.776 7.72366 14.9999 7.9998 14.9999C8.27595 14.9999 8.4998 14.776 8.4998 14.4999V12.5762C11.1371 12.3246 13.1998 10.1031 13.1998 7.3999C13.1998 7.12376 12.9759 6.8999 12.6998 6.8999C12.4237 6.8999 12.1998 7.12376 12.1998 7.3999C12.1998 9.7195 10.3194 11.5999 7.9998 11.5999C5.68021 11.5999 3.7998 9.7195 3.7998 7.3999Z" fill="#3F465C"/>
</svg>
