<svg width="16" height="16" viewBox="0 0 16 16" fill="none" xmlns="http://www.w3.org/2000/svg">
<path fill-rule="evenodd" clip-rule="evenodd" d="M14.5 2.5C14.5 1.94772 14.0523 1.5 13.5 1.5H2.5C1.94772 1.5 1.5 1.94771 1.5 2.5V13.5C1.5 14.0523 1.94771 14.5 2.5 14.5H7C7.27614 14.5 7.5 14.2761 7.5 14C7.5 13.7239 7.27614 13.5 7 13.5H2.5V2.5L13.5 2.5V7C13.5 7.27614 13.7239 7.5 14 7.5C14.2761 7.5 14.5 7.27614 14.5 7V2.5ZM5 7C4.72386 7 4.5 7.22386 4.5 7.5C4.5 7.77614 4.72386 8 5 8H7.5C7.63261 8 7.75979 7.94732 7.85355 7.85355C7.94732 7.75979 8 7.63261 8 7.5V5C8 4.72386 7.77614 4.5 7.5 4.5C7.22386 4.5 7 4.72386 7 5V6.29289L4.85355 4.14645C4.65829 3.95118 4.34171 3.95118 4.14645 4.14645C3.95118 4.34171 3.95118 4.65829 4.14645 4.85355L6.29289 7H5ZM9.25 8.5C8.83579 8.5 8.5 8.83579 8.5 9.25V13.75C8.5 14.1642 8.83579 14.5 9.25 14.5H13.75C14.1642 14.5 14.5 14.1642 14.5 13.75V9.25C14.5 8.83579 14.1642 8.5 13.75 8.5H9.25ZM9.5 13.5V9.5H13.5V13.5H9.5Z" fill="#3F465C"/>
</svg>
