<svg width="16" height="16" viewBox="0 0 16 16" fill="none" xmlns="http://www.w3.org/2000/svg">
<path fill-rule="evenodd" clip-rule="evenodd" d="M1.54581 2.79095C1.62742 2.61362 1.80479 2.5 2.00001 2.5H14C14.1952 2.5 14.3726 2.61362 14.4542 2.79095C14.5358 2.96829 14.5068 3.17691 14.3798 3.3252L9.70001 8.79075V14C9.70001 14.1728 9.61073 14.3334 9.46392 14.4247C9.31711 14.5159 9.1336 14.5248 8.97862 14.4483L6.57862 13.2631C6.40801 13.1789 6.30001 13.0051 6.30001 12.8148V8.79075L1.62021 3.3252C1.49324 3.17691 1.46419 2.96829 1.54581 2.79095ZM3.08637 3.5L7.17981 8.28074C7.25738 8.37133 7.30001 8.48667 7.30001 8.60593V12.5041L8.70001 13.1954V8.60593C8.70001 8.48667 8.74264 8.37133 8.82021 8.28074L12.9136 3.5H3.08637Z" fill="#3F465C"/>
</svg>
