<svg width="16" height="16" viewBox="0 0 16 16" fill="none" xmlns="http://www.w3.org/2000/svg">
<path fill-rule="evenodd" clip-rule="evenodd" d="M13.0758 1.36935C13.2711 1.56461 13.2711 1.88119 13.0758 2.07645L1.74247 13.4098C1.54721 13.605 1.23062 13.605 1.03536 13.4098C0.8401 13.2145 0.8401 12.8979 1.03536 12.7027L2.99994 10.7381V7.5C2.99994 4.90733 4.97328 2.77555 7.49994 2.52469V2C7.49994 1.72386 7.7238 1.5 7.99994 1.5C8.27608 1.5 8.49994 1.72386 8.49994 2V2.52469C9.24063 2.59823 9.93377 2.83341 10.5436 3.19446L12.3687 1.36935C12.564 1.17408 12.8805 1.17408 13.0758 1.36935ZM9.80737 3.93068L3.99994 9.7381V7.5C3.99994 5.29086 5.7908 3.5 7.99994 3.5C8.65035 3.5 9.2645 3.65524 9.80737 3.93068ZM6.5 14C6.5 14.8284 7.17157 15.5 8 15.5C8.82843 15.5 9.5 14.8284 9.5 14H8.5C8.5 14.2761 8.27614 14.5 8 14.5C7.72386 14.5 7.5 14.2761 7.5 14H6.5ZM13.9999 13.5H12.9999H11.9999H3.99994H3.06292H3.05973L4.06003 12.5H4.06292H11.9999V7.5C11.9999 6.66707 11.7454 5.8936 11.3098 5.25316L12.027 4.5359C12.6385 5.36532 12.9999 6.39046 12.9999 7.5V12.5H13.9999C14.2761 12.5 14.4999 12.7239 14.4999 13C14.4999 13.2761 14.2761 13.5 13.9999 13.5Z" fill="#3F465C"/>
</svg>
