<svg width="16" height="16" viewBox="0 0 16 16" fill="none" xmlns="http://www.w3.org/2000/svg">
<path fill-rule="evenodd" clip-rule="evenodd" d="M11.8891 3.29502C12.0844 3.49028 12.0844 3.80686 11.8891 4.00212L8.77819 7.11304H11.5C11.7762 7.11304 12 7.33689 12 7.61304C12 7.88918 11.7762 8.11304 11.5 8.11304H8.50001V9H11.5C11.7762 9 12 9.22386 12 9.5C12 9.77614 11.7762 10 11.5 10H8.50001L8.50001 12.6841C8.50001 12.9602 8.27615 13.1841 8.00001 13.1841C7.72387 13.1841 7.50001 12.9602 7.50001 12.6841L7.50001 10H4.50001C4.22387 10 4.00001 9.77614 4.00001 9.5C4.00001 9.22386 4.22387 9 4.50001 9H7.50001V8.11304H4.50001C4.22387 8.11304 4.00001 7.88918 4.00001 7.61304C4.00001 7.33689 4.22387 7.11304 4.50001 7.11304H7.22184L4.11092 4.00212C3.91566 3.80686 3.91566 3.49028 4.11092 3.29502C4.30619 3.09976 4.62277 3.09976 4.81803 3.29502L8.00001 6.477L11.182 3.29502C11.3773 3.09976 11.6938 3.09976 11.8891 3.29502Z" fill="#3F465C"/>
</svg>
