<svg width="16" height="16" viewBox="0 0 16 16" fill="none" xmlns="http://www.w3.org/2000/svg">
<path fill-rule="evenodd" clip-rule="evenodd" d="M2.5 2.5C1.94772 2.5 1.5 2.94771 1.5 3.5V12C1.5 12.5523 1.94772 13 2.5 13H5.83333L7.7 14.4C7.87778 14.5333 8.12222 14.5333 8.3 14.4L10.1667 13H13.5C14.0523 13 14.5 12.5523 14.5 12V3.5C14.5 2.94771 14.0523 2.5 13.5 2.5H2.5ZM2.5 3.5L13.5 3.5V12H10H9.83333L9.7 12.1L8 13.375L6.3 12.1L6.16667 12H6H2.5V3.5ZM8 8.5C8.41421 8.5 8.75 8.16421 8.75 7.75C8.75 7.33579 8.41421 7 8 7C7.58579 7 7.25 7.33579 7.25 7.75C7.25 8.16421 7.58579 8.5 8 8.5ZM11.5 7.75C11.5 8.16421 11.1642 8.5 10.75 8.5C10.3358 8.5 10 8.16421 10 7.75C10 7.33579 10.3358 7 10.75 7C11.1642 7 11.5 7.33579 11.5 7.75ZM5.25 8.5C5.66421 8.5 6 8.16421 6 7.75C6 7.33579 5.66421 7 5.25 7C4.83579 7 4.5 7.33579 4.5 7.75C4.5 8.16421 4.83579 8.5 5.25 8.5Z" fill="#3F465C"/>
</svg>
