<svg width="16" height="16" viewBox="0 0 16 16" fill="none" xmlns="http://www.w3.org/2000/svg">
<path fill-rule="evenodd" clip-rule="evenodd" d="M6.22767 7.38259L4.63142 2.76347C4.97192 2.65485 5.41024 2.55426 5.88698 2.51613C6.59972 2.45912 7.35282 2.54503 7.99015 2.90361C9.22056 3.59588 10.5093 3.50129 11.4027 3.24421C11.3287 3.54419 11.2063 3.86384 11.015 4.16615C10.6505 4.74227 10.0177 5.28658 8.90194 5.50972C7.81875 5.72636 7.03423 6.33308 6.51837 6.97537C6.41136 7.10859 6.31439 7.2453 6.22767 7.38259ZM7.29803 7.60156C6.93345 8.05549 6.755 8.5131 6.70712 8.77L7.7669 11.8367C7.85709 12.0977 7.71863 12.3824 7.45763 12.4726C7.19663 12.5628 6.91194 12.4243 6.82174 12.1633L5.72374 8.98599L3.52767 2.63116L3.37847 2.19943L3.79499 2.01192C4.23652 1.81315 4.97456 1.58591 5.80726 1.51931C6.63952 1.45275 7.61185 1.54336 8.4805 2.03208C9.77838 2.76231 11.2141 2.3365 11.7551 2.03213L12.5004 1.61279L12.5002 2.46802C12.5001 3.05306 12.3603 3.91017 11.8601 4.70083C11.3495 5.50774 10.4823 6.21344 9.09806 6.4903C8.28918 6.65207 7.69795 7.10364 7.29803 7.60156ZM8.59378 8.48325C8.31764 8.48325 8.09378 8.70711 8.09378 8.98325C8.09378 9.25939 8.31764 9.48325 8.59378 9.48325C10.201 9.48325 11.4716 9.75979 12.3206 10.1733C13.1879 10.5957 13.5 11.0926 13.5 11.4998C13.5 11.6708 13.4189 11.879 13.1776 12.1167C12.9345 12.3562 12.5571 12.5949 12.0503 12.8061C11.0391 13.2274 9.60734 13.4998 8 13.4998C6.39266 13.4998 4.96094 13.2274 3.94967 12.8061C3.44294 12.5949 3.06551 12.3562 2.8224 12.1167C2.58106 11.879 2.5 11.6708 2.5 11.4998C2.5 11.1712 2.60037 10.9231 2.86206 10.6966C3.15185 10.4457 3.6634 10.2024 4.53188 9.99312C4.80033 9.92841 4.9655 9.65833 4.9008 9.38988C4.83609 9.12143 4.56601 8.95625 4.29756 9.02096C3.37263 9.24389 2.67682 9.53432 2.2076 9.94048C1.71029 10.3709 1.5 10.9031 1.5 11.4998C1.5 12.0192 1.75473 12.4687 2.12062 12.8291C2.48475 13.1878 2.98599 13.4879 3.56505 13.7291C4.72535 14.2126 6.29363 14.4998 8 14.4998C9.70637 14.4998 11.2747 14.2126 12.4349 13.7291C13.014 13.4879 13.5153 13.1878 13.8794 12.8291C14.2453 12.4687 14.5 12.0192 14.5 11.4998C14.5 10.5264 13.7659 9.76493 12.7585 9.27426C11.7327 8.77464 10.3003 8.48325 8.59378 8.48325Z" fill="#3F465C"/>
</svg>
