<svg width="16" height="16" viewBox="0 0 16 16" fill="none" xmlns="http://www.w3.org/2000/svg">
<g clip-path="url(#clip0_1_4341)">
<path fill-rule="evenodd" clip-rule="evenodd" d="M7.99996 13.3334C8.46019 13.3334 8.83329 12.9603 8.83329 12.5C8.83329 12.0398 8.46019 11.6667 7.99996 11.6667C7.53973 11.6667 7.16663 12.0398 7.16663 12.5C7.16663 12.9603 7.53973 13.3334 7.99996 13.3334Z" fill="#3F465C"/>
<path d="M14 2.5L3 13.3333" stroke="#3F465C" stroke-linecap="round"/>
<path fill-rule="evenodd" clip-rule="evenodd" d="M8.31682 10.1997C8.63072 10.2287 8.93903 10.3048 9.23129 10.4258C9.61311 10.584 9.96004 10.8158 10.2523 11.108C10.4475 11.3033 10.7641 11.3033 10.9594 11.108C11.1546 10.9128 11.1546 10.5962 10.9594 10.4009C10.5743 10.0158 10.1171 9.71037 9.61397 9.50196C9.47194 9.44313 9.32704 9.39236 9.17995 9.34978L8.31682 10.1997ZM9.75073 7.38437C9.1916 7.22235 8.61131 7.13965 8.0269 7.13965C7.21353 7.13965 6.40813 7.29985 5.65668 7.61111C4.90523 7.92237 4.22245 8.3786 3.64732 8.95373C3.45205 9.14899 3.13547 9.14899 2.94021 8.95373C2.74495 8.75847 2.74495 8.44189 2.94021 8.24663C3.6082 7.57863 4.40123 7.04875 5.274 6.68723C6.14678 6.32572 7.08221 6.13965 8.0269 6.13965C8.88937 6.13965 9.74413 6.29474 10.5505 6.59684L9.75073 7.38437ZM10.7727 7.78153C11.3767 8.08025 11.9287 8.47596 12.4065 8.95373C12.6017 9.14899 12.9183 9.14899 13.1136 8.95373C13.3089 8.75847 13.3089 8.44189 13.1136 8.24662C12.6401 7.7731 12.1037 7.36897 11.5206 7.04503L10.7727 7.78153ZM12.9549 5.6328C13.5088 5.9873 14.0242 6.40138 14.4915 6.86864C14.6868 7.06391 15.0034 7.06391 15.1986 6.86864C15.3939 6.67338 15.3939 6.3568 15.1986 6.16154C14.734 5.69695 14.2266 5.27975 13.6838 4.91506L12.9549 5.6328ZM12.7985 4.38344C12.5092 4.22923 12.2121 4.08885 11.9082 3.96296C10.6777 3.45326 9.35881 3.19092 8.0269 3.19092C6.69499 3.19092 5.37612 3.45326 4.1456 3.96296C2.91507 4.47266 1.79699 5.21974 0.855187 6.16154C0.659925 6.3568 0.659925 6.67339 0.855187 6.86865C1.05045 7.06391 1.36703 7.06391 1.56229 6.86865C2.41124 6.0197 3.41908 5.34628 4.52828 4.88684C5.63748 4.42739 6.82631 4.19092 8.0269 4.19092C9.22749 4.19092 10.4163 4.42739 11.5255 4.88684C11.7023 4.96004 11.8764 5.03868 12.0478 5.1226L12.7985 4.38344ZM7.9193 9.18768L6.50846 10.5769C6.24953 10.7195 6.01147 10.8982 5.80161 11.108C5.60635 11.3033 5.28977 11.3033 5.09451 11.108C4.89924 10.9128 4.89924 10.5962 5.09451 10.4009C5.4796 10.0158 5.93677 9.71037 6.43992 9.50196C6.90989 9.30729 7.41139 9.20086 7.9193 9.18768Z" fill="#3F465C"/>
</g>
<defs>
<clipPath id="clip0_1_4341">
<rect width="16" height="16" fill="white"/>
</clipPath>
</defs>
</svg>
