<svg width="16" height="16" viewBox="0 0 16 16" fill="none" xmlns="http://www.w3.org/2000/svg">
<path fill-rule="evenodd" clip-rule="evenodd" d="M2.5 2.5C2.77614 2.5 3 2.72386 3 3V12.5H13.5C13.7761 12.5 14 12.7239 14 13C14 13.2761 13.7761 13.5 13.5 13.5H2.5H2V13V3C2 2.72386 2.22386 2.5 2.5 2.5ZM12 4.6001C12.2761 4.6001 12.5 4.82396 12.5 5.1001V10.6001C12.5 10.8762 12.2761 11.1001 12 11.1001C11.7239 11.1001 11.5 10.8762 11.5 10.6001V5.1001C11.5 4.82396 11.7239 4.6001 12 4.6001ZM5.2998 9.1001C5.2998 8.82396 5.07595 8.6001 4.7998 8.6001C4.52366 8.6001 4.2998 8.82396 4.2998 9.1001V10.6001C4.2998 10.8762 4.52366 11.1001 4.7998 11.1001C5.07595 11.1001 5.2998 10.8762 5.2998 10.6001V9.1001ZM7.2002 6.1001C7.47634 6.1001 7.7002 6.32396 7.7002 6.6001V10.6001C7.7002 10.8762 7.47634 11.1001 7.2002 11.1001C6.92405 11.1001 6.7002 10.8762 6.7002 10.6001V6.6001C6.7002 6.32396 6.92405 6.1001 7.2002 6.1001ZM10.0996 7.6001C10.0996 7.32396 9.87575 7.1001 9.59961 7.1001C9.32347 7.1001 9.09961 7.32396 9.09961 7.6001V10.6001C9.09961 10.8762 9.32347 11.1001 9.59961 11.1001C9.87575 11.1001 10.0996 10.8762 10.0996 10.6001V7.6001Z" fill="#3F465C"/>
</svg>
