<svg width="16" height="16" viewBox="0 0 16 16" fill="none" xmlns="http://www.w3.org/2000/svg">
<path fill-rule="evenodd" clip-rule="evenodd" d="M2 2.5C2 1.94772 2.44772 1.5 3 1.5H13C13.5523 1.5 14 1.94772 14 2.5V8C14 8.27614 13.7761 8.5 13.5 8.5C13.2239 8.5 13 8.27614 13 8V2.5L3 2.5V13.5H8C8.27614 13.5 8.5 13.7239 8.5 14C8.5 14.2761 8.27614 14.5 8 14.5H3C2.44771 14.5 2 14.0523 2 13.5V2.5ZM4.5 5C4.5 4.72386 4.72386 4.5 5 4.5H11C11.2761 4.5 11.5 4.72386 11.5 5C11.5 5.27614 11.2761 5.5 11 5.5H5C4.72386 5.5 4.5 5.27614 4.5 5ZM5 7.5C4.72386 7.5 4.5 7.72386 4.5 8C4.5 8.27614 4.72386 8.5 5 8.5H8C8.27614 8.5 8.5 8.27614 8.5 8C8.5 7.72386 8.27614 7.5 8 7.5H5ZM11.3331 9.87939C10.3666 9.87939 9.58307 10.6629 9.58307 11.6294C9.58307 12.5959 10.3666 13.3794 11.3331 13.3794C12.2996 13.3794 13.0831 12.5959 13.0831 11.6294C13.0831 10.6629 12.2996 9.87939 11.3331 9.87939ZM8.58307 11.6294C8.58307 10.1106 9.81429 8.87939 11.3331 8.87939C12.8519 8.87939 14.0831 10.1106 14.0831 11.6294C14.0831 12.2082 13.9042 12.7453 13.5988 13.1883L14.357 13.9465C14.5523 14.1417 14.5523 14.4583 14.357 14.6536C14.1618 14.8489 13.8452 14.8489 13.6499 14.6536L12.8917 13.8954C12.4487 14.2007 11.9118 14.3794 11.3331 14.3794C9.81429 14.3794 8.58307 13.1482 8.58307 11.6294Z" fill="#3F465C"/>
</svg>
