<svg width="16" height="16" viewBox="0 0 16 16" fill="none" xmlns="http://www.w3.org/2000/svg">
<path fill-rule="evenodd" clip-rule="evenodd" d="M9.5 3C9.22386 3 9 3.22386 9 3.5C9 3.77614 9.22386 4 9.5 4H13V10H3.70711L5.85355 7.85355C6.04882 7.65829 6.04882 7.34171 5.85355 7.14645C5.65829 6.95118 5.34171 6.95118 5.14645 7.14645L2.14645 10.1464C1.95118 10.3417 1.95118 10.6583 2.14645 10.8536L5.14645 13.8536C5.34171 14.0488 5.65829 14.0488 5.85355 13.8536C6.04882 13.6583 6.04882 13.3417 5.85355 13.1464L3.70711 11H13C13.5523 11 14 10.5523 14 10V4C14 3.44772 13.5523 3 13 3H9.5Z" fill="#3F465C"/>
</svg>
