<svg width="16" height="16" viewBox="0 0 16 16" fill="none" xmlns="http://www.w3.org/2000/svg">
<path fill-rule="evenodd" clip-rule="evenodd" d="M3.40314 9.16616C2.45937 10.1099 2.45937 11.6401 3.40314 12.5838C4.3469 13.5276 5.87705 13.5276 6.82082 12.5838L13.0814 6.32326C13.2767 6.128 13.5932 6.128 13.7885 6.32326C13.9838 6.51852 13.9838 6.83511 13.7885 7.03037L7.52793 13.2909C6.19363 14.6252 4.03032 14.6252 2.69603 13.2909C1.36174 11.9567 1.36174 9.79334 2.69603 8.45905L9.15938 1.9957C10.1133 1.04174 11.66 1.04174 12.614 1.9957C13.568 2.94967 13.568 4.49636 12.614 5.45032L6.71279 11.3515C6.13818 11.9261 5.20654 11.9261 4.63193 11.3515C4.05731 10.7769 4.05731 9.84528 4.63193 9.27066L10.3304 3.57223C10.5256 3.37696 10.8422 3.37696 11.0375 3.57223C11.2327 3.76749 11.2327 4.08407 11.0375 4.27933L5.33903 9.97777C5.15494 10.1619 5.15494 10.4603 5.33903 10.6444C5.52312 10.8285 5.82159 10.8285 6.00568 10.6444L11.9069 4.74321C12.4703 4.17977 12.4703 3.26625 11.9069 2.70281C11.3434 2.13937 10.4299 2.13937 9.86648 2.70281L3.40314 9.16616Z" fill="#3F465C"/>
</svg>
