<svg width="16" height="16" viewBox="0 0 16 16" fill="none" xmlns="http://www.w3.org/2000/svg">
<path fill-rule="evenodd" clip-rule="evenodd" d="M2 8C2 4.68629 4.68629 2 8 2C11.3137 2 14 4.68629 14 8C14 11.3137 11.3137 14 8 14C4.68629 14 2 11.3137 2 8ZM8 1C4.13401 1 1 4.13401 1 8C1 11.866 4.13401 15 8 15C11.866 15 15 11.866 15 8C15 4.13401 11.866 1 8 1ZM8 11.5C6.6941 11.5 5.58213 10.665 5.17045 9.5H10.8295C10.4179 10.665 9.3059 11.5 8 11.5ZM8 12.5C10.0402 12.5 11.7236 10.9726 11.9692 8.99901C12.0033 8.72498 11.7761 8.5 11.5 8.5H4.5C4.22386 8.5 3.99672 8.72498 4.03082 8.99901C4.27643 10.9726 5.95985 12.5 8 12.5ZM6.5 6C6.5 6.55228 6.05228 7 5.5 7C4.94772 7 4.5 6.55228 4.5 6C4.5 5.44772 4.94772 5 5.5 5C6.05228 5 6.5 5.44772 6.5 6ZM10.5 7C11.0523 7 11.5 6.55228 11.5 6C11.5 5.44772 11.0523 5 10.5 5C9.94771 5 9.5 5.44772 9.5 6C9.5 6.55228 9.94771 7 10.5 7Z" fill="#3F465C"/>
</svg>
