<svg width="16" height="16" viewBox="0 0 16 16" fill="none" xmlns="http://www.w3.org/2000/svg">
<path fill-rule="evenodd" clip-rule="evenodd" d="M7.62483 2.62134C4.436 2.62134 1.90039 5.05598 1.90039 7.99997C1.90039 9.20553 2.32214 10.3198 3.03908 11.2196C3.13327 11.3378 3.16893 11.4923 3.13607 11.6399L2.84695 12.9383C3.24643 12.8338 3.67314 12.7224 3.78509 12.6939C4.05272 12.6259 4.32484 12.7877 4.39288 13.0553C4.46092 13.3229 4.29912 13.5951 4.03149 13.6631C3.92269 13.6908 3.49319 13.8029 3.08784 13.9089L2.54617 14.0507L2.37262 14.0961L2.32448 14.1087L2.31185 14.112L2.30862 14.1129L2.3078 14.1131L2.3076 14.1131L2.30755 14.1132L2.18078 13.6295L2.30753 14.1132C2.13889 14.1574 1.95941 14.1105 1.83386 13.9896C1.70832 13.8686 1.65484 13.691 1.69273 13.5208L2.10931 11.6501C1.34885 10.6178 0.900391 9.35908 0.900391 7.99997C0.900391 4.45061 3.93834 1.62134 7.62483 1.62134C8.64484 1.62134 9.61364 1.83703 10.482 2.2241C10.7342 2.33652 10.8475 2.63213 10.7351 2.88435C10.6227 3.13657 10.3271 3.24989 10.0748 3.13746C9.33329 2.80691 8.50308 2.62134 7.62483 2.62134ZM9.61538 4.55249C12.3486 4.55249 14.5 6.60146 14.5 9.05249C14.5 10.2215 14.0161 11.291 13.2121 12.0967C13.0866 12.2226 13.0373 12.4056 13.0826 12.5775L13.3108 13.4422L11.7533 13.2103C11.6555 13.184 11.5493 13.1872 11.4487 13.2248C10.8837 13.4358 10.2651 13.5525 9.61538 13.5525C6.88214 13.5525 4.73077 11.5035 4.73077 9.05249C4.73077 6.60146 6.88214 4.55249 9.61538 4.55249ZM11.6681 14.2086C11.028 14.4312 10.3362 14.5525 9.61538 14.5525C6.40094 14.5525 3.73077 12.1243 3.73077 9.05249C3.73077 5.98068 6.40094 3.55249 9.61538 3.55249C12.8298 3.55249 15.5 5.98067 15.5 9.05249C15.5 10.4046 14.978 11.6388 14.1205 12.5915L14.3655 13.52C14.5072 14.057 14.0533 14.5638 13.504 14.482L11.6681 14.2086ZM8.23156 8.38281C8.05327 8.38281 7.89201 8.48868 7.82113 8.65227L7.23379 10.0077C7.1058 10.303 7.32232 10.6328 7.64422 10.6328C7.82251 10.6328 7.98377 10.5269 8.05465 10.3634L8.64199 9.00797C8.76998 8.71261 8.55346 8.38281 8.23156 8.38281ZM9.79574 8.65227C9.86662 8.48868 10.0279 8.38281 10.2062 8.38281C10.5281 8.38281 10.7446 8.71261 10.6166 9.00797L10.0293 10.3634C9.95838 10.5269 9.79712 10.6328 9.61883 10.6328C9.29693 10.6328 9.08041 10.303 9.2084 10.0077L9.79574 8.65227ZM12.1808 8.38281C12.0025 8.38281 11.8412 8.48868 11.7703 8.65227L11.183 10.0077C11.055 10.303 11.2715 10.6328 11.5934 10.6328C11.7717 10.6328 11.933 10.5269 12.0039 10.3634L12.5912 9.00797C12.7192 8.71261 12.5027 8.38281 12.1808 8.38281Z" fill="#3F465C"/>
</svg>
