<svg width="16" height="16" viewBox="0 0 16 16" fill="none" xmlns="http://www.w3.org/2000/svg">
<path fill-rule="evenodd" clip-rule="evenodd" d="M2 8C2 4.68629 4.68629 2 8 2C11.3137 2 14 4.68629 14 8C14 11.3137 11.3137 14 8 14C4.68629 14 2 11.3137 2 8ZM8 1C4.13401 1 1 4.13401 1 8C1 11.866 4.13401 15 8 15C11.866 15 15 11.866 15 8C15 4.13401 11.866 1 8 1ZM8.05402 3.98792L4.72385 8.68431C4.62994 8.81676 4.72464 9 4.887 9H7.5L7.66577 11.9839C7.67653 12.1775 7.92885 12.244 8.0337 12.0809L11.1019 7.30815C11.1875 7.17505 11.0919 7 10.9337 7H8.5L8.41708 4.0979C8.4116 3.90596 8.16508 3.83129 8.05402 3.98792Z" fill="#3F465C"/>
</svg>
