<svg width="16" height="16" viewBox="0 0 16 16" fill="none" xmlns="http://www.w3.org/2000/svg">
<rect x="2.5" y="2.5" width="4.25" height="8.5" rx="0.5" stroke="#3F465C"/>
<rect x="9.25" y="5" width="4.25" height="8.5" rx="0.5" stroke="#3F465C"/>
<path fill-rule="evenodd" clip-rule="evenodd" d="M3 3H6.25V10.5H3V3ZM2 3C2 2.44772 2.44772 2 3 2H6.25C6.80229 2 7.25 2.44772 7.25 3V10.5C7.25 11.0523 6.80229 11.5 6.25 11.5H3C2.44772 11.5 2 11.0523 2 10.5V3ZM9.75 5.5H13V13H9.75V5.5ZM8.75 5.5C8.75 4.94772 9.19772 4.5 9.75 4.5H13C13.5523 4.5 14 4.94772 14 5.5V13C14 13.5523 13.5523 14 13 14H9.75C9.19772 14 8.75 13.5523 8.75 13V5.5ZM2 13.5C2 13.2239 2.22386 13 2.5 13H6.75C7.02614 13 7.25 13.2239 7.25 13.5C7.25 13.7761 7.02614 14 6.75 14H2.5C2.22386 14 2 13.7761 2 13.5ZM9.25 2C8.97386 2 8.75 2.22386 8.75 2.5C8.75 2.77614 8.97386 3 9.25 3H13.5C13.7761 3 14 2.77614 14 2.5C14 2.22386 13.7761 2 13.5 2H9.25Z" fill="#3F465C"/>
</svg>
