<svg width="16" height="16" viewBox="0 0 16 16" fill="none" xmlns="http://www.w3.org/2000/svg">
<path fill-rule="evenodd" clip-rule="evenodd" d="M5.14645 8.14645C5.34171 7.95118 5.65829 7.95118 5.85355 8.14645L7.62132 9.91421L10.7326 6.80294C10.9279 6.60768 11.2444 6.60768 11.4397 6.80294C11.635 6.99821 11.635 7.31479 11.4397 7.51005L7.62132 11.3284L5.14645 8.85355C4.95118 8.65829 4.95118 8.34171 5.14645 8.14645ZM13 5.5H3L3 13H13V5.5ZM13 4.5H3V3H13V4.5ZM14 3C14 2.44772 13.5523 2 13 2H3C2.44772 2 2 2.44772 2 3V13C2 13.5523 2.44772 14 3 14H13C13.5523 14 14 13.5523 14 13V3Z" fill="#3F465C"/>
</svg>
