<svg width="16" height="16" viewBox="0 0 16 16" fill="none" xmlns="http://www.w3.org/2000/svg">
<path d="M3 2.5V14L8 11.5L13 14V2.5C13 2.22386 12.7761 2 12.5 2H3.5C3.22386 2 3 2.22386 3 2.5Z" fill="#3F465C"/>
<path d="M3 14H2.5C2.5 14.1733 2.58973 14.3342 2.73713 14.4253C2.88454 14.5164 3.06861 14.5247 3.22361 14.4472L3 14ZM13 14L12.7764 14.4472C12.9314 14.5247 13.1155 14.5164 13.2629 14.4253C13.4103 14.3342 13.5 14.1733 13.5 14H13ZM8 11.5L8.22361 11.0528L8 10.941L7.77639 11.0528L8 11.5ZM3.5 14V2.5H2.5V14H3.5ZM3.5 2.5H12.5V1.5H3.5V2.5ZM12.5 2.5V14H13.5V2.5H12.5ZM13.2236 13.5528L8.22361 11.0528L7.77639 11.9472L12.7764 14.4472L13.2236 13.5528ZM7.77639 11.0528L2.77639 13.5528L3.22361 14.4472L8.22361 11.9472L7.77639 11.0528ZM12.5 2.5H13.5C13.5 1.94772 13.0523 1.5 12.5 1.5V2.5ZM3.5 2.5V2.5V1.5C2.94771 1.5 2.5 1.94772 2.5 2.5H3.5Z" fill="#3F465C"/>
</svg>
