<svg width="16" height="16" viewBox="0 0 16 16" fill="none" xmlns="http://www.w3.org/2000/svg">
<g filter="url(#filter0_b_1_3520)">
<path d="M1 2.99976C1 2.44747 1.44772 1.99976 2 1.99976H14C14.5523 1.99976 15 2.44747 15 2.99976V12.9998C15 13.552 14.5523 13.9998 14 13.9998H2C1.44772 13.9998 1 13.552 1 12.9998V2.99976Z" fill="#3F465C"/>
<path d="M1.44444 2.99976C1.44444 2.69293 1.69318 2.4442 2 2.4442H14C14.3068 2.4442 14.5556 2.69293 14.5556 2.99976V12.9998C14.5556 13.3066 14.3068 13.5553 14 13.5553H2C1.69318 13.5553 1.44444 13.3066 1.44444 12.9998V2.99976Z" stroke="#3F465C" stroke-width="0.888889" stroke-linecap="round"/>
</g>
<path fill-rule="evenodd" clip-rule="evenodd" d="M3.08403 3.72259C3.23721 3.49283 3.54764 3.43075 3.77741 3.58392L8.00003 6.39907L12.2227 3.58392C12.4525 3.43075 12.7629 3.49283 12.9161 3.72259C13.0693 3.95236 13.0072 4.26279 12.7774 4.41597L8.27738 7.41602C8.10943 7.52799 7.89062 7.52799 7.72267 7.41602L3.2227 4.41597C2.99294 4.26279 2.93085 3.95235 3.08403 3.72259Z" fill="white"/>
<defs>
<filter id="filter0_b_1_3520" x="-1.37037" y="-0.370614" width="18.7407" height="16.7407" filterUnits="userSpaceOnUse" color-interpolation-filters="sRGB">
<feFlood flood-opacity="0" result="BackgroundImageFix"/>
<feGaussianBlur in="BackgroundImageFix" stdDeviation="1.18519"/>
<feComposite in2="SourceAlpha" operator="in" result="effect1_backgroundBlur_1_3520"/>
<feBlend mode="normal" in="SourceGraphic" in2="effect1_backgroundBlur_1_3520" result="shape"/>
</filter>
</defs>
</svg>
