<svg width="16" height="16" viewBox="0 0 16 16" fill="none" xmlns="http://www.w3.org/2000/svg">
<path fill-rule="evenodd" clip-rule="evenodd" d="M5.99999 2C6.1326 2 6.25978 2.05268 6.35355 2.14645L7.7071 3.5H14C14.5523 3.5 15 3.94771 15 4.5V13C15 13.5523 14.5523 14 14 14H2C1.44771 14 1 13.5523 1 13V3C1 2.44772 1.44771 2 2 2H5.99999ZM7.14644 4.35355L5.79288 3H2L2 13H14V4.5L7.49999 4.5C7.36738 4.5 7.24021 4.44732 7.14644 4.35355ZM7.99999 5.75C8.27613 5.75 8.49999 5.97386 8.49999 6.25V8.25H10.5C10.7761 8.25 11 8.47386 11 8.75C11 9.02614 10.7761 9.25 10.5 9.25H8.49999V11.25C8.49999 11.5261 8.27613 11.75 7.99999 11.75C7.72385 11.75 7.49999 11.5261 7.49999 11.25V9.25H5.49999C5.22385 9.25 4.99999 9.02614 4.99999 8.75C4.99999 8.47386 5.22385 8.25 5.49999 8.25H7.49999V6.25C7.49999 5.97386 7.72385 5.75 7.99999 5.75Z" fill="#3F465C"/>
</svg>
