<svg width="16" height="16" viewBox="0 0 16 16" fill="none" xmlns="http://www.w3.org/2000/svg">
<path fill-rule="evenodd" clip-rule="evenodd" d="M2.92306 2.0769C2.45574 2.0769 2.0769 2.45574 2.0769 2.92306V13.0769C2.0769 13.5442 2.45574 13.9231 2.92306 13.9231H13.0769C13.5442 13.9231 13.9231 13.5442 13.9231 13.0769V2.92306C13.9231 2.45574 13.5442 2.0769 13.0769 2.0769H2.92306ZM2.92306 2.92306L13.0769 2.92306V13.0769H2.92306V2.92306ZM6.05403 5.3464C5.85876 5.15114 5.54218 5.15114 5.34692 5.3464C5.15166 5.54166 5.15166 5.85824 5.34692 6.0535L7.29287 7.99946L5.34643 9.94591C5.15117 10.1412 5.15117 10.4578 5.34643 10.653C5.54169 10.8483 5.85827 10.8483 6.05353 10.653L7.99998 8.70657L9.94643 10.653C10.1417 10.8483 10.4583 10.8483 10.6535 10.653C10.8488 10.4578 10.8488 10.1412 10.6535 9.94591L8.70709 7.99946L10.653 6.0535C10.8483 5.85824 10.8483 5.54166 10.653 5.3464C10.4578 5.15114 10.1412 5.15114 9.94594 5.3464L7.99998 7.29235L6.05403 5.3464Z" fill="#3F465C"/>
</svg>
