<svg width="16" height="16" viewBox="0 0 16 16" fill="none" xmlns="http://www.w3.org/2000/svg">
<rect x="2.5" y="2.5" width="11" height="11" rx="0.5" fill="white" stroke="#3F465C"/>
<path fill-rule="evenodd" clip-rule="evenodd" d="M2 3C2 2.44772 2.44772 2 3 2H13C13.5523 2 14 2.44772 14 3V13C14 13.5523 13.5523 14 13 14H3C2.44772 14 2 13.5523 2 13V3ZM13 3L3 3V13H13V3ZM4.5 8C4.5 7.72386 4.72386 7.5 5 7.5H7.5V5C7.5 4.72386 7.72386 4.5 8 4.5C8.27614 4.5 8.5 4.72386 8.5 5V7.5H11C11.2761 7.5 11.5 7.72386 11.5 8C11.5 8.27614 11.2761 8.5 11 8.5H8.5V11C8.5 11.2761 8.27614 11.5 8 11.5C7.72386 11.5 7.5 11.2761 7.5 11V8.5H5C4.72386 8.5 4.5 8.27614 4.5 8Z" fill="#3F465C"/>
</svg>
