<svg width="16" height="16" viewBox="0 0 16 16" fill="none" xmlns="http://www.w3.org/2000/svg">
<path fill-rule="evenodd" clip-rule="evenodd" d="M8.5 2C8.5 1.72386 8.27614 1.5 8 1.5C7.72386 1.5 7.5 1.72386 7.5 2V2.52469C4.97334 2.77555 3 4.90733 3 7.5V12.5H2C1.72386 12.5 1.5 12.7239 1.5 13C1.5 13.2761 1.72386 13.5 2 13.5H3H4H12H13H14C14.2761 13.5 14.5 13.2761 14.5 13C14.5 12.7239 14.2761 12.5 14 12.5H13V7.5C13 4.90733 11.0267 2.77555 8.5 2.52469V2ZM12 7.5V12.5H4V7.5C4 5.29086 5.79086 3.5 8 3.5C10.2091 3.5 12 5.29086 12 7.5ZM6.50006 14C6.50006 14.8284 7.17163 15.5 8.00006 15.5C8.82849 15.5 9.50006 14.8284 9.50006 14H8.50006C8.50006 14.2761 8.2762 14.5 8.00006 14.5C7.72392 14.5 7.50006 14.2761 7.50006 14H6.50006Z" fill="#3F465C"/>
</svg>
