<svg width="16" height="16" viewBox="0 0 16 16" fill="none" xmlns="http://www.w3.org/2000/svg">
<path fill-rule="evenodd" clip-rule="evenodd" d="M6.1699 3.14138C6.07658 3.05072 5.95159 3 5.82148 3H2.5V6C2.5 6.27614 2.27614 6.5 2 6.5C1.72386 6.5 1.5 6.27614 1.5 6V3C1.5 2.44772 1.94772 2 2.5 2H5.82148C6.21182 2 6.58678 2.15215 6.86673 2.42415L6.51832 2.78277L6.86673 2.42415L8.05737 3.58092C8.15069 3.67159 8.27568 3.72231 8.40579 3.72231L14 3.7223C14.5523 3.7223 15 4.17002 15 4.7223V13C15 13.5523 14.5523 14 14 14L1.5 14C1.22386 14 1 13.7761 1 13.5C1 13.2239 1.22386 13 1.5 13L14 13V4.7223L8.40579 4.72231C8.01546 4.72231 7.6405 4.57015 7.36054 4.29816L6.1699 3.14138ZM9.53174 9.09023L7.1681 6.77444C6.97085 6.58119 6.65429 6.58442 6.46103 6.78167C6.26778 6.97892 6.27101 7.29549 6.46826 7.48874L7.95704 8.94738L1.5 8.94738C1.22386 8.94738 1 9.17124 1 9.44738C1 9.72352 1.22386 9.94738 1.5 9.94738L9.18182 9.94738C9.38498 9.94738 9.56794 9.82445 9.64473 9.63636C9.72152 9.44826 9.67686 9.23241 9.53174 9.09023Z" fill="#3F465C"/>
</svg>
