<svg width="16" height="16" viewBox="0 0 16 16" fill="none" xmlns="http://www.w3.org/2000/svg">
<path fill-rule="evenodd" clip-rule="evenodd" d="M6 5C6 3.89543 6.89543 3 8 3C9.10457 3 10 3.89543 10 5C10 6.10457 9.10457 7 8 7C6.89543 7 6 6.10457 6 5ZM8 2C6.34315 2 5 3.34315 5 5C5 6.65685 6.34315 8 8 8C9.65685 8 11 6.65685 11 5C11 3.34315 9.65685 2 8 2ZM5.5 9C3.567 9 2 10.567 2 12.5V13C2 13.8284 2.67157 14.5 3.5 14.5H12.5C13.3284 14.5 14 13.8284 14 13V12.5C14 10.567 12.433 9 10.5 9H5.5ZM3 12.5C3 11.1193 4.11929 10 5.5 10H10.5C11.8807 10 13 11.1193 13 12.5V13C13 13.2761 12.7761 13.5 12.5 13.5H3.5C3.22386 13.5 3 13.2761 3 13V12.5Z" fill="#3F465C"/>
</svg>
