<svg width="16" height="16" viewBox="0 0 16 16" fill="none" xmlns="http://www.w3.org/2000/svg">
<path fill-rule="evenodd" clip-rule="evenodd" d="M9.83459 11.7498C9.83459 10.6452 10.73 9.74976 11.8346 9.74976C12.9392 9.74976 13.8346 10.6452 13.8346 11.7498C13.8346 12.8543 12.9392 13.7498 11.8346 13.7498C10.73 13.7498 9.83459 12.8543 9.83459 11.7498ZM11.8346 8.74976C10.1777 8.74976 8.83459 10.0929 8.83459 11.7498C8.83459 13.4066 10.1777 14.7498 11.8346 14.7498C13.4914 14.7498 14.8346 13.4066 14.8346 11.7498C14.8346 10.0929 13.4914 8.74976 11.8346 8.74976ZM10.6855 12.1916C10.4903 12.3869 10.4903 12.7035 10.6855 12.8987C10.8808 13.094 11.1974 13.094 11.3926 12.8987L12.9836 11.3077C13.1789 11.1125 13.1789 10.7959 12.9836 10.6006C12.7884 10.4054 12.4718 10.4054 12.2765 10.6006L10.6855 12.1916Z" fill="#3F465C"/>
<path fill-rule="evenodd" clip-rule="evenodd" d="M6 5C6 3.89543 6.89543 3 8 3C9.10457 3 10 3.89543 10 5C10 6.10457 9.10457 7 8 7C6.89543 7 6 6.10457 6 5ZM8 2C6.34315 2 5 3.34315 5 5C5 6.65685 6.34315 8 8 8C9.65685 8 11 6.65685 11 5C11 3.34315 9.65685 2 8 2ZM7.5 9C7.77614 9 8 9.22386 8 9.5C8 9.77614 7.77614 10 7.5 10H5.5C4.11929 10 3 11.1193 3 12.5V13C3 13.2761 3.22386 13.5 3.5 13.5H7.5C7.77614 13.5 8 13.7239 8 14C8 14.2761 7.77614 14.5 7.5 14.5H3.5C2.67157 14.5 2 13.8284 2 13V12.5C2 10.567 3.567 9 5.5 9H7.5Z" fill="#3F465C"/>
</svg>
