<svg width="16" height="16" viewBox="0 0 16 16" fill="none" xmlns="http://www.w3.org/2000/svg">
<path fill-rule="evenodd" clip-rule="evenodd" d="M1.49994 7.94682C1.50097 7.81942 1.50566 7.69283 1.51393 7.56717C1.73695 4.17887 4.55529 1.50001 7.99973 1.50001C10.4084 1.50001 12.5104 2.81036 13.6328 4.7547C13.7708 4.99385 13.6889 5.29964 13.4497 5.4377C13.2106 5.57576 12.9048 5.4938 12.7667 5.25464C11.8156 3.60703 10.0366 2.50001 7.99973 2.50001C5.08557 2.50001 2.70042 4.76672 2.51177 7.63285C2.50494 7.73669 2.50098 7.84138 2.49998 7.94682H3.69636L2.70641 8.93677L2.69636 8.94682L1.9993 9.64388L1.30225 8.94682L1.2922 8.93677L0.302246 7.94682H1.49994ZM3.23523 10.7496C3.09695 10.5106 2.79109 10.4289 2.55206 10.5672C2.31303 10.7055 2.23135 11.0113 2.36962 11.2504C3.49275 13.1919 5.59318 14.5 7.99973 14.5C11.4442 14.5 14.2625 11.8211 14.4855 8.43285C14.4938 8.30719 14.4985 8.1806 14.4995 8.0532H15.6968L14.7068 7.06325L14.6968 7.0532L13.9997 6.35614L13.3027 7.0532L13.2926 7.06325L12.3027 8.0532H13.4995C13.4985 8.15864 13.4945 8.26332 13.4877 8.36717C13.299 11.2333 10.9139 13.5 7.99973 13.5C5.96458 13.5 4.18696 12.3949 3.23523 10.7496ZM5.99239 4.9465C6.18765 4.75123 6.50424 4.75123 6.6995 4.9465L7.98231 6.22931L9.26512 4.9465C9.46038 4.75123 9.77696 4.75123 9.97223 4.9465C10.1675 5.14176 10.1675 5.45834 9.97223 5.6536L8.64396 6.98187H10.1635C10.4396 6.98187 10.6635 7.20572 10.6635 7.48187C10.6635 7.75801 10.4396 7.98187 10.1635 7.98187H8.48167V9.16369H10.1635C10.4396 9.16369 10.6635 9.38754 10.6635 9.66369C10.6635 9.93983 10.4396 10.1637 10.1635 10.1637H8.48167V11.3C8.48167 11.5762 8.25781 11.8 7.98167 11.8C7.70553 11.8 7.48167 11.5762 7.48167 11.3V10.1637H5.79985C5.52371 10.1637 5.29985 9.93983 5.29985 9.66369C5.29985 9.38754 5.52371 9.16369 5.79985 9.16369H7.48167V7.98187H5.79985C5.52371 7.98187 5.29985 7.75801 5.29985 7.48187C5.29985 7.20572 5.52371 6.98187 5.79985 6.98187H7.32066L5.99239 5.6536C5.79713 5.45834 5.79713 5.14176 5.99239 4.9465Z" fill="#3F465C"/>
</svg>
