<svg width="16" height="16" viewBox="0 0 16 16" fill="none" xmlns="http://www.w3.org/2000/svg">
<path fill-rule="evenodd" clip-rule="evenodd" d="M8.85355 0.646447C8.65829 0.451184 8.34171 0.451184 8.14645 0.646447L6.14645 2.64645C5.95118 2.84171 5.95118 3.15829 6.14645 3.35355L8.14645 5.35355C8.34171 5.54882 8.65829 5.54882 8.85355 5.35355C9.04882 5.15829 9.04882 4.84171 8.85355 4.64645L7.70711 3.5H8.5C11.5376 3.5 14 5.96243 14 9C14 9.27614 14.2239 9.5 14.5 9.5C14.7761 9.5 15 9.27614 15 9C15 5.41015 12.0899 2.5 8.5 2.5H7.70711L8.85355 1.35355C9.04882 1.15829 9.04882 0.841709 8.85355 0.646447ZM1.5 8C1.5 7.44772 1.94772 7 2.5 7H10.5C11.0523 7 11.5 7.44771 11.5 8V14C11.5 14.5523 11.0523 15 10.5 15H2.5C1.94772 15 1.5 14.5523 1.5 14V8ZM10.5 14V8H2.5V14H10.5Z" fill="#3F465C"/>
</svg>
