<svg width="16" height="16" viewBox="0 0 16 16" fill="none" xmlns="http://www.w3.org/2000/svg">
<path fill-rule="evenodd" clip-rule="evenodd" d="M4.74047 1.86618C4.80058 1.64977 4.99762 1.5 5.22223 1.5H10.7778C10.9549 1.5 11.1189 1.59375 11.2087 1.74644C11.2986 1.89913 11.3009 2.08796 11.2149 2.24282L9.40532 5.5H13C13.194 5.5 13.3705 5.61223 13.4528 5.78792C13.5351 5.96361 13.5083 6.17105 13.3841 6.32009L6.71745 14.3201C6.57293 14.4935 6.33013 14.5486 6.12493 14.4545C5.91973 14.3604 5.80303 14.1405 5.84014 13.9178L6.40977 10.5H3C2.84376 10.5 2.69649 10.427 2.60194 10.3026C2.50739 10.1782 2.47643 10.0167 2.51825 9.86618L4.74047 1.86618ZM5.60227 2.5L3.65782 9.5H7C7.14698 9.5 7.28651 9.56467 7.38151 9.67681C7.47652 9.78896 7.51736 9.93722 7.4932 10.0822L7.12967 12.2634L11.9325 6.5H8.55556C8.3784 6.5 8.21447 6.40625 8.12462 6.25356C8.03478 6.10087 8.03244 5.91204 8.11848 5.75718L9.92803 2.5H5.60227Z" fill="#3F465C"/>
</svg>
