<svg width="16" height="16" viewBox="0 0 16 16" fill="none" xmlns="http://www.w3.org/2000/svg">
<g filter="url(#filter0_b_1_3581)">
<mask id="path-1-inside-1_1_3581" fill="white">
<path fill-rule="evenodd" clip-rule="evenodd" d="M2 2C1.44772 2 1 2.44772 1 3V13C1 13.5523 1.44772 14 2 14H9.79076C9.60325 13.5368 9.5 13.0304 9.5 12.5C9.5 10.2909 11.2909 8.5 13.5 8.5C14.0304 8.5 14.5368 8.60325 15 8.79076V3C15 2.44772 14.5523 2 14 2H2Z"/>
</mask>
<path fill-rule="evenodd" clip-rule="evenodd" d="M2 2C1.44772 2 1 2.44772 1 3V13C1 13.5523 1.44772 14 2 14H9.79076C9.60325 13.5368 9.5 13.0304 9.5 12.5C9.5 10.2909 11.2909 8.5 13.5 8.5C14.0304 8.5 14.5368 8.60325 15 8.79076V3C15 2.44772 14.5523 2 14 2H2Z" fill="#3F465C"/>
<path d="M9.79076 14V14.8889H11.1095L10.6147 13.6665L9.79076 14ZM15 8.79076L14.6665 9.6147L15.8889 10.1095V8.79076H15ZM1.88889 3C1.88889 2.93864 1.93863 2.88889 2 2.88889V1.11111C0.956796 1.11111 0.111111 1.95679 0.111111 3H1.88889ZM1.88889 13V3H0.111111V13H1.88889ZM2 13.1111C1.93864 13.1111 1.88889 13.0614 1.88889 13H0.111111C0.111111 14.0432 0.956796 14.8889 2 14.8889V13.1111ZM9.79076 13.1111H2V14.8889H9.79076V13.1111ZM10.6147 13.6665C10.4694 13.3074 10.3889 12.9142 10.3889 12.5H8.61111C8.61111 13.1467 8.73714 13.7661 8.96681 14.3335L10.6147 13.6665ZM10.3889 12.5C10.3889 10.7818 11.7818 9.38889 13.5 9.38889V7.61111C10.7999 7.61111 8.61111 9.79994 8.61111 12.5H10.3889ZM13.5 9.38889C13.9142 9.38889 14.3074 9.46936 14.6665 9.6147L15.3335 7.96681C14.7661 7.73714 14.1467 7.61111 13.5 7.61111V9.38889ZM14.1111 3V8.79076H15.8889V3H14.1111ZM14 2.88889C14.0614 2.88889 14.1111 2.93864 14.1111 3H15.8889C15.8889 1.9568 15.0432 1.11111 14 1.11111V2.88889ZM2 2.88889H14V1.11111H2V2.88889Z" fill="#3F465C" mask="url(#path-1-inside-1_1_3581)"/>
</g>
<path fill-rule="evenodd" clip-rule="evenodd" d="M14.3648 9.55803C14.1759 9.35657 13.8595 9.34636 13.658 9.53522C13.4566 9.72408 13.4464 10.0405 13.6352 10.242L14.3459 11H11.5C11.2239 11 11 11.2239 11 11.5C11 11.7762 11.2239 12 11.5 12H15.5C15.6993 12 15.8796 11.8817 15.9588 11.6988C16.038 11.5159 16.0011 11.3035 15.8648 11.1581L14.3648 9.55803ZM12.6352 15.442C12.8241 15.6434 13.1405 15.6536 13.342 15.4648C13.5434 15.2759 13.5536 14.9595 13.3648 14.758L12.6541 13.9999H15.5C15.7762 13.9999 16 13.7761 16 13.4999C16 13.2238 15.7762 12.9999 15.5 12.9999H11.5C11.3007 12.9999 11.1204 13.1183 11.0412 13.3012C10.962 13.4841 10.9989 13.6965 11.1352 13.8419L12.6352 15.442Z" fill="#3F465C"/>
<path fill-rule="evenodd" clip-rule="evenodd" d="M3.08403 3.7229C3.23721 3.49313 3.54764 3.43105 3.77741 3.58423L8.00003 6.39937L12.2227 3.58423C12.4525 3.43105 12.7629 3.49314 12.9161 3.7229C13.0693 3.95266 13.0072 4.2631 12.7774 4.41628L8.27738 7.41633C8.10943 7.5283 7.89062 7.52829 7.72267 7.41632L3.2227 4.41627C2.99294 4.2631 2.93085 3.95266 3.08403 3.7229Z" fill="white"/>
<defs>
<filter id="filter0_b_1_3581" x="-1.37037" y="-0.37037" width="18.7407" height="16.7407" filterUnits="userSpaceOnUse" color-interpolation-filters="sRGB">
<feFlood flood-opacity="0" result="BackgroundImageFix"/>
<feGaussianBlur in="BackgroundImageFix" stdDeviation="1.18519"/>
<feComposite in2="SourceAlpha" operator="in" result="effect1_backgroundBlur_1_3581"/>
<feBlend mode="normal" in="SourceGraphic" in2="effect1_backgroundBlur_1_3581" result="shape"/>
</filter>
</defs>
</svg>
