<svg width="16" height="16" viewBox="0 0 16 16" fill="none" xmlns="http://www.w3.org/2000/svg">
<path fill-rule="evenodd" clip-rule="evenodd" d="M3 1.5C2.44771 1.5 2 1.94772 2 2.5V13.5C2 14.0523 2.44771 14.5 3 14.5H8H13C13.5523 14.5 14 14.0523 14 13.5V2.5C14 1.94772 13.5523 1.5 13 1.5H3ZM3 2.5L13 2.5V13.5H8H3V2.5ZM5 4.5C4.72386 4.5 4.5 4.72386 4.5 5C4.5 5.27614 4.72386 5.5 5 5.5H11C11.2761 5.5 11.5 5.27614 11.5 5C11.5 4.72386 11.2761 4.5 11 4.5H5ZM5 7.5C4.72386 7.5 4.5 7.72386 4.5 8C4.5 8.27614 4.72386 8.5 5 8.5H8.5C8.77614 8.5 9 8.27614 9 8C9 7.72386 8.77614 7.5 8.5 7.5H5Z" fill="#3F465C"/>
</svg>
