<svg width="16" height="16" viewBox="0 0 16 16" fill="none" xmlns="http://www.w3.org/2000/svg">
<path fill-rule="evenodd" clip-rule="evenodd" d="M8 14C9.56419 14 10.9886 13.4014 12.0566 12.4209C12.0143 11.2099 11.0203 10.2495 9.808 10.2495L6.37349 10.2495C5.10461 10.2495 4.08403 11.3086 4.12496 12.581C5.17039 13.4662 6.52286 14 8 14ZM14 8C14 9.29463 13.59 10.4935 12.8927 11.4738C12.4623 10.1781 11.2407 9.24951 9.808 9.24951L6.37349 9.24951C4.86961 9.24951 3.61303 10.2743 3.23796 11.6506C2.46152 10.6392 2 9.37352 2 8C2 4.68629 4.68629 2 8 2C11.3137 2 14 4.68629 14 8ZM15 8C15 11.866 11.866 15 8 15C4.13401 15 0.999998 11.866 0.999999 8C0.999999 4.13401 4.13401 0.999999 8 0.999999C11.866 1 15 4.13401 15 8ZM6.26562 6.17456C6.26562 5.21669 7.04213 4.44019 8 4.44019C8.95787 4.44019 9.73437 5.21669 9.73437 6.17456C9.73438 7.13243 8.95787 7.90894 8 7.90894C7.04213 7.90894 6.26562 7.13243 6.26562 6.17456ZM8 3.44019C6.48985 3.44019 5.26562 4.66441 5.26562 6.17456C5.26562 7.68471 6.48985 8.90894 8 8.90894C9.51015 8.90894 10.7344 7.68471 10.7344 6.17456C10.7344 4.66441 9.51015 3.44019 8 3.44019Z" fill="#3F465C"/>
</svg>
