<svg width="16" height="16" viewBox="0 0 16 16" fill="none" xmlns="http://www.w3.org/2000/svg">
<path fill-rule="evenodd" clip-rule="evenodd" d="M7.50002 5.5V2.5H8.50002V5.5V6H9.00002H13V8H12.3473H3.65278H3.00002V6H7.00002H7.50002V5.5ZM2.84539 9H2.75002C2.3358 9 2.00002 8.66421 2.00002 8.25V5.75C2.00002 5.33579 2.3358 5 2.75002 5H6.50002V2.25C6.50002 1.83579 6.8358 1.5 7.25002 1.5H8.75002C9.16423 1.5 9.50002 1.83579 9.50002 2.25V5H13.25C13.6642 5 14 5.33579 14 5.75V8.25C14 8.66421 13.6642 9 13.25 9H13.1546L14.3963 13.5527C14.5264 14.0298 14.1672 14.5 13.6727 14.5H10H2.32733C1.8328 14.5 1.47364 14.0298 1.60376 13.5527L2.84539 9ZM10.5 13.5V11C10.5 10.7239 10.2762 10.5 10 10.5C9.72387 10.5 9.50002 10.7239 9.50002 11V13.5H6.50002V11C6.50002 10.7239 6.27616 10.5 6.00002 10.5C5.72387 10.5 5.50002 10.7239 5.50002 11V13.5H2.65464L3.88191 9H12.1181L13.3454 13.5H10.5Z" fill="#3F465C"/>
</svg>
