<svg width="16" height="16" viewBox="0 0 16 16" fill="none" xmlns="http://www.w3.org/2000/svg">
<path fill-rule="evenodd" clip-rule="evenodd" d="M2.5 2C2.5 1.72386 2.72386 1.5 3 1.5H13.5C14.0523 1.5 14.5 1.94772 14.5 2.5V6C14.5 6.27614 14.2761 6.5 14 6.5C13.7239 6.5 13.5 6.27614 13.5 6V2.5H6V13.5H8C8.27614 13.5 8.5 13.7239 8.5 14C8.5 14.2761 8.27614 14.5 8 14.5H6H5H3C2.72386 14.5 2.5 14.2761 2.5 14V11.5H2C1.72386 11.5 1.5 11.2761 1.5 11C1.5 10.7239 1.72386 10.5 2 10.5H2.5V8.5H2C1.72386 8.5 1.5 8.27614 1.5 8C1.5 7.72386 1.72386 7.5 2 7.5H2.5V5.5H2C1.72386 5.5 1.5 5.27614 1.5 5C1.5 4.72386 1.72386 4.5 2 4.5H2.5V2ZM3.5 11V13.5H5V2.5H3.5V5V8V11ZM12.5 13C13.6046 13 14.5 12.1046 14.5 11C14.5 9.89543 13.6046 9 12.5 9C11.3954 9 10.5 9.89543 10.5 11C10.5 12.1046 11.3954 13 12.5 13ZM14.9423 12.7426C15.2934 12.2514 15.5 11.6498 15.5 11C15.5 9.34315 14.1569 8 12.5 8C10.8431 8 9.5 9.34315 9.5 11C9.5 12.6569 10.8431 14 12.5 14C13.1497 14 13.7511 13.7935 14.2423 13.4425C14.2564 13.4613 14.2719 13.4793 14.289 13.4964L15.0668 14.2742C15.2621 14.4695 15.5787 14.4695 15.7739 14.2742C15.9692 14.0789 15.9692 13.7623 15.7739 13.5671L14.9961 12.7893C14.9791 12.7722 14.9611 12.7566 14.9423 12.7426Z" fill="#3F465C"/>
</svg>
