<svg width="16" height="16" viewBox="0 0 16 16" fill="none" xmlns="http://www.w3.org/2000/svg">
<path d="M8.1943 7.03077C7.99904 7.22604 7.99904 7.54262 8.1943 7.73788C8.38956 7.93314 8.70614 7.93314 8.9014 7.73788L8.1943 7.03077ZM8.9014 7.73788L13.8056 2.83372L13.0985 2.12661L8.1943 7.03077L8.9014 7.73788Z" fill="#3F465C"/>
<path d="M7 2.5H3C2.72386 2.5 2.5 2.72386 2.5 3V13C2.5 13.2761 2.72386 13.5 3 13.5H13C13.2761 13.5 13.5 13.2761 13.5 13V9M9.5 2.5H13C13.2761 2.5 13.5 2.72386 13.5 3V6.5" stroke="#3F465C" stroke-linecap="round"/>
</svg>
