<svg width="16" height="16" viewBox="0 0 16 16" fill="none" xmlns="http://www.w3.org/2000/svg">
<path fill-rule="evenodd" clip-rule="evenodd" d="M7.8077 2.03846C7.93078 1.98718 8.06924 1.98718 8.19232 2.03846L14.1923 4.53846C14.3786 4.6161 14.5 4.79815 14.5 5C14.5 5.20185 14.3786 5.3839 14.1923 5.46154L8.19232 7.96154C8.06924 8.01282 7.93078 8.01282 7.8077 7.96154L1.8077 5.46154C1.62138 5.3839 1.50001 5.20185 1.50001 5C1.50001 4.79815 1.62138 4.6161 1.8077 4.53846L7.8077 2.03846ZM3.30001 5L8.00001 6.95833L12.7 5L8.00001 3.04167L3.30001 5ZM1.53847 7.80769C1.64468 7.55279 1.93742 7.43225 2.19232 7.53846L8.00001 9.95833L13.8077 7.53846C14.0626 7.43225 14.3553 7.55279 14.4615 7.80769C14.5678 8.06259 14.4472 8.35533 14.1923 8.46154L8.19232 10.9615C8.06924 11.0128 7.93078 11.0128 7.8077 10.9615L1.8077 8.46154C1.5528 8.35533 1.43226 8.06259 1.53847 7.80769ZM2.19232 10.5385C1.93742 10.4323 1.64468 10.5528 1.53847 10.8077C1.43226 11.0626 1.5528 11.3553 1.8077 11.4615L7.8077 13.9615C7.93078 14.0128 8.06924 14.0128 8.19232 13.9615L14.1923 11.4615C14.4472 11.3553 14.5678 11.0626 14.4615 10.8077C14.3553 10.5528 14.0626 10.4323 13.8077 10.5385L8.00001 12.9583L2.19232 10.5385Z" fill="#3F465C"/>
</svg>
