<svg width="17" height="16" viewBox="0 0 17 16" fill="none" xmlns="http://www.w3.org/2000/svg">
<path fill-rule="evenodd" clip-rule="evenodd" d="M11 12C11 12.2761 10.7761 12.5 10.5 12.5H5.5C5.22386 12.5 5 12.2761 5 12C5 11.7239 5.22386 11.5 5.5 11.5H10.5C10.7761 11.5 11 11.7239 11 12ZM8 10C8 10.2761 7.77614 10.5 7.5 10.5H5.5C5.22386 10.5 5 10.2761 5 10C5 9.72386 5.22386 9.5 5.5 9.5H7.5C7.77614 9.5 8 9.72386 8 10ZM9.13046 6C8.85432 6 8.63046 5.77614 8.63046 5.5V2H3.53625V14H12.6957V6H9.13046ZM12.2945 5H9.63046V2.39226L12.2945 5ZM2.53625 14V2C2.53625 1.44772 2.98397 1 3.53625 1H9.22973C9.49125 1 9.74236 1.10245 9.92925 1.28538L13.3952 4.67809C13.5874 4.8662 13.6957 5.12379 13.6957 5.3927V14C13.6957 14.5523 13.248 15 12.6957 15H3.53625C2.98397 15 2.53625 14.5523 2.53625 14Z" fill="#3F465C"/>
</svg>
