<svg width="16" height="16" viewBox="0 0 16 16" fill="none" xmlns="http://www.w3.org/2000/svg">
<path fill-rule="evenodd" clip-rule="evenodd" d="M4.99995 1.80005C4.99995 1.52391 5.22381 1.30005 5.49995 1.30005H10.5C10.7761 1.30005 11 1.52391 11 1.80005V2.80005H13.8C14.0761 2.80005 14.3 3.02391 14.3 3.30005C14.3 3.57619 14.0761 3.80005 13.8 3.80005H13.1V13.5C13.1 14.0523 12.6522 14.5 12.1 14.5H3.89995C3.34767 14.5 2.89995 14.0523 2.89995 13.5V3.80005H2.19995C1.92381 3.80005 1.69995 3.57619 1.69995 3.30005C1.69995 3.02391 1.92381 2.80005 2.19995 2.80005H4.99995V1.80005ZM5.99995 2.80005H9.99995V2.30005H5.99995V2.80005ZM3.89995 3.80005V13.5L12.1 13.5V3.80005H3.89995ZM6.69995 6.00006C6.97609 6.00006 7.19995 6.22392 7.19995 6.50006V11.0001C7.19995 11.2762 6.97609 11.5001 6.69995 11.5001C6.42381 11.5001 6.19995 11.2762 6.19995 11.0001V6.50006C6.19995 6.22392 6.42381 6.00006 6.69995 6.00006ZM9.29995 6.00006C9.57609 6.00006 9.79995 6.22392 9.79995 6.50006V11.0001C9.79995 11.2762 9.57609 11.5001 9.29995 11.5001C9.02381 11.5001 8.79995 11.2762 8.79995 11.0001V6.50006C8.79995 6.22392 9.02381 6.00006 9.29995 6.00006Z" fill="#3F465C"/>
</svg>
