<svg width="16" height="16" viewBox="0 0 16 16" fill="none" xmlns="http://www.w3.org/2000/svg">
<path fill-rule="evenodd" clip-rule="evenodd" d="M8.6 1.825C8.24444 1.55833 7.75556 1.55833 7.4 1.825L3.83333 4.5H2.5C1.94772 4.5 1.5 4.94772 1.5 5.5V13.5C1.5 14.0523 1.94772 14.5 2.5 14.5H13.5C14.0523 14.5 14.5 14.0523 14.5 13.5V5.5C14.5 4.94771 14.0523 4.5 13.5 4.5H12.1667L8.6 1.825ZM10.5 4.5L8 2.625L5.5 4.5H10.5ZM2.5 13.5V5.5L13.5 5.5V13.5H2.5ZM4.5 7.5C4.22386 7.5 4 7.72386 4 8C4 8.27614 4.22386 8.5 4.5 8.5H11C11.2761 8.5 11.5 8.27614 11.5 8C11.5 7.72386 11.2761 7.5 11 7.5H4.5ZM4 10.5C4 10.2239 4.22386 10 4.5 10H8C8.27614 10 8.5 10.2239 8.5 10.5C8.5 10.7761 8.27614 11 8 11H4.5C4.22386 11 4 10.7761 4 10.5Z" fill="#3F465C"/>
</svg>
