<svg width="16" height="16" viewBox="0 0 16 16" fill="none" xmlns="http://www.w3.org/2000/svg">
<path fill-rule="evenodd" clip-rule="evenodd" d="M2 2.5C2 2.22386 2.22386 2 2.5 2H13.5C13.7761 2 14 2.22386 14 2.5C14 2.77614 13.7761 3 13.5 3H2.5C2.22386 3 2 2.77614 2 2.5ZM10 6.29289L8.35355 4.64645C8.15829 4.45118 7.84171 4.45118 7.64645 4.64645L3.14645 9.14645L2.89645 9.39645C2.70118 9.59171 2.70118 9.90829 2.89645 10.1036C3.09171 10.2988 3.40829 10.2988 3.60355 10.1036L3.85355 9.85355L7.5 6.20711V8.79289L3.54147 12.7514C3.3462 12.9467 3.3462 13.2633 3.54147 13.4585C3.73673 13.6538 4.05331 13.6538 4.24857 13.4585L13.3535 4.35355C13.5488 4.15829 13.5488 3.84171 13.3535 3.64645C13.1583 3.45118 12.8417 3.45118 12.6464 3.64645L10 6.29289ZM9.29289 7L8.5 6.20711V7.79289L9.29289 7ZM11.2778 7.5707L10.5939 8.30103L12.3964 10.1036C12.5917 10.2988 12.9083 10.2988 13.1036 10.1036C13.2988 9.90829 13.2988 9.59171 13.1036 9.39645L11.2778 7.5707ZM8.5 10.5372L7.5 11.6051V14.5C7.5 14.7761 7.72386 15 8 15C8.27614 15 8.5 14.7761 8.5 14.5V10.5372Z" fill="#3F465C"/>
</svg>
