<svg width="16" height="16" viewBox="0 0 16 16" fill="none" xmlns="http://www.w3.org/2000/svg">
<path fill-rule="evenodd" clip-rule="evenodd" d="M14.4861 7.56716C14.4943 7.69282 14.499 7.81941 14.5001 7.94681H15.6978L14.7078 8.93676L14.6978 8.94681L14.0007 9.64387L13.3036 8.94681L13.2936 8.93676L12.3036 7.94681H13.5C13.499 7.84137 13.4951 7.73669 13.4882 7.63284C13.2996 4.76671 10.9144 2.5 8.00027 2.5C5.96336 2.5 4.18441 3.60702 3.2333 5.25464C3.09524 5.49379 2.78945 5.57575 2.55029 5.43769C2.31114 5.29963 2.22918 4.99384 2.36724 4.75469C3.48965 2.81035 5.59163 1.5 8.00027 1.5C11.4447 1.5 14.2631 4.17887 14.4861 7.56716ZM13.4479 10.5672C13.2089 10.4289 12.903 10.5106 12.7648 10.7496C11.813 12.3949 10.0354 13.5 8.00027 13.5C5.08611 13.5 2.70096 11.2333 2.51231 8.36716C2.50548 8.26331 2.50152 8.15863 2.50052 8.05319H3.69733L2.70738 7.06324L2.69733 7.05319L2.00027 6.35613L1.30321 7.05319L1.29316 7.06324L0.303214 8.05319H1.50048C1.5015 8.18059 1.5062 8.30718 1.51447 8.43284C1.73749 11.8211 4.55583 14.5 8.00027 14.5C10.4068 14.5 12.5073 13.1919 13.6304 11.2504C13.7687 11.0113 13.687 10.7055 13.4479 10.5672Z" fill="#3F465C"/>
</svg>
