<svg width="16" height="16" viewBox="0 0 16 16" fill="none" xmlns="http://www.w3.org/2000/svg">
<path fill-rule="evenodd" clip-rule="evenodd" d="M3.64645 11.8536C3.45118 11.6583 3.45118 11.3417 3.64645 11.1464L7.64645 7.14645C7.84171 6.95118 8.15829 6.95118 8.35355 7.14645L12.3536 11.1464C12.5488 11.3417 12.5488 11.6583 12.3536 11.8536C12.1583 12.0488 11.8417 12.0488 11.6464 11.8536L8 8.20711L4.35355 11.8536C4.15829 12.0488 3.84171 12.0488 3.64645 11.8536ZM3.64645 8.85355C3.45118 8.65829 3.45118 8.34171 3.64645 8.14645L7.64645 4.14645C7.84171 3.95118 8.15829 3.95118 8.35355 4.14645L12.3536 8.14645C12.5488 8.34171 12.5488 8.65829 12.3536 8.85355C12.1583 9.04882 11.8417 9.04882 11.6464 8.85355L8 5.20711L4.35355 8.85355C4.15829 9.04882 3.84171 9.04882 3.64645 8.85355Z" fill="#3F465C"/>
</svg>
