<svg width="16" height="16" viewBox="0 0 16 16" fill="none" xmlns="http://www.w3.org/2000/svg">
<path fill-rule="evenodd" clip-rule="evenodd" d="M7.49968 0.711337C7.80908 0.532704 8.19028 0.532704 8.49968 0.711337L14.3119 4.067L14.5619 4.21134V4.50001V11.2113C14.5619 11.5686 14.3713 11.8987 14.0619 12.0774L8.24968 15.433L7.99968 15.5774L7.74968 15.433L1.9375 12.0774C1.6281 11.8987 1.4375 11.5686 1.4375 11.2113V4.50001V4.21134L1.6875 4.067L7.49968 0.711337ZM7.99968 1.57736L13.0346 4.48429L8 7.42116L2.96505 4.48411L7.99968 1.57736ZM2.4375 11.2113V5.33407L7.5 8.2872V14.1342L2.4375 11.2113ZM8.5 14.1338L13.5619 11.2113V5.33445L8.5 8.2872V14.1338Z" fill="#3F465C"/>
</svg>
