<svg width="16" height="16" viewBox="0 0 16 16" fill="none" xmlns="http://www.w3.org/2000/svg">
<path fill-rule="evenodd" clip-rule="evenodd" d="M7.99979 1.85669C4.60692 1.85669 1.85645 4.60716 1.85645 8.00004C1.85645 11.3929 4.60692 14.1434 7.99979 14.1434C9.01499 14.1434 9.97131 13.8975 10.8138 13.4625C11.0882 13.3209 11.3506 13.1591 11.599 12.9792C11.8415 12.8036 12.1541 12.7194 12.4697 12.7785L13.8914 13.0448L13.4104 11.6445C13.3131 11.3613 13.3366 11.0548 13.4656 10.7924C13.5653 10.5894 13.6921 10.3217 13.753 10.1595C14.0051 9.48835 14.1431 8.76089 14.1431 8.00004C14.1431 4.60716 11.3927 1.85669 7.99979 1.85669ZM0.856445 8.00004C0.856445 4.05487 4.05463 0.856689 7.99979 0.856689C11.945 0.856689 15.1431 4.05487 15.1431 8.00004C15.1431 8.88278 14.9828 9.72922 14.6892 10.511C14.6086 10.7256 14.4605 11.0352 14.3631 11.2334C14.3483 11.2634 14.3475 11.2946 14.3561 11.3197L15.0045 13.2071C15.1788 13.7145 14.7409 14.2213 14.2136 14.1226L12.2856 13.7614C12.2607 13.7568 12.2237 13.7615 12.1856 13.7891C11.8968 13.9982 11.5918 14.1863 11.2726 14.3511C10.2916 14.8576 9.17832 15.1434 7.99979 15.1434C4.05463 15.1434 0.856445 11.9452 0.856445 8.00004ZM5.81232 6.1418C5.81232 4.93357 6.79178 3.9541 8.00001 3.9541C9.20824 3.9541 10.1877 4.93357 10.1877 6.1418C10.1877 6.99091 9.70384 7.72616 8.99911 8.08842C8.64327 8.27134 8.50001 8.48594 8.50001 8.62949V8.95462C8.50001 9.23076 8.27615 9.45462 8.00001 9.45462C7.72387 9.45462 7.50001 9.23076 7.50001 8.95462V8.62949C7.50001 7.88939 8.11188 7.42012 8.54193 7.19905C8.92645 7.00139 9.18771 6.60168 9.18771 6.1418C9.18771 5.48585 8.65596 4.9541 8.00001 4.9541C7.34407 4.9541 6.81232 5.48585 6.81232 6.1418C6.81232 6.41794 6.58846 6.6418 6.31232 6.6418C6.03617 6.6418 5.81232 6.41794 5.81232 6.1418ZM8.69932 10.8467C8.69932 11.2329 8.38625 11.546 8.00005 11.546C7.61386 11.546 7.30078 11.2329 7.30078 10.8467C7.30078 10.4605 7.61386 10.1475 8.00005 10.1475C8.38625 10.1475 8.69932 10.4605 8.69932 10.8467Z" fill="#3F465C"/>
</svg>
