<svg width="16" height="16" viewBox="0 0 16 16" fill="none" xmlns="http://www.w3.org/2000/svg">
<path fill-rule="evenodd" clip-rule="evenodd" d="M12.3536 4.14645C12.5488 4.34171 12.5488 4.65829 12.3536 4.85355L8.35355 8.85355C8.15829 9.04882 7.84171 9.04882 7.64645 8.85355L3.64645 4.85355C3.45118 4.65829 3.45118 4.34171 3.64645 4.14645C3.84171 3.95118 4.15829 3.95118 4.35355 4.14645L8 7.79289L11.6464 4.14645C11.8417 3.95118 12.1583 3.95118 12.3536 4.14645ZM12.3536 7.14645C12.5488 7.34171 12.5488 7.65829 12.3536 7.85355L8.35355 11.8536C8.15829 12.0488 7.84171 12.0488 7.64645 11.8536L3.64645 7.85355C3.45118 7.65829 3.45118 7.34171 3.64645 7.14645C3.84171 6.95118 4.15829 6.95118 4.35355 7.14645L8 10.7929L11.6464 7.14645C11.8417 6.95118 12.1583 6.95118 12.3536 7.14645Z" fill="#3F465C"/>
</svg>
