<svg width="16" height="16" viewBox="0 0 16 16" fill="none" xmlns="http://www.w3.org/2000/svg">
<path fill-rule="evenodd" clip-rule="evenodd" d="M6 1.5C6 1.22386 5.77614 1 5.5 1C5.22386 1 5 1.22386 5 1.5V2.5H3C2.44772 2.5 2 2.94772 2 3.5V12.5C2 13.0523 2.44771 13.5 3 13.5H8.5C8.77614 13.5 9 13.2761 9 13C9 12.7239 8.77614 12.5 8.5 12.5H3V6.68182H13V7C13 7.27614 13.2239 7.5 13.5 7.5C13.7761 7.5 14 7.27614 14 7V3.5C14 2.94772 13.5523 2.5 13 2.5H11V1.5C11 1.22386 10.7761 1 10.5 1C10.2239 1 10 1.22386 10 1.5V2.5H6V1.5ZM3 3.5H5V4C5 4.27614 5.22386 4.5 5.5 4.5C5.77614 4.5 6 4.27614 6 4V3.5H10V4C10 4.27614 10.2239 4.5 10.5 4.5C10.7761 4.5 11 4.27614 11 4V3.5H13V5.68182H3V3.5ZM12.5 9.0813C11.3954 9.0813 10.5 9.97673 10.5 11.0813C10.5 12.1859 11.3954 13.0813 12.5 13.0813C13.6046 13.0813 14.5 12.1859 14.5 11.0813C14.5 9.97673 13.6046 9.0813 12.5 9.0813ZM9.5 11.0813C9.5 9.42444 10.8431 8.0813 12.5 8.0813C14.1569 8.0813 15.5 9.42444 15.5 11.0813C15.5 12.7382 14.1569 14.0813 12.5 14.0813C10.8431 14.0813 9.5 12.7382 9.5 11.0813ZM12.5187 9.69995C12.7949 9.69995 13.0187 9.92381 13.0187 10.2V10.7H13.5187C13.7949 10.7 14.0187 10.9239 14.0187 11.2C14.0187 11.4762 13.7949 11.7 13.5187 11.7H12.5187C12.2426 11.7 12.0187 11.4762 12.0187 11.2V10.2C12.0187 9.92381 12.2426 9.69995 12.5187 9.69995Z" fill="#3F465C"/>
</svg>
