<svg width="16" height="16" viewBox="0 0 16 16" fill="none" xmlns="http://www.w3.org/2000/svg">
<g clip-path="url(#clip0_1_4082)">
<path fill-rule="evenodd" clip-rule="evenodd" d="M1.60083 2.09999C1.60083 1.82385 1.82469 1.59999 2.10083 1.59999H13.1008C13.377 1.59999 13.6008 1.82385 13.6008 2.09999V7.19999L7.20083 13.6H2.10083C1.82469 13.6 1.60083 13.3761 1.60083 13.1V2.09999ZM4.52083 5.59999C4.23364 5.59999 4.00083 5.8328 4.00083 6.11999C4.00083 6.40718 4.23364 6.63999 4.52083 6.63999H9.88083C10.168 6.63999 10.4008 6.40718 10.4008 6.11999C10.4008 5.8328 10.168 5.59999 9.88083 5.59999H4.52083ZM4.00083 8.51999C4.00083 8.2328 4.23364 7.99999 4.52083 7.99999H7.48083C7.76802 7.99999 8.00083 8.2328 8.00083 8.51999C8.00083 8.80718 7.76802 9.03999 7.48083 9.03999H4.52083C4.23364 9.03999 4.00083 8.80718 4.00083 8.51999ZM15.844 9.00224C16.0526 9.21024 16.0526 9.54783 15.844 9.75636L11.3343 14.2661C11.2486 14.3518 11.1323 14.4 11.0111 14.4H10.0576C9.80511 14.4 9.60044 14.1953 9.60044 13.9429V12.9894C9.60044 12.8681 9.6486 12.7519 9.73433 12.6661L14.2441 8.15639C14.4521 7.94787 14.7897 7.94787 14.9982 8.15639L15.844 9.00224Z" fill="#3F465C"/>
</g>
<defs>
<clipPath id="clip0_1_4082">
<rect width="16" height="16" fill="white"/>
</clipPath>
</defs>
</svg>
