<svg width="16" height="16" viewBox="0 0 16 16" fill="none" xmlns="http://www.w3.org/2000/svg">
<path fill-rule="evenodd" clip-rule="evenodd" d="M5.30011 6.30005C5.85239 6.30005 6.30011 5.85233 6.30011 5.30005V2.80005C6.30011 2.52391 6.07625 2.30005 5.80011 2.30005C5.52397 2.30005 5.30011 2.52391 5.30011 2.80005V5.30005H2.80011C2.52397 5.30005 2.30011 5.52391 2.30011 5.80005C2.30011 6.07619 2.52397 6.30005 2.80011 6.30005H5.30011ZM10.8001 9.80005C10.2478 9.80005 9.80011 10.2478 9.80011 10.8V13.3C9.80011 13.5762 10.024 13.8 10.3001 13.8C10.5763 13.8 10.8001 13.5762 10.8001 13.3V10.8H13.3001C13.5763 10.8 13.8001 10.5762 13.8001 10.3C13.8001 10.0239 13.5763 9.80005 13.3001 9.80005H10.8001ZM6.30005 10.8C6.30005 10.2478 5.85233 9.80005 5.30005 9.80005H2.80005C2.52391 9.80005 2.30005 10.0239 2.30005 10.3C2.30005 10.5762 2.52391 10.8 2.80005 10.8H5.30005V13.3C5.30005 13.5762 5.52391 13.8 5.80005 13.8C6.07619 13.8 6.30005 13.5762 6.30005 13.3V10.8ZM10.8001 6.30005C10.2478 6.30005 9.80011 5.85233 9.80011 5.30005V2.80005C9.80011 2.52391 10.024 2.30005 10.3001 2.30005C10.5763 2.30005 10.8001 2.52391 10.8001 2.80005V5.30005H13.3001C13.5763 5.30005 13.8001 5.52391 13.8001 5.80005C13.8001 6.07619 13.5763 6.30005 13.3001 6.30005H10.8001Z" fill="#3F465C"/>
</svg>
