<svg width="16" height="16" viewBox="0 0 16 16" fill="none" xmlns="http://www.w3.org/2000/svg">
<path fill-rule="evenodd" clip-rule="evenodd" d="M1.5 3C1.5 2.44772 1.94772 2 2.5 2H13.5C14.0523 2 14.5 2.44771 14.5 3V13C14.5 13.5523 14.0523 14 13.5 14H2.5C1.94772 14 1.5 13.5523 1.5 13V3ZM13.5 3L2.5 3V13H5.00651L10.3902 8.16606C10.7126 7.87657 11.2031 7.88247 11.5184 8.17964L13.5 10.0469V3ZM13.5 11.4209L10.9442 9.01256L6.50331 13H13.5V11.4209ZM5.5 5.5C4.94772 5.5 4.5 5.94772 4.5 6.5C4.5 7.05228 4.94772 7.5 5.5 7.5C6.05228 7.5 6.5 7.05228 6.5 6.5C6.5 5.94772 6.05228 5.5 5.5 5.5ZM3.5 6.5C3.5 5.39543 4.39543 4.5 5.5 4.5C6.60457 4.5 7.5 5.39543 7.5 6.5C7.5 7.60457 6.60457 8.5 5.5 8.5C4.39543 8.5 3.5 7.60457 3.5 6.5Z" fill="#3F465C"/>
</svg>
