<svg width="16" height="16" viewBox="0 0 16 16" fill="none" xmlns="http://www.w3.org/2000/svg">
<path fill-rule="evenodd" clip-rule="evenodd" d="M2.09998 2.43994C1.82383 2.43994 1.59998 2.6638 1.59998 2.93994V6.73994C1.59998 7.01608 1.82383 7.23994 2.09998 7.23994H5.89998C6.17612 7.23994 6.39998 7.01608 6.39998 6.73994V2.93994C6.39998 2.6638 6.17612 2.43994 5.89998 2.43994H2.09998ZM2.59998 6.23994V3.43994H5.39998V6.23994H2.59998ZM2.09998 8.79C1.82383 8.79 1.59998 9.01386 1.59998 9.29V13.09C1.59998 13.3661 1.82383 13.59 2.09998 13.59H5.89998C6.17612 13.59 6.39998 13.3661 6.39998 13.09V9.29C6.39998 9.01386 6.17612 8.79 5.89998 8.79H2.09998ZM2.59998 12.59V9.79H5.39998V12.59H2.59998ZM7.99997 3.11432C7.99997 2.83818 8.22383 2.61432 8.49997 2.61432L13.9 2.61432C14.1761 2.61432 14.4 2.83818 14.4 3.11432C14.4 3.39046 14.1761 3.61432 13.9 3.61432L8.49997 3.61432C8.22383 3.61432 7.99997 3.39046 7.99997 3.11432ZM8.49997 9.01422C8.22383 9.01422 7.99997 9.23808 7.99997 9.51422C7.99997 9.79037 8.22383 10.0142 8.49997 10.0142L13.9 10.0142C14.1761 10.0142 14.4 9.79037 14.4 9.51422C14.4 9.23808 14.1761 9.01422 13.9 9.01422L8.49997 9.01422ZM7.99997 12.8743C7.99997 12.5982 8.22383 12.3743 8.49997 12.3743L13.9 12.3743C14.1761 12.3743 14.4 12.5982 14.4 12.8743C14.4 13.1505 14.1761 13.3743 13.9 13.3743L8.49997 13.3743C8.22383 13.3743 7.99997 13.1505 7.99997 12.8743ZM8.49997 5.97431C8.22383 5.97431 7.99997 6.19816 7.99997 6.47431C7.99997 6.75045 8.22383 6.97431 8.49997 6.97431L13.9 6.97431C14.1761 6.97431 14.4 6.75045 14.4 6.47431C14.4 6.19816 14.1761 5.97431 13.9 5.97431L8.49997 5.97431Z" fill="#3F465C"/>
</svg>
