<svg width="16" height="16" viewBox="0 0 16 16" fill="none" xmlns="http://www.w3.org/2000/svg">
<path d="M13.0747 3.92531C12.7815 3.63196 12.4333 3.39925 12.0502 3.24049C11.667 3.08172 11.2563 3 10.8415 3C10.4268 3 10.0161 3.08172 9.63289 3.24049C9.24972 3.39925 8.90158 3.63196 8.60837 3.92531L7.99985 4.53383L7.39132 3.92531C6.79905 3.33304 5.99576 3.00031 5.15816 3.00031C4.32057 3.00031 3.51728 3.33304 2.92501 3.92531C2.33273 4.51758 2 5.32087 2 6.15847C2 6.99607 2.33273 7.79936 2.92501 8.39163L3.53353 9.00015L7.99985 13.4665L12.4662 9.00015L13.0747 8.39163C13.368 8.09842 13.6007 7.75028 13.7595 7.36711C13.9183 6.98393 14 6.57324 14 6.15847C14 5.74371 13.9183 5.33301 13.7595 4.94984C13.6007 4.56666 13.368 4.21853 13.0747 3.92531Z" fill="#3F465C"/>
<path d="M13.0747 3.92531L12.7211 4.27878L12.7212 4.27895L13.0747 3.92531ZM10.8415 3V3.5V3ZM8.60837 3.92531L8.96192 4.27887L8.96201 4.27878L8.60837 3.92531ZM7.99985 4.53383L7.64629 4.88739L7.99985 5.24094L8.3534 4.88739L7.99985 4.53383ZM7.39132 3.92531L7.03777 4.27887V4.27887L7.39132 3.92531ZM2.92501 8.39163L3.27856 8.03808L2.92501 8.39163ZM3.53353 9.00015L3.17997 9.35371L3.53353 9.00015ZM7.99985 13.4665L7.64629 13.82C7.84156 14.0153 8.15814 14.0153 8.3534 13.82L7.99985 13.4665ZM13.0747 8.39163L12.7212 8.038L12.7211 8.03808L13.0747 8.39163ZM13.4283 3.57184C13.0887 3.23204 12.6854 2.96248 12.2416 2.77857L11.8588 3.7024C12.1813 3.83603 12.4743 4.03189 12.7211 4.27878L13.4283 3.57184ZM12.2416 2.77857C11.7977 2.59466 11.322 2.5 10.8415 2.5V3.5C11.1906 3.5 11.5363 3.56878 11.8588 3.7024L12.2416 2.77857ZM10.8415 2.5C10.3611 2.5 9.88535 2.59466 9.4415 2.77857L9.82429 3.7024C10.1468 3.56878 10.4924 3.5 10.8415 3.5V2.5ZM9.4415 2.77857C8.99764 2.96248 8.59438 3.23204 8.25473 3.57184L8.96201 4.27878C9.20879 4.03189 9.50179 3.83603 9.82429 3.7024L9.4415 2.77857ZM8.25482 3.57176L7.64629 4.18028L8.3534 4.88739L8.96192 4.27887L8.25482 3.57176ZM8.3534 4.18028L7.74488 3.57176L7.03777 4.27887L7.64629 4.88739L8.3534 4.18028ZM7.74488 3.57176C7.05884 2.88572 6.12837 2.50031 5.15816 2.50031V3.50031C5.86315 3.50031 6.53927 3.78036 7.03777 4.27887L7.74488 3.57176ZM5.15816 2.50031C4.18796 2.50031 3.25749 2.88572 2.57145 3.57176L3.27856 4.27887C3.77706 3.78036 4.45318 3.50031 5.15816 3.50031V2.50031ZM2.57145 3.57176C1.88541 4.2578 1.5 5.18827 1.5 6.15847H2.5C2.5 5.45348 2.78006 4.77737 3.27856 4.27887L2.57145 3.57176ZM1.5 6.15847C1.5 7.12868 1.88541 8.05915 2.57145 8.74518L3.27856 8.03808C2.78006 7.53958 2.5 6.86346 2.5 6.15847H1.5ZM2.57145 8.74518L3.17997 9.35371L3.88708 8.6466L3.27856 8.03808L2.57145 8.74518ZM3.17997 9.35371L7.64629 13.82L8.3534 13.1129L3.88708 8.6466L3.17997 9.35371ZM8.3534 13.82L12.8197 9.35371L12.1126 8.6466L7.64629 13.1129L8.3534 13.82ZM12.8197 9.35371L13.4282 8.74518L12.7211 8.03808L12.1126 8.6466L12.8197 9.35371ZM13.4282 8.74527C13.768 8.40562 14.0375 8.00235 14.2214 7.5585L13.2976 7.17571C13.164 7.49821 12.9681 7.79121 12.7212 8.038L13.4282 8.74527ZM14.2214 7.5585C14.4053 7.11465 14.5 6.63892 14.5 6.15847H13.5C13.5 6.50755 13.4312 6.85322 13.2976 7.17571L14.2214 7.5585ZM14.5 6.15847C14.5 5.67803 14.4053 5.20229 14.2214 4.75844L13.2976 5.14123C13.4312 5.46373 13.5 5.80939 13.5 6.15847H14.5ZM14.2214 4.75844C14.0375 4.31459 13.768 3.91132 13.4282 3.57168L12.7212 4.27895C12.9681 4.52573 13.164 4.81874 13.2976 5.14123L14.2214 4.75844Z" fill="#3F465C"/>
</svg>
