<svg width="16" height="16" viewBox="0 0 16 16" fill="none" xmlns="http://www.w3.org/2000/svg">
<path fill-rule="evenodd" clip-rule="evenodd" d="M2.50004 2C1.94776 2 1.50004 2.44772 1.50004 3V5.50216C0.931131 5.53923 0.502316 6.04933 0.574154 6.62403L1.44915 13.624C1.51171 14.1245 1.93711 14.5 2.44143 14.5H13.5586C14.063 14.5 14.4884 14.1245 14.5509 13.624L15.4259 6.62403C15.4978 6.04933 15.0689 5.53923 14.5 5.50216V4C14.5 3.44772 14.0523 3 13.5 3H7.20715L6.35359 2.14645C6.25983 2.05268 6.13265 2 6.00004 2H2.50004ZM14.4336 6.5H13.5H2.50004H1.56643L2.44143 13.5H13.5586L14.4336 6.5ZM2.50004 5.5H13.5V4H7.00004C6.86743 4 6.74026 3.94732 6.64649 3.85355L5.79293 3H2.50004V5.5Z" fill="#3F465C"/>
</svg>
