<svg width="16" height="16" viewBox="0 0 16 16" fill="none" xmlns="http://www.w3.org/2000/svg">
<path fill-rule="evenodd" clip-rule="evenodd" d="M6 5C6 3.89543 6.89543 3 8 3C9.10457 3 10 3.89543 10 5C10 6.10457 9.10457 7 8 7C6.89543 7 6 6.10457 6 5ZM8 2C6.34315 2 5 3.34315 5 5C5 6.65685 6.34315 8 8 8C9.65685 8 11 6.65685 11 5C11 3.34315 9.65685 2 8 2ZM8 9.5C8 9.22386 7.77614 9 7.5 9H5.5C3.567 9 2 10.567 2 12.5V13C2 13.8284 2.67157 14.5 3.5 14.5H7.5C7.77614 14.5 8 14.2761 8 14C8 13.7239 7.77614 13.5 7.5 13.5H3.5C3.22386 13.5 3 13.2761 3 13V12.5C3 11.1193 4.11929 10 5.5 10H7.5C7.77614 10 8 9.77614 8 9.5ZM11.5 9.59375C11.6208 9.59375 11.7188 9.69169 11.7188 9.8125V11.7812H13.6875C13.8083 11.7812 13.9062 11.8792 13.9062 12C13.9062 12.1208 13.8083 12.2188 13.6875 12.2188H11.7188V14.1875C11.7188 14.3083 11.6208 14.4062 11.5 14.4062C11.3792 14.4062 11.2812 14.3083 11.2812 14.1875V12.2188H9.3125C9.19169 12.2188 9.09375 12.1208 9.09375 12C9.09375 11.8792 9.19169 11.7812 9.3125 11.7812H11.2812V9.8125C11.2812 9.69169 11.3792 9.59375 11.5 9.59375Z" fill="#3F465C"/>
</svg>
