<svg width="16" height="16" viewBox="0 0 16 16" fill="none" xmlns="http://www.w3.org/2000/svg">
<path fill-rule="evenodd" clip-rule="evenodd" d="M5.35026 12.839L4.97194 12.6298L4.56034 12.7621L2.72133 13.3531L3.30577 11.613L3.45361 11.1728L3.21273 10.7758C2.66593 9.87471 2.39331 8.89685 2.39331 7.8216C2.39331 7.04569 2.54456 6.30968 2.8475 5.60509C3.15758 4.88387 3.56729 4.27583 4.07342 3.76971C4.57954 3.26358 5.18758 2.85387 5.9088 2.54379C6.61339 2.24085 7.3494 2.0896 8.12531 2.0896C8.90122 2.0896 9.63723 2.24085 10.3418 2.54379C11.063 2.85387 11.6711 3.26358 12.1772 3.76971C12.6833 4.27583 13.093 4.88387 13.4031 5.60509C13.7061 6.30968 13.8573 7.04569 13.8573 7.8216C13.8573 8.5975 13.7061 9.33352 13.4031 10.0381C13.093 10.7593 12.6833 11.3674 12.1772 11.8735C11.6711 12.3796 11.063 12.7893 10.3418 13.0994C9.63723 13.4023 8.90122 13.5536 8.12531 13.5536C7.13329 13.5536 6.21355 13.3164 5.35026 12.839ZM1.39331 7.8216C1.39331 9.07727 1.71481 10.2349 2.35781 11.2946L1.45834 13.9726C1.32778 14.3614 1.6949 14.7333 2.0853 14.6079L4.86631 13.7141C5.87831 14.2738 6.96464 14.5536 8.12531 14.5536C9.03598 14.5536 9.90648 14.3751 10.7368 14.0181C11.5671 13.6611 12.283 13.1819 12.8843 12.5806C13.4856 11.9793 13.9648 11.2634 14.3218 10.4331C14.6788 9.60277 14.8573 8.73227 14.8573 7.8216C14.8573 6.91093 14.6788 6.04043 14.3218 5.2101C13.9648 4.37977 13.4856 3.66393 12.8843 3.0626C12.283 2.46127 11.5671 1.9821 10.7368 1.6251C9.90648 1.2681 9.03598 1.0896 8.12531 1.0896C7.21464 1.0896 6.34414 1.2681 5.51381 1.6251C4.68348 1.9821 3.96764 2.46127 3.36631 3.0626C2.76498 3.66393 2.28581 4.37977 1.92881 5.2101C1.57181 6.04043 1.39331 6.91093 1.39331 7.8216ZM6.30011 5H6.50006H8.90006C9.72849 5 10.4001 5.67157 10.4001 6.5C10.4001 7.0032 10.1523 7.44853 9.77207 7.72064C10.294 8.02265 10.6333 8.60177 10.594 9.24982C10.5412 10.1207 9.81954 10.8 8.94703 10.8H6.30006C6.13438 10.8 6.00006 10.6657 6.00006 10.5V8V7.52202V5.3C6.00006 5.13431 6.13442 5 6.30011 5ZM7.12289 6C7.11688 6 7.112 6.00487 7.112 6.01089V7.3H8.65004C9.00902 7.3 9.30004 7.00899 9.30004 6.65C9.30004 6.29102 9.00902 6 8.65004 6H7.12289ZM7.112 8.38675C7.112 8.38046 7.1171 8.37537 7.12338 8.37537H8.68776C9.08115 8.37537 9.40006 8.69427 9.40006 9.08766C9.40006 9.48105 9.08115 9.79996 8.68776 9.79996H7.112V8.38675Z" fill="#3F465C"/>
</svg>
