<svg width="16" height="16" viewBox="0 0 16 16" fill="none" xmlns="http://www.w3.org/2000/svg">
<mask id="path-1-inside-1_1_5273" fill="white">
<path fill-rule="evenodd" clip-rule="evenodd" d="M8.16667 14.3333C12.1247 14.3333 15.3333 11.3486 15.3333 7.66667C15.3333 3.98477 12.1247 1 8.16667 1C4.20863 1 1 3.98477 1 7.66667C1 9.41433 1.72292 11.0049 2.90576 12.1938L2.47849 13.8132C2.41741 14.0448 2.61307 14.2632 2.8499 14.228L5.45578 13.8399C6.29204 14.158 7.20734 14.3333 8.16667 14.3333Z"/>
</mask>
<path d="M2.90576 12.1938L3.87268 12.4489L4.01888 11.8948L3.61467 11.4885L2.90576 12.1938ZM2.47849 13.8132L3.4454 14.0684V14.0684L2.47849 13.8132ZM2.8499 14.228L2.70259 13.2389H2.70259L2.8499 14.228ZM5.45578 13.8399L5.81132 12.9052L5.56702 12.8123L5.30848 12.8508L5.45578 13.8399ZM14.3333 7.66667C14.3333 10.7294 11.6418 13.3333 8.16667 13.3333V15.3333C12.6077 15.3333 16.3333 11.9677 16.3333 7.66667H14.3333ZM8.16667 2C11.6418 2 14.3333 4.60393 14.3333 7.66667H16.3333C16.3333 3.3656 12.6077 0 8.16667 0V2ZM2 7.66667C2 4.60393 4.69157 2 8.16667 2V0C3.72568 0 0 3.3656 0 7.66667H2ZM3.61467 11.4885C2.60335 10.472 2 9.12958 2 7.66667H0C0 9.69908 0.842489 11.5378 2.19686 12.8991L3.61467 11.4885ZM3.4454 14.0684L3.87268 12.4489L1.93885 11.9387L1.51158 13.5581L3.4454 14.0684ZM2.70259 13.2389C3.17624 13.1683 3.56757 13.6053 3.4454 14.0684L1.51158 13.5581C1.26725 14.4842 2.04991 15.3581 2.9972 15.2171L2.70259 13.2389ZM5.30848 12.8508L2.70259 13.2389L2.9972 15.2171L5.60309 14.829L5.30848 12.8508ZM8.16667 13.3333C7.3297 13.3333 6.53483 13.1804 5.81132 12.9052L5.10025 14.7745C6.04926 15.1355 7.08498 15.3333 8.16667 15.3333V13.3333Z" fill="#3F465C" mask="url(#path-1-inside-1_1_5273)"/>
<path d="M5.33222 6.45984C5.41091 6.20925 5.64823 6.04287 5.91063 6.05432C6.29117 6.07094 6.55256 6.44377 6.43846 6.80718L5.86784 8.62454C5.78916 8.87513 5.55184 9.04152 5.28943 9.03006C4.90889 9.01344 4.6475 8.64062 4.7616 8.2772L5.33222 6.45984Z" fill="#3F465C"/>
<path d="M10.6658 6.45984C10.7445 6.20925 10.9818 6.04287 11.2442 6.05432C11.6248 6.07094 11.8862 6.44377 11.772 6.80718L11.2014 8.62454C11.1227 8.87513 10.8854 9.04152 10.623 9.03006C10.2425 9.01344 9.98109 8.64062 10.0952 8.2772L10.6658 6.45984Z" fill="#3F465C"/>
<path d="M7.9994 6.45984C8.07808 6.20925 8.3154 6.04287 8.5778 6.05432C8.95835 6.07094 9.21974 6.44377 9.10563 6.80718L8.53501 8.62454C8.45633 8.87513 8.21901 9.04152 7.95661 9.03006C7.57606 9.01344 7.31467 8.64062 7.42878 8.2772L7.9994 6.45984Z" fill="#3F465C"/>
</svg>
