<svg width="16" height="16" viewBox="0 0 16 16" fill="none" xmlns="http://www.w3.org/2000/svg">
<path fill-rule="evenodd" clip-rule="evenodd" d="M1 2.5C1 2.22386 1.22386 2 1.5 2H14.5C14.7761 2 15 2.22386 15 2.5C15 2.77614 14.7761 3 14.5 3H1.5C1.22386 3 1 2.77614 1 2.5ZM6 6C6 5.72386 6.22386 5.5 6.5 5.5H14.5C14.7761 5.5 15 5.72386 15 6C15 6.27614 14.7761 6.5 14.5 6.5H6.5C6.22386 6.5 6 6.27614 6 6ZM6.5 9.5C6.22386 9.5 6 9.72386 6 10C6 10.2761 6.22386 10.5 6.5 10.5H14.5C14.7761 10.5 15 10.2761 15 10C15 9.72386 14.7761 9.5 14.5 9.5H6.5ZM1 14C1 13.7239 1.22386 13.5 1.5 13.5H14.5C14.7761 13.5 15 13.7239 15 14C15 14.2761 14.7761 14.5 14.5 14.5H1.5C1.22386 14.5 1 14.2761 1 14ZM1.18437 7.84635C1.08842 7.92631 1.08842 8.07368 1.18437 8.15364L3.67196 10.2266C3.80223 10.3352 4 10.2426 4 10.073V5.92701C4 5.75744 3.80223 5.66481 3.67196 5.77336L1.18437 7.84635Z" fill="#3F465C"/>
</svg>
