<svg width="16" height="16" viewBox="0 0 16 16" fill="none" xmlns="http://www.w3.org/2000/svg">
<path fill-rule="evenodd" clip-rule="evenodd" d="M9.79106 1.46308C10.1816 1.07253 10.8148 1.07253 11.2053 1.46308L13.536 3.79389C13.9265 4.18441 13.9265 4.81755 13.536 5.20807L6.34084 12.4036C6.16687 12.5776 5.93486 12.6814 5.68919 12.695L2.66348 12.8631C2.52145 12.871 2.38278 12.818 2.28219 12.7174C2.1816 12.6169 2.12862 12.4782 2.13651 12.3362L2.30461 9.31024C2.31826 9.06459 2.42198 8.83259 2.59594 8.65862L9.79106 1.46308ZM12.8289 4.50098L10.4982 2.17017L9.68774 2.98067L12.0184 5.31145L12.8289 4.50098ZM8.98065 3.68779L11.3114 6.01858L5.63372 11.6966L3.16597 11.8337L3.30307 9.36571L8.98065 3.68779ZM2 14.2639C1.72386 14.2639 1.5 14.4878 1.5 14.7639C1.5 15.0401 1.72386 15.2639 2 15.2639H14C14.2761 15.2639 14.5 15.0401 14.5 14.7639C14.5 14.4878 14.2761 14.2639 14 14.2639H2Z" fill="#3F465C"/>
</svg>
