<svg width="16" height="16" viewBox="0 0 16 16" fill="none" xmlns="http://www.w3.org/2000/svg">
<path fill-rule="evenodd" clip-rule="evenodd" d="M1.5 2.5C1.5 1.94772 1.94772 1.5 2.5 1.5H13.5C14.0523 1.5 14.5 1.94771 14.5 2.5V13.5C14.5 14.0523 14.0523 14.5 13.5 14.5H9C8.72386 14.5 8.5 14.2761 8.5 14C8.5 13.7239 8.72386 13.5 9 13.5H13.5V2.5L2.5 2.5V7C2.5 7.27614 2.27614 7.5 2 7.5C1.72386 7.5 1.5 7.27614 1.5 7V2.5ZM1.5 9.25C1.5 8.83579 1.83579 8.5 2.25 8.5H6.75C7.16421 8.5 7.5 8.83579 7.5 9.25V13.75C7.5 14.1642 7.16421 14.5 6.75 14.5H2.25C1.83579 14.5 1.5 14.1642 1.5 13.75V9.25ZM2.5 9.5V13.5H6.5V9.5H2.5ZM11.5 7.5C11.2239 7.5 11 7.27614 11 7V5.70711L8.85355 7.85355C8.65829 8.04882 8.34171 8.04882 8.14645 7.85355C7.95118 7.65829 7.95118 7.34171 8.14645 7.14645L10.2929 5H9C8.72386 5 8.5 4.77614 8.5 4.5C8.5 4.22386 8.72386 4 9 4H11.5C11.6326 4 11.7598 4.05268 11.8536 4.14645C11.9473 4.24021 12 4.36739 12 4.5V7C12 7.27614 11.7761 7.5 11.5 7.5Z" fill="#3F465C"/>
</svg>
