<svg width="16" height="16" viewBox="0 0 16 16" fill="none" xmlns="http://www.w3.org/2000/svg">
<path fill-rule="evenodd" clip-rule="evenodd" d="M3 2C2.44772 2 2 2.44772 2 3V13C2 13.5523 2.44772 14 3 14H13C13.5523 14 14 13.5523 14 13V3C14 2.44772 13.5523 2 13 2H3ZM3 3L13 3V13H3V3ZM5.57459 4.75C5.0787 4.75 4.83606 5.35464 5.1944 5.69743L7.65968 8.0558L5.30717 10.3022C4.94835 10.6449 5.19087 11.25 5.687 11.25H10.501C10.7772 11.25 11.001 11.0261 11.001 10.75C11.001 10.4739 10.7772 10.25 10.501 10.25H6.80985L8.72864 8.41773L9.10698 8.05645L8.72896 7.69482L6.69598 5.75H10.501C10.7772 5.75 11.001 5.52614 11.001 5.25C11.001 4.97386 10.7772 4.75 10.501 4.75H5.57459Z" fill="#3F465C"/>
</svg>
