<svg width="16" height="16" viewBox="0 0 16 16" fill="none" xmlns="http://www.w3.org/2000/svg">
<path fill-rule="evenodd" clip-rule="evenodd" d="M2 3C2 2.44772 2.44772 2 3 2H5.5C5.77614 2 6 2.22386 6 2.5C6 2.77614 5.77614 3 5.5 3H3V5.5C3 5.77614 2.77614 6 2.5 6C2.22386 6 2 5.77614 2 5.5V3ZM10 2.5C10 2.22386 10.2239 2 10.5 2H13C13.5523 2 14 2.44772 14 3V6C14 6.27614 13.7761 6.5 13.5 6.5C13.2239 6.5 13 6.27614 13 6V3H10.5C10.2239 3 10 2.77614 10 2.5ZM2.5 10C2.77614 10 3 10.2239 3 10.5V13H5.5C5.77614 13 6 13.2239 6 13.5C6 13.7761 5.77614 14 5.5 14H3C2.44772 14 2 13.5523 2 13V10.5C2 10.2239 2.22386 10 2.5 10ZM13.5 10C13.7761 10 14 10.2239 14 10.5V13C14 13.5523 13.5523 14 13 14H10.5C10.2239 14 10 13.7761 10 13.5C10 13.2239 10.2239 13 10.5 13H13V10.5C13 10.2239 13.2239 10 13.5 10Z" fill="#3F465C"/>
</svg>
