<svg width="16" height="16" viewBox="0 0 16 16" fill="none" xmlns="http://www.w3.org/2000/svg">
<path d="M3.09078 14.4H12.9104C13.7334 14.4 14.4006 13.7329 14.4006 12.9098V3.08804C14.4006 2.26624 13.7344 1.60004 12.9126 1.60004H3.09078C2.26777 1.60004 1.60059 2.26722 1.60059 3.09023V12.9098C1.60059 13.7329 2.26777 14.4 3.09078 14.4Z" fill="#A259FF"/>
<path fill-rule="evenodd" clip-rule="evenodd" d="M6.00078 5.60001C6.00078 5.3791 5.8217 5.20001 5.60078 5.20001H5.20078C4.97987 5.20001 4.80078 5.3791 4.80078 5.60001V10.4C4.80078 10.6209 4.97987 10.8 5.20078 10.8H5.60078C5.8217 10.8 6.00078 10.6209 6.00078 10.4V5.60001ZM11.6016 5.60001C11.6016 5.3791 11.4225 5.20001 11.2016 5.20001H7.20156C6.98065 5.20001 6.80156 5.3791 6.80156 5.60001V7.206C6.80156 7.42692 6.98065 7.606 7.20156 7.606H11.2016C11.4225 7.606 11.6016 7.42692 11.6016 7.206V5.60001ZM11.2016 8.40001C11.4225 8.40001 11.6016 8.5791 11.6016 8.80001V10.4C11.6016 10.6209 11.4225 10.8 11.2016 10.8H7.20156C6.98065 10.8 6.80156 10.6209 6.80156 10.4V8.80001C6.80156 8.5791 6.98065 8.40001 7.20156 8.40001H11.2016Z" fill="white"/>
</svg>
