<svg width="16" height="16" viewBox="0 0 16 16" fill="none" xmlns="http://www.w3.org/2000/svg">
<path fill-rule="evenodd" clip-rule="evenodd" d="M8.49997 2.61426C8.22383 2.61426 7.99997 2.83812 7.99997 3.11426C7.99997 3.3904 8.22383 3.61426 8.49997 3.61426L13.9 3.61426C14.1761 3.61426 14.4 3.3904 14.4 3.11426C14.4 2.83812 14.1761 2.61426 13.9 2.61426H8.49997ZM2.09998 8.79004C1.82383 8.79004 1.59998 9.0139 1.59998 9.29004V13.09C1.59998 13.3662 1.82383 13.59 2.09998 13.59H5.89998C6.17612 13.59 6.39998 13.3662 6.39998 13.09V9.29004C6.39998 9.0139 6.17612 8.79004 5.89998 8.79004H2.09998ZM2.59998 12.59V9.79004H5.39998V12.59H2.59998ZM7.99997 9.51416C7.99997 9.23802 8.22383 9.01416 8.49997 9.01416L13.9 9.01416C14.1761 9.01416 14.4 9.23802 14.4 9.51416C14.4 9.7903 14.1761 10.0142 13.9 10.0142L8.49997 10.0142C8.22383 10.0142 7.99997 9.7903 7.99997 9.51416ZM8.49997 12.3743C8.22383 12.3743 7.99997 12.5981 7.99997 12.8743C7.99997 13.1504 8.22383 13.3743 8.49997 13.3743L13.9 13.3743C14.1761 13.3743 14.4 13.1504 14.4 12.8743C14.4 12.5981 14.1761 12.3743 13.9 12.3743L8.49997 12.3743ZM7.99997 6.47437C7.99997 6.19822 8.22383 5.97437 8.49997 5.97437L13.9 5.97437C14.1761 5.97437 14.4 6.19822 14.4 6.47437C14.4 6.75051 14.1761 6.97437 13.9 6.97437L8.49997 6.97437C8.22383 6.97437 7.99997 6.75051 7.99997 6.47437ZM6.54368 3.52305C6.73412 3.32309 6.7264 3.0066 6.52644 2.81615C6.32647 2.62571 6.00998 2.63343 5.81954 2.8334L3.47328 5.29697L2.48118 4.25527C2.29074 4.05531 1.97425 4.04759 1.77428 4.23803C1.57432 4.42847 1.5666 4.74496 1.75704 4.94493L3.11121 6.3668C3.20558 6.46589 3.33644 6.52197 3.47328 6.52197C3.61012 6.52197 3.74097 6.46589 3.83535 6.3668L6.54368 3.52305Z" fill="#3F465C"/>
</svg>
