<svg width="16" height="16" viewBox="0 0 16 16" fill="none" xmlns="http://www.w3.org/2000/svg">
<path fill-rule="evenodd" clip-rule="evenodd" d="M11.8536 3.64645C11.6583 3.45118 11.3417 3.45118 11.1464 3.64645L7.14645 7.64645C6.95118 7.84171 6.95118 8.15829 7.14645 8.35355L11.1464 12.3536C11.3417 12.5488 11.6583 12.5488 11.8536 12.3536C12.0488 12.1583 12.0488 11.8417 11.8536 11.6464L8.20711 8L11.8536 4.35355C12.0488 4.15829 12.0488 3.84171 11.8536 3.64645ZM8.85355 3.64645C8.65829 3.45118 8.34171 3.45118 8.14645 3.64645L4.14645 7.64645C3.95118 7.84171 3.95118 8.15829 4.14645 8.35355L8.14645 12.3536C8.34171 12.5488 8.65829 12.5488 8.85355 12.3536C9.04882 12.1583 9.04882 11.8417 8.85355 11.6464L5.20711 8L8.85355 4.35355C9.04882 4.15829 9.04882 3.84171 8.85355 3.64645Z" fill="#3F465C"/>
</svg>
