<svg width="16" height="16" viewBox="0 0 16 16" fill="none" xmlns="http://www.w3.org/2000/svg">
<path fill-rule="evenodd" clip-rule="evenodd" d="M3.5 1.5C2.94771 1.5 2.5 1.94772 2.5 2.5V14C2.5 14.1733 2.58973 14.3342 2.73713 14.4253C2.88454 14.5164 3.06861 14.5247 3.22361 14.4472L8 12.059L12.7764 14.4472C12.9314 14.5247 13.1155 14.5164 13.2629 14.4253C13.4103 14.3342 13.5 14.1733 13.5 14V2.5C13.5 1.94772 13.0523 1.5 12.5 1.5H3.5ZM3.5 2.5L12.5 2.5V13.191L8.22361 11.0528L8 10.941L7.77639 11.0528L3.5 13.191V2.5ZM5.5 5.5C5.22386 5.5 5 5.72386 5 6C5 6.27614 5.22386 6.5 5.5 6.5H10.5C10.7761 6.5 11 6.27614 11 6C11 5.72386 10.7761 5.5 10.5 5.5H5.5Z" fill="#3F465C"/>
</svg>
