<svg width="16" height="16" viewBox="0 0 16 16" fill="none" xmlns="http://www.w3.org/2000/svg">
<path fill-rule="evenodd" clip-rule="evenodd" d="M8 3C6.89543 3 6 3.89543 6 5C6 6.10457 6.89543 7 8 7C9.10457 7 10 6.10457 10 5C10 3.89543 9.10457 3 8 3ZM5 5C5 3.34315 6.34315 2 8 2C9.65685 2 11 3.34315 11 5C11 6.65685 9.65685 8 8 8C6.34315 8 5 6.65685 5 5ZM8 9.5C8 9.22386 7.77614 9 7.5 9H5.5C3.567 9 2 10.567 2 12.5V13C2 13.8284 2.67157 14.5 3.5 14.5H7.5C7.77614 14.5 8 14.2761 8 14C8 13.7239 7.77614 13.5 7.5 13.5H3.5C3.22386 13.5 3 13.2761 3 13V12.5C3 11.1193 4.11929 10 5.5 10H7.5C7.77614 10 8 9.77614 8 9.5ZM9.61971 11.3733C9.57329 11.6223 9.57329 11.8777 9.61971 12.1267L9.11357 12.4166C9.00484 12.4789 8.96764 12.6178 9.03072 12.7261L9.49723 13.5268C9.55965 13.6339 9.69681 13.6707 9.8044 13.609L10.3135 13.3175C10.5078 13.4827 10.7312 13.6109 10.9725 13.6956V14.2743C10.9725 14.399 11.0736 14.5 11.1982 14.5H12.1343C12.259 14.5 12.36 14.399 12.36 14.2743V13.6956C12.6013 13.6109 12.8247 13.4827 13.0191 13.3175L13.5281 13.609C13.6357 13.6707 13.7729 13.6339 13.8353 13.5268L14.3018 12.7261C14.3649 12.6178 14.3277 12.4789 14.2189 12.4166L13.7128 12.1267C13.7592 11.8777 13.7592 11.6223 13.7128 11.3733L14.2189 11.0834C14.3277 11.0211 14.3649 10.8822 14.3018 10.7739L13.8353 9.97319C13.7729 9.86606 13.6357 9.82934 13.5281 9.89096L13.0191 10.1825C12.8262 10.0189 12.6035 9.89031 12.36 9.80438V9.22569C12.36 9.10105 12.259 9 12.1343 9H11.1982C11.0736 9 10.9725 9.10105 10.9725 9.22569V9.80438C10.729 9.89031 10.5063 10.0189 10.3135 10.1825L9.8044 9.89096C9.69681 9.82934 9.55965 9.86606 9.49723 9.97319L9.03072 10.7739C8.96764 10.8822 9.00484 11.0211 9.11357 11.0834L9.61971 11.3733ZM12.1524 12.2361C12.0235 12.3651 11.8486 12.4375 11.6663 12.4375C11.4839 12.4375 11.3091 12.3651 11.1801 12.2361C11.0512 12.1072 10.9788 11.9323 10.9788 11.75C10.9788 11.5677 11.0512 11.3928 11.1801 11.2639C11.3091 11.1349 11.4839 11.0625 11.6663 11.0625C11.8486 11.0625 12.0235 11.1349 12.1524 11.2639C12.2813 11.3928 12.3538 11.5677 12.3538 11.75C12.3538 11.9323 12.2813 12.1072 12.1524 12.2361Z" fill="#3F465C"/>
</svg>
