<svg width="16" height="16" viewBox="0 0 16 16" fill="none" xmlns="http://www.w3.org/2000/svg">
<path fill-rule="evenodd" clip-rule="evenodd" d="M1.50037 2.5C1.50037 1.94772 1.94808 1.5 2.50037 1.5H13.5004C14.0527 1.5 14.5004 1.94772 14.5004 2.5V10.5C14.5004 11.0523 14.0527 11.5 13.5004 11.5H8.49997V13.5H12C12.2761 13.5 12.5 13.7239 12.5 14C12.5 14.2761 12.2761 14.5 12 14.5H3.99997C3.72383 14.5 3.49997 14.2761 3.49997 14C3.49997 13.7239 3.72383 13.5 3.99997 13.5H7.49997V11.5H2.50037C1.94808 11.5 1.50037 11.0523 1.50037 10.5V2.5ZM13.5004 2.5L2.50037 2.5V10.5H13.5004V2.5Z" fill="#3F465C"/>
</svg>
