<svg width="16" height="16" viewBox="0 0 16 16" fill="none" xmlns="http://www.w3.org/2000/svg">
<path fill-rule="evenodd" clip-rule="evenodd" d="M1.5 2C1.5 1.44772 1.94771 1 2.5 1H8.79289C9.05811 1 9.31246 1.10536 9.5 1.29289L13.2071 5C13.3946 5.18754 13.5 5.44189 13.5 5.70711V7C13.5 7.27614 13.2761 7.5 13 7.5C12.7239 7.5 12.5 7.27614 12.5 7V6H9C8.72386 6 8.5 5.77614 8.5 5.5V2L2.5 2V14H4.5C4.77614 14 5 14.2239 5 14.5C5 14.7761 4.77614 15 4.5 15H2.5C1.94772 15 1.5 14.5523 1.5 14V2ZM9.5 2.70711L11.7929 5H9.5V2.70711ZM9.75 14V13.9999H8.75C8.07003 13.9999 7.5 13.4395 7.5 12.7249C7.5 12.0586 7.99752 11.5241 8.61521 11.4571L9.30912 11.3819L9.47783 10.7047C9.65215 10.0048 10.2753 9.5 11.0012 9.5C11.7271 9.5 12.3503 10.0049 12.5245 10.7049L12.693 11.3814L13.386 11.4573C14.0031 11.5249 14.4998 12.0592 14.4998 12.725C14.4998 13.4395 13.9298 13.9999 13.2499 14L12.25 14V14H9.75ZM13.25 15V15C14.4926 14.9998 15.4998 13.9813 15.4998 12.725C15.4998 11.5523 14.6223 10.5868 13.4949 10.4633C13.2141 9.33516 12.2041 8.5 11.0012 8.5C9.79837 8.5 8.78845 9.33499 8.50748 10.463C7.37889 10.5853 6.5 11.5513 6.5 12.7249C6.5 13.9813 7.50736 14.9999 8.75 14.9999V15H9.75H12.25H13.25Z" fill="#3F465C"/>
</svg>
