<svg width="16" height="16" viewBox="0 0 16 16" fill="none" xmlns="http://www.w3.org/2000/svg">
<path fill-rule="evenodd" clip-rule="evenodd" d="M2.25001 4.25C2.66422 4.25 3.00001 3.91421 3.00001 3.5C3.00001 3.08579 2.66422 2.75 2.25001 2.75C1.8358 2.75 1.50001 3.08579 1.50001 3.5C1.50001 3.91421 1.8358 4.25 2.25001 4.25ZM5.00001 3C4.72387 3 4.50001 3.22386 4.50001 3.5C4.50001 3.77614 4.72387 4 5.00001 4H14C14.2762 4 14.5 3.77614 14.5 3.5C14.5 3.22386 14.2762 3 14 3H5.00001ZM5.00001 7.5C4.72387 7.5 4.50001 7.72386 4.50001 8C4.50001 8.27614 4.72387 8.5 5.00001 8.5H14C14.2762 8.5 14.5 8.27614 14.5 8C14.5 7.72386 14.2762 7.5 14 7.5H5.00001ZM5.00001 12C4.72387 12 4.50001 12.2239 4.50001 12.5C4.50001 12.7761 4.72387 13 5.00001 13H14C14.2762 13 14.5 12.7761 14.5 12.5C14.5 12.2239 14.2762 12 14 12H5.00001ZM3.00001 8C3.00001 8.41421 2.66422 8.75 2.25001 8.75C1.8358 8.75 1.50001 8.41421 1.50001 8C1.50001 7.58579 1.8358 7.25 2.25001 7.25C2.66422 7.25 3.00001 7.58579 3.00001 8ZM2.25 13.25C2.66421 13.25 3 12.9142 3 12.5C3 12.0858 2.66421 11.75 2.25 11.75C1.83579 11.75 1.5 12.0858 1.5 12.5C1.5 12.9142 1.83579 13.25 2.25 13.25Z" fill="#3F465C"/>
</svg>
