<svg width="16" height="16" viewBox="0 0 16 16" fill="none" xmlns="http://www.w3.org/2000/svg">
<path fill-rule="evenodd" clip-rule="evenodd" d="M1.5 2.5C1.5 1.94772 1.94771 1.5 2.5 1.5H13.5C14.0523 1.5 14.5 1.94771 14.5 2.5V13.5C14.5 14.0523 14.0523 14.5 13.5 14.5H9C8.72386 14.5 8.5 14.2761 8.5 14C8.5 13.7239 8.72386 13.5 9 13.5H13.5V2.5L2.5 2.5V7C2.5 7.27614 2.27614 7.5 2 7.5C1.72386 7.5 1.5 7.27614 1.5 7V2.5ZM7.5 9.25C7.5 8.83579 7.16421 8.5 6.75 8.5H2.25C1.83579 8.5 1.5 8.83579 1.5 9.25V13.75C1.5 14.1642 1.83579 14.5 2.25 14.5H6.75C7.16421 14.5 7.5 14.1642 7.5 13.75V9.25ZM6.5 9.5V13.5H2.5V9.5H6.5ZM8.5 4.5C8.77614 4.5 9 4.72386 9 5V6.29289L11.1464 4.14645C11.3417 3.95118 11.6583 3.95118 11.8536 4.14645C12.0488 4.34171 12.0488 4.65829 11.8536 4.85355L9.70711 7H11C11.2761 7 11.5 7.22386 11.5 7.5C11.5 7.77614 11.2761 8 11 8H8.5C8.36739 8 8.24021 7.94732 8.14645 7.85355C8.05268 7.75979 8 7.63261 8 7.5V5C8 4.72386 8.22386 4.5 8.5 4.5Z" fill="#3F465C"/>
</svg>
