<svg width="16" height="16" viewBox="0 0 16 16" fill="none" xmlns="http://www.w3.org/2000/svg">
<path fill-rule="evenodd" clip-rule="evenodd" d="M7.5 12.7002V4.45178C5.34527 2.90583 2.95772 2.94297 2 3.03804V11.4016C2 11.4029 2.00016 11.4035 2.00052 11.4044C2.00102 11.4056 2.00233 11.408 2.00513 11.4109C2.01116 11.4172 2.01928 11.4209 2.02788 11.4214C3.01261 11.4803 5.29598 11.7182 7.5 12.7002ZM8 3.58047C5.54149 1.86057 2.86288 1.94101 1.85054 2.04813C1.33575 2.1026 1 2.54199 1 3.01117V11.4016C1 11.9541 1.44035 12.3881 1.96816 12.4196C3.01588 12.4823 5.54406 12.758 7.76489 13.9412C7.91291 14.0201 8.09007 14.0193 8.23685 13.9403C10.4573 12.7579 12.9844 12.4823 14.0318 12.4196C14.5596 12.3881 15 11.9541 15 11.4016V3.01117C15 2.54199 14.6643 2.1026 14.1495 2.04813C13.1371 1.94101 10.4585 1.86057 8 3.58047ZM8.5 12.7002V4.45178C10.6547 2.90583 13.0423 2.94297 14 3.03804V11.4016C14 11.4024 13.9999 11.4029 13.9998 11.4034C13.9997 11.4037 13.9996 11.404 13.9995 11.4044C13.999 11.4056 13.9977 11.408 13.9949 11.4109C13.9888 11.4172 13.9807 11.4209 13.9721 11.4214C12.9874 11.4803 10.704 11.7182 8.5 12.7002Z" fill="#3F465C"/>
</svg>
