<svg width="16" height="16" viewBox="0 0 16 16" fill="none" xmlns="http://www.w3.org/2000/svg">
<path fill-rule="evenodd" clip-rule="evenodd" d="M9.91924 2C9.61733 2 9.33233 2.06657 9.07696 2.18535C8.82658 2.30181 8.52919 2.19325 8.41273 1.94287C8.29627 1.69249 8.40483 1.3951 8.65521 1.27864C9.03998 1.09967 9.46866 1 9.91924 1C11.5761 1 12.9192 2.34315 12.9192 4C12.9192 5.26233 12.1398 6.3414 11.0377 6.78442C10.7815 6.88742 10.4903 6.76321 10.3873 6.507C10.2843 6.25079 10.4085 5.95959 10.6647 5.85659C11.4009 5.56063 11.9192 4.84024 11.9192 4C11.9192 2.89543 11.0238 2 9.91924 2ZM4.5 5.5C4.5 4.39543 5.39543 3.5 6.5 3.5C7.60457 3.5 8.5 4.39543 8.5 5.5C8.5 6.60457 7.60457 7.5 6.5 7.5C5.39543 7.5 4.5 6.60457 4.5 5.5ZM6.5 2.5C4.84315 2.5 3.5 3.84315 3.5 5.5C3.5 7.15685 4.84315 8.5 6.5 8.5C8.15685 8.5 9.5 7.15685 9.5 5.5C9.5 3.84315 8.15685 2.5 6.5 2.5ZM2 12C2 10.8954 2.89543 10 4 10H9C10.1046 10 11 10.8954 11 12V13.5H2V12ZM4 9C2.34315 9 1 10.3431 1 12V13.5C1 14.0523 1.44772 14.5 2 14.5H11C11.5523 14.5 12 14.0523 12 13.5V12C12 10.3431 10.6569 9 9 9H4ZM10.8496 7.5C10.5735 7.5 10.3496 7.72386 10.3496 8C10.3496 8.27614 10.5735 8.5 10.8496 8.5H12.4195C13.5241 8.5 14.4195 9.39543 14.4195 10.5V12H13.4996C13.2235 12 12.9996 12.2239 12.9996 12.5C12.9996 12.7761 13.2235 13 13.4996 13H14.4195C14.9718 13 15.4195 12.5523 15.4195 12V10.5C15.4195 8.84315 14.0764 7.5 12.4195 7.5H10.8496Z" fill="#3F465C"/>
</svg>
