<svg width="16" height="16" viewBox="0 0 16 16" fill="none" xmlns="http://www.w3.org/2000/svg">
<path fill-rule="evenodd" clip-rule="evenodd" d="M4.40039 1.41992C4.67653 1.41992 4.90039 1.64378 4.90039 1.91992V2.87992C4.90039 3.15606 4.67653 3.37992 4.40039 3.37992C4.12425 3.37992 3.90039 3.15606 3.90039 2.87992V1.91992C3.90039 1.64378 4.12425 1.41992 4.40039 1.41992ZM3.33117 4C2.8169 4 2.39999 4.4169 2.39999 4.93118V6.995C2.39999 9.94144 4.78855 12.33 7.73499 12.33C10.3379 12.33 12.5054 10.466 12.9755 8H13H13.2C14.3046 8 15.2 7.10457 15.2 6C15.2 4.89543 14.3046 4 13.2 4H13.07H13H12.57H12H3.33117ZM12 5H3.39999V6.995C3.39999 9.38915 5.34084 11.33 7.73499 11.33C9.86284 11.33 11.6326 9.79691 12 7.77506V7V5ZM13.07 7L13.07 6.995V5H13.2C13.7523 5 14.2 5.44772 14.2 6C14.2 6.55228 13.7523 7 13.2 7H13.07ZM8.56641 1.91992C8.56641 1.64378 8.34255 1.41992 8.06641 1.41992C7.79026 1.41992 7.56641 1.64378 7.56641 1.91992V2.87992C7.56641 3.15606 7.79026 3.37992 8.06641 3.37992C8.34255 3.37992 8.56641 3.15606 8.56641 2.87992V1.91992ZM11.4004 1.41992C11.6765 1.41992 11.9004 1.64378 11.9004 1.91992V2.87992C11.9004 3.15606 11.6765 3.37992 11.4004 3.37992C11.1242 3.37992 10.9004 3.15606 10.9004 2.87992V1.91992C10.9004 1.64378 11.1242 1.41992 11.4004 1.41992ZM2.61328 13.5C2.33714 13.5 2.11328 13.7239 2.11328 14C2.11328 14.2761 2.33714 14.5 2.61328 14.5H13.0133C13.2894 14.5 13.5133 14.2761 13.5133 14C13.5133 13.7239 13.2894 13.5 13.0133 13.5H2.61328Z" fill="#3F465C"/>
</svg>
