<svg width="16" height="16" viewBox="0 0 16 16" fill="none" xmlns="http://www.w3.org/2000/svg">
<path fill-rule="evenodd" clip-rule="evenodd" d="M7.5 1.5C4.18629 1.5 1.5 4.18629 1.5 7.5C1.5 10.8137 4.18629 13.5 7.5 13.5C9.08945 13.5 10.5346 12.882 11.6081 11.8731C11.6199 11.8879 11.6327 11.9023 11.6464 11.9161L11.8339 12.1036L12.5839 12.8536L14.0839 14.3536C14.2792 14.5488 14.5958 14.5488 14.7911 14.3536C14.9863 14.1583 14.9863 13.8417 14.7911 13.6464L13.2911 12.1464L12.5411 11.3964L12.3536 11.2089C12.3274 11.1828 12.2992 11.1602 12.2693 11.1411C13.0413 10.1314 13.5 8.86924 13.5 7.5C13.5 4.18629 10.8137 1.5 7.5 1.5ZM2.5 7.5C2.5 4.73858 4.73858 2.5 7.5 2.5C10.2614 2.5 12.5 4.73858 12.5 7.5C12.5 10.2614 10.2614 12.5 7.5 12.5C4.73858 12.5 2.5 10.2614 2.5 7.5Z" fill="#3F465C"/>
</svg>
