<svg width="16" height="16" viewBox="0 0 16 16" fill="none" xmlns="http://www.w3.org/2000/svg">
<g clip-path="url(#clip0_1_4387)">
<path fill-rule="evenodd" clip-rule="evenodd" d="M8.32784 1.6226C8.24005 1.54624 8.12535 1.5 7.99985 1.5C7.87486 1.5 7.76057 1.54587 7.67291 1.62169L4.17457 4.62038C3.96491 4.80009 3.94063 5.11574 4.12035 5.3254C4.30006 5.53506 4.61571 5.55934 4.82537 5.37962L7.49985 3.08713V10C7.49985 10.2761 7.72371 10.5 7.99985 10.5C8.276 10.5 8.49985 10.2761 8.49985 10V3.08709L11.1746 5.37963C11.3842 5.55934 11.6999 5.53506 11.8796 5.32539C12.0593 5.11572 12.035 4.80007 11.8254 4.62037L8.32784 1.6226ZM2 9.00005C2.27614 9.00005 2.5 9.22391 2.5 9.50005V13.5H13.5V9.50005C13.5 9.22391 13.7239 9.00005 14 9.00005C14.2761 9.00005 14.5 9.22391 14.5 9.50005V13.5C14.5 14.0523 14.0523 14.5 13.5 14.5H2.5C1.94772 14.5 1.5 14.0523 1.5 13.5V9.50005C1.5 9.22391 1.72386 9.00005 2 9.00005Z" fill="#3F465C"/>
</g>
<defs>
<clipPath id="clip0_1_4387">
<rect width="16" height="16" fill="white"/>
</clipPath>
</defs>
</svg>
