<svg width="16" height="16" viewBox="0 0 16 16" fill="none" xmlns="http://www.w3.org/2000/svg">
<path fill-rule="evenodd" clip-rule="evenodd" d="M10.0696 2.3284C9.99705 2.12976 9.80733 1.99826 9.59585 2.00002C9.38436 2.00177 9.19686 2.1364 9.12758 2.33623L7.02723 8.39494L5.7777 4.35235C5.7153 4.15045 5.5327 4.00958 5.32157 4.00047C5.11044 3.99135 4.91638 4.11595 4.8368 4.31172L3.66278 7.2H2.5C2.22386 7.2 2 7.42386 2 7.7C2 7.97614 2.22386 8.2 2.5 8.2H3.97684C4.19384 8.2 4.3892 8.06852 4.47091 7.8675L5.23585 5.98563L6.5223 10.1477C6.58613 10.3542 6.77541 10.4963 6.99152 10.4999C7.20763 10.5036 7.40162 10.368 7.47242 10.1638L9.61238 3.9908L11.0224 7.8497C11.0992 8.06007 11.2993 8.2 11.5233 8.2H13.5C13.7761 8.2 14 7.97614 14 7.7C14 7.42386 13.7761 7.2 13.5 7.2H11.8496L10.0696 2.3284ZM2.5 12.5C2.22386 12.5 2 12.7239 2 13C2 13.2761 2.22386 13.5 2.5 13.5H13.5C13.7761 13.5 14 13.2761 14 13C14 12.7239 13.7761 12.5 13.5 12.5H2.5Z" fill="#3F465C"/>
</svg>
