<svg width="16" height="16" viewBox="0 0 16 16" fill="none" xmlns="http://www.w3.org/2000/svg">
<path fill-rule="evenodd" clip-rule="evenodd" d="M5.11264 8.5C5.23835 10.9814 6.27701 12.8468 7.07298 13.9288C4.3608 13.5082 2.24914 11.2711 2.02054 8.5H5.11264ZM6.11408 8.5C6.21207 10.2346 6.80608 11.6336 7.40632 12.6284C7.61297 12.9709 7.81914 13.2634 8.00368 13.5024C8.18652 13.2669 8.39051 12.979 8.59501 12.6414C9.19423 11.6523 9.78932 10.2524 9.88658 8.5H6.11408ZM9.88705 7.5H6.11419C6.21248 5.77282 6.80605 4.37416 7.4067 3.377C7.61623 3.02916 7.8253 2.7325 8.01188 2.49074C8.19281 2.72064 8.3945 3.00227 8.59681 3.33361C9.19402 4.31174 9.79116 5.71301 9.88705 7.5ZM10.888 8.5C10.7636 10.9937 9.73133 12.8504 8.93607 13.9274C11.6439 13.5032 13.7511 11.268 13.9795 8.5H10.888ZM13.9795 7.5H10.8884C10.7667 4.98322 9.74672 3.14267 8.95297 2.07526C11.6527 2.50611 13.7516 4.73779 13.9795 7.5ZM15 8V7.5H14.9824C14.726 3.86743 11.698 1.0001 8.0002 1H8C4.30212 1 1.27396 3.86736 1.01758 7.5H1V8V8.5H1.01758C1.27396 12.1326 4.30212 15 8 15H8.0002C11.698 14.9999 14.726 12.1326 14.9824 8.5H15V8ZM2.02054 7.5C2.24924 4.72773 4.36266 2.48986 7.07654 2.07063C6.2803 3.15478 5.23902 5.02378 5.11272 7.5H2.02054Z" fill="#3F465C"/>
</svg>
