<svg width="16" height="16" viewBox="0 0 16 16" fill="none" xmlns="http://www.w3.org/2000/svg">
<path fill-rule="evenodd" clip-rule="evenodd" d="M8.41906 1.64273C8.15316 1.52001 7.84684 1.52001 7.58094 1.64273L1.58094 4.41196C1.22679 4.57541 1 4.92987 1 5.31992V13.5C1 14.0523 1.44772 14.5 2 14.5H14C14.5523 14.5 15 14.0523 15 13.5V5.31992C15 4.92987 14.7732 4.57541 14.4191 4.41196L8.41906 1.64273ZM13.0859 4.89803L8 2.55069L2.91409 4.89803L7.86584 7.37391C7.95029 7.41613 8.04971 7.41613 8.13416 7.37391L13.0859 4.89803ZM2 5.55902V13.5H14V5.55902L8.58138 8.26833C8.21539 8.45133 7.78461 8.45133 7.41862 8.26833L2 5.55902Z" fill="#3F465C"/>
</svg>
