<svg width="16" height="16" viewBox="0 0 16 16" fill="none" xmlns="http://www.w3.org/2000/svg">
<path fill-rule="evenodd" clip-rule="evenodd" d="M6.5 2.25C6.5 1.83579 6.83579 1.5 7.25 1.5H13.75C14.1642 1.5 14.5 1.83579 14.5 2.25V13.5001H15.0003C15.2764 13.5001 15.5003 13.724 15.5003 14.0001C15.5003 14.2762 15.2764 14.5001 15.0003 14.5001H0.999756C0.723613 14.5001 0.499756 14.2762 0.499756 14.0001C0.499756 13.724 0.723613 13.5001 0.999756 13.5001H1.5V6.25C1.5 5.83579 1.83579 5.5 2.25 5.5H6.5V2.25ZM6.5 10.5V13.5H2.5V6.5H6.5V9.5H4C3.72386 9.5 3.5 9.72386 3.5 10C3.5 10.2761 3.72386 10.5 4 10.5H6.5ZM13.5 13.5H7.5L7.5 10.0007L7.5 10L7.5 9.9993V6V5.5L7.5 2.5H13.5V13.5ZM8.5 5C8.5 4.72386 8.72386 4.5 9 4.5H12C12.2761 4.5 12.5 4.72386 12.5 5C12.5 5.27614 12.2761 5.5 12 5.5H9C8.72386 5.5 8.5 5.27614 8.5 5ZM9 7.5C8.72386 7.5 8.5 7.72386 8.5 8C8.5 8.27614 8.72386 8.5 9 8.5H12C12.2761 8.5 12.5 8.27614 12.5 8C12.5 7.72386 12.2761 7.5 12 7.5H9ZM9 10.5C8.72386 10.5 8.5 10.7239 8.5 11C8.5 11.2761 8.72386 11.5 9 11.5H12C12.2761 11.5 12.5 11.2761 12.5 11C12.5 10.7239 12.2761 10.5 12 10.5H9Z" fill="#3F465C"/>
</svg>
