<svg width="16" height="16" viewBox="0 0 16 16" fill="none" xmlns="http://www.w3.org/2000/svg">
<path fill-rule="evenodd" clip-rule="evenodd" d="M14.3509 2.85624C14.5476 2.66248 14.55 2.3459 14.3563 2.14916C14.1625 1.95241 13.8459 1.94999 13.6492 2.14376L11.9569 3.81043C10.9707 3.04151 9.66829 2.5 8.00001 2.5C5.84326 2.5 4.29796 3.40504 3.25705 4.53647C2.22833 5.65465 1.69178 6.99167 1.50972 7.90194L1.49011 8L1.50972 8.09806C1.69178 9.00833 2.22833 10.3454 3.25705 11.4635C3.40197 11.621 3.55666 11.7742 3.72142 11.9211L2.64917 12.9771C2.45242 13.1709 2.45001 13.4874 2.64377 13.6842C2.83754 13.8809 3.15411 13.8833 3.35086 13.6896L14.3509 2.85624ZM4.43559 11.2177L6.07865 9.59958C5.71736 9.16609 5.50001 8.60843 5.50001 8C5.50001 6.61929 6.6193 5.5 8.00001 5.5C8.62216 5.5 9.19122 5.72726 9.62873 6.10329L11.2372 4.51919C10.4234 3.91684 9.36365 3.5 8.00001 3.5C6.15677 3.5 4.86873 4.26162 3.99298 5.21353C3.14257 6.13788 2.68153 7.24369 2.51117 8C2.68153 8.75631 3.14257 9.86212 3.99298 10.7865C4.13021 10.9356 4.27756 11.0801 4.43559 11.2177ZM8.9121 6.80906C8.65936 6.61521 8.34314 6.5 8.00001 6.5C7.17159 6.5 6.50001 7.17157 6.50001 8C6.50001 8.33491 6.60977 8.64418 6.79528 8.89381L8.9121 6.80906ZM8.00001 13.5C7.03275 13.5 6.18848 13.318 5.45753 13.0151L6.24552 12.2392C6.76506 12.4046 7.34778 12.5 8.00001 12.5C9.84326 12.5 11.1313 11.7384 12.007 10.7865C12.8575 9.86212 13.3185 8.75631 13.4889 8C13.3637 7.44453 13.0818 6.70054 12.604 5.97838L13.3282 5.2653C13.9818 6.19836 14.3466 7.18319 14.4903 7.90194L14.5099 8L14.4903 8.09806C14.3083 9.00833 13.7717 10.3454 12.743 11.4635C11.7021 12.595 10.1568 13.5 8.00001 13.5ZM8.0119 10.5C9.37027 10.4937 10.4727 9.40399 10.4995 8.05056L8.0119 10.5Z" fill="#3F465C"/>
</svg>
