<svg width="16" height="16" viewBox="0 0 16 16" fill="none" xmlns="http://www.w3.org/2000/svg">
<path fill-rule="evenodd" clip-rule="evenodd" d="M8 1C7.72386 1 7.5 1.22386 7.5 1.5V8C7.5 8.27614 7.72386 8.5 8 8.5H14.5C14.7761 8.5 15 8.27614 15 8C15 4.13401 11.866 1 8 1ZM13.9795 7.5C13.7421 4.62302 11.475 2.32158 8.61347 2.03098C8.57575 2.02715 8.53792 2.02367 8.5 2.02054V7.5H13.9795ZM5.69245 2.45964C5.94732 2.35336 6.06777 2.06059 5.96148 1.80572C5.8552 1.55085 5.56242 1.4304 5.30755 1.53668C2.77888 2.59119 1 5.08727 1 8C1 11.866 4.13401 15 8 15C10.9127 15 13.4088 13.2211 14.4633 10.6924C14.5696 10.4376 14.4492 10.1448 14.1943 10.0385C13.9394 9.93223 13.6466 10.0527 13.5404 10.3076C12.6357 12.4768 10.4952 14 8 14C4.68629 14 2 11.3137 2 8C2 5.50483 3.52321 3.36426 5.69245 2.45964Z" fill="#3F465C"/>
</svg>
