<svg width="16" height="16" viewBox="0 0 16 16" fill="none" xmlns="http://www.w3.org/2000/svg">
<path fill-rule="evenodd" clip-rule="evenodd" d="M5.5 5.05556C5.5 3.63547 6.62791 2.5 8 2.5C9.21793 2.5 10.243 3.39381 10.4585 4.58874C10.5075 4.8605 10.7675 5.04107 11.0393 4.99206C11.311 4.94305 11.4916 4.68302 11.4426 4.41126C11.1451 2.76162 9.72321 1.5 8 1.5C6.05841 1.5 4.5 3.10056 4.5 5.05556V6H3.5C2.94772 6 2.5 6.44772 2.5 7V13C2.5 13.5523 2.94772 14 3.5 14H12.125C12.6773 14 13.125 13.5523 13.125 13V7C13.125 6.44772 12.6773 6 12.125 6H5.5V5.05556ZM5 7H3.5V13H12.125V7H5ZM8.05571 8.5C8.33185 8.5 8.55571 8.72386 8.55571 9V11C8.55571 11.2761 8.33185 11.5 8.05571 11.5C7.77957 11.5 7.55571 11.2761 7.55571 11V9C7.55571 8.72386 7.77957 8.5 8.05571 8.5Z" fill="#3F465C"/>
</svg>
