<svg width="16" height="16" viewBox="0 0 16 16" fill="none" xmlns="http://www.w3.org/2000/svg">
<path d="M8.13824 11.3678C8.06092 11.4417 7.93908 11.4417 7.86176 11.3678L2.61019 6.34454C2.47987 6.21989 2.5681 6.00001 2.74843 6.00001L13.2516 6.00001C13.4319 6.00001 13.5201 6.21989 13.3898 6.34453L8.13824 11.3678Z" fill="#3F465C"/>
<path d="M5.5 1.2C5.5 1.08954 5.58954 1 5.7 1H10.3C10.4105 1 10.5 1.08954 10.5 1.2V6H5.5V1.2Z" fill="#3F465C"/>
<path d="M2.5 13.2C2.5 13.0895 2.58954 13 2.7 13H13.3C13.4105 13 13.5 13.0895 13.5 13.2V14.3C13.5 14.4105 13.4105 14.5 13.3 14.5H2.7C2.58954 14.5 2.5 14.4105 2.5 14.3V13.2Z" fill="#3F465C"/>
</svg>
