<svg width="16" height="16" viewBox="0 0 16 16" fill="none" xmlns="http://www.w3.org/2000/svg">
<path fill-rule="evenodd" clip-rule="evenodd" d="M4.5 2.75C4.5 2.33579 4.83579 2 5.25 2H10.75C11.1642 2 11.5 2.33579 11.5 2.75V4H13.5C14.0523 4 14.5 4.44772 14.5 5V8V13C14.5 13.5523 14.0523 14 13.5 14H2.5C1.94772 14 1.5 13.5523 1.5 13V8V5C1.5 4.44772 1.94771 4 2.5 4H4.5V2.75ZM10.5 3V4H5.5V3H10.5ZM9.5 8.5V9.5C9.5 9.77614 9.27614 10 9 10H7C6.72386 10 6.5 9.77614 6.5 9.5V8.5H2.5V13H13.5V8.5H9.5ZM6.5 7.5H2.5V5L13.5 5V7.5H9.5V6.5C9.5 6.22386 9.27614 6 9 6H7C6.72386 6 6.5 6.22386 6.5 6.5V7.5ZM8.5 9H7.5V7H8.5V9Z" fill="#3F465C"/>
</svg>
