<svg width="16" height="16" viewBox="0 0 16 16" fill="none" xmlns="http://www.w3.org/2000/svg">
<path fill-rule="evenodd" clip-rule="evenodd" d="M3 2C2.44772 2 2 2.44772 2 3V13C2 13.5523 2.44772 14 3 14H13C13.5523 14 14 13.5523 14 13V3C14 2.44772 13.5523 2 13 2H3ZM3 3L13 3V13H3V3ZM7.4798 5.3239H6.9998V4.5879H10.9358V5.2759C10.7518 5.8119 10.3998 6.2759 9.87181 6.6679C10.3518 6.8439 10.9118 6.9719 11.5598 7.0359L11.2638 7.7639C10.3838 7.6599 9.66381 7.4519 9.0878 7.1319C8.4798 7.4279 7.7358 7.6679 6.8558 7.8519L6.4638 7.1559C7.1918 7.0119 7.8238 6.8359 8.3518 6.6199C7.95981 6.2679 7.6718 5.8359 7.4798 5.3239ZM10.0638 5.3239H8.2958C8.47181 5.6919 8.73581 5.9959 9.0878 6.2519C9.5198 5.9799 9.84781 5.6759 10.0638 5.3239ZM7.2318 8.9719V8.2199H8.6478V7.5879H9.4798V8.2199H10.9998V8.9719H9.4798V9.6599H11.3918V10.4439H9.4798V11.7639H8.6478V10.4439H6.8878V9.6599H8.6478V8.9719H7.2318ZM4.6318 4.9559L5.2238 4.3799C5.7278 4.7719 6.1598 5.1639 6.5198 5.5479L5.9438 6.1319C5.6398 5.7639 5.1998 5.3719 4.6318 4.9559ZM4.1038 7.4919V6.6919H5.9758V9.8839C6.09626 9.75843 6.21672 9.62665 6.34113 9.49056C6.41502 9.40973 6.4903 9.32737 6.5678 9.2439L6.7918 10.1319C6.3118 10.6439 5.7998 11.1079 5.2638 11.5159L4.9438 10.7639C5.0878 10.6359 5.1678 10.4839 5.1678 10.2999V7.4919H4.1038Z" fill="#3F465C"/>
</svg>
