<svg width="16" height="16" viewBox="0 0 16 16" fill="none" xmlns="http://www.w3.org/2000/svg">
<path fill-rule="evenodd" clip-rule="evenodd" d="M8.50004 0.711337C8.19064 0.532704 7.80944 0.532704 7.50004 0.711337L1.93787 3.92266C1.62847 4.10129 1.43787 4.43142 1.43787 4.78869V11.2113C1.43787 11.5686 1.62847 11.8987 1.93787 12.0774L7.50004 15.2887C7.80944 15.4673 8.19064 15.4673 8.50004 15.2887L14.0622 12.0774C14.3716 11.8987 14.5622 11.5686 14.5622 11.2113V4.78869C14.5622 4.43142 14.3716 4.10129 14.0622 3.92266L8.50004 0.711337ZM8.00004 1.57736L13.5622 4.78869V11.2113L8.00004 14.4227L2.43787 11.2113V4.78869L8.00004 1.57736ZM5.99858 8.00001C5.99858 6.89463 6.89467 5.99855 8.00004 5.99855C9.10542 5.99855 10.0015 6.89463 10.0015 8.00001C10.0015 9.10539 9.10542 10.0015 8.00004 10.0015C6.89467 10.0015 5.99858 9.10539 5.99858 8.00001ZM8.00004 4.99855C6.34238 4.99855 4.99858 6.34235 4.99858 8.00001C4.99858 9.65767 6.34238 11.0015 8.00004 11.0015C9.65771 11.0015 11.0015 9.65767 11.0015 8.00001C11.0015 6.34235 9.65771 4.99855 8.00004 4.99855Z" fill="#3F465C"/>
</svg>
