<svg width="16" height="16" viewBox="0 0 16 16" fill="none" xmlns="http://www.w3.org/2000/svg">
<path fill-rule="evenodd" clip-rule="evenodd" d="M3.83329 3.20047V1.83325H5.49996V4.06136C5.19088 4.20819 4.89675 4.3814 4.6205 4.57808L3.83329 3.20047ZM6.49996 3.69466V1.83325H9.49996V3.69467C9.02133 3.56767 8.51855 3.5 7.99996 3.5C7.48137 3.5 6.97859 3.56767 6.49996 3.69466ZM10.5 4.06136C10.809 4.20819 11.1032 4.3814 11.3794 4.57808L12.1666 3.20047V1.83325H10.5V4.06136ZM3.84587 5.23805L2.94309 3.65818C2.87114 3.53227 2.83329 3.38975 2.83329 3.24473V1.66659C2.83329 1.20635 3.20639 0.833252 3.66663 0.833252H12.3333C12.7935 0.833252 13.1666 1.20635 13.1666 1.66659V3.24473C13.1666 3.38975 13.1288 3.53226 13.0568 3.65818L12.154 5.23805C13.1924 6.29126 13.8333 7.73746 13.8333 9.33333C13.8333 12.555 11.2216 15.1667 7.99996 15.1667C4.7783 15.1667 2.16663 12.555 2.16663 9.33333C2.16663 7.73746 2.80748 6.29126 3.84587 5.23805ZM7.99996 4.5C5.33058 4.5 3.16663 6.66396 3.16663 9.33333C3.16663 12.0027 5.33058 14.1667 7.99996 14.1667C10.6693 14.1667 12.8333 12.0027 12.8333 9.33333C12.8333 6.66396 10.6693 4.5 7.99996 4.5ZM7.99996 7.16675C6.80334 7.16675 5.83329 8.1368 5.83329 9.33342C5.83329 10.53 6.80334 11.5001 7.99996 11.5001C9.19658 11.5001 10.1666 10.53 10.1666 9.33342C10.1666 8.1368 9.19658 7.16675 7.99996 7.16675ZM4.83329 9.33342C4.83329 7.58451 6.25106 6.16675 7.99996 6.16675C9.74886 6.16675 11.1666 7.58451 11.1666 9.33342C11.1666 11.0823 9.74886 12.5001 7.99996 12.5001C6.25106 12.5001 4.83329 11.0823 4.83329 9.33342Z" fill="#3F465C"/>
</svg>
