<svg width="16" height="16" viewBox="0 0 16 16" fill="none" xmlns="http://www.w3.org/2000/svg">
<path fill-rule="evenodd" clip-rule="evenodd" d="M2 3C2 2.44772 2.44772 2 3 2H13C13.5523 2 14 2.44772 14 3V13C14 13.5523 13.5523 14 13 14H3C2.44772 14 2 13.5523 2 13V3ZM13 3L3 3V13H13V3ZM4.16666 6C4.16666 5.72386 4.39052 5.5 4.66666 5.5H7.5V4.66675C7.5 4.39061 7.72386 4.16675 8 4.16675C8.27614 4.16675 8.5 4.39061 8.5 4.66675V5.5H11.3333C11.6095 5.5 11.8333 5.72386 11.8333 6V9.33333C11.8333 9.60948 11.6095 9.83333 11.3333 9.83333H8.5V11.6667C8.5 11.9429 8.27614 12.1667 8 12.1667C7.72386 12.1667 7.5 11.9429 7.5 11.6667V9.83333H4.66666C4.39052 9.83333 4.16666 9.60948 4.16666 9.33333V6ZM8.5 8.83333H10.8333V6.5H8.5V8.83333ZM7.5 6.5V8.83333H5.16666V6.5H7.5Z" fill="#3F465C"/>
</svg>
