<svg width="16" height="16" viewBox="0 0 16 16" fill="none" xmlns="http://www.w3.org/2000/svg">
<path fill-rule="evenodd" clip-rule="evenodd" d="M2.64677 9.01293C2.52483 8.35873 2.52483 7.68793 2.64677 7.03373L1.27256 6.24672C1.0116 6.09726 0.922345 5.76384 1.07373 5.504L2.3506 3.31237C2.5004 3.05524 2.82959 2.96712 3.08782 3.11501L4.469 3.90603C4.97559 3.47624 5.56053 3.13855 6.20013 2.91282V1.34165C6.20013 1.0425 6.44264 0.799988 6.7418 0.799988H9.30293C9.60209 0.799988 9.8446 1.0425 9.8446 1.34165V2.91282C10.4842 3.13855 11.0691 3.47624 11.5757 3.90603L12.9569 3.11501C13.2151 2.96712 13.5443 3.05524 13.6941 3.31237L14.971 5.504C15.1224 5.76384 15.0331 6.09726 14.7722 6.24672L13.398 7.03373C13.5199 7.68793 13.5199 8.35873 13.398 9.01293L14.7722 9.79995C15.0331 9.94941 15.1224 10.2828 14.971 10.5427L13.6941 12.7343C13.5443 12.9914 13.2151 13.0795 12.9569 12.9317L11.5757 12.1406C11.0653 12.5745 10.4784 12.9112 9.8446 13.1338V14.705C9.8446 15.0042 9.60209 15.2467 9.30293 15.2467H6.7418C6.44264 15.2467 6.20013 15.0042 6.20013 14.705V13.1338C5.56631 12.9112 4.97942 12.5745 4.469 12.1406L3.08782 12.9317C2.82959 13.0795 2.5004 12.9914 2.3506 12.7343L1.07373 10.5427C0.922345 10.2828 1.0116 9.94941 1.27256 9.79995L2.64677 9.01293ZM8 10.9999C8.79565 10.9999 9.55871 10.6839 10.1213 10.1213C10.6839 9.55865 11 8.79559 11 7.99994C11 7.20429 10.6839 6.44123 10.1213 5.87862C9.55871 5.31601 8.79565 4.99994 8 4.99994C7.20435 4.99994 6.44128 5.31601 5.87867 5.87862C5.31607 6.44123 5 7.20429 5 7.99994C5 8.79559 5.31607 9.55865 5.87867 10.1213C6.44128 10.6839 7.20435 10.9999 8 10.9999Z" fill="#3F465C"/>
</svg>
