<svg width="16" height="13" viewBox="0 0 16 13" fill="none" xmlns="http://www.w3.org/2000/svg">
<path fill-rule="evenodd" clip-rule="evenodd" d="M13.6971 7C13.9732 7 14.1971 6.77614 14.1971 6.5C14.1971 6.35462 14.1923 6.21029 14.1829 6.06716C13.9598 2.67887 11.1415 -1.33563e-07 7.69706 -2.84124e-07C5.28842 -3.89409e-07 3.18644 1.31035 2.06403 3.25469C1.92597 3.49384 2.00793 3.79963 2.24708 3.93769C2.48624 4.07575 2.79203 3.99379 2.93008 3.75464C3.8812 2.10702 5.66015 1 7.69706 1C10.6112 1 12.9964 3.26671 13.185 6.13284C13.193 6.25413 13.1971 6.37655 13.1971 6.5C13.1971 6.77614 13.4209 7 13.6971 7ZM13.1447 9.0672C12.9057 8.92893 12.5998 9.01061 12.4616 9.24964C11.5098 10.8949 9.73221 12 7.69706 12C4.7829 12 2.39775 9.73329 2.2091 6.86716C2.20112 6.74587 2.19706 6.62344 2.19706 6.5C2.19706 6.22386 1.9732 6 1.69706 6C1.42091 6 1.19706 6.22386 1.19706 6.5C1.19706 6.64538 1.20184 6.78971 1.21126 6.93284C1.43428 10.3211 4.25262 13 7.69706 13C10.1036 13 12.204 11.6919 13.3272 9.75036C13.4654 9.51133 13.3838 9.20547 13.1447 9.0672Z" fill="#3F465C"/>
<path fill-rule="evenodd" clip-rule="evenodd" d="M12.0004 6.44693H15.3945L13.6975 8.14399L12.0004 6.44693Z" fill="#3F465C"/>
<path fill-rule="evenodd" clip-rule="evenodd" d="M3.39411 6.55318L-3.53537e-07 6.55318L1.69706 4.85612L3.39411 6.55318Z" fill="#3F465C"/>
</svg>
