<svg width="16" height="16" viewBox="0 0 16 16" fill="none" xmlns="http://www.w3.org/2000/svg">
<path fill-rule="evenodd" clip-rule="evenodd" d="M6.7998 3.3C6.7998 2.58203 7.38183 2 8.0998 2C8.81777 2 9.3998 2.58203 9.3998 3.3C9.3998 4.01797 8.81777 4.6 8.0998 4.6C7.38183 4.6 6.7998 4.01797 6.7998 3.3ZM8.0998 1C6.82955 1 5.7998 2.02975 5.7998 3.3C5.7998 3.35228 5.80155 3.40416 5.80498 3.45557C3.85983 4.30314 2.5 6.24281 2.5 8.50009C2.5 8.79205 2.52275 9.0787 2.56657 9.35835C1.92537 9.76653 1.5 10.4836 1.5 11.3C1.5 12.5703 2.52975 13.6 3.8 13.6C4.29019 13.6 4.74457 13.4466 5.11777 13.1853C5.9559 13.702 6.94314 14.0001 8 14.0001C9.19933 14.0001 10.309 13.6162 11.2129 12.9646C11.6256 13.3583 12.1846 13.6 12.8 13.6C14.0703 13.6 15.1 12.5703 15.1 11.3C15.1 10.262 14.4124 9.38461 13.4678 9.09846C13.4891 8.90192 13.5 8.70228 13.5 8.50009C13.5 6.31785 12.2291 4.43246 10.387 3.54369C10.3955 3.46362 10.3998 3.38231 10.3998 3.3C10.3998 2.02975 9.37006 1 8.0998 1ZM5.80431 12.429C6.45378 12.7927 7.20267 13.0001 8 13.0001C8.99321 13.0001 9.91127 12.6783 10.6556 12.1333C10.5551 11.875 10.5 11.5939 10.5 11.3C10.5 10.1418 11.356 9.18361 12.4699 9.02352C12.4898 8.8518 12.5 8.67714 12.5 8.50009C12.5 6.75822 11.5103 5.24751 10.0626 4.49957C9.65834 5.15961 8.9305 5.6 8.0998 5.6C7.2375 5.6 6.48603 5.12547 6.09229 4.4233C4.56073 5.14122 3.5 6.69678 3.5 8.50009C3.5 8.67448 3.50992 8.84655 3.52923 9.01577C3.61804 9.00536 3.70839 9 3.8 9C5.07025 9 6.1 10.0297 6.1 11.3C6.1 11.7103 5.99257 12.0955 5.80431 12.429ZM12.8 10C12.082 10 11.5 10.582 11.5 11.3C11.5 12.018 12.082 12.6 12.8 12.6C13.518 12.6 14.1 12.018 14.1 11.3C14.1 10.582 13.518 10 12.8 10ZM2.5 11.3C2.5 10.582 3.08203 10 3.8 10C4.51797 10 5.1 10.582 5.1 11.3C5.1 12.018 4.51797 12.6 3.8 12.6C3.08203 12.6 2.5 12.018 2.5 11.3Z" fill="#3F465C"/>
</svg>
