<svg width="16" height="16" viewBox="0 0 16 16" fill="none" xmlns="http://www.w3.org/2000/svg">
<path fill-rule="evenodd" clip-rule="evenodd" d="M2 2C1.44772 2 1 2.44772 1 3V13C1 13.5523 1.44772 14 2 14H12.5V13H2V3L12 3V5H13V3C13 2.44772 12.5523 2 12 2H2ZM4.98936 7.36182C5.16566 7.36182 5.30297 7.43924 5.37464 7.53335C5.46265 7.64905 5.51769 7.78173 5.51769 8.49982C5.51769 9.2182 5.46265 9.34541 5.37464 9.4614C5.30297 9.55523 5.16566 9.63812 4.98936 9.63812C4.81334 9.63812 4.67574 9.55523 4.60407 9.4614C4.51635 9.34541 4.46102 9.2182 4.46102 8.49982C4.46102 7.78173 4.51635 7.64905 4.60407 7.53335C4.67574 7.43924 4.81334 7.36182 4.98936 7.36182ZM4.99135 10.5C5.47009 10.5 5.80034 10.3454 6.08672 10.0576C6.48381 9.65896 6.48326 9.13228 6.48266 8.5659L6.48262 8.49971L6.48266 8.43359C6.48326 7.86772 6.48382 7.34102 6.08672 6.94179C5.80034 6.65455 5.47009 6.5 4.99135 6.5C4.51261 6.5 4.18266 6.65455 3.89627 6.94179C3.49889 7.34103 3.49945 7.86774 3.50005 8.43363L3.50009 8.49971L3.50005 8.56586C3.49945 9.13226 3.49889 9.65895 3.89627 10.0576C4.18266 10.3454 4.51261 10.5 4.99135 10.5ZM7.41775 10.0579C7.70414 10.3454 8.05072 10.5 8.50739 10.5C9.25044 10.5 9.85015 10.0858 9.99349 9.21833H9.01394C8.95316 9.43908 8.83219 9.63825 8.51312 9.63825C8.33682 9.63825 8.20466 9.5663 8.13328 9.47247C8.04527 9.35619 7.98479 9.21833 7.98479 8.49996C7.98479 7.78187 8.04527 7.64372 8.13328 7.52773C8.20466 7.4339 8.33682 7.36195 8.51312 7.36195C8.83219 7.36195 8.95316 7.56083 9.01394 7.78187H9.99349C9.85015 6.9144 9.25044 6.50024 8.50739 6.50024C8.05072 6.50024 7.70414 6.6548 7.41775 6.94203C7.02041 7.34123 7.02095 7.86833 7.02153 8.43485L7.02157 8.49996L7.02153 8.56506C7.02095 9.13158 7.02041 9.65868 7.41775 10.0579ZM12.0105 7.40057H11.4659V8.19608H12.0105C12.2748 8.19608 12.4288 8.00268 12.4288 7.79833C12.4288 7.59398 12.2748 7.40057 12.0105 7.40057ZM12.4828 10.4666L11.7896 9.0025H11.4651V10.4666H10.5019V6.53308H12.0537C12.9234 6.53308 13.391 7.15188 13.391 7.7983C13.391 8.3342 13.0607 8.67123 12.7529 8.82579L13.6003 10.4666H12.4828Z" fill="#3F465C"/>
</svg>
