<svg width="16" height="16" viewBox="0 0 16 16" fill="none" xmlns="http://www.w3.org/2000/svg">
<path fill-rule="evenodd" clip-rule="evenodd" d="M8 2.5C6.01265 2.5 4.32721 3.78787 3.73079 5.57398C1.88948 5.93283 0.5 7.55385 0.5 9.5C0.5 11.7091 2.29086 13.5 4.5 13.5H11.5H11.5C13.7091 13.5 15.5 11.7091 15.5 9.5C15.5 8.40529 15.0604 7.41345 14.348 6.69126C14.2977 6.64031 14.2461 6.5907 14.1932 6.54249C13.6627 6.05924 13.0017 5.71673 12.2692 5.57398C11.6728 3.78788 9.98736 2.5 8 2.5ZM11.1698 5.51365C10.6108 4.32367 9.40114 3.5 8 3.5C6.36343 3.5 4.98806 4.62372 4.60572 6.14237C4.55462 6.34534 4.3825 6.49501 4.1744 6.51742C2.67093 6.67938 1.5 7.95328 1.5 9.5C1.5 11.1569 2.84315 12.5 4.5 12.5H11.5C11.9933 12.5 12.4791 12.3783 12.9142 12.1458C13.3493 11.9132 13.7203 11.5769 13.9944 11.1667C14.2685 10.7565 14.4372 10.285 14.4855 9.79405C14.5339 9.30307 14.4604 8.80775 14.2716 8.35195C14.0828 7.89615 13.7845 7.49395 13.4032 7.18097C13.0218 6.86799 12.5691 6.65389 12.0853 6.55764C11.6014 6.4614 11.1012 6.48597 10.6291 6.62918C10.157 6.77239 9.72752 7.02983 9.37867 7.37868C9.18341 7.57394 8.86683 7.57394 8.67156 7.37868C8.4763 7.18342 8.4763 6.86684 8.67156 6.67157C9.1367 6.20644 9.70937 5.86319 10.3389 5.67224C10.6105 5.58985 10.889 5.53691 11.1698 5.51365Z" fill="#3F465C"/>
</svg>
