<svg width="16" height="16" viewBox="0 0 16 16" fill="none" xmlns="http://www.w3.org/2000/svg">
<path fill-rule="evenodd" clip-rule="evenodd" d="M5.35026 12.839L4.97194 12.6298L4.56034 12.7621L2.72133 13.3531L3.30577 11.613L3.45361 11.1728L3.21273 10.7758C2.66593 9.87471 2.39331 8.89685 2.39331 7.8216C2.39331 7.04569 2.54456 6.30968 2.8475 5.60509C3.15758 4.88387 3.56729 4.27583 4.07342 3.76971C4.57954 3.26358 5.18758 2.85387 5.9088 2.54379C6.61339 2.24085 7.3494 2.0896 8.12531 2.0896C8.90122 2.0896 9.63723 2.24085 10.3418 2.54379C11.063 2.85387 11.6711 3.26358 12.1772 3.76971C12.6833 4.27583 13.093 4.88387 13.4031 5.60509C13.7061 6.30968 13.8573 7.04569 13.8573 7.8216C13.8573 8.5975 13.7061 9.33352 13.4031 10.0381C13.093 10.7593 12.6833 11.3674 12.1772 11.8735C11.6711 12.3796 11.063 12.7893 10.3418 13.0994C9.63723 13.4023 8.90122 13.5536 8.12531 13.5536C7.13329 13.5536 6.21355 13.3164 5.35026 12.839ZM1.39331 7.8216C1.39331 9.07727 1.71481 10.2349 2.35781 11.2946L1.45834 13.9726C1.32778 14.3614 1.6949 14.7333 2.0853 14.6079L4.86631 13.7141C5.87831 14.2738 6.96464 14.5536 8.12531 14.5536C9.03598 14.5536 9.90648 14.3751 10.7368 14.0181C11.5671 13.6611 12.283 13.1819 12.8843 12.5806C13.4856 11.9793 13.9648 11.2634 14.3218 10.4331C14.6788 9.60277 14.8573 8.73227 14.8573 7.8216C14.8573 6.91093 14.6788 6.04043 14.3218 5.2101C13.9648 4.37977 13.4856 3.66393 12.8843 3.0626C12.283 2.46127 11.5671 1.9821 10.7368 1.6251C9.90648 1.2681 9.03598 1.0896 8.12531 1.0896C7.21464 1.0896 6.34414 1.2681 5.51381 1.6251C4.68348 1.9821 3.96764 2.46127 3.36631 3.0626C2.76498 3.66393 2.28581 4.37977 1.92881 5.2101C1.57181 6.04043 1.39331 6.91093 1.39331 7.8216ZM9.93773 8.6966C10.0151 8.6966 10.3052 8.8276 10.8082 9.0896C11.3112 9.3516 11.5776 9.50926 11.6072 9.5626C11.6192 9.59227 11.6252 9.63693 11.6252 9.6966C11.6252 9.89293 11.5746 10.1191 11.4732 10.3751C11.3779 10.6071 11.1666 10.8021 10.8392 10.9601C10.5119 11.1181 10.2084 11.1969 9.92873 11.1966C9.5894 11.1966 9.0239 11.0121 8.23223 10.6431C7.6489 10.3751 7.1429 10.0239 6.71423 9.5896C6.28556 9.15527 5.84506 8.6046 5.39273 7.9376C4.96406 7.3006 4.75273 6.72327 4.75873 6.2056V6.1341C4.77673 5.59243 4.9969 5.12227 5.41923 4.7236C5.56223 4.5926 5.71706 4.5271 5.88373 4.5271C5.9194 4.5271 5.9729 4.5316 6.04423 4.5406C6.11556 4.5496 6.17206 4.5541 6.21373 4.5541C6.32673 4.5541 6.40556 4.57343 6.45023 4.6121C6.4949 4.65077 6.54106 4.7326 6.58873 4.8576C6.6364 4.9766 6.73456 5.23843 6.88323 5.6431C7.0319 6.04777 7.10623 6.27093 7.10623 6.3126C7.10623 6.4376 7.00356 6.60877 6.79823 6.8261C6.5929 7.04343 6.49023 7.18177 6.49023 7.2411C6.49023 7.28277 6.50506 7.32743 6.53473 7.3751C6.73706 7.80977 7.04056 8.21743 7.44523 8.5981C7.77856 8.91343 8.2279 9.2141 8.79323 9.5001C8.86456 9.54177 8.93006 9.5626 8.98973 9.5626C9.07906 9.5626 9.23973 9.41827 9.47173 9.1296C9.70373 8.84093 9.85856 8.6966 9.93623 8.6966H9.93773Z" fill="#3F465C"/>
</svg>
