<svg width="16" height="16" viewBox="0 0 16 16" fill="none" xmlns="http://www.w3.org/2000/svg">
<path fill-rule="evenodd" clip-rule="evenodd" d="M1.00024 3C1.00024 2.44772 1.44796 2 2.00024 2H14.0002C14.5525 2 15.0002 2.44774 15.0002 3.00004L15 8.50014C15 8.77628 14.7761 9.00013 14.5 9.00012C14.2238 9.00011 14 8.77624 14 8.5001L14.0002 3.60083L8.72117 7.12018C8.2845 7.4113 7.71562 7.4113 7.27895 7.12018L2.00024 3.60105V13L8.50001 13.0001C8.77615 13.0001 9 13.224 9 13.5001C9 13.7763 8.77613 14.0001 8.49999 14.0001L2.00023 14C1.44795 14 1.00024 13.5523 1.00024 13V3ZM14.0002 3V3.00024L14.0001 3H14.0002ZM2.90145 3L13.0987 3L8.16647 6.28813C8.0657 6.35531 7.93442 6.35531 7.83365 6.28813L2.90145 3ZM13.3536 9.64645C13.1584 9.45118 12.8418 9.45118 12.6465 9.64645C12.4512 9.84171 12.4512 10.1583 12.6465 10.3536L13.793 11.5H10.0001C9.72392 11.5 9.50006 11.7239 9.50006 12C9.50006 12.2761 9.72392 12.5 10.0001 12.5H13.793L12.6465 13.6464C12.4512 13.8417 12.4512 14.1583 12.6465 14.3536C12.8418 14.5488 13.1584 14.5488 13.3536 14.3536L15.3536 12.3536C15.5489 12.1583 15.5489 11.8417 15.3536 11.6464L13.3536 9.64645Z" fill="#3F465C"/>
</svg>
