<svg width="16" height="16" viewBox="0 0 16 16" fill="none" xmlns="http://www.w3.org/2000/svg">
<path fill-rule="evenodd" clip-rule="evenodd" d="M2 4.25C2 3.00736 3.00736 2 4.25 2C5.49264 2 6.5 3.00736 6.5 4.25V5.5H9.5V4.25C9.5 3.00736 10.5074 2 11.75 2C12.9926 2 14 3.00736 14 4.25C14 5.49264 12.9926 6.5 11.75 6.5H10.5V9.5H11.75C12.9926 9.5 14 10.5074 14 11.75C14 12.9926 12.9926 14 11.75 14C10.5074 14 9.5 12.9926 9.5 11.75V10.5H6.5V11.75C6.5 12.9926 5.49264 14 4.25 14C3.00736 14 2 12.9926 2 11.75C2 10.5074 3.00736 9.5 4.25 9.5H4.75H5.5V6.5H4.25C3.00736 6.5 2 5.49264 2 4.25ZM10.5 10.5V11.75C10.5 12.4404 11.0596 13 11.75 13C12.4404 13 13 12.4404 13 11.75C13 11.0596 12.4404 10.5 11.75 10.5H10.5ZM9.5 9.5V6.5H6.5V9.5H9.5ZM11.75 5.5H10.5V4.25C10.5 3.55964 11.0596 3 11.75 3C12.4404 3 13 3.55964 13 4.25C13 4.94036 12.4404 5.5 11.75 5.5ZM5.5 10.5H4.75H4.25C3.55964 10.5 3 11.0596 3 11.75C3 12.4404 3.55964 13 4.25 13C4.94036 13 5.5 12.4404 5.5 11.75V10.5ZM5.5 4.25V5.5H4.25C3.55964 5.5 3 4.94036 3 4.25C3 3.55964 3.55964 3 4.25 3C4.94036 3 5.5 3.55964 5.5 4.25Z" fill="#3F465C"/>
</svg>
