<svg width="16" height="16" viewBox="0 0 16 16" fill="none" xmlns="http://www.w3.org/2000/svg">
<path fill-rule="evenodd" clip-rule="evenodd" d="M2.5 2.5C2.5 1.94772 2.94771 1.5 3.5 1.5H12.5C13.0523 1.5 13.5 1.94772 13.5 2.5V14C13.5 14.1733 13.4103 14.3342 13.2629 14.4253C13.1155 14.5164 12.9314 14.5247 12.7764 14.4472L8 12.059L3.22361 14.4472C3.06861 14.5247 2.88454 14.5164 2.73713 14.4253C2.58973 14.3342 2.5 14.1733 2.5 14V2.5ZM12.5 2.5L3.5 2.5V13.191L7.77639 11.0528L8 10.941L8.22361 11.0528L12.5 13.191V2.5ZM5 6.80005C5 6.52391 5.22386 6.30005 5.5 6.30005H7.5V4.30005C7.5 4.02391 7.72386 3.80005 8 3.80005C8.27614 3.80005 8.5 4.02391 8.5 4.30005V6.30005H10.5C10.7761 6.30005 11 6.52391 11 6.80005C11 7.07619 10.7761 7.30005 10.5 7.30005H8.5V9.30005C8.5 9.57619 8.27614 9.80005 8 9.80005C7.72386 9.80005 7.5 9.57619 7.5 9.30005V7.30005H5.5C5.22386 7.30005 5 7.07619 5 6.80005Z" fill="#3F465C"/>
</svg>
