<svg width="16" height="16" viewBox="0 0 16 16" fill="none" xmlns="http://www.w3.org/2000/svg">
<path fill-rule="evenodd" clip-rule="evenodd" d="M1.5 3C1.5 2.44772 1.94772 2 2.5 2H13.5C14.0523 2 14.5 2.44771 14.5 3V13C14.5 13.5523 14.0523 14 13.5 14H2.5C1.94772 14 1.5 13.5523 1.5 13V3ZM13.5 3L2.5 3V13H13.5V3ZM4 6.5C4 6.22386 4.22386 6 4.5 6H5.5C5.77614 6 6 6.22386 6 6.5C6 6.77614 5.77614 7 5.5 7H4.5C4.22386 7 4 6.77614 4 6.5ZM7.5 6C7.22386 6 7 6.22386 7 6.5C7 6.77614 7.22386 7 7.5 7H8.5C8.77614 7 9 6.77614 9 6.5C9 6.22386 8.77614 6 8.5 6H7.5ZM10 6.5C10 6.22386 10.2239 6 10.5 6H11.5C11.7761 6 12 6.22386 12 6.5C12 6.77614 11.7761 7 11.5 7H10.5C10.2239 7 10 6.77614 10 6.5ZM4.5 9C4.22386 9 4 9.22386 4 9.5C4 9.77614 4.22386 10 4.5 10H11.5C11.7761 10 12 9.77614 12 9.5C12 9.22386 11.7761 9 11.5 9H4.5Z" fill="#3F465C"/>
</svg>
