<svg width="16" height="16" viewBox="0 0 16 16" fill="none" xmlns="http://www.w3.org/2000/svg">
<path fill-rule="evenodd" clip-rule="evenodd" d="M7.45388 1.49867C7.75001 1.18404 8.25005 1.18404 8.54618 1.49867L13.9676 7.2589C14.418 7.73753 14.0787 8.52293 13.4214 8.52293H11.4998V14.2541C11.4998 14.6683 11.1641 15.0041 10.7498 15.0041H5.24594C4.83173 15.0041 4.49594 14.6683 4.49594 14.2541V8.52293H2.57864C1.92136 8.52293 1.58201 7.73753 2.03249 7.2589L7.45388 1.49867ZM8.00003 2.37746L3.15724 7.52293H4.74594C5.16016 7.52293 5.49594 7.85871 5.49594 8.27293V14.0041H10.4998V8.27293C10.4998 7.85871 10.8356 7.52293 11.2498 7.52293H12.8428L8.00003 2.37746Z" fill="#3F465C"/>
</svg>
