<svg width="16" height="16" viewBox="0 0 16 16" fill="none" xmlns="http://www.w3.org/2000/svg">
<path fill-rule="evenodd" clip-rule="evenodd" d="M3 2.5C2.72386 2.5 2.5 2.72386 2.5 3V7C2.5 7.27614 2.72386 7.5 3 7.5C3.27614 7.5 3.5 7.27614 3.5 7V4.20711L6.64645 7.35355C6.84171 7.54882 7.15829 7.54882 7.35355 7.35355C7.54882 7.15829 7.54882 6.84171 7.35355 6.64645L4.20711 3.5H7C7.27614 3.5 7.5 3.27614 7.5 3C7.5 2.72386 7.27614 2.5 7 2.5H3ZM13 8.5C13.2761 8.5 13.5 8.72386 13.5 9V13C13.5 13.2761 13.2761 13.5 13 13.5H9C8.72386 13.5 8.5 13.2761 8.5 13C8.5 12.7239 8.72386 12.5 9 12.5H11.7929L8.64645 9.35355C8.45118 9.15829 8.45118 8.84171 8.64645 8.64645C8.84171 8.45118 9.15829 8.45118 9.35355 8.64645L12.5 11.7929V9C12.5 8.72386 12.7239 8.5 13 8.5Z" fill="#3F465C"/>
</svg>
