<svg width="16" height="16" viewBox="0 0 16 16" fill="none" xmlns="http://www.w3.org/2000/svg">
<path fill-rule="evenodd" clip-rule="evenodd" d="M2.5 2C2.5 1.72386 2.72386 1.5 3 1.5H13.5C14.0523 1.5 14.5 1.94772 14.5 2.5V13.5C14.5 14.0523 14.0523 14.5 13.5 14.5H6H5H3C2.72386 14.5 2.5 14.2761 2.5 14V11.5H2C1.72386 11.5 1.5 11.2761 1.5 11C1.5 10.7239 1.72386 10.5 2 10.5H2.5V8.5H2C1.72386 8.5 1.5 8.27614 1.5 8C1.5 7.72386 1.72386 7.5 2 7.5H2.5V5.5H2C1.72386 5.5 1.5 5.27614 1.5 5C1.5 4.72386 1.72386 4.5 2 4.5H2.5V2ZM3.5 11V13.5H5V2.5H3.5V5V8V11ZM13.5 13.5H6V2.5H13.5V13.5Z" fill="#3F465C"/>
</svg>
