<svg width="16" height="16" viewBox="0 0 16 16" fill="none" xmlns="http://www.w3.org/2000/svg">
<path fill-rule="evenodd" clip-rule="evenodd" d="M8.00001 2.5C5.84326 2.5 4.29796 3.40504 3.25705 4.53647C2.22833 5.65465 1.69178 6.99167 1.50972 7.90194L1.49011 8L1.50972 8.09806C1.69178 9.00833 2.22833 10.3454 3.25705 11.4635C4.29796 12.595 5.84326 13.5 8.00001 13.5C10.1568 13.5 11.7021 12.595 12.743 11.4635C13.7717 10.3454 14.3083 9.00833 14.4903 8.09806L14.5099 8L14.4903 7.90194C14.3083 6.99167 13.7717 5.65465 12.743 4.53647C11.7021 3.40504 10.1568 2.5 8.00001 2.5ZM8 10C9.10457 10 10 9.10457 10 8C10 6.89543 9.10457 6 8 6C6.89543 6 6 6.89543 6 8C6 9.10457 6.89543 10 8 10Z" fill="#3F465C"/>
</svg>
