<svg width="16" height="16" viewBox="0 0 16 16" fill="none" xmlns="http://www.w3.org/2000/svg">
<path fill-rule="evenodd" clip-rule="evenodd" d="M6 5C6 3.89543 6.89543 3 8 3C9.10457 3 10 3.89543 10 5C10 6.10457 9.10457 7 8 7C6.89543 7 6 6.10457 6 5ZM8 2C6.34315 2 5 3.34315 5 5C5 6.65685 6.34315 8 8 8C9.65685 8 11 6.65685 11 5C11 3.34315 9.65685 2 8 2ZM10 11.25C10 10.2835 10.7835 9.5 11.75 9.5C12.7165 9.5 13.5 10.2835 13.5 11.25C13.5 12.2165 12.7165 13 11.75 13C10.7835 13 10 12.2165 10 11.25ZM11.75 8.5C10.2312 8.5 9 9.73122 9 11.25C9 12.7688 10.2312 14 11.75 14C12.3287 14 12.8656 13.8213 13.3086 13.516L14.0668 14.2742C14.2621 14.4695 14.5787 14.4695 14.7739 14.2742C14.9692 14.0789 14.9692 13.7623 14.7739 13.5671L14.0158 12.8089C14.3212 12.3659 14.5 11.8288 14.5 11.25C14.5 9.73122 13.2688 8.5 11.75 8.5ZM8 9.5C8 9.22386 7.77614 9 7.5 9H5.5C3.567 9 2 10.567 2 12.5V13C2 13.8284 2.67157 14.5 3.5 14.5H7.5C7.77614 14.5 8 14.2761 8 14C8 13.7239 7.77614 13.5 7.5 13.5H3.5C3.22386 13.5 3 13.2761 3 13V12.5C3 11.1193 4.11929 10 5.5 10H7.5C7.77614 10 8 9.77614 8 9.5Z" fill="#3F465C"/>
</svg>
