<svg width="16" height="16" viewBox="0 0 16 16" fill="none" xmlns="http://www.w3.org/2000/svg">
<path fill-rule="evenodd" clip-rule="evenodd" d="M10.15 3.65C10.15 2.46259 11.1126 1.5 12.3 1.5C13.4875 1.5 14.45 2.46259 14.45 3.65C14.45 4.66526 13.7463 5.51617 12.8001 5.74155V11.8347C12.8001 13.3031 11.6178 14.5 10.1514 14.5C8.685 14.5 7.5028 13.3031 7.5028 11.8347V4.16807C7.5028 3.24316 6.75982 2.5 5.85144 2.5C4.94303 2.5 4.20005 3.24316 4.20005 4.16807V10.2252C5.14632 10.4506 5.85005 11.3015 5.85005 12.3167C5.85005 13.5042 4.88745 14.4667 3.70005 14.4667C2.51264 14.4667 1.55005 13.5042 1.55005 12.3167C1.55005 11.3015 2.25377 10.4506 3.20005 10.2252V4.16807C3.20005 2.69818 4.38347 1.5 5.85144 1.5C7.31938 1.5 8.5028 2.69818 8.5028 4.16807V11.8347C8.5028 12.7581 9.24454 13.5 10.1514 13.5C11.0583 13.5 11.8001 12.7581 11.8001 11.8347V5.74156C10.8538 5.51618 10.15 4.66526 10.15 3.65ZM12.3 2.5C11.6649 2.5 11.15 3.01488 11.15 3.65C11.15 4.28512 11.6649 4.8 12.3 4.8C12.9352 4.8 13.45 4.28512 13.45 3.65C13.45 3.01488 12.9352 2.5 12.3 2.5ZM3.70005 11.1667C3.06492 11.1667 2.55005 11.6816 2.55005 12.3167C2.55005 12.9519 3.06492 13.4667 3.70005 13.4667C4.33517 13.4667 4.85005 12.9519 4.85005 12.3167C4.85005 11.6816 4.33517 11.1667 3.70005 11.1667Z" fill="#3F465C"/>
</svg>
