<svg width="16" height="16" viewBox="0 0 16 16" fill="none" xmlns="http://www.w3.org/2000/svg">
<path fill-rule="evenodd" clip-rule="evenodd" d="M2.85355 2.14645C2.65829 1.95118 2.34171 1.95118 2.14645 2.14645C1.95118 2.34171 1.95118 2.65829 2.14645 2.85355L5.79289 6.5H3C2.72386 6.5 2.5 6.72386 2.5 7C2.5 7.27614 2.72386 7.5 3 7.5H7C7.27614 7.5 7.5 7.27614 7.5 7V3C7.5 2.72386 7.27614 2.5 7 2.5C6.72386 2.5 6.5 2.72386 6.5 3V5.79289L2.85355 2.14645ZM8.5 9C8.5 8.72386 8.72386 8.5 9 8.5H13C13.2761 8.5 13.5 8.72386 13.5 9C13.5 9.27614 13.2761 9.5 13 9.5H10.2071L13.8536 13.1464C14.0488 13.3417 14.0488 13.6583 13.8536 13.8536C13.6583 14.0488 13.3417 14.0488 13.1464 13.8536L9.5 10.2071V13C9.5 13.2761 9.27614 13.5 9 13.5C8.72386 13.5 8.5 13.2761 8.5 13V9Z" fill="#3F465C"/>
</svg>
