<svg width="16" height="16" viewBox="0 0 16 16" fill="none" xmlns="http://www.w3.org/2000/svg">
<path fill-rule="evenodd" clip-rule="evenodd" d="M10 1L3 1C2.44772 1 2 1.44772 2 2V14C2 14.5523 2.44772 15 3 15H13C13.5523 15 14 14.5523 14 14V4.5L10 1Z" fill="#5E79FF"/>
<path d="M10.4 4.5H14L10 1V4.1C10 4.32092 10.1791 4.5 10.4 4.5Z" fill="#B8C4FF"/>
<path d="M4.46907 6.75261C4.43438 6.62539 4.53016 6.5 4.66203 6.5H5.44711C5.53727 6.5 5.61628 6.56033 5.64004 6.6473L7.10213 12H5.8998L4.46907 6.75261Z" fill="white"/>
<path d="M8.4998 6.5H7.30228L5.8998 12H7.10213L8.4998 6.5Z" fill="white"/>
<path d="M7.30228 6.5H8.4998L9.9998 12H8.7998L7.30228 6.5Z" fill="white"/>
<path d="M11.3363 6.74934C11.3685 6.6229 11.273 6.5 11.1425 6.5H10.3553C10.2638 6.5 10.184 6.56204 10.1615 6.65066L8.7998 12H9.9998L11.3363 6.74934Z" fill="white"/>
</svg>
