<svg width="16" height="16" viewBox="0 0 16 16" fill="none" xmlns="http://www.w3.org/2000/svg">
<path fill-rule="evenodd" clip-rule="evenodd" d="M10 1L3 1C2.44772 1 2 1.44772 2 2V14C2 14.5523 2.44772 15 3 15H13C13.5523 15 14 14.5523 14 14V4.5L10 1Z" fill="#3FDE9C"/>
<path d="M10.4 4.5H14L10 1V4.1C10 4.32092 10.1791 4.5 10.4 4.5Z" fill="#B8FFE1"/>
<path fill-rule="evenodd" clip-rule="evenodd" d="M5.50039 8.6001C5.61085 8.6001 5.69949 8.68995 5.7089 8.80001C5.8099 9.98002 6.79688 10.9001 8.00039 10.9001C9.20391 10.9001 10.1909 9.98002 10.2919 8.80001C10.3013 8.68995 10.3899 8.6001 10.5004 8.6001H10.9004C11.0108 8.6001 11.1011 8.68991 11.0941 8.80015C10.9997 10.2895 9.85847 11.4873 8.40039 11.6746V12.3001C8.40039 12.4106 8.31085 12.5001 8.20039 12.5001H7.80039C7.68993 12.5001 7.60039 12.4106 7.60039 12.3001V11.6746C6.14232 11.4873 5.00111 10.2895 4.90671 8.80015C4.89972 8.68991 4.98993 8.6001 5.10039 8.6001H5.50039Z" fill="white"/>
<path d="M6.60059 6.9C6.60059 6.1268 7.22739 5.5 8.00059 5.5C8.77378 5.5 9.40059 6.1268 9.40059 6.9V8.6C9.40059 9.3732 8.77378 10 8.00059 10C7.22739 10 6.60059 9.3732 6.60059 8.6V6.9Z" fill="white"/>
</svg>
