<svg width="16" height="16" viewBox="0 0 16 16" fill="none" xmlns="http://www.w3.org/2000/svg">
<path fill-rule="evenodd" clip-rule="evenodd" d="M9.99978 1L13.9997 4.49991V4.5V14C13.9997 14.5523 13.552 15 12.9997 15H3C2.44771 15 2 14.5523 2 14V2C2 1.44772 2.44772 1 3 1L9.99978 1Z" fill="#458EF3"/>
<path d="M10.4 4.5H14L10 1V4.1C10 4.32092 10.1791 4.5 10.4 4.5Z" fill="#B8D5FF"/>
<path fill-rule="evenodd" clip-rule="evenodd" d="M5.64999 6.69998C5.64999 6.58952 5.73954 6.49998 5.84999 6.49998H8.54999C9.58195 6.49998 10.35 7.38158 10.35 8.35C10.35 9.31852 9.58129 10.1993 8.55043 10.2H6.84999L6.84999 11.9C6.84999 12.0105 6.76045 12.1 6.64999 12.1L5.85 12.1C5.73954 12.1 5.64999 12.0105 5.64999 11.9L5.64999 6.69998ZM6.84999 9L6.84999 7.69998H8.54999C8.85656 7.69998 9.14999 7.97989 9.14999 8.35C9.14999 8.71927 8.85662 8.99969 8.54969 9H6.84999Z" fill="white"/>
</svg>
