<svg width="16" height="16" viewBox="0 0 16 16" fill="none" xmlns="http://www.w3.org/2000/svg">
<path fill-rule="evenodd" clip-rule="evenodd" d="M10 1L3 1C2.44772 1 2 1.44772 2 2V14C2 14.5523 2.44772 15 3 15H13C13.5523 15 14 14.5523 14 14V4.5L10 1Z" fill="#6490FF"/>
<path fill-rule="evenodd" clip-rule="evenodd" d="M11 8.20001C11 8.31047 10.9105 8.40001 10.8 8.40001H5.2C5.08954 8.40001 5 8.31047 5 8.20001V7.40001C5 7.28956 5.08954 7.20001 5.2 7.20001H10.8C10.9105 7.20001 11 7.28956 11 7.40001V8.20001Z" fill="white"/>
<path fill-rule="evenodd" clip-rule="evenodd" d="M9.5 11C9.5 11.1105 9.41046 11.2 9.3 11.2H5.2C5.08954 11.2 5 11.1105 5 11V10.2C5 10.0895 5.08954 10 5.2 10H9.3C9.41046 10 9.5 10.0895 9.5 10.2V11Z" fill="white"/>
<path d="M10.4 4.5H14L10 1V4.1C10 4.32092 10.1791 4.5 10.4 4.5Z" fill="#B8CCFF"/>
</svg>
