<svg width="16" height="16" viewBox="0 0 16 16" fill="none" xmlns="http://www.w3.org/2000/svg">
<path fill-rule="evenodd" clip-rule="evenodd" d="M10 1L3 1C2.44772 1 2 1.44772 2 2V14C2 14.5523 2.44772 15 3 15H13C13.5523 15 14 14.5523 14 14V4.5L10 1Z" fill="#7569FF"/>
<path d="M10.4 4.5H14L10 1V4.1C10 4.32092 10.1791 4.5 10.4 4.5Z" fill="#BEB8FF"/>
<path d="M6.81094 6.20727C6.67803 6.11866 6.5 6.21394 6.5 6.37368L6.5 11.2263C6.5 11.386 6.67803 11.4813 6.81094 11.3927L10.4504 8.96639C10.5691 8.88722 10.5691 8.71273 10.4504 8.63357L6.81094 6.20727Z" fill="white"/>
</svg>
