<svg width="16" height="16" viewBox="0 0 16 16" fill="none" xmlns="http://www.w3.org/2000/svg">
<path fill-rule="evenodd" clip-rule="evenodd" d="M10 1L3 1C2.44772 1 2 1.44772 2 2V14C2 14.5523 2.44772 15 3 15H13C13.5523 15 14 14.5523 14 14V4.5L10 1Z" fill="#FE6C5E"/>
<path d="M10.4 4.5H14L10 1V4.1C10 4.32092 10.1791 4.5 10.4 4.5Z" fill="#FFBEB8"/>
<path fill-rule="evenodd" clip-rule="evenodd" d="M3.25 7.8001C3.25 7.68964 3.33954 7.6001 3.45 7.6001H5.15C5.82164 7.6001 6.4 8.17846 6.4 8.8501C6.4 9.52177 5.82121 10.0996 5.15029 10.1001L4.05 10.1001V11.1001C4.05 11.2106 3.96046 11.3001 3.85 11.3001H3.45C3.33954 11.3001 3.25 11.2106 3.25 11.1001V7.8001ZM4.05 9.3001L5.14971 9.3001C5.37973 9.29985 5.6 9.07938 5.6 8.8501C5.6 8.62028 5.37981 8.4001 5.15 8.4001H4.05V9.3001ZM6.85 7.8001C6.85 7.68964 6.93954 7.6001 7.05 7.6001H8.25C9.24411 7.6001 10.05 8.40598 10.05 9.4001V9.5701C10.05 10.5642 9.24411 11.3701 8.25 11.3701H7.05C6.93954 11.3701 6.85 11.2806 6.85 11.1701V7.8001ZM7.65 8.4001V10.5701H8.25C8.80228 10.5701 9.25 10.1224 9.25 9.5701V9.4001C9.25 8.84781 8.80228 8.4001 8.25 8.4001H7.65ZM10.5 7.8001C10.5 7.68964 10.5895 7.6001 10.7 7.6001H12.7C12.8105 7.6001 12.9 7.68964 12.9 7.8001V8.2001C12.9 8.31055 12.8105 8.4001 12.7 8.4001H11.3V9.07331H12.5C12.6105 9.07331 12.7 9.16286 12.7 9.27331V9.67331C12.7 9.78377 12.6105 9.87331 12.5 9.87331H11.3V11.1001C11.3 11.2106 11.2105 11.3001 11.1 11.3001H10.7C10.5895 11.3001 10.5 11.2106 10.5 11.1001V7.8001Z" fill="white"/>
</svg>
