<svg width="16" height="16" viewBox="0 0 16 16" fill="none" xmlns="http://www.w3.org/2000/svg">
<path fill-rule="evenodd" clip-rule="evenodd" d="M9.99978 1L13.9997 4.49991V4.5V14C13.9997 14.5523 13.552 15 12.9997 15H3C2.44771 15 2 14.5523 2 14V2C2 1.44772 2.44772 1 3 1L9.99978 1Z" fill="#458EF3"/>
<path d="M10.4 4.5H14L10 1V4.1C10 4.32092 10.1791 4.5 10.4 4.5Z" fill="#B8D5FF"/>
<path fill-rule="evenodd" clip-rule="evenodd" d="M5.65002 6.7C5.65002 6.58954 5.73957 6.5 5.85002 6.5H8.55002C9.58198 6.5 10.35 7.38161 10.35 8.35002C10.35 9.31854 9.58132 10.1993 8.55046 10.2H6.85002L6.85002 11.9C6.85002 12.0105 6.76048 12.1 6.65003 12.1L5.85003 12.1C5.73957 12.1 5.65002 12.0105 5.65002 11.9L5.65002 6.7ZM6.85002 9.00002L6.85002 7.7H8.55002C8.85659 7.7 9.15002 7.97992 9.15002 8.35002C9.15002 8.71929 8.85665 8.99972 8.54972 9.00002H6.85002Z" fill="white"/>
</svg>
