<svg width="16" height="16" viewBox="0 0 16 16" fill="none" xmlns="http://www.w3.org/2000/svg">
<path fill-rule="evenodd" clip-rule="evenodd" d="M13 14.9355H3C2.44772 14.9355 2 14.4878 2 13.9355V2C2 1.44771 2.44772 1 3 1H10L14 4.5V13.9355C14 14.4878 13.5523 14.9355 13 14.9355Z" fill="#00C4D6"/>
<path d="M10.4 4.5H14L10 1V4.1C10 4.32091 10.1791 4.5 10.4 4.5Z" fill="#B8F9FF"/>
<path d="M10.0986 12H8.9C8.83704 12 8.77776 11.9704 8.73999 11.92L7.00038 9.6V11.8C7.00038 11.9105 6.91084 12 6.80038 12H6C5.88954 12 5.79999 11.9104 5.8 11.8L5.80036 6.69999C5.80037 6.58953 5.88991 6.5 6.00036 6.5H6.80038C6.91084 6.5 7.00038 6.58954 7.00038 6.7V8.8L8.73993 6.57675C8.77784 6.52831 8.83593 6.5 8.89745 6.5H10.0844C10.1695 6.5 10.2157 6.59959 10.1607 6.66459L8.10038 9.1L10.1783 11.8396C10.2283 11.9054 10.1813 12 10.0986 12Z" fill="white"/>
</svg>
