<svg width="16" height="16" viewBox="0 0 16 16" fill="none" xmlns="http://www.w3.org/2000/svg">
<path fill-rule="evenodd" clip-rule="evenodd" d="M10 1L3 1C2.44772 1 2 1.44772 2 2V14C2 14.5523 2.44772 15 3 15H13C13.5523 15 14 14.5523 14 14V4.5L10 1Z" fill="#00CCAA"/>
<path d="M10.4 4.5H14L10 1V4.1C10 4.32092 10.1791 4.5 10.4 4.5Z" fill="#B8FFF3"/>
<path d="M5.66414 12C5.50632 12 5.41067 11.8258 5.49541 11.6926L8.74104 6.59262C8.77775 6.53493 8.84139 6.5 8.90977 6.5H9.93565C10.0935 6.5 10.1891 6.67423 10.1044 6.80738L6.85893 11.9074C6.82222 11.9651 6.75858 12 6.6902 12H5.66414Z" fill="white"/>
<path d="M10.2187 12C10.38 12 10.4749 11.819 10.3833 11.6863L6.85982 6.58632C6.82247 6.53227 6.76096 6.5 6.69527 6.5H5.68108C5.51983 6.5 5.42487 6.68103 5.51653 6.81369L9.04035 11.9137C9.07769 11.9677 9.1392 12 9.20489 12L10.2187 12Z" fill="white"/>
</svg>
